<?xml version="1.0" encoding="utf-8"?>
<!-- Generator: Adobe Illustrator 23.0.1, SVG Export Plug-In . SVG Version: 6.00 Build 0)  -->
<svg version="1.1" id="Capa_1" xmlns="http://www.w3.org/2000/svg" xmlns:xlink="http://www.w3.org/1999/xlink" x="0px" y="0px"
	 viewBox="0 0 200 200" style="enable-background:new 0 0 200 200;" xml:space="preserve">
<style type="text/css">
	.st0{fill:#39435B;}
</style>
<g transform="translate(0,-952.36218)">
	<path class="st0" d="M98.3,977.5L33,1021h130.6L98.3,977.5z M98.3,994.6c4.3,0,7.8,3.5,7.8,7.8c0,4.3-3.5,7.8-7.8,7.8
		s-7.8-3.5-7.8-7.8C90.5,998.1,94,994.6,98.3,994.6z M45.4,1024.1v62.2h12.4v-62.2H45.4z M76.5,1024.1v62.2h12.4v-62.2H76.5z
		 M107.6,1024.1v62.2H120v-62.2H107.6z M138.7,1024.1v62.2h12.4v-62.2H138.7z M36.1,1089.5v12.4h124.4v-12.4H36.1z M29.8,1105v12.4
		h136.9V1105H29.8z"/>
</g>
</svg>
