<?xml version="1.0" encoding="utf-8"?>
<!-- Generator: Adobe Illustrator 23.0.1, SVG Export Plug-In . SVG Version: 6.00 Build 0)  -->
<svg version="1.1" id="Capa_1" xmlns="http://www.w3.org/2000/svg" xmlns:xlink="http://www.w3.org/1999/xlink" x="0px" y="0px"
	 viewBox="0 0 200 200" style="enable-background:new 0 0 200 200;" xml:space="preserve">
<style type="text/css">
	.st0{fill:#FFFFFF;}
</style>
<g>
	<path class="st0" d="M168.8,117.3l-33.6,9.5v0.2c0.8,3.4,0.3,7-1.4,10c-1.9,3.2-4.8,5.6-8.3,6.6c-3.6,1-7.3,0.5-10.5-1.2
		l-19.4-10.7l1.9-3.2l19.4,10.9c2.4,1.4,5.1,1.7,7.8,0.8c2.5-0.7,4.8-2.4,6.1-4.8c0.7-1.2,1-2.5,1.2-3.9c0.5-3.4-1-6.8-4.1-8.5
		L80.6,96.5c0,0-4.9-3.2-11.6-1.4c0,0,0,0-0.2,0c-1.2,0.2-51.8,14.8-54,15.3h-0.2l10.2,36.2l33.8-9.7c3.4,2,29.2,18,32.5,19.9
		c5.8,3.2,12.9,1.5,14.4,1.2c0.2,0,69-19.5,69-19.5c4.8-1.4,8.7-7.6,6.8-14.1C180.2,119,174.4,115.7,168.8,117.3z"/>
	<circle class="st0" cx="116.8" cy="72.1" r="14.1"/>
	<circle class="st0" cx="141.4" cy="98.4" r="14.1"/>
	<circle class="st0" cx="149.1" cy="52.5" r="14.1"/>
</g>
</svg>
