<?xml version="1.0" encoding="utf-8"?>
<!-- Generator: Adobe Illustrator 23.0.1, SVG Export Plug-In . SVG Version: 6.00 Build 0)  -->
<svg version="1.1" id="Capa_1" xmlns="http://www.w3.org/2000/svg" xmlns:xlink="http://www.w3.org/1999/xlink" x="0px" y="0px"
	 viewBox="0 0 422 111" style="enable-background:new 0 0 422 111;" xml:space="preserve">
<style type="text/css">
	.st0{clip-path:url(#SVGID_2_);}
	.st1{clip-path:url(#SVGID_4_);fill:#ACACAD;}
	.st2{clip-path:url(#SVGID_6_);}
	.st3{clip-path:url(#SVGID_8_);fill:#ACACAD;}
	.st4{clip-path:url(#SVGID_10_);}
	.st5{clip-path:url(#SVGID_12_);fill:#ACACAD;}
	.st6{clip-path:url(#SVGID_14_);}
	.st7{clip-path:url(#SVGID_16_);fill:#ACACAD;}
	.st8{clip-path:url(#SVGID_18_);}
	.st9{clip-path:url(#SVGID_20_);fill:#ACACAD;}
	.st10{clip-path:url(#SVGID_22_);}
	.st11{clip-path:url(#SVGID_24_);fill:#ACACAD;}
	.st12{clip-path:url(#SVGID_26_);}
	.st13{clip-path:url(#SVGID_28_);fill:#ACACAD;}
	.st14{clip-path:url(#SVGID_30_);}
	.st15{clip-path:url(#SVGID_32_);fill:#ACACAD;}
	.st16{clip-path:url(#SVGID_34_);}
	.st17{clip-path:url(#SVGID_36_);fill:#ACACAD;}
	.st18{clip-path:url(#SVGID_38_);}
	.st19{clip-path:url(#SVGID_40_);fill:#ACACAD;}
	.st20{clip-path:url(#SVGID_42_);}
	.st21{clip-path:url(#SVGID_44_);fill:#ACACAD;}
	.st22{clip-path:url(#SVGID_46_);}
	.st23{clip-path:url(#SVGID_48_);fill:#ACACAD;}
	.st24{clip-path:url(#SVGID_50_);}
	.st25{clip-path:url(#SVGID_52_);fill:#ACACAD;}
	.st26{clip-path:url(#SVGID_54_);}
	.st27{clip-path:url(#SVGID_56_);fill:#ACACAD;}
	.st28{clip-path:url(#SVGID_58_);}
	.st29{clip-path:url(#SVGID_60_);fill:#ACACAD;}
	.st30{clip-path:url(#SVGID_62_);}
	.st31{clip-path:url(#SVGID_64_);fill:#ACACAD;}
	.st32{clip-path:url(#SVGID_66_);}
	.st33{clip-path:url(#SVGID_68_);fill:#ACACAD;}
	.st34{clip-path:url(#SVGID_70_);}
	.st35{clip-path:url(#SVGID_72_);fill:#ACACAD;}
</style>
<g>
	<defs>
		<path id="SVGID_1_" d="M11.6,56.23c0,11.34,4.1,21.71,10.89,29.74l-3.63,3.63C11.14,80.64,6.48,68.98,6.48,56.23
			c0-12.75,4.66-24.41,12.38-33.37l3.63,3.63C15.69,34.52,11.6,44.89,11.6,56.23z"/>
	</defs>
	<use xlink:href="#SVGID_1_"  style="overflow:visible;fill-rule:evenodd;clip-rule:evenodd;fill:#ACACAD;"/>
	<clipPath id="SVGID_2_">
		<use xlink:href="#SVGID_1_"  style="overflow:visible;"/>
	</clipPath>
	<g class="st0">
		<defs>
			<rect id="SVGID_3_" x="-11.87" y="-11.26" width="441.8" height="135.94"/>
		</defs>
		<use xlink:href="#SVGID_3_"  style="overflow:visible;fill:#ACACAD;"/>
		<clipPath id="SVGID_4_">
			<use xlink:href="#SVGID_3_"  style="overflow:visible;"/>
		</clipPath>
		<rect x="3.08" y="19.46" class="st1" width="22.8" height="73.54"/>
	</g>
</g>
<g>
	<defs>
		<path id="SVGID_5_" d="M57.65,10.17c11.34,0,21.71,4.1,29.74,10.89l3.63-3.63C82.06,9.72,70.4,5.06,57.65,5.06
			S33.24,9.72,24.28,17.43l3.63,3.63C35.94,14.27,46.32,10.17,57.65,10.17"/>
	</defs>
	<use xlink:href="#SVGID_5_"  style="overflow:visible;fill-rule:evenodd;clip-rule:evenodd;fill:#ACACAD;"/>
	<clipPath id="SVGID_6_">
		<use xlink:href="#SVGID_5_"  style="overflow:visible;"/>
	</clipPath>
	<g class="st2">
		<defs>
			<rect id="SVGID_7_" x="-11.87" y="-11.26" width="441.8" height="135.94"/>
		</defs>
		<use xlink:href="#SVGID_7_"  style="overflow:visible;fill:#ACACAD;"/>
		<clipPath id="SVGID_8_">
			<use xlink:href="#SVGID_7_"  style="overflow:visible;"/>
		</clipPath>
		<rect x="20.88" y="1.66" class="st3" width="73.54" height="22.8"/>
	</g>
</g>
<g>
	<defs>
		<path id="SVGID_9_" d="M103.71,56.23c0,11.34-4.1,21.71-10.89,29.74l3.63,3.63c7.71-8.96,12.38-20.62,12.38-33.37
			c0-12.75-4.66-24.41-12.38-33.37l-3.63,3.63C99.61,34.52,103.71,44.89,103.71,56.23"/>
	</defs>
	<use xlink:href="#SVGID_9_"  style="overflow:visible;fill-rule:evenodd;clip-rule:evenodd;fill:#ACACAD;"/>
	<clipPath id="SVGID_10_">
		<use xlink:href="#SVGID_9_"  style="overflow:visible;"/>
	</clipPath>
	<g class="st4">
		<defs>
			<rect id="SVGID_11_" x="-11.87" y="-11.26" width="441.8" height="135.94"/>
		</defs>
		<use xlink:href="#SVGID_11_"  style="overflow:visible;fill:#ACACAD;"/>
		<clipPath id="SVGID_12_">
			<use xlink:href="#SVGID_11_"  style="overflow:visible;"/>
		</clipPath>
		<rect x="89.42" y="19.46" class="st5" width="22.8" height="73.54"/>
	</g>
</g>
<g>
	<defs>
		<path id="SVGID_13_" d="M57.65,102.29c-11.34,0-21.71-4.1-29.74-10.89l-3.63,3.63c8.96,7.72,20.62,12.38,33.37,12.38
			s24.41-4.66,33.37-12.38l-3.63-3.63C79.37,98.19,68.99,102.29,57.65,102.29"/>
	</defs>
	<use xlink:href="#SVGID_13_"  style="overflow:visible;fill-rule:evenodd;clip-rule:evenodd;fill:#ACACAD;"/>
	<clipPath id="SVGID_14_">
		<use xlink:href="#SVGID_13_"  style="overflow:visible;"/>
	</clipPath>
	<g class="st6">
		<defs>
			<rect id="SVGID_15_" x="-11.87" y="-11.26" width="441.8" height="135.94"/>
		</defs>
		<use xlink:href="#SVGID_15_"  style="overflow:visible;fill:#ACACAD;"/>
		<clipPath id="SVGID_16_">
			<use xlink:href="#SVGID_15_"  style="overflow:visible;"/>
		</clipPath>
		<rect x="20.88" y="88" class="st7" width="73.54" height="22.8"/>
	</g>
</g>
<g>
	<defs>
		<path id="SVGID_17_" d="M80.07,25.08l-2.57,4.45c8.14,6.06,13.42,15.76,13.42,26.7c0,10.93-5.27,20.63-13.42,26.7l2.57,4.45
			c9.67-6.97,15.97-18.32,15.97-31.15C96.03,43.4,89.74,32.05,80.07,25.08"/>
	</defs>
	<use xlink:href="#SVGID_17_"  style="overflow:visible;fill-rule:evenodd;clip-rule:evenodd;fill:#ACACAD;"/>
	<clipPath id="SVGID_18_">
		<use xlink:href="#SVGID_17_"  style="overflow:visible;"/>
	</clipPath>
	<g class="st8">
		<defs>
			<rect id="SVGID_19_" x="-11.87" y="-11.26" width="441.8" height="135.94"/>
		</defs>
		<use xlink:href="#SVGID_19_"  style="overflow:visible;fill:#ACACAD;"/>
		<clipPath id="SVGID_20_">
			<use xlink:href="#SVGID_19_"  style="overflow:visible;"/>
		</clipPath>
		<rect x="74.1" y="21.69" class="st9" width="25.33" height="69.09"/>
	</g>
</g>
<g>
	<defs>
		<path id="SVGID_21_" d="M57.65,89.49c-17.07,0-31.13-12.86-33.04-29.43h-5.15c1.93,19.39,18.29,34.54,38.19,34.54
			c5.62,0,10.96-1.22,15.77-3.39l-2.57-4.45C66.8,88.52,62.34,89.49,57.65,89.49"/>
	</defs>
	<use xlink:href="#SVGID_21_"  style="overflow:visible;fill-rule:evenodd;clip-rule:evenodd;fill:#ACACAD;"/>
	<clipPath id="SVGID_22_">
		<use xlink:href="#SVGID_21_"  style="overflow:visible;"/>
	</clipPath>
	<g class="st10">
		<defs>
			<rect id="SVGID_23_" x="-11.87" y="-11.26" width="441.8" height="135.94"/>
		</defs>
		<use xlink:href="#SVGID_23_"  style="overflow:visible;fill:#ACACAD;"/>
		<clipPath id="SVGID_24_">
			<use xlink:href="#SVGID_23_"  style="overflow:visible;"/>
		</clipPath>
		<rect x="16.07" y="56.67" class="st11" width="60.76" height="41.34"/>
	</g>
</g>
<g>
	<defs>
		<path id="SVGID_25_" d="M57.65,22.97c4.69,0,9.15,0.98,13.2,2.73l2.57-4.45c-4.81-2.17-10.15-3.39-15.77-3.39
			c-19.9,0-36.26,15.15-38.19,34.54h5.15C26.52,35.83,40.58,22.97,57.65,22.97"/>
	</defs>
	<use xlink:href="#SVGID_25_"  style="overflow:visible;fill-rule:evenodd;clip-rule:evenodd;fill:#ACACAD;"/>
	<clipPath id="SVGID_26_">
		<use xlink:href="#SVGID_25_"  style="overflow:visible;"/>
	</clipPath>
	<g class="st12">
		<defs>
			<rect id="SVGID_27_" x="-11.87" y="-11.26" width="441.8" height="135.94"/>
		</defs>
		<use xlink:href="#SVGID_27_"  style="overflow:visible;fill:#ACACAD;"/>
		<clipPath id="SVGID_28_">
			<use xlink:href="#SVGID_27_"  style="overflow:visible;"/>
		</clipPath>
		<rect x="16.07" y="14.45" class="st13" width="60.76" height="41.34"/>
	</g>
</g>
<g>
	<defs>
		<path id="SVGID_29_" d="M37.32,58.55c-1.13-9.93,5.04-19,14.25-21.86l-0.59-5.16c-12.02,3.24-20.2,14.86-18.74,27.6
			c1.45,12.74,12.03,22.23,24.47,22.67l-0.59-5.16C46.51,75.93,38.45,68.48,37.32,58.55"/>
	</defs>
	<use xlink:href="#SVGID_29_"  style="overflow:visible;fill-rule:evenodd;clip-rule:evenodd;fill:#ACACAD;"/>
	<clipPath id="SVGID_30_">
		<use xlink:href="#SVGID_29_"  style="overflow:visible;"/>
	</clipPath>
	<g class="st14">
		<defs>
			<rect id="SVGID_31_" x="-11.87" y="-11.26" width="441.8" height="135.94"/>
		</defs>
		<use xlink:href="#SVGID_31_"  style="overflow:visible;fill:#ACACAD;"/>
		<clipPath id="SVGID_32_">
			<use xlink:href="#SVGID_31_"  style="overflow:visible;"/>
		</clipPath>
		<rect x="28.67" y="28.13" class="st15" width="31.44" height="57.07"/>
	</g>
</g>
<g>
	<defs>
		<path id="SVGID_33_" d="M59.19,35.82c9.61,0.71,17.67,8.16,18.8,18.09c1.13,9.93-5.04,19-14.25,21.86l0.59,5.16
			c12.02-3.23,20.2-14.86,18.74-27.6C81.62,40.59,71.04,31.1,58.6,30.66L59.19,35.82z"/>
	</defs>
	<use xlink:href="#SVGID_33_"  style="overflow:visible;fill-rule:evenodd;clip-rule:evenodd;fill:#ACACAD;"/>
	<clipPath id="SVGID_34_">
		<use xlink:href="#SVGID_33_"  style="overflow:visible;"/>
	</clipPath>
	<g class="st16">
		<defs>
			<rect id="SVGID_35_" x="-11.87" y="-11.26" width="441.8" height="135.94"/>
		</defs>
		<use xlink:href="#SVGID_35_"  style="overflow:visible;fill:#ACACAD;"/>
		<clipPath id="SVGID_36_">
			<use xlink:href="#SVGID_35_"  style="overflow:visible;"/>
		</clipPath>
		<rect x="55.2" y="27.26" class="st17" width="31.44" height="57.07"/>
	</g>
</g>
<g>
	<defs>
		<rect id="SVGID_37_" x="406" y="34.43" width="4.98" height="43.41"/>
	</defs>
	<use xlink:href="#SVGID_37_"  style="overflow:visible;fill-rule:evenodd;clip-rule:evenodd;fill:#ACACAD;"/>
	<clipPath id="SVGID_38_">
		<use xlink:href="#SVGID_37_"  style="overflow:visible;"/>
	</clipPath>
	<g class="st18">
		<defs>
			<rect id="SVGID_39_" x="-11.87" y="-11.26" width="441.8" height="135.94"/>
		</defs>
		<use xlink:href="#SVGID_39_"  style="overflow:visible;fill:#ACACAD;"/>
		<clipPath id="SVGID_40_">
			<use xlink:href="#SVGID_39_"  style="overflow:visible;"/>
		</clipPath>
		<rect x="402.6" y="31.03" class="st19" width="11.78" height="50.21"/>
	</g>
</g>
<g>
	<defs>
		<path id="SVGID_41_" d="M399.8,72.07c-4,4.46-8.22,6.45-13.42,6.45c-10.57,0-16.22-7.65-16.22-15.59
			c0-8.45,6.05-15.53,15.37-15.53c9.19,0,15.59,7.03,15.59,17.54h-25.47c0.8,5.08,4.91,8.8,10.68,8.8c3.65,0,6.91-1.71,9.54-4.8
			L399.8,72.07z M395.29,60.7c-0.51-4.91-4.51-8.51-9.82-8.51c-6.28,0-9.31,4.46-9.82,8.51H395.29z"/>
	</defs>
	<use xlink:href="#SVGID_41_"  style="overflow:visible;fill-rule:evenodd;clip-rule:evenodd;fill:#ACACAD;"/>
	<clipPath id="SVGID_42_">
		<use xlink:href="#SVGID_41_"  style="overflow:visible;"/>
	</clipPath>
	<g class="st20">
		<defs>
			<rect id="SVGID_43_" x="-11.87" y="-11.26" width="441.8" height="135.94"/>
		</defs>
		<use xlink:href="#SVGID_43_"  style="overflow:visible;fill:#ACACAD;"/>
		<clipPath id="SVGID_44_">
			<use xlink:href="#SVGID_43_"  style="overflow:visible;"/>
		</clipPath>
		<rect x="366.76" y="44" class="st21" width="37.75" height="37.93"/>
	</g>
</g>
<g>
	<defs>
		<path id="SVGID_45_" d="M363.82,72.07c-4,4.46-8.23,6.45-13.42,6.45c-10.57,0-16.22-7.65-16.22-15.59
			c0-8.45,6.05-15.53,15.37-15.53c9.2,0,15.59,7.03,15.59,17.54h-25.47c0.8,5.08,4.91,8.8,10.68,8.8c3.65,0,6.91-1.71,9.54-4.8
			L363.82,72.07z M359.31,60.7c-0.52-4.91-4.51-8.51-9.82-8.51c-6.28,0-9.31,4.46-9.82,8.51H359.31z"/>
	</defs>
	<use xlink:href="#SVGID_45_"  style="overflow:visible;fill-rule:evenodd;clip-rule:evenodd;fill:#ACACAD;"/>
	<clipPath id="SVGID_46_">
		<use xlink:href="#SVGID_45_"  style="overflow:visible;"/>
	</clipPath>
	<g class="st22">
		<defs>
			<rect id="SVGID_47_" x="-11.87" y="-11.26" width="441.8" height="135.94"/>
		</defs>
		<use xlink:href="#SVGID_47_"  style="overflow:visible;fill:#ACACAD;"/>
		<clipPath id="SVGID_48_">
			<use xlink:href="#SVGID_47_"  style="overflow:visible;"/>
		</clipPath>
		<rect x="330.78" y="44" class="st23" width="37.75" height="37.93"/>
	</g>
</g>
<g>
	<defs>
		<path id="SVGID_49_" d="M323.83,60.53c0-4.46-1.83-8.34-6.91-8.34c-4.8,0-7.71,3.26-7.71,8.91v16.74h-5.14V34.43h5.14v17.14h0.11
			c1.54-2.69,4.86-4.17,8.17-4.17c5.77,0,11.48,3.14,11.48,11.2v19.25h-5.14V60.53z"/>
	</defs>
	<use xlink:href="#SVGID_49_"  style="overflow:visible;fill-rule:evenodd;clip-rule:evenodd;fill:#ACACAD;"/>
	<clipPath id="SVGID_50_">
		<use xlink:href="#SVGID_49_"  style="overflow:visible;"/>
	</clipPath>
	<g class="st24">
		<defs>
			<rect id="SVGID_51_" x="-11.87" y="-11.26" width="441.8" height="135.94"/>
		</defs>
		<use xlink:href="#SVGID_51_"  style="overflow:visible;fill:#ACACAD;"/>
		<clipPath id="SVGID_52_">
			<use xlink:href="#SVGID_51_"  style="overflow:visible;"/>
		</clipPath>
		<rect x="300.67" y="31.03" class="st25" width="31.7" height="50.21"/>
	</g>
</g>
<g>
	<defs>
		<polygon id="SVGID_53_" points="293.56,48.08 299.05,48.08 288.08,77.84 283.86,77.84 275.86,54.59 275.75,54.59 267.75,77.84 
			263.52,77.84 252.55,48.08 258.04,48.08 265.52,69.61 265.63,69.61 273.06,48.08 278.54,48.08 285.97,69.61 286.08,69.61 		"/>
	</defs>
	<use xlink:href="#SVGID_53_"  style="overflow:visible;fill-rule:evenodd;clip-rule:evenodd;fill:#ACACAD;"/>
	<clipPath id="SVGID_54_">
		<use xlink:href="#SVGID_53_"  style="overflow:visible;"/>
	</clipPath>
	<g class="st26">
		<defs>
			<rect id="SVGID_55_" x="-11.87" y="-11.26" width="441.8" height="135.94"/>
		</defs>
		<use xlink:href="#SVGID_55_"  style="overflow:visible;fill:#ACACAD;"/>
		<clipPath id="SVGID_56_">
			<use xlink:href="#SVGID_55_"  style="overflow:visible;"/>
		</clipPath>
		<rect x="249.16" y="44.68" class="st27" width="53.29" height="36.56"/>
	</g>
</g>
<g>
	<defs>
		<path id="SVGID_57_" d="M247.08,77.84h-5.01v-4.25h-0.13c-2.57,3.26-6.01,4.88-10.15,4.88c-8.65,0-14.1-7.33-14.1-15.48
			c0-8.4,5.33-15.6,14.16-15.6c4.01,0,7.64,1.88,10.09,5.01h0.13v-4.32h5.01V77.84z M222.83,62.62c0,5.76,3.38,11.21,9.65,11.21
			c6.45,0,9.84-5.2,9.84-11.15c0-5.89-3.7-10.65-9.9-10.65C226.59,52.03,222.83,57.1,222.83,62.62z"/>
	</defs>
	<use xlink:href="#SVGID_57_"  style="overflow:visible;fill-rule:evenodd;clip-rule:evenodd;fill:#ACACAD;"/>
	<clipPath id="SVGID_58_">
		<use xlink:href="#SVGID_57_"  style="overflow:visible;"/>
	</clipPath>
	<g class="st28">
		<defs>
			<rect id="SVGID_59_" x="-11.87" y="-11.26" width="441.8" height="135.94"/>
		</defs>
		<use xlink:href="#SVGID_59_"  style="overflow:visible;fill:#ACACAD;"/>
		<clipPath id="SVGID_60_">
			<use xlink:href="#SVGID_59_"  style="overflow:visible;"/>
		</clipPath>
		<rect x="214.29" y="43.99" class="st29" width="36.19" height="37.88"/>
	</g>
</g>
<g>
	<defs>
		<polygon id="SVGID_61_" points="208.28,77.84 203.3,77.84 203.3,52.69 198.06,52.69 198.06,48.08 203.3,48.08 203.3,34.43 
			208.28,34.43 208.28,48.08 213.52,48.08 213.52,52.69 208.28,52.69 		"/>
	</defs>
	<use xlink:href="#SVGID_61_"  style="overflow:visible;fill-rule:evenodd;clip-rule:evenodd;fill:#ACACAD;"/>
	<clipPath id="SVGID_62_">
		<use xlink:href="#SVGID_61_"  style="overflow:visible;"/>
	</clipPath>
	<g class="st30">
		<defs>
			<rect id="SVGID_63_" x="-11.87" y="-11.26" width="441.8" height="135.94"/>
		</defs>
		<use xlink:href="#SVGID_63_"  style="overflow:visible;fill:#ACACAD;"/>
		<clipPath id="SVGID_64_">
			<use xlink:href="#SVGID_63_"  style="overflow:visible;"/>
		</clipPath>
		<rect x="194.66" y="31.03" class="st31" width="22.25" height="50.21"/>
	</g>
</g>
<g>
	<defs>
		<path id="SVGID_65_" d="M192.4,77.84h-5.01v-4.25h-0.13c-2.57,3.26-6.02,4.88-10.15,4.88c-8.65,0-14.1-7.33-14.1-15.48
			c0-8.4,5.33-15.6,14.16-15.6c4.01,0,7.64,1.88,10.09,5.01h0.13v-4.32h5.01V77.84z M168.15,62.62c0,5.76,3.38,11.21,9.65,11.21
			c6.46,0,9.84-5.2,9.84-11.15c0-5.89-3.7-10.65-9.9-10.65C171.91,52.03,168.15,57.1,168.15,62.62z"/>
	</defs>
	<use xlink:href="#SVGID_65_"  style="overflow:visible;fill-rule:evenodd;clip-rule:evenodd;fill:#ACACAD;"/>
	<clipPath id="SVGID_66_">
		<use xlink:href="#SVGID_65_"  style="overflow:visible;"/>
	</clipPath>
	<g class="st32">
		<defs>
			<rect id="SVGID_67_" x="-11.87" y="-11.26" width="441.8" height="135.94"/>
		</defs>
		<use xlink:href="#SVGID_67_"  style="overflow:visible;fill:#ACACAD;"/>
		<clipPath id="SVGID_68_">
			<use xlink:href="#SVGID_67_"  style="overflow:visible;"/>
		</clipPath>
		<rect x="159.62" y="43.99" class="st33" width="36.19" height="37.88"/>
	</g>
</g>
<g>
	<defs>
		<path id="SVGID_69_" d="M124.44,34.43h14.28c10.62,0,20.85,9.08,20.85,21.53c0,12.39-9.88,21.88-22.22,21.88h-12.91V34.43z
			 M137.29,72.7c9.71,0,16.45-7.42,16.45-17.02c0-9.25-7.42-16.11-16.91-16.11h-6.91V72.7H137.29z"/>
	</defs>
	<use xlink:href="#SVGID_69_"  style="overflow:visible;fill-rule:evenodd;clip-rule:evenodd;fill:#ACACAD;"/>
	<clipPath id="SVGID_70_">
		<use xlink:href="#SVGID_69_"  style="overflow:visible;"/>
	</clipPath>
	<g class="st34">
		<defs>
			<rect id="SVGID_71_" x="-11.87" y="-11.26" width="441.8" height="135.94"/>
		</defs>
		<use xlink:href="#SVGID_71_"  style="overflow:visible;fill:#ACACAD;"/>
		<clipPath id="SVGID_72_">
			<use xlink:href="#SVGID_71_"  style="overflow:visible;"/>
		</clipPath>
		<rect x="121.04" y="31.03" class="st35" width="41.93" height="50.21"/>
	</g>
</g>
</svg>
