<svg width="298" height="76" viewBox="0 0 298 76" xmlns="http://www.w3.org/2000/svg"><g fill="none"><path d="M293.902 53.54v-31.933h3.666v31.933h-3.666zm-7.883-12.605c-.377-3.614-3.32-6.261-7.226-6.261-4.621 0-6.849 3.278-7.226 6.261h14.452zm3.32 8.36c-2.94 3.278-6.05 4.748-9.872 4.748-7.774 0-11.934-5.63-11.934-11.471 0-6.217 4.454-11.428 11.303-11.428 6.764 0 11.471 5.168 11.471 12.899h-18.739c.587 3.739 3.612 6.471 7.857 6.471 2.688 0 5.083-1.261 7.017-3.53l2.897 2.31zm-29.785-8.36c-.379-3.614-3.32-6.261-7.226-6.261-4.623 0-6.85 3.278-7.227 6.261h14.454zm3.32 8.36c-2.94 3.278-6.052 4.748-9.874 4.748-7.773 0-11.934-5.63-11.934-11.471 0-6.217 4.454-11.428 11.303-11.428 6.766 0 11.471 5.168 11.471 12.899h-18.739c.589 3.739 3.613 6.471 7.858 6.471 2.689 0 5.083-1.261 7.016-3.53l2.899 2.31zm-29.42-8.487c0-3.277-1.344-6.135-5.085-6.135-3.529 0-5.671 2.395-5.671 6.555v12.312h-3.782v-31.933h3.782v12.606h.083c1.135-1.976 3.572-3.069 6.009-3.069 4.243 0 8.446 2.311 8.446 8.235v14.16h-3.782v-12.732zm-22.265-9.16h4.034l-8.067 21.891h-3.108l-5.882-17.101h-.084l-5.883 17.101h-3.108l-8.067-21.891h4.033l5.503 15.841h.086l5.463-15.841h4.033l5.462 15.841h.084l5.503-15.841zm-52.035 10.694c0 4.241 2.489 8.25 7.099 8.25 4.748 0 7.238-3.826 7.238-8.205 0-4.332-2.72-7.837-7.282-7.837-4.288 0-7.054 3.736-7.054 7.791zm17.84 11.197h-3.686v-3.13h-.094c-1.892 2.397-4.424 3.593-7.469 3.593-6.362 0-10.371-5.392-10.371-11.385 0-6.177 3.918-11.479 10.418-11.479 2.952 0 5.623 1.382 7.422 3.687h.094v-3.179h3.686v21.892zm-28.542 0h-3.666v-18.499h-3.851v-3.392h3.851v-10.042h3.666v10.042h3.851v3.392h-3.851v18.499zm-29.52-11.197c0 4.241 2.489 8.25 7.099 8.25 4.749 0 7.239-3.826 7.239-8.205 0-4.332-2.721-7.837-7.283-7.837-4.289 0-7.054 3.736-7.054 7.791zm17.841 11.197h-3.688v-3.13h-.093c-1.892 2.397-4.425 3.593-7.469 3.593-6.362 0-10.371-5.392-10.371-11.385 0-6.177 3.918-11.479 10.418-11.479 2.953 0 5.623 1.382 7.422 3.687h.093v-3.179h3.688v21.892zm-40.543-3.782c7.144 0 12.099-5.462 12.099-12.521 0-6.807-5.462-11.849-12.436-11.849h-5.083v24.37h5.42zm-9.454-28.151h10.505c7.814 0 15.337 6.681 15.337 15.84 0 9.118-7.27 16.093-16.346 16.093h-9.496v-31.933z" fill="#E9E9E9"/><path d="M3.765 37.645c0 8.34 3.014 15.973 8.011 21.877l-2.67 2.671c-5.674-6.591-9.106-15.168-9.106-24.547 0-9.379 3.432-17.956 9.106-24.548l2.67 2.671c-4.997 5.904-8.011 13.537-8.011 21.877zm33.881-33.881c-8.34 0-15.974 3.015-21.876 8.011l-2.672-2.671c6.592-5.675 15.169-9.105 24.548-9.105 9.379 0 17.956 3.431 24.548 9.105l-2.671 2.671c-5.904-4.996-13.537-8.011-21.877-8.011zm33.881 33.881c0-8.34-3.014-15.973-8.011-21.877l2.671-2.671c5.674 6.591 9.105 15.169 9.105 24.548 0 9.38-3.431 17.956-9.105 24.547l-2.671-2.671c4.997-5.904 8.011-13.536 8.011-21.877zm-33.881 33.88c8.34 0 15.974-3.014 21.877-8.011l2.671 2.669c-6.592 5.676-15.169 9.107-24.548 9.107-9.379 0-17.956-3.431-24.548-9.107l2.672-2.669c5.902 4.997 13.536 8.011 21.876 8.011zm16.488-56.792c7.112 5.126 11.745 13.475 11.745 22.912 0 9.436-4.633 17.785-11.745 22.912l-1.891-3.274c5.991-4.459 9.871-11.596 9.871-19.638 0-8.043-3.88-15.178-9.871-19.639l1.891-3.274zm-16.488 47.382c3.45 0 6.731-.718 9.709-2.008l1.891 3.277c-3.54 1.597-7.464 2.494-11.6 2.494-14.64 0-26.676-11.144-28.093-25.41h3.79c1.401 12.183 11.744 21.647 24.303 21.647zm0-48.939c-12.558 0-22.901 9.463-24.303 21.645h-3.79c1.417-14.267 13.453-25.41 28.093-25.41 4.136 0 8.06.897 11.6 2.495l-1.891 3.275c-2.978-1.288-6.259-2.006-9.709-2.006zm-14.961 26.176c.833 7.303 6.761 12.784 13.832 13.308l.433 3.796c-9.152-.327-16.936-7.302-18.005-16.677-1.07-9.375 4.943-17.925 13.787-20.305l.432 3.797c-6.771 2.103-11.312 8.777-10.479 16.081zm16.09-16.721l-.433-3.797c9.152.327 16.936 7.303 18.005 16.678 1.069 9.375-4.944 17.924-13.788 20.303l-.432-3.795c6.773-2.104 11.313-8.779 10.48-16.081-.833-7.304-6.76-12.785-13.832-13.308z" fill="#FFCD33"/></g></svg>