<svg width="41" height="41" viewBox="0 0 41 41" fill="none" xmlns="http://www.w3.org/2000/svg">
<path d="M20.4998 11.9583V5.125H3.4165V35.875H37.5832V11.9583H20.4998ZM10.2498 32.4583H6.83317V29.0417H10.2498V32.4583ZM10.2498 25.625H6.83317V22.2083H10.2498V25.625ZM10.2498 18.7917H6.83317V15.375H10.2498V18.7917ZM10.2498 11.9583H6.83317V8.54167H10.2498V11.9583ZM17.0832 32.4583H13.6665V29.0417H17.0832V32.4583ZM17.0832 25.625H13.6665V22.2083H17.0832V25.625ZM17.0832 18.7917H13.6665V15.375H17.0832V18.7917ZM17.0832 11.9583H13.6665V8.54167H17.0832V11.9583ZM34.1665 32.4583H20.4998V29.0417H23.9165V25.625H20.4998V22.2083H23.9165V18.7917H20.4998V15.375H34.1665V32.4583ZM30.7498 18.7917H27.3332V22.2083H30.7498V18.7917ZM30.7498 25.625H27.3332V29.0417H30.7498V25.625Z" fill="#9F2241"/>
</svg>
