<svg width="41" height="41" viewBox="0 0 41 41" fill="none" xmlns="http://www.w3.org/2000/svg">
<path d="M20.5003 11.9583V5.125H3.41699V35.875H37.5837V11.9583H20.5003ZM10.2503 32.4583H6.83366V29.0417H10.2503V32.4583ZM10.2503 25.625H6.83366V22.2083H10.2503V25.625ZM10.2503 18.7917H6.83366V15.375H10.2503V18.7917ZM10.2503 11.9583H6.83366V8.54167H10.2503V11.9583ZM17.0837 32.4583H13.667V29.0417H17.0837V32.4583ZM17.0837 25.625H13.667V22.2083H17.0837V25.625ZM17.0837 18.7917H13.667V15.375H17.0837V18.7917ZM17.0837 11.9583H13.667V8.54167H17.0837V11.9583ZM34.167 32.4583H20.5003V29.0417H23.917V25.625H20.5003V22.2083H23.917V18.7917H20.5003V15.375H34.167V32.4583ZM30.7503 18.7917H27.3337V22.2083H30.7503V18.7917ZM30.7503 25.625H27.3337V29.0417H30.7503V25.625Z" fill="#5F5D5D"/>
</svg>
