<?xml version="1.0" encoding="utf-8"?>
<!-- Generator: Adobe Illustrator 23.0.1, SVG Export Plug-In . SVG Version: 6.00 Build 0)  -->
<svg version="1.1" id="Capa_1" xmlns="http://www.w3.org/2000/svg" xmlns:xlink="http://www.w3.org/1999/xlink" x="0px" y="0px"
	 viewBox="0 0 200 200" style="enable-background:new 0 0 200 200;" xml:space="preserve">
<style type="text/css">
	.st0{fill:#73AF00;}
	.st1{fill:#F5F5F5;}
	.st2{fill:#FF4B55;}
	.st3{fill:#FFD250;}
	.st4{fill:#00C3A0;}
	.st5{fill:#00AADC;}
	.st6{fill:#732D37;}
	.st7{fill:#AAD264;}
	.st8{fill:#874150;}
	.st9{fill:#783C46;}
	.st10{fill:#FFE15A;}
	.st11{fill:#FFB478;}
	.st12{fill:#9B4B5A;}
</style>
<g>
	<path class="st0" d="M23.1,59.8v79.4c0,6.5,5.3,11.8,11.8,11.8h40.8V48H34.9C28.4,48,23.1,53.3,23.1,59.8z"/>
	<rect x="75.4" y="48" class="st1" width="52.6" height="103"/>
	<path class="st2" d="M168.7,48h-40.8v103h40.8c6.5,0,11.8-5.3,11.8-11.8V59.8C180.5,53.3,175.2,48,168.7,48z"/>
	<polygon class="st3" points="106.5,102 101.8,104.4 101.8,106.7 104.1,106.7 	"/>
	<g>
		<path class="st4" d="M100.6,111.4v-4.9c0-0.5,0.3-1,0.8-1.2c0.9-0.3,1.6,0.4,1.6,1.2v4.9c0,0.8-0.8,1.4-1.6,1.2
			C100.9,112.4,100.6,111.9,100.6,111.4z"/>
		<path class="st4" d="M101.8,107.8c-4.6,0-9-1.8-12.5-5c-0.5-0.4-0.5-1.2-0.1-1.7c0.4-0.5,1.2-0.5,1.7-0.1c3,2.8,6.9,4.4,10.9,4.4
			s7.9-1.6,10.9-4.4c0.5-0.4,1.2-0.4,1.7,0.1c0.4,0.5,0.4,1.2-0.1,1.7C110.8,106,106.3,107.8,101.8,107.8z"/>
	</g>
	<path class="st5" d="M101.8,112.5c-3,0-5.9-0.9-8.4-2.5l1.3-1.9c4.2,2.8,10,2.8,14.2,0l1.3,1.9
		C107.7,111.6,104.8,112.5,101.8,112.5z"/>
	<polygon class="st6" points="99.9,96.7 97.3,100.7 96.9,102 103.6,100.4 	"/>
	<path class="st7" d="M94.6,103.3c-3.1,0-6.8-2.6-7.8-8.4l2.3-0.4c0.8,4.8,3.8,6.5,5.6,6.5c0.5,0,1.1-0.2,1.2-0.6
		c0.1-0.5,0.1-0.6-1.2-1c-0.7-0.2-1.4-0.5-1.9-1.1c-2.1-2.4,0.8-5,2.1-6.3c0.2-0.2,0.3-0.4,0.3-0.5c-0.1-0.2-0.5-0.5-1.1-0.5
		c-1.5,0-2.6-0.8-2.9-2.2c-0.3-1.4,0.3-2.9,1.5-3.5l1.1,2.1c-0.3,0.1-0.4,0.6-0.3,0.9c0,0.1,0.1,0.4,0.7,0.4c1.4,0,2.8,0.8,3.2,2
		c0.2,0.5,0.5,1.8-0.9,3.1c-1.5,1.4-2.5,2.4-1.9,3c0.1,0.1,0.6,0.3,0.9,0.4c1.1,0.4,3,1,2.7,3.5c-0.2,1.5-1.6,2.6-3.4,2.7
		C94.7,103.3,94.6,103.3,94.6,103.3z"/>
	<path class="st8" d="M103.9,90.2c0,0,2.3-4.7-2.3-7c0,0,16.4-2.3,14,18.7l0,0c-1.5-1.2-3.8-3.5-4.6-5.3l-7.1-4.1V90.2L103.9,90.2z"
		/>
	<path class="st6" d="M101.8,94.9l11.7,7c0,0,0,0-4.7,2.3l-7-7V94.9z"/>
	<path class="st9" d="M97.2,87.9L97.2,87.9c1.3,0,2.3,1,2.3,2.3l0,0c-1.3,1.5-1.6,3.7-0.7,5.5l0.4,0.8c0.2,0.4,0.5,0.8,0.8,1.2
		l6.4,6.5V101c0-4-0.9-8-2.7-11.6l0,0c-1.2-2.4-3.6-3.9-6.2-3.9h-0.3L97.2,87.9L97.2,87.9z"/>
	<path class="st3" d="M97.1,85.6l-2.3,2.3v2.3c0,0,2.8-1.4,3.7-1.9c0.7-0.3,0.5-1.1,0.2-1.4C98.3,86.7,97.1,85.6,97.1,85.6z"/>
	<path class="st7" d="M101.8,117.1c-11,0-19.9-8.9-19.9-19.9h2.3c0,9.7,7.9,17.5,17.5,17.5s17.5-7.9,17.5-17.5h2.3
		C121.6,108.2,112.7,117.1,101.8,117.1z"/>
	<g>
		<circle class="st10" cx="84.3" cy="104.2" r="1.6"/>
		<circle class="st10" cx="87.8" cy="109.8" r="1.6"/>
		<circle class="st10" cx="93.5" cy="114" r="1.6"/>
		<circle class="st10" cx="119.3" cy="104.2" r="1.6"/>
		<circle class="st10" cx="115.8" cy="109.8" r="1.6"/>
		<circle class="st10" cx="110.1" cy="114" r="1.6"/>
	</g>
	<path class="st11" d="M102.9,113.5h-2.3c-1.3,0-2.3-1-2.3-2.3l0,0c0-1.3,1-2.3,2.3-2.3h2.3c1.3,0,2.3,1,2.3,2.3l0,0
		C105.2,112.5,104.2,113.5,102.9,113.5z"/>
	<path class="st12" d="M111.2,96.7c0.8,2.3,2.4,4.4,4.6,5.3l0,0c2.3-21.1-14-18.7-14-18.7C113.5,83.2,111.2,96.7,111.2,96.7z"/>
</g>
</svg>
