<?xml version="1.0" encoding="utf-8"?>
<!-- Generator: Adobe Illustrator 23.0.1, SVG Export Plug-In . SVG Version: 6.00 Build 0)  -->
<svg version="1.1" id="Capa_1" xmlns="http://www.w3.org/2000/svg" xmlns:xlink="http://www.w3.org/1999/xlink" x="0px" y="0px"
	 viewBox="0 0 200 200" style="enable-background:new 0 0 200 200;" xml:space="preserve">
<style type="text/css">
	.st0{fill:#FFFFFF;}
</style>
<path class="st0" d="M165.6,46l-21-18.2c-1.2-1-3.1-1-4.2,0.2c0,0-2.1,2.1-5.9,4.7c-10.1,7.1-22.1,10.8-34.5,10.8
	c-12.4,0-24.3-3.7-34.5-10.8c-3.8-2.6-5.9-4.7-5.9-4.7c-1.1-1.2-3-1.2-4.2-0.2L34.4,46c-1.1,1-1.4,2.6-0.7,3.8l10.1,18.3v42.7
	c0,31.1,21.6,57.8,51.5,63.4c1.4,0.3,2.8,0.5,4.2,0.7c0.2,0,0.3,0,0.4,0c0.2,0,0.3,0,0.5,0c1.4-0.2,2.8-0.4,4.2-0.7
	c29.8-5.6,51.5-32.3,51.5-63.4V68.1l10.1-18.3C166.9,48.6,166.6,47,165.6,46z M128.2,97.6l-14.5,10.5l5.5,17
	c0.4,1.3-0.1,2.7-1.1,3.4c-0.5,0.4-1.2,0.6-1.8,0.6c-0.6,0-1.3-0.2-1.8-0.6L100,118l-14.5,10.5c-1.1,0.8-2.5,0.8-3.6,0
	c-1.1-0.8-1.5-2.2-1.1-3.4l5.5-17L71.8,97.6c-1.1-0.8-1.5-2.2-1.1-3.4c0.4-1.3,1.6-2.1,2.9-2.1h17.9l5.5-17c0.4-1.3,1.6-2.1,2.9-2.1
	c1.4,0,2.5,0.9,2.9,2.1l5.5,17h17.9c1.4,0,2.5,0.9,3,2.1C129.7,95.4,129.2,96.8,128.2,97.6z"/>
</svg>
