<?xml version="1.0" encoding="utf-8"?>
<!-- Generator: Adobe Illustrator 23.0.1, SVG Export Plug-In . SVG Version: 6.00 Build 0)  -->
<svg version="1.1" id="Capa_1" xmlns="http://www.w3.org/2000/svg" xmlns:xlink="http://www.w3.org/1999/xlink" x="0px" y="0px"
	 viewBox="0 0 200 200" style="enable-background:new 0 0 200 200;" xml:space="preserve">
<style type="text/css">
	.st0{fill:#FFFFFF;}
</style>
<path class="st0" d="M180.5,95.3h-0.4L162.6,59c3.8-4.7,3.1-11.6-1.6-15.4c-4.3-3.5-10.6-3.3-14.6,0.6l-6.1-4.8
	c-8.5-6.6-19.5-8.9-29.9-6.2l-1.6,0.4c-1.5-4.9-6.7-7.6-11.6-6.1c-2.9,0.9-5.2,3.2-6.1,6.1l-1.5-0.4c-10.4-2.6-21.4-0.3-29.9,6.2
	l-6.1,4.8c-4.3-4.2-11.3-4.1-15.5,0.2c-3.9,4-4.2,10.3-0.6,14.6L19.9,95.3h-0.4c-2.5,0-4.5,2-4.5,4.5c0,0.1,0,0.3,0,0.4
	c1.4,17,16.3,29.7,33.3,28.3c15.1-1.2,27-13.2,28.3-28.3c0.2-2.5-1.6-4.7-4.1-4.9c-0.1,0-0.3,0-0.4,0h-0.4L54.3,59.3l8.4-5.2
	c6-3.6,13.5-4.2,19.9-1.4c2.4,0.9,5,1.4,7.6,1.4v9.7c-6.9,5.4-8.2,15.3-2.8,22.2c0.8,1.1,1.8,2,2.8,2.8v56.2l-33.2,12.9
	c-3.1,1-5.2,3.8-5.2,7.1v0.5c0,4.1,3.3,7.4,7.4,7.4h81.5c4.1,0,7.4-3.3,7.4-7.4v-0.5c0-3.2-2.1-6.1-5.2-7.1l-33.2-13V88.9
	c6.9-5.4,8.2-15.3,2.8-22.2c-0.8-1.1-1.8-2-2.8-2.8v-9.7c2.6-0.1,5.2-0.6,7.6-1.5c6.5-2.7,13.8-2.2,19.8,1.5l8.4,5.2l-17.4,35.9
	h-0.4c-2.5,0-4.5,2-4.5,4.5c0,0.1,0,0.3,0,0.4c1.4,17,16.3,29.7,33.3,28.3c15.1-1.2,27-13.2,28.3-28.3c0.2-2.5-1.6-4.7-4.1-4.9
	c-0.1,0-0.3,0-0.4,0L180.5,95.3z M57.3,95.3h-23l11.5-23.8L57.3,95.3z M142.9,95.3l11.5-23.8l11.5,23.8H142.9z"/>
</svg>
