<?xml version="1.0" encoding="utf-8"?>
<!-- Generator: Adobe Illustrator 23.0.1, SVG Export Plug-In . SVG Version: 6.00 Build 0)  -->
<svg version="1.1" id="Capa_1" xmlns="http://www.w3.org/2000/svg" xmlns:xlink="http://www.w3.org/1999/xlink" x="0px" y="0px"
	 viewBox="0 0 200 200" style="enable-background:new 0 0 200 200;" xml:space="preserve">
<style type="text/css">
	.st0{fill:#FFFFFF;}
</style>
<g>
	<path class="st0" d="M79,24.4c-4.2,0-8.4,4.2-8.4,8.4v8.4h58.8v-8.4c0-4.2-4.2-8.4-8.4-8.4H79z"/>
	<path class="st0" d="M70.6,49.6v4.2c0,16.2,13.2,29.4,29.4,29.4s29.4-13.2,29.4-29.4v-4.2H70.6z"/>
	<path class="st0" d="M62.2,91.6c-12.6,0-16.8,21-16.8,33.6v50.4H68l57.2-84H62.2z"/>
	<path class="st0" d="M137.8,91.6l-57.2,84h74v-50.4C154.6,112.6,150.4,91.6,137.8,91.6z"/>
</g>
</svg>
