<?xml version="1.0" encoding="utf-8"?>
<!-- Generator: Adobe Illustrator 23.0.1, SVG Export Plug-In . SVG Version: 6.00 Build 0)  -->
<svg version="1.1" id="Capa_1" xmlns="http://www.w3.org/2000/svg" xmlns:xlink="http://www.w3.org/1999/xlink" x="0px" y="0px"
	 viewBox="0 0 2055 256" style="enable-background:new 0 0 2055 256;" xml:space="preserve">
<style type="text/css">
	.st0{fill:none;stroke:#A5DEDB;stroke-width:3.0657;stroke-linecap:round;stroke-miterlimit:10;}
	.st1{fill:none;stroke:#A5DEDB;stroke-width:3.0657;stroke-linecap:round;stroke-miterlimit:10;stroke-dasharray:0.4151,16.6056;}
	.st2{fill:none;stroke:#DF3940;stroke-width:3.0657;stroke-linecap:round;stroke-miterlimit:10;stroke-dasharray:0.4158,16.6333;}
	.st3{fill:none;stroke:#00928A;stroke-width:3.0657;stroke-linecap:round;stroke-miterlimit:10;stroke-dasharray:0.5544,16.6333;}
</style>
<g>
	<path class="st0" d="M0,149.3L0,149.3"/>
	<path class="st1" d="M17.3,150.3c16.3-0.3,44.5-4.2,87.4-21.3c74.1-29.7,112.2-54.9,262.3-0.9s239.5,1.8,288-14.4
		S733.8,75,867.8,119s183.5,43.1,305.1-3.6c121.6-46.8,202.4-22.5,315.5,23.3s190,27,287-27.9c94.5-53.4,172.6-34.4,268,15"/>
	<path class="st0" d="M2051,129.8"/>
	<path class="st2" d="M0.2,57c0,0,10.4-9.8,29.5-9.8s58,30.6,119.7,95.3s160.7,96.1,260.4,0s113-95.3,142.6-95.3s68.4,36.8,137.8,97
		s115,89,212,11.7s121.6-101.5,171.1-105.1s96.9,47.6,158.7,106.1c61.7,58.4,176.8,79.9,313.6-41.4s236.6,12.5,269.9,42.2
		s129.3,87.2,239.5-9"/>
	<path class="st3" d="M1.2,140.6c0,0,27.5,35,101.6,15.2S233,87.5,308.1,84c75.1-3.6,127.3,81.8,234.8,75.5
		C650.3,153.1,730.1,84,813.8,84s186.3,83.6,264.2,81.8c78-1.8,131.1-89,271.8-83.6c140.7,5.4,230.9,89.9,355.4,76.4
		s177.8-125.7,347.8-21.6"/>
</g>
</svg>
