<?xml version="1.0" encoding="utf-8"?>
<!-- Generator: Adobe Illustrator 23.0.1, SVG Export Plug-In . SVG Version: 6.00 Build 0)  -->
<svg version="1.1" id="Capa_1" xmlns="http://www.w3.org/2000/svg" xmlns:xlink="http://www.w3.org/1999/xlink" x="0px" y="0px"
	 viewBox="0 0 200 200" style="enable-background:new 0 0 200 200;" xml:space="preserve">
<style type="text/css">
	.st0{fill:#FFFFFF;}
</style>
<g>
	<g>
		<path class="st0" d="M94.3,83.3L60.7,46.4c1.4-2.2,2.3-4.8,2.3-7.6c0-7.7-6.2-13.9-13.8-13.9c-7.7,0-13.9,6.2-13.9,13.9
			s6.2,13.9,13.9,13.9c2.3,0,4.5-0.6,6.5-1.6L89.1,88C90.6,86.2,92.3,84.6,94.3,83.3z"/>
		<path class="st0" d="M84.1,100.7L36.6,104c-1.8-5.5-7-9.5-13.1-9.5c-7.7,0-13.9,6.2-13.9,13.9c0,7.6,6.2,13.8,13.9,13.8
			c6.8,0,12.4-4.9,13.6-11.3l47.4-3.3c-0.4-1.6-0.6-3.3-0.6-5C84,101.9,84,101.3,84.1,100.7z"/>
		<path class="st0" d="M83.1,146.7c-1.1-0.2-2.2-0.4-3.4-0.4c-8.9,0-16.2,7.2-16.2,16.2c0,8.9,7.2,16.2,16.2,16.2
			c8.9,0,16.2-7.2,16.2-16.2c0-5.3-2.5-10-6.5-12.9l11.3-24.8c-2.3-0.6-4.4-1.6-6.3-2.9L83.1,146.7z"/>
		<path class="st0" d="M151.2,75.3c3.3,3.2,7.8,5.1,12.7,5.1c10.2,0,18.5-8.3,18.5-18.5s-8.3-18.5-18.5-18.5
			c-10.2,0-18.5,8.3-18.5,18.5c0,2.8,0.6,5.4,1.7,7.7l-23.6,16.9c1.6,1.7,3,3.6,4,5.6L151.2,75.3z"/>
		<path class="st0" d="M164,134.8c-3.7,0-7.1,1.2-9.8,3.3l-27.5-23.4c-1.2,2-2.7,3.8-4.5,5.3l27.5,23.4c-1.2,2.3-1.9,4.8-1.9,7.6
			c0,8.9,7.2,16.2,16.2,16.2c8.9,0,16.2-7.2,16.2-16.2C180.1,142,172.9,134.8,164,134.8z"/>
		<path class="st0" d="M117.9,61.8c5.7-0.7,10.1-5.5,10.1-11.4c0-6.4-5.2-11.5-11.5-11.5s-11.5,5.2-11.5,11.5
			c0,4.4,2.5,8.2,6.2,10.2l-3.4,19c2.4,0.1,4.7,0.5,6.8,1.2L117.9,61.8z"/>
		<path class="st0" d="M126.7,114.7c2.2-3.5,3.5-7.7,3.5-12.1c0-3.8-0.9-7.3-2.5-10.4c-1.1-2.1-2.4-4-4-5.6
			c-2.5-2.6-5.6-4.6-9.1-5.8c-2.1-0.7-4.4-1.2-6.8-1.2c-0.2,0-0.4,0-0.6,0c-4.7,0-9.1,1.4-12.8,3.9c-1.9,1.3-3.7,2.9-5.1,4.7
			c-2.9,3.5-4.7,7.9-5.1,12.7c0,0.6-0.1,1.2-0.1,1.9c0,1.7,0.2,3.4,0.6,5c1.3,6,4.9,11,9.9,14.3c1.9,1.3,4,2.2,6.3,2.9
			c2,0.6,4.1,0.9,6.3,0.9c5.8,0,11.1-2.2,15.1-5.7C123.9,118.4,125.4,116.7,126.7,114.7z"/>
	</g>
</g>
</svg>
