<?xml version="1.0" encoding="utf-8"?>
<!-- Generator: Adobe Illustrator 23.0.1, SVG Export Plug-In . SVG Version: 6.00 Build 0)  -->
<svg version="1.1" id="Capa_1" xmlns="http://www.w3.org/2000/svg" xmlns:xlink="http://www.w3.org/1999/xlink" x="0px" y="0px"
	 viewBox="0 0 200 200" style="enable-background:new 0 0 200 200;" xml:space="preserve">
<style type="text/css">
	.st0{fill:#FFFFFF;}
</style>
<g>
	<g>
		<g>
			<path class="st0" d="M178.5,97.9L156,95.4c0-6.7-1.7-13.3-4.2-19.2l7.5-5.8c5.8-4.2,6.7-12.5,2.5-17.5
				c-4.2-5.8-12.5-6.7-17.5-2.5l-6.7,5c-5-5-10.8-8.3-16.7-11.7l1.7-15.8c0.8-6.7-4.2-13.3-10.8-14.2C105.2,13,98.6,18,97.7,24.6
				l0,0l-1.7,15c-9.2,0-18.3,2.5-26.6,7.5L52.8,27.9c-6.2-7.4-21.4-5.7-21.5,7.8c0,3.4,1.4,6.8,3.6,9.4l15.5,18.6
				c-4.2,5.8-7.5,12.5-9.2,19.2l-12.5-1.7c-6.7-0.8-13.3,4.2-14.2,10.8c-0.8,6.7,4.2,13.3,10.8,14.2l0,0l15,1.7
				c0.8,6.7,3.3,12.5,5.8,17.5l-10.8,8.3c-5.8,4.2-6.7,12.5-2.5,17.5c4.2,5.8,11.7,6.7,17.5,2.5l11.7-9.2c5.8,4.2,12.5,7.5,20,9.2
				L81.1,167c-0.8,6.7,4.2,13.3,10.8,14.2l0,0c0.8,0,0.8,0,1.7,0c6.7,0,11.7-5,12.5-10.8l1.7-15c5.8-0.8,11.7-3.3,17.5-5.8l9.2,10.8
				c4.2,5,12.5,5.8,17.5,1.7c5-4.2,5.8-12.5,1.7-17.5l-9.2-10.8c3.3-4.2,5.8-8.3,7.5-13.3l24.1,2.5c0.8,0,0.8,0,1.7,0
				c6.7,0,12.5-5.8,12.5-12.5C189.3,103.7,184.3,98.7,178.5,97.9z M81.7,100c-8.9,0-16.2-7.3-16.2-16.2s7.3-16.2,16.2-16.2
				s16.2,7.3,16.2,16.2S90.6,100,81.7,100z M110,132.4c-6.5,0-12.1-5.7-12.1-12.1c0-6.5,5.7-12.1,12.1-12.1
				c6.5,0,12.1,5.7,12.1,12.1C122.1,126.7,116.5,132.4,110,132.4L110,132.4z"/>
		</g>
	</g>
</g>
</svg>
