<?xml version="1.0" encoding="utf-8"?>
<!-- Generator: Adobe Illustrator 23.0.1, SVG Export Plug-In . SVG Version: 6.00 Build 0)  -->
<svg version="1.1" id="Capa_1" xmlns="http://www.w3.org/2000/svg" xmlns:xlink="http://www.w3.org/1999/xlink" x="0px" y="0px"
	 viewBox="0 0 292 400" style="enable-background:new 0 0 292 400;" xml:space="preserve">
<style type="text/css">
	.st0{fill:#D6E9F8;}
	.st1{fill:#5F5ACE;}
	.st2{fill:#002659;}
</style>
<g>
	<g>
		<path class="st0" d="M0.5,232.2l153.6,0.5l-0.1,14.6c0,4.5,5.2,7,8.7,4.1l55.7-45.8c2.6-2.1,2.6-6,0-8.2l-55.3-46.2
			c-3.5-2.9-8.7-0.4-8.8,4.1l-0.1,14.6L0.8,169.6L0.5,232.2z"/>
		<path class="st0" d="M22.2,169.6L22,232.3l-21.5-0.1l0.2-62.7L22.2,169.6z"/>
		<path class="st1" d="M98.9,395l46.1-55.6c2.9-3.5,0.4-8.8-4.1-8.8l-13.7,0l0.2-43.9c0.1-29.8-24-54-53.8-54.2l-73.1-0.3l-0.2,62.7
			l63.5,0.2l-0.1,35.2l-14.6-0.1c-4.5,0-7,5.3-4.1,8.8l45.7,55.9C92.8,397.5,96.8,397.5,98.9,395L98.9,395z"/>
		<path class="st1" d="M22,232.3L21.8,295l-21.5-0.1l0.2-62.7L22,232.3z"/>
		<path class="st2" d="M100.3,6.7L146,62.6c2.9,3.5,0.4,8.8-4.1,8.8l-13.7,0l-0.2,43.9c-0.1,29.8-24.4,53.9-54.2,53.8l-73.1-0.3
			L1,106.1l63.5,0.2l0.1-35.2L50,71c-4.5,0-6.9-5.3-4.1-8.8L92.1,6.7C94.2,4.1,98.1,4.1,100.3,6.7L100.3,6.7z"/>
		<path class="st2" d="M22.5,106.1l-0.2,62.7l-21.5-0.1L1,106.1L22.5,106.1z"/>
	</g>
</g>
</svg>
