<svg width="11" height="11" viewBox="0 0 11 11" fill="none" xmlns="http://www.w3.org/2000/svg">
<path d="M8.9375 0H2.0625C1.51545 0 0.99092 0.217241 0.60414 0.604141C0.217268 0.990921 0 1.51554 0 2.0625V8.25C0 8.79693 0.21724 9.32158 0.60414 9.70836C0.99092 10.0952 1.51542 10.3125 2.0625 10.3125H8.9375C9.48455 10.3125 10.0091 10.0953 10.3959 9.70836C10.7827 9.32158 11 8.79696 11 8.25V2.0625C11 1.51557 10.7828 0.990921 10.3959 0.604141C10.0091 0.217269 9.48458 0 8.9375 0V0ZM9.62494 8.25C9.62494 8.43235 9.55252 8.60716 9.42364 8.73616C9.29464 8.86504 9.11984 8.93746 8.93748 8.93746H2.06248C1.88013 8.93746 1.70532 8.86504 1.57632 8.73616C1.44744 8.60716 1.37502 8.43236 1.37502 8.25V4.23334L3.85352 6.00365H3.8534C4.33379 6.34691 4.90951 6.5314 5.49997 6.5314C6.09042 6.5314 6.66614 6.34689 7.14653 6.00365L9.6249 4.23334L9.62494 8.25ZM9.62494 2.54375L6.34734 4.88472C6.09881 5.0582 5.80305 5.15135 5.49997 5.15135C5.19689 5.15135 4.90111 5.0582 4.65259 4.88472L1.375 2.54375V2.0625C1.375 1.88015 1.44741 1.70534 1.5763 1.57634C1.7053 1.44746 1.8801 1.37504 2.06246 1.37504H8.93746C9.11981 1.37504 9.29462 1.44746 9.42362 1.57634C9.5525 1.70534 9.62491 1.88014 9.62491 2.0625L9.62494 2.54375Z" fill="#778593"/>
</svg>
