<?xml version="1.0" encoding="utf-8"?>
<!-- Generator: Adobe Illustrator 23.0.1, SVG Export Plug-In . SVG Version: 6.00 Build 0)  -->
<svg version="1.1" id="Capa_1" xmlns="http://www.w3.org/2000/svg" xmlns:xlink="http://www.w3.org/1999/xlink" x="0px" y="0px"
	 viewBox="0 0 200 200" style="enable-background:new 0 0 200 200;" xml:space="preserve">
<style type="text/css">
	.st0{fill:#FFFFFF;}
</style>
<g>
	<path class="st0" d="M100.1,75.3c-6.3,0-11.5,5.2-11.5,11.5s5.2,11.5,11.5,11.5c6.3,0,11.5-5.2,11.5-11.5S106.5,75.3,100.1,75.3z"
		/>
	<path class="st0" d="M100.1,44.8c-23.5,0-42.6,19.1-42.6,42.6c0,9.9,3.4,19.1,9.2,26.4l33.4,42l33.4-42c5.7-7.3,9.2-16.4,9.2-26.4
		C142.7,63.9,123.6,44.8,100.1,44.8z M100.1,105.9c-10.6,0-19.2-8.6-19.2-19.2s8.6-19.2,19.2-19.2s19.2,8.6,19.2,19.2
		S110.7,105.9,100.1,105.9z"/>
</g>
</svg>
