<?xml version="1.0" encoding="utf-8"?>
<!-- Generator: Adobe Illustrator 23.0.1, SVG Export Plug-In . SVG Version: 6.00 Build 0)  -->
<svg version="1.1" id="Capa_1" xmlns="http://www.w3.org/2000/svg" xmlns:xlink="http://www.w3.org/1999/xlink" x="0px" y="0px"
	 viewBox="0 0 200 200" style="enable-background:new 0 0 200 200;" xml:space="preserve">
<style type="text/css">
	.st0{fill:#39435B;}
</style>
<g>
	<path class="st0" d="M98.8,71.7c-7.2,0-13.1,5.9-13.1,13.1c0,7.2,5.9,13.1,13.1,13.1c7.2,0,13.1-5.9,13.1-13.1
		C111.9,77.6,106,71.7,98.8,71.7z"/>
	<path class="st0" d="M98.8,37C72,37,50.3,58.7,50.3,85.4c0,11.3,3.9,21.8,10.4,30l38,47.8l38-47.8c6.5-8.3,10.4-18.7,10.4-30
		C147.2,58.7,125.5,37,98.8,37z M98.8,106.6c-12,0-21.8-9.8-21.8-21.8S86.7,63,98.8,63s21.8,9.8,21.8,21.8S110.8,106.6,98.8,106.6z"
		/>
</g>
</svg>
