<?xml version="1.0" encoding="utf-8"?>
<!-- Generator: Adobe Illustrator 23.0.1, SVG Export Plug-In . SVG Version: 6.00 Build 0)  -->
<svg version="1.1" id="Capa_1" xmlns="http://www.w3.org/2000/svg" xmlns:xlink="http://www.w3.org/1999/xlink" x="0px" y="0px"
	 viewBox="0 0 200 200" style="enable-background:new 0 0 200 200;" xml:space="preserve">
<style type="text/css">
	.st0{fill:#FFFFFF;}
</style>
<g transform="translate(0,-952.36218)">
	<path class="st0" d="M100.2,1000.1l-47.4,31.6h94.9L100.2,1000.1z M100.2,1012.5c3.1,0,5.6,2.5,5.6,5.6c0,3.1-2.5,5.6-5.6,5.6
		s-5.6-2.5-5.6-5.6C94.5,1015,97.1,1012.5,100.2,1012.5z M61.8,1033.9v45.2h9v-45.2H61.8z M84.4,1033.9v45.2h9v-45.2H84.4z
		 M106.9,1033.9v45.2h9v-45.2H106.9z M129.5,1033.9v45.2h9v-45.2H129.5z M55,1081.4v9h90.4v-9H55z M50.5,1092.7v9h99.4v-9H50.5z"/>
</g>
</svg>
