<?xml version="1.0" encoding="utf-8"?>
<!-- Generator: Adobe Illustrator 23.0.1, SVG Export Plug-In . SVG Version: 6.00 Build 0)  -->
<svg version="1.1" id="Capa_1" xmlns="http://www.w3.org/2000/svg" xmlns:xlink="http://www.w3.org/1999/xlink" x="0px" y="0px"
	 viewBox="0 0 292 400" style="enable-background:new 0 0 292 400;" xml:space="preserve">
<style type="text/css">
	.st0{clip-path:url(#SVGID_2_);}
	.st1{fill:#002659;}
	.st2{fill:#5F5ACE;}
	.st3{fill:#E4F6FF;}
	.st4{fill:#D3EFFB;}
</style>
<g>
	<defs>
		<rect id="SVGID_1_" x="0.2" y="0.6" width="240" height="400"/>
	</defs>
	<clipPath id="SVGID_2_">
		<use xlink:href="#SVGID_1_"  style="overflow:visible;"/>
	</clipPath>
	<g class="st0">
		<g>
			<g>
				<path class="st1" d="M80.3,316.2H25.6c-7.5,0-13.6-6.1-13.6-13.6v-35.2h81.8v35.2C93.9,310.1,87.8,316.2,80.3,316.2z"/>
				<path class="st1" d="M27.9,316.2h48.8v48.8H27.9V316.2z"/>
				<path class="st2" d="M80.3,445.6H25.6c-7.5,0-13.6-6.1-13.6-13.6v-52c0-7.5,6.1-13.6,13.6-13.6h54.6c7.5,0,13.6,6.1,13.6,13.6
					v52C93.9,439.5,87.8,445.6,80.3,445.6z"/>
				<path class="st2" d="M80.3,445.6H66.2v-79.2h14.1c7.5,0,13.6,6.1,13.6,13.6v52C93.9,439.5,87.8,445.6,80.3,445.6z"/>
				<circle class="st2" cx="52.9" cy="107.5" r="164.8"/>
				<path class="st2" d="M152.6-23.8c21.1,27.7,33.6,62.2,33.6,99.7c0,91-73.8,164.8-164.8,164.8c-37.5,0-72-12.5-99.7-33.6
					c30.1,39.6,77.7,65.2,131.3,65.2c91,0,164.8-73.8,164.8-164.8C217.7,53.9,192.2,6.3,152.6-23.8L152.6-23.8z"/>
				<circle class="st3" cx="52.9" cy="107.5" r="120.9"/>
				<path class="st4" d="M125.9,11.1c15.4,20.3,24.5,45.6,24.5,73c0,66.8-54.1,120.9-120.9,120.9c-27.4,0-52.7-9.1-73-24.5
					c22.1,29.1,57,47.9,96.4,47.9c66.8,0,120.9-54.1,120.9-120.9C173.8,68.1,155,33.2,125.9,11.1z"/>
			</g>
		</g>
	</g>
</g>
</svg>
