<?xml version="1.0"?>
<svg width="95" height="55" xmlns="http://www.w3.org/2000/svg" xmlns:svg="http://www.w3.org/2000/svg">
 <g class="layer">
  <title>Layer 1</title>
  <path d="m0,14.58l6.46,0c1.69,0 3.2,0.35 4.51,1.05c1.32,0.7 2.34,1.66 3.07,2.9c0.73,1.24 1.09,2.64 1.09,4.21c0,1.57 -0.36,2.97 -1.09,4.21c-0.73,1.23 -1.75,2.2 -3.07,2.9c-1.31,0.7 -2.82,1.05 -4.51,1.05l-6.46,0l0,-16.32zm6.37,15.25c1.5,0 2.83,-0.3 3.98,-0.9c1.15,-0.6 2.04,-1.43 2.66,-2.51c0.62,-1.07 0.94,-2.3 0.94,-3.68c0,-1.38 -0.32,-2.61 -0.94,-3.68c-0.62,-1.08 -1.51,-1.91 -2.66,-2.51c-1.15,-0.6 -2.48,-0.9 -3.98,-0.9l-5.18,0l0,14.18l5.18,0l0,0z" fill="white" id="svg_1"/>
  <path d="m25.7,19.79c0.81,0.77 1.21,1.9 1.21,3.39l0,7.72l-1.12,0l0,-2.17c-0.39,0.72 -0.95,1.27 -1.7,1.67c-0.75,0.4 -1.64,0.6 -2.68,0.6c-1.35,0 -2.42,-0.32 -3.21,-0.96c-0.78,-0.64 -1.18,-1.48 -1.18,-2.52c0,-1.04 0.37,-1.83 1.09,-2.46c0.72,-0.63 1.88,-0.94 3.46,-0.94l4.18,0l0,-0.98c0,-1.14 -0.31,-2 -0.92,-2.59c-0.62,-0.59 -1.52,-0.89 -2.7,-0.89c-0.8,0 -1.58,0.14 -2.32,0.42c-0.74,0.28 -1.36,0.66 -1.87,1.12l-0.59,-0.84c0.61,-0.54 1.34,-0.96 2.19,-1.27c0.86,-0.3 1.75,-0.45 2.69,-0.45c1.5,0 2.66,0.38 3.47,1.15l0,0zm-1.55,9.55c0.71,-0.47 1.24,-1.14 1.6,-2.03l0,-2.29l-4.15,0c-1.2,0 -2.07,0.22 -2.6,0.66c-0.54,0.43 -0.81,1.03 -0.81,1.79c0,0.77 0.3,1.42 0.89,1.88c0.59,0.46 1.42,0.69 2.49,0.69c1.01,0 1.87,-0.24 2.58,-0.7l0,0z" fill="white" id="svg_2"/>
  <path d="m36.55,30.13c-0.3,0.28 -0.67,0.49 -1.11,0.64c-0.44,0.15 -0.9,0.22 -1.39,0.22c-1.05,0 -1.87,-0.29 -2.44,-0.87c-0.58,-0.58 -0.87,-1.4 -0.87,-2.44l0,-7.95l-2.24,0l0,-1l2.24,0l0,-2.66l1.17,0l0,2.66l3.87,0l0,1l-3.87,0l0,7.84c0,0.79 0.19,1.39 0.57,1.8c0.38,0.42 0.94,0.62 1.69,0.62c0.75,0 1.39,-0.22 1.89,-0.67l0.49,0.81l0,0z" fill="white" id="svg_3"/>
  <path d="m46.54,19.79c0.8,0.77 1.21,1.9 1.21,3.39l0,7.72l-1.12,0l0,-2.17c-0.39,0.72 -0.96,1.27 -1.7,1.67c-0.75,0.4 -1.64,0.6 -2.69,0.6c-1.35,0 -2.42,-0.32 -3.2,-0.96c-0.79,-0.64 -1.18,-1.48 -1.18,-2.52c0,-1.04 0.36,-1.83 1.08,-2.46c0.73,-0.63 1.88,-0.94 3.47,-0.94l4.17,0l0,-0.98c0,-1.14 -0.3,-2 -0.92,-2.59c-0.61,-0.59 -1.51,-0.89 -2.69,-0.89c-0.81,0 -1.58,0.14 -2.32,0.42c-0.74,0.28 -1.37,0.66 -1.88,1.12l-0.58,-0.84c0.6,-0.54 1.33,-0.96 2.19,-1.27c0.85,-0.3 1.75,-0.45 2.68,-0.45c1.51,0 2.67,0.38 3.48,1.15l0,0zm-1.56,9.55c0.71,-0.47 1.24,-1.14 1.6,-2.03l0,-2.29l-4.15,0c-1.2,0 -2.06,0.22 -2.6,0.66c-0.53,0.43 -0.8,1.03 -0.8,1.79c0,0.77 0.29,1.42 0.88,1.88c0.59,0.46 1.43,0.69 2.5,0.69c1.01,0 1.87,-0.24 2.57,-0.7l0,0z" fill="white" id="svg_4"/>
  <path d="m53.58,18.56c-0.22,0 -0.41,-0.15 -0.44,-0.37l-2.84,-15.5c-0.03,-0.2 0.07,-0.4 0.26,-0.49c0.19,-0.08 0.41,-0.03 0.54,0.14l8.12,10.47l9.7,-5.17c0.22,-0.11 0.49,-0.03 0.61,0.19c0.11,0.22 0.03,0.49 -0.19,0.61l-10.04,5.34c-0.19,0.1 -0.43,0.05 -0.57,-0.12l-7.21,-9.32l2.5,13.69c0.04,0.24 -0.12,0.48 -0.36,0.52c-0.03,0.01 -0.06,0.01 -0.08,0.01l0,0z" fill="white" id="svg_11"/>
  <path d="m55.79,18.11c0,1.22 -0.99,2.21 -2.21,2.21c-1.23,0 -2.21,-0.99 -2.21,-2.21c0,-1.22 0.98,-2.21 2.21,-2.21c1.22,0 2.21,0.99 2.21,2.21z" fill="white" id="svg_12"/>
  <path d="m61.3,13.39c0,1.22 -0.99,2.21 -2.21,2.21c-1.22,0 -2.21,-0.99 -2.21,-2.21c0,-1.23 0.99,-2.22 2.21,-2.22c1.22,0 2.21,0.99 2.21,2.22z" fill="white" id="svg_13"/>
  <path d="m71.34,8.04c0,1.22 -0.99,2.21 -2.21,2.21c-1.23,0 -2.21,-0.99 -2.21,-2.21c0,-1.22 0.98,-2.21 2.21,-2.21c1.22,0 2.21,0.99 2.21,2.21z" fill="white" id="svg_14"/>
  <path d="m73.05,28.99c0,1.22 -0.99,2.21 -2.21,2.21c-1.23,0 -2.21,-0.99 -2.21,-2.21c0,-1.22 0.98,-2.21 2.21,-2.21c1.22,0 2.21,0.99 2.21,2.21z" fill="white" id="svg_15"/>
  <path d="m75.2,18.51c0,1.23 -0.99,2.22 -2.21,2.22c-1.23,0 -2.21,-0.99 -2.21,-2.22c0,-1.22 0.98,-2.21 2.21,-2.21c1.22,0 2.21,0.99 2.21,2.21z" fill="white" id="svg_16"/>
  <path d="m64.55,22.03c0,1.23 -0.99,2.22 -2.21,2.22c-1.22,0 -2.21,-0.99 -2.21,-2.22c0,-1.22 0.99,-2.21 2.21,-2.21c1.22,0 2.21,0.99 2.21,2.21z" fill="white" id="svg_17"/>
  <path d="m88.16,31.13c0,1.22 -0.99,2.21 -2.22,2.21c-1.22,0 -2.21,-0.99 -2.21,-2.21c0,-1.23 0.99,-2.22 2.21,-2.22c1.23,0 2.22,0.99 2.22,2.22z" fill="white" id="svg_18"/>
  <path d="m95,23.76c0,1.23 -0.99,2.22 -2.21,2.22c-1.22,0 -2.21,-0.99 -2.21,-2.22c0,-1.22 0.99,-2.21 2.21,-2.21c1.22,0 2.21,0.99 2.21,2.21z" fill="white" id="svg_19"/>
  <path d="m81.93,24.83c0,1.23 -0.99,2.22 -2.21,2.22c-1.22,0 -2.21,-0.99 -2.21,-2.22c0,-1.22 0.99,-2.21 2.21,-2.21c1.22,0 2.21,0.99 2.21,2.21l0,0z" fill="white" id="svg_20"/>
  <path d="m52.95,2.61c0,1.22 -0.98,2.21 -2.21,2.21c-1.22,0 -2.21,-0.99 -2.21,-2.21c0,-1.22 0.99,-2.21 2.21,-2.21c1.23,0 2.21,0.99 2.21,2.21z" fill="white" id="svg_21"/>
  <path d="m69.13,8.49c-0.05,0 -0.09,-0.01 -0.13,-0.02l-18.39,-5.43c-0.23,-0.07 -0.37,-0.32 -0.3,-0.56c0.07,-0.23 0.32,-0.37 0.56,-0.3l18.38,5.43c0.24,0.07 0.38,0.32 0.31,0.56c-0.06,0.19 -0.24,0.32 -0.44,0.32l0.01,0z" fill="white" id="svg_22"/>
  <path d="m85.94,31.58c-0.02,0 -0.04,0 -0.06,-0.01l-15.1,-2.13c0,0 -0.01,0 -0.02,-0.01l0,0c-0.08,-0.01 -0.15,-0.05 -0.21,-0.09l-8.49,-6.95c-0.06,-0.05 -0.11,-0.12 -0.14,-0.2c0,0 0,0 0,0c0,0 -0.01,-0.01 -0.01,-0.02c-0.03,-0.1 -0.02,-0.2 0.02,-0.31c0,-0.01 0.01,-0.01 0.01,-0.02l6.79,-13.99c0.06,-0.14 0.19,-0.23 0.34,-0.25c0.16,-0.02 0.31,0.04 0.4,0.15c0.07,0.08 0.16,0.18 3.91,10.51l6.65,6.25c0,0 0.01,0 0.01,0.01l0.01,0l6.22,6.29c0.13,0.14 0.17,0.35 0.08,0.52c-0.08,0.15 -0.23,0.25 -0.4,0.25l-0.01,0zm-13.54,-2.82l12.29,1.73l-5.07,-5.12l-7.22,3.39l0,0zm0.86,-9.37l-1.8,8.81l7.47,-3.49l-5.66,-5.32l-0.01,0zm-10,2.82l7.29,5.96l1.84,-8.98l-9.13,3.02l0,0zm5.82,-13.05l-5.87,12.12l9.2,-3.04c-1.14,-3.12 -2.64,-7.25 -3.33,-9.08z" fill="white" id="svg_23"/>
  <path d="m85.94,31.58c-0.11,0 -0.21,-0.04 -0.3,-0.12c-0.18,-0.17 -0.19,-0.46 -0.03,-0.64l6.85,-7.36c0.17,-0.18 0.46,-0.19 0.64,-0.02c0.18,0.17 0.19,0.45 0.02,0.63l-6.85,7.36c-0.09,0.1 -0.21,0.15 -0.33,0.15l0,0z" fill="white" id="svg_24"/>
  <path d="m62.34,22.49c-0.18,0 -0.35,-0.12 -0.42,-0.3l-3.25,-8.65c-0.09,-0.23 0.03,-0.49 0.26,-0.57c0.24,-0.09 0.49,0.03 0.58,0.26l3.25,8.65c0.09,0.23 -0.03,0.49 -0.26,0.58c-0.05,0.02 -0.11,0.03 -0.16,0.03l0,0z" fill="white" id="svg_25"/>
  <text fill="#76877e" font-family="Monospace" font-size="20" font-weight="bold" id="svg_27" stroke-width="0" style="cursor: move;" text-anchor="middle" x="40.69" xml:space="preserve" y="51.62">Hallman</text>
 </g>
</svg>