<?xml version="1.0" encoding="utf-8"?>
<!-- Generator: Adobe Illustrator 23.0.1, SVG Export Plug-In . SVG Version: 6.00 Build 0)  -->
<svg version="1.1" id="Capa_1" xmlns="http://www.w3.org/2000/svg" xmlns:xlink="http://www.w3.org/1999/xlink" x="0px" y="0px"
	 viewBox="0 0 365 95" style="enable-background:new 0 0 365 95;" xml:space="preserve">
<style type="text/css">
	.st0{fill:#FFFFFF;}
	.st1{font-family:'Rubik-Regular';}
	.st2{font-size:40.94px;}
	.st3{font-size:42.349px;}
	.st4{fill:#FFFFFF;stroke:#D6D6D6;stroke-width:0.64;stroke-miterlimit:10;}
	.st5{fill:#FEFEFE;}
</style>
<g>
	<g>
		<text transform="matrix(1.0712 0 0 1 178.9258 57.6069)" class="st0 st1 st2">MÉXICO</text>
		<text transform="matrix(1 0 0 1 86.8281 57.4336)" class="st0 st1 st3">Data</text>
		<circle class="st0" cx="39.6" cy="36.8" r="2.9"/>
		<circle class="st0" cx="56" cy="43.9" r="2.9"/>
		<line class="st4" x1="29.1" y1="24.3" x2="32.8" y2="42.4"/>
		<circle class="st0" cx="32.9" cy="42.5" r="2.9"/>
		<line class="st4" x1="29.6" y1="24.8" x2="40" y2="37"/>
		<line class="st4" x1="30.9" y1="24.4" x2="51.1" y2="31.1"/>
		<circle class="st0" cx="29.2" cy="24.4" r="2.9"/>
		<line class="st4" x1="51.1" y1="31" x2="39.6" y2="36.7"/>
		<line class="st4" x1="39.7" y1="36.7" x2="42.5" y2="47.5"/>
		<circle class="st0" cx="39.5" cy="36.7" r="2.9"/>
		<line class="st4" x1="42.5" y1="47.4" x2="50.4" y2="30.8"/>
		<line class="st4" x1="51" y1="30.8" x2="56.1" y2="44"/>
		<circle class="st0" cx="50.9" cy="30.6" r="2.9"/>
		<line class="st4" x1="56.1" y1="44.5" x2="43.3" y2="47.4"/>
		<line class="st4" x1="43.3" y1="47.4" x2="53.5" y2="55.3"/>
		<circle class="st0" cx="42.8" cy="46.9" r="2.9"/>
		<line class="st4" x1="53.5" y1="55.2" x2="56.2" y2="43.3"/>
		<line class="st4" x1="56.1" y1="43.8" x2="63.1" y2="50.7"/>
		<circle class="st0" cx="56.1" cy="43.9" r="2.9"/>
		<line class="st4" x1="63.8" y1="51.1" x2="52.7" y2="55.3"/>
		<line class="st4" x1="52.9" y1="55.3" x2="70.9" y2="58.3"/>
		<circle class="st0" cx="52.7" cy="55.3" r="2.9"/>
		<line class="st4" x1="71.2" y1="58.2" x2="63.4" y2="51.1"/>
		<circle class="st0" cx="63.2" cy="51" r="2.9"/>
		<line class="st4" x1="71.3" y1="57.7" x2="78.4" y2="50.9"/>
		<circle class="st0" cx="78.7" cy="50.8" r="2.9"/>
		<circle class="st0" cx="70.5" cy="58.1" r="2.9"/>
	</g>
	<g>
		<g>
			<path class="st5" d="M307.3,67.8c0.4,0.2,0.7,0.5,0.9,0.8c0.2,0.3,0.3,0.7,0.3,1.1c0,0.5-0.1,1-0.4,1.4c-0.3,0.4-0.7,0.6-1.2,0.8
				V72c0.5,0.1,1,0.3,1.3,0.7c0.3,0.4,0.5,0.9,0.5,1.5c0,0.5-0.1,0.9-0.4,1.3c-0.2,0.4-0.6,0.7-0.9,0.9c-0.4,0.2-0.8,0.3-1.2,0.3
				H302v-9.2h4.1C306.5,67.5,306.9,67.6,307.3,67.8z M303.3,68.7v2.7h2.5c0.4,0,0.7-0.1,1-0.4c0.3-0.3,0.4-0.6,0.4-1
				c0-0.4-0.1-0.7-0.4-1c-0.3-0.3-0.6-0.4-1-0.4H303.3z M303.3,72.6v2.9h2.6c0.4,0,0.7-0.1,1-0.4c0.3-0.3,0.4-0.6,0.4-1
				c0-0.4-0.1-0.7-0.4-1c-0.3-0.3-0.6-0.4-1-0.4H303.3z"/>
			<path class="st5" d="M317.2,67.5l-0.2,1.2h-4.6v2.7h4.1v1.2h-4.1v2.9h4.6l0.2,1.2h-6.1v-9.2H317.2z"/>
			<path class="st5" d="M325.6,67.5v1.2h-2.9v8h-1.3v-8h-2.9v-1.2H325.6z"/>
			<path class="st5" d="M331.4,67.5l3.6,9.2h-1.4l-0.8-2h-4.4l-0.8,2h-1.3l3.6-9.2H331.4z M330.6,69.1L330.6,69.1l-1.8,4.4h3.5
				L330.6,69.1z"/>
		</g>
	</g>
</g>
</svg>
