<?xml version="1.0" encoding="utf-8"?>
<!-- Generator: Adobe Illustrator 23.0.1, SVG Export Plug-In . SVG Version: 6.00 Build 0)  -->
<svg version="1.1" id="Capa_1" xmlns="http://www.w3.org/2000/svg" xmlns:xlink="http://www.w3.org/1999/xlink" x="0px" y="0px"
	 viewBox="0 0 200 200" style="enable-background:new 0 0 200 200;" xml:space="preserve">
<style type="text/css">
	.st0{fill:#39435B;}
</style>
<g>
	<g>
		<path class="st0" d="M90.8,21.8c-9.4,0-17,7.6-17,17s7.6,17,17,17c9.4,0,17-7.6,17-17S100.1,21.8,90.8,21.8z"/>
		<path class="st0" d="M99.5,62.4H82.1c-11.1,0-20.1,9-20.1,20.1V121c0,4.2,3.4,7.6,7.6,7.6H74v42.2c0,4.2,3.4,7.6,7.6,7.6h18.3
			c4.2,0,7.6-3.4,7.6-7.6v-4.5H96.6c-3.4,0-6.1-2.8-6.1-6.1v-34.4c0-3.4,2.8-6.1,6.1-6.1h23V82.5C119.6,71.4,110.6,62.4,99.5,62.4z"
			/>
		<rect x="96.9" y="126.1" class="st0" width="46.1" height="33.8"/>
	</g>
</g>
</svg>
