<?xml version="1.0" encoding="utf-8"?>
<!-- Generator: Adobe Illustrator 23.0.1, SVG Export Plug-In . SVG Version: 6.00 Build 0)  -->
<svg version="1.1" id="Capa_1" xmlns="http://www.w3.org/2000/svg" xmlns:xlink="http://www.w3.org/1999/xlink" x="0px" y="0px"
	 viewBox="0 0 200 200" style="enable-background:new 0 0 200 200;" xml:space="preserve">
<style type="text/css">
	.st0{fill:#FFFFFF;}
</style>
<g>
	<g>
		<path class="st0" d="M92.4,33.3c-7.8,0-14.1,6.3-14.1,14.1s6.3,14.1,14.1,14.1c7.8,0,14.1-6.3,14.1-14.1S100.2,33.3,92.4,33.3z"/>
		<path class="st0" d="M99.7,67H85.2c-9.2,0-16.7,7.5-16.7,16.7v31.9c0,3.5,2.8,6.3,6.3,6.3h3.6v35c0,3.5,2.8,6.3,6.3,6.3H100
			c3.5,0,6.3-2.8,6.3-6.3v-3.7h-9.1c-2.8,0-5.1-2.3-5.1-5.1v-28.5c0-2.8,2.3-5.1,5.1-5.1h19.1V83.7C116.4,74.5,108.9,67,99.7,67z"/>
		<rect x="97.5" y="119.9" class="st0" width="38.3" height="28"/>
	</g>
</g>
</svg>
