<?xml version="1.0" encoding="utf-8"?>
<!-- Generator: Adobe Illustrator 23.0.1, SVG Export Plug-In . SVG Version: 6.00 Build 0)  -->
<svg version="1.1" id="Capa_1" xmlns="http://www.w3.org/2000/svg" xmlns:xlink="http://www.w3.org/1999/xlink" x="0px" y="0px"
	 viewBox="0 0 200 200" style="enable-background:new 0 0 200 200;" xml:space="preserve">
<style type="text/css">
	.st0{fill:#39435B;}
</style>
<g>
	<path class="st0" d="M81.7,43.4H59c-8.5,0-15.3,6.8-15.3,15.3v22.9c0,8.4,6.8,15.1,15.3,15.1h22.9c8.4,0,15.1-6.8,15.1-15.3V58.6
		C97,50.1,90.2,43.4,81.7,43.4z"/>
	<path class="st0" d="M118,96.6h22.9c8.4,0,15.1-6.8,15.1-15.3V58.6c0-8.5-6.8-15.3-15.3-15.3H118c-8.5,0-15.3,6.8-15.3,15.3v22.9
		C102.8,89.9,109.5,96.6,118,96.6z"/>
	<path class="st0" d="M81.7,102.4H59c-8.5,0-15.3,6.8-15.3,15.3v22.9c0,8.4,6.8,15.1,15.3,15.1h22.9c8.4,0,15.1-6.8,15.1-15.3v-22.8
		C97,109.2,90.2,102.4,81.7,102.4z"/>
	<circle class="st0" cx="129.4" cy="129" r="26.6"/>
</g>
</svg>
