<?xml version="1.0" encoding="utf-8"?>
<!-- Generator: Adobe Illustrator 23.0.1, SVG Export Plug-In . SVG Version: 6.00 Build 0)  -->
<svg version="1.1" id="Capa_1" xmlns="http://www.w3.org/2000/svg" xmlns:xlink="http://www.w3.org/1999/xlink" x="0px" y="0px"
	 viewBox="0 0 200 200" style="enable-background:new 0 0 200 200;" xml:space="preserve">
<style type="text/css">
	.st0{fill:#FFFFFF;}
</style>
<g>
	<path class="st0" d="M85.7,56.8H68.3c-6.5,0-11.7,5.2-11.7,11.7v17.6c0,6.4,5.2,11.6,11.7,11.6h17.6c6.4,0,11.6-5.2,11.6-11.7V68.6
		C97.5,62,92.3,56.8,85.7,56.8z"/>
	<path class="st0" d="M113.6,97.8h17.6c6.4,0,11.6-5.2,11.6-11.7V68.6c0-6.5-5.2-11.7-11.7-11.7h-17.5c-6.5,0-11.7,5.2-11.7,11.7
		v17.6C101.9,92.6,107.1,97.8,113.6,97.8z"/>
	<path class="st0" d="M85.7,102.2H68.3c-6.5,0-11.7,5.2-11.7,11.7v17.6c0,6.4,5.2,11.6,11.7,11.6h17.6c6.4,0,11.6-5.2,11.6-11.7
		v-17.5C97.5,107.4,92.3,102.2,85.7,102.2z"/>
	<circle class="st0" cx="122.4" cy="122.7" r="20.5"/>
</g>
</svg>
