<?xml version="1.0" encoding="utf-8"?>
<!-- Generator: Adobe Illustrator 23.0.1, SVG Export Plug-In . SVG Version: 6.00 Build 0)  -->
<svg version="1.1" id="Capa_1" xmlns="http://www.w3.org/2000/svg" xmlns:xlink="http://www.w3.org/1999/xlink" x="0px" y="0px"
	 viewBox="0 0 200 200" style="enable-background:new 0 0 200 200;" xml:space="preserve">
<style type="text/css">
	.st0{fill:#FFFFFF;}
</style>
<g>
	<path class="st0" d="M175.9,166.9l-40.6-40.6c22.1-27.2,18-67.1-9.2-89.3c-25.2-20.5-61.8-18.7-84.8,4.2
		c-24.7,24.8-24.6,65,0.2,89.7c23,22.9,59.6,24.7,84.8,4.2l40.6,40.6c2.7,2.3,6.7,2,8.9-0.7C177.9,172.8,177.9,169.3,175.9,166.9z
		 M50.2,122c-19.8-19.8-19.8-52,0-71.8s52-19.8,71.8,0s19.8,52,0,71.8c0,0,0,0,0,0c-19.6,19.8-51.5,20-71.3,0.4
		C50.5,122.3,50.4,122.2,50.2,122z"/>
</g>
</svg>
