<svg width="36" height="36" viewBox="0 0 36 36" fill="none" xmlns="http://www.w3.org/2000/svg">
<circle cx="18" cy="18" r="18" fill="#34485C"/>
<path d="M11.8066 11.8066C9.39781 14.2154 9.39781 18.1403 11.8066 20.5491C14.2154 22.9579 18.1403 22.9579 20.5491 20.5491C22.9579 18.1403 22.9579 14.2154 20.5491 11.8066C18.1403 9.39781 14.2154 9.39781 11.8066 11.8066V11.8066ZM12.7783 12.7783C14.6621 10.8946 17.6937 10.8946 19.5773 12.7783C21.4608 14.6621 21.461 17.6937 19.5773 19.5773C17.6936 21.4608 14.6619 21.461 12.7783 19.5773C10.8948 17.6936 10.8946 14.6619 12.7783 12.7783V12.7783Z" fill="white"/>
<path d="M22.492 19.5759L19.5759 22.492L22.3957 25.3117C23.3403 26.2562 24.7048 26.162 25.4334 25.4333C26.162 24.7048 26.2562 23.3403 25.3117 22.3957L22.492 19.5759ZM22.492 21.5233L24.338 23.3693C24.8507 23.882 24.7026 24.2168 24.4597 24.4597C24.2168 24.7026 23.8821 24.8507 23.3693 24.3379L21.5234 22.492L22.492 21.5233Z" fill="white"/>
<path d="M20.5495 19.5759L19.5757 20.5497L21.523 22.492L22.4917 21.5233L20.5495 19.5759Z" fill="white"/>
</svg>
