<?xml version="1.0" encoding="utf-8"?>
<!-- Generator: Adobe Illustrator 23.0.1, SVG Export Plug-In . SVG Version: 6.00 Build 0)  -->
<svg version="1.1" id="Capa_1" xmlns="http://www.w3.org/2000/svg" xmlns:xlink="http://www.w3.org/1999/xlink" x="0px" y="0px"
	 viewBox="0 0 200 200" style="enable-background:new 0 0 200 200;" xml:space="preserve">
<style type="text/css">
	.st0{fill:#717C88;}
</style>
<g>
	<g>
		<path class="st0" d="M24,175c2.3,2.7,6.3,3,8.9,0.7l40.6-40.6c25.2,20.5,61.8,18.7,84.8-4.2c24.8-24.7,24.9-64.9,0.2-89.7
			c-23-22.9-59.6-24.7-84.8-4.2C46.6,59,42.5,99,64.6,126.2L24,166.8C22,169.1,22,172.6,24,175z M149.2,122.3
			c-19.8,19.6-51.8,19.4-71.3-0.4c0,0,0,0,0,0c-19.8-19.8-19.8-52,0-71.8s52-19.8,71.8,0s19.8,52,0,71.8
			C149.5,122,149.4,122.2,149.2,122.3z"/>
	</g>
</g>
</svg>
