<svg width="14" height="10" viewBox="0 0 14 10" fill="none" xmlns="http://www.w3.org/2000/svg">
<path d="M12.7623 4.43257L8.62182 0.254037C8.33674 -0.0336656 7.87306 -0.0357868 7.59899 0.249358C7.31129 0.534439 7.30917 0.998122 7.59431 1.27219L10.513 4.21771L0.748402 4.17304C0.352908 4.17123 0.024105 4.49704 0.0222957 4.89253C0.0204865 5.28803 0.346295 5.61683 0.741788 5.61864L10.4928 5.66325L7.56087 8.58201C7.27317 8.86709 7.27105 9.33077 7.5562 9.60483C7.69195 9.74184 7.8825 9.82454 8.07343 9.82541C8.26436 9.82628 8.44196 9.75891 8.59266 9.60958L12.7849 5.45552C12.9219 5.31977 13.0046 5.12922 13.0055 4.93829C12.979 4.76087 12.8981 4.56957 12.7623 4.43257Z" fill="#DDC9A3"/>
</svg>
