<?xml version="1.0" encoding="utf-8"?>
<!-- Generator: Adobe Illustrator 23.0.1, SVG Export Plug-In . SVG Version: 6.00 Build 0)  -->
<svg version="1.1" id="Capa_1" xmlns="http://www.w3.org/2000/svg" xmlns:xlink="http://www.w3.org/1999/xlink" x="0px" y="0px"
	 viewBox="0 0 200 200" style="enable-background:new 0 0 200 200;" xml:space="preserve">
<style type="text/css">
	.st0{fill:#444C6D;}
</style>
<g>
	<path class="st0" d="M151.2,105.6C133.1,87.5,114.7,78.9,96.4,80c-27.7,1.6-46.2,24.7-46.4,25l-12.2-9.6
		c0.9-1.2,23.2-28.8,57.7-30.8c22.9-1.3,45.3,8.8,66.7,30.2L151.2,105.6z"/>
	<path class="st0" d="M100.3,135.7c-14.1,0-25.5-11.4-25.5-25.5s11.4-25.5,25.5-25.5s25.5,11.4,25.5,25.5S114.4,135.7,100.3,135.7z
		 M100.3,100.2c-5.5,0-10,4.5-10,10c0,5.5,4.5,10,10,10c5.5,0,10-4.5,10-10C110.3,104.7,105.8,100.2,100.3,100.2z"/>
</g>
</svg>
