<svg width="36" height="36" viewBox="0 0 36 36" fill="none" xmlns="http://www.w3.org/2000/svg">
<circle cx="18" cy="18" r="18" fill="#34485C"/>
<path d="M22.7981 26.9999H13.202C12.0879 26.9983 11.0201 26.5552 10.2325 25.7675C9.44475 24.9799 9.00165 23.912 9.00009 22.798V13.2355V13.2357C8.99261 12.1158 9.43188 11.0392 10.2205 10.2443C11.0091 9.44929 12.0821 9.00155 13.202 9H22.7981C23.9129 9.00155 24.9818 9.44549 25.7695 10.2344C26.5574 11.0232 26.9999 12.0925 26.9999 13.2074V22.7699C27.0059 23.8887 26.566 24.9638 25.7776 25.7576C24.9891 26.5512 23.9169 26.9983 22.7981 26.9998V26.9999ZM13.202 10.204C12.4053 10.204 11.6413 10.5205 11.078 11.0838C10.5147 11.6471 10.1983 12.4111 10.1983 13.2076V22.7701C10.1997 23.5648 10.5161 24.3265 11.078 24.8884C11.6399 25.4503 12.4016 25.7667 13.1963 25.7681H22.7978C23.5925 25.7667 24.3543 25.4503 24.9162 24.8884C25.478 24.3265 25.7944 23.5648 25.796 22.7701V13.2076C25.7944 12.4129 25.478 11.6513 24.9162 11.0895C24.3543 10.5274 23.5925 10.2112 22.7978 10.2096L13.202 10.204Z" fill="white"/>
<path d="M22.2018 22.2076H20.9981V18.6077H22.1962L22.2018 22.2076ZM18.602 22.2076H17.3982V13.8041H18.5963L18.602 22.2076ZM15.0021 22.2076H13.7983V16.2058H14.9964L15.0021 22.2076Z" fill="white"/>
</svg>
