<svg width="22px" height="26px" viewBox="0 0 22 26" version="1.1"
  xmlns="http://www.w3.org/2000/svg"
  xmlns:xlink="http://www.w3.org/1999/xlink">
  <g id="Page-1" stroke="none" stroke-width="1" fill="none" fill-rule="evenodd">
    <g id="home-dmx" transform="translate(-501.000000, -415.000000)" fill="#FFFFFF">
      <g id="tiles" transform="translate(17.000000, 415.000000)">
        <g id="industries" transform="translate(443.000000, 0.000000)">
          <g id="industries-ico" transform="translate(41.000000, 0.000000)">
            <path d="M20.728,24.7759 L1.272,24.7759 L1.272,12.4879 L4.344,12.4879 L4.344,19.1439 C4.344,19.3219 4.436,19.4859 4.587,19.5799 C4.738,19.6729 4.927,19.6819 5.085,19.6019 L12.536,15.8769 L12.536,19.1439 C12.536,19.3219 12.628,19.4859 12.779,19.5799 C12.93,19.6729 13.118,19.6809 13.277,19.6019 L20.728,15.8769 L20.728,24.7759 Z M1.272,11.4639 L4.344,11.4639 L4.344,9.4159 L1.272,9.4159 L1.272,11.4639 Z M21.509,14.6119 C21.358,14.5179 21.169,14.5109 21.011,14.5899 L13.56,18.3159 L13.56,15.0479 C13.56,14.8699 13.468,14.7059 13.317,14.6119 C13.166,14.5179 12.978,14.5109 12.819,14.5899 L5.368,18.3159 L5.368,8.9039 C5.368,8.6219 5.139,8.3919 4.856,8.3919 L0.76,8.3919 C0.478,8.3919 0.248,8.6219 0.248,8.9039 L0.248,25.2879 C0.248,25.5709 0.478,25.7999 0.76,25.7999 L21.24,25.7999 C21.523,25.7999 21.752,25.5709 21.752,25.2879 L21.752,15.0479 C21.752,14.8699 21.66,14.7059 21.509,14.6119 L21.509,14.6119 Z" id="Fill-474"></path>
            <path d="M6.9038,20.6802 C6.6218,20.6802 6.3918,20.9092 6.3918,21.1922 L6.3918,22.2162 C6.3918,22.4992 6.6218,22.7282 6.9038,22.7282 C7.1868,22.7282 7.4158,22.4992 7.4158,22.2162 L7.4158,21.1922 C7.4158,20.9092 7.1868,20.6802 6.9038,20.6802" id="Fill-476"></path>
            <path d="M9.9761,20.6802 C9.6931,20.6802 9.4641,20.9092 9.4641,21.1922 L9.4641,22.2162 C9.4641,22.4992 9.6931,22.7282 9.9761,22.7282 C10.2591,22.7282 10.4881,22.4992 10.4881,22.2162 L10.4881,21.1922 C10.4881,20.9092 10.2591,20.6802 9.9761,20.6802" id="Fill-478"></path>
            <path d="M15.0962,22.728 C15.3792,22.728 15.6082,22.499 15.6082,22.216 L15.6082,21.192 C15.6082,20.909 15.3792,20.68 15.0962,20.68 C14.8132,20.68 14.5842,20.909 14.5842,21.192 L14.5842,22.216 C14.5842,22.499 14.8132,22.728 15.0962,22.728" id="Fill-480"></path>
            <path d="M18.168,22.728 C18.451,22.728 18.68,22.499 18.68,22.216 L18.68,21.192 C18.68,20.909 18.451,20.68 18.168,20.68 C17.885,20.68 17.656,20.909 17.656,21.192 L17.656,22.216 C17.656,22.499 17.885,22.728 18.168,22.728" id="Fill-482"></path>
            <path d="M2.8081,5.3198 C3.0911,5.3198 3.3201,5.0908 3.3201,4.8078 C3.3201,2.8318 4.9281,1.2238 6.9041,1.2238 C8.8801,1.2238 10.4881,2.8318 10.4881,4.8088 C10.4881,6.2198 11.6361,7.3688 13.0481,7.3688 C14.4591,7.3688 15.6081,6.2198 15.6081,4.8088 C15.6081,4.5258 15.3791,4.2968 15.0961,4.2968 C14.8131,4.2968 14.5841,4.5258 14.5841,4.8088 C14.5841,5.6548 13.8951,6.3448 13.0481,6.3448 C12.2011,6.3448 11.5121,5.6548 11.5121,4.8078 C11.5121,2.2678 9.4441,0.1998 6.9041,0.1998 C4.3631,0.1998 2.2961,2.2678 2.2961,4.8078 C2.2961,5.0908 2.5251,5.3198 2.8081,5.3198" id="Fill-484"></path>
          </g>
        </g>
      </g>
    </g>
  </g>
</svg>
