<svg width="26px" height="26px" viewBox="0 0 26 26" version="1.1"
  xmlns="http://www.w3.org/2000/svg"
  xmlns:xlink="http://www.w3.org/1999/xlink">
  <g id="Page-1" stroke="none" stroke-width="1" fill="none" fill-rule="evenodd">
    <g id="home-dmx" transform="translate(-712.000000, -420.000000)" fill="#FFFFFF">
      <g id="tiles" transform="translate(17.000000, 415.000000)">
        <g id="occupations" transform="translate(661.000000, 3.000000)">
          <g id="occupations-ico" transform="translate(34.000000, 2.000000)">
            <path d="M18.0732,13.8037 L16.0492,15.8547 L16.8252,16.6317 L18.8482,14.6077 L21.3992,17.1577 L20.1512,18.4057 L20.9272,19.1817 L22.1762,17.9337 L23.5892,19.3477 L19.3472,23.5887 L13.2772,17.5187 L17.5182,13.2777 L18.0732,13.8037 Z M4.2682,19.0427 L6.9572,21.7317 L3.2152,22.7847 L4.2682,19.0427 Z M2.4112,6.6527 L6.6522,2.4107 L8.0652,3.8247 L6.0422,5.8477 L6.8182,6.6247 L8.8422,4.6007 L11.3922,7.1507 L10.1442,8.3987 L10.9212,9.1747 L12.1682,7.9277 L12.7222,8.4817 L8.4812,12.7227 L2.4112,6.6527 Z M4.7952,17.9897 L16.8252,5.9317 L20.0682,9.1747 L8.0102,21.2047 L4.7952,17.9897 Z M22.8122,6.4027 L20.8442,8.3707 L17.6012,5.1557 L19.5692,3.1867 L22.8122,6.4027 Z M19.5972,1.6347 L13.4992,7.7057 L6.6522,0.8587 L0.8312,6.6797 L7.7052,13.4987 L3.5192,17.6847 L1.6072,24.3927 L8.3152,22.4807 L12.5012,18.2947 L19.3472,25.1417 L25.1692,19.3207 L18.2952,12.5007 L24.3652,6.4027 L19.5972,1.6347 Z" id="Fill-1049"></path>
          </g>
        </g>
      </g>
    </g>
  </g>
</svg>
