<svg xmlns="http://www.w3.org/2000/svg" viewBox="0 0 26 26" enable-background="new 0 0 26 26"><path fill="#FFFFFF" d="M9.7.7h-6.8c-1.2 0-2.3 1-2.3 2.3v6.8c0 1.2 1 2.3 2.3 2.3h6.8c1.3-.1 2.3-1.1 2.3-2.4v-6.8c-.1-1.2-1.1-2.2-2.3-2.2zm1.5 9c0 .8-.7 1.5-1.5 1.5h-6.8c-.8 0-1.5-.7-1.5-1.5v-6.8c0-.8.7-1.5 1.5-1.5h6.8c.8 0 1.5.7 1.5 1.5v6.8zM16.4 11.9h6.8c1.2 0 2.3-1 2.3-2.3v-6.7c0-1.2-1-2.3-2.3-2.3h-6.8c-1.2 0-2.3 1-2.3 2.3v6.8c0 1.2 1 2.2 2.3 2.2zm-1.5-9c0-.8.7-1.5 1.5-1.5h6.8c.8 0 1.5.7 1.5 1.5v6.8c0 .8-.7 1.5-1.5 1.5h-6.8c-.8 0-1.5-.7-1.5-1.5v-6.8zM9.7 14.1h-6.8c-1.2 0-2.3 1-2.3 2.3v6.8c0 1.2 1 2.3 2.3 2.3h6.8c1.2 0 2.3-1 2.3-2.3v-6.8c-.1-1.3-1.1-2.3-2.3-2.3zm1.5 9c0 .8-.7 1.5-1.5 1.5h-6.8c-.8 0-1.5-.7-1.5-1.5v-6.8c0-.8.7-1.5 1.5-1.5h6.8c.8 0 1.5.7 1.5 1.5v6.8zM19.8 25.4c3.1 0 5.6-2.5 5.6-5.6s-2.5-5.6-5.6-5.6-5.6 2.5-5.6 5.6 2.5 5.6 5.6 5.6zm0-10.5c2.7 0 4.9 2.2 4.9 4.9s-2.2 4.9-4.9 4.9-4.9-2.2-4.9-4.9 2.2-4.9 4.9-4.9z"/></svg>
