<svg width="26px" height="24px" viewBox="0 0 26 24" version="1.1"
  xmlns="http://www.w3.org/2000/svg"
  xmlns:xlink="http://www.w3.org/1999/xlink">
  <g id="Page-1" stroke="none" stroke-width="1" fill="none" fill-rule="evenodd">
    <g id="home-dmx" transform="translate(-937.000000, -420.000000)">
      <g id="tiles" transform="translate(17.000000, 415.000000)">
        <g id="universities" transform="translate(883.000000, 4.000000)">
          <g id="universities-ico" transform="translate(37.000000, 1.000000)">
            <path d="M3.144,20.397 L22.857,20.397 L22.857,19.341 L3.144,19.341 L3.144,20.397 Z M17.224,18.638 L20.392,18.638 L20.392,10.894 L17.224,10.894 L17.224,18.638 Z M13.352,18.638 L16.52,18.638 L16.52,10.894 L13.352,10.894 L13.352,18.638 Z M9.48,18.638 L12.648,18.638 L12.648,10.894 L9.48,10.894 L9.48,18.638 Z M5.608,18.638 L8.776,18.638 L8.776,10.894 L5.608,10.894 L5.608,18.638 Z M13,1.796 L24.968,8.968 L24.968,10.189 L1.032,10.189 L1.032,8.968 L13,1.796 Z M13,0.982 L12.824,1.092 L0.504,8.484 L0.328,8.583 L0.328,8.781 L0.328,10.542 L0.328,10.894 L0.68,10.894 L4.904,10.894 L4.904,18.637 L2.792,18.637 L2.44,18.637 L2.44,18.989 L2.44,20.397 L0.68,20.397 L0.328,20.397 L0.328,20.75 L0.328,22.509 L0.328,22.861 L0.68,22.861 L22.856,22.861 L22.856,22.157 L1.032,22.157 L1.032,21.102 L24.968,21.102 L24.968,22.861 L25.672,22.861 L25.672,20.75 L25.672,20.397 L25.32,20.397 L23.56,20.397 L23.56,18.989 L23.56,18.637 L23.208,18.637 L21.096,18.637 L21.096,10.894 L25.32,10.894 L25.672,10.894 L25.672,10.542 L25.672,8.781 L25.672,8.583 L25.496,8.484 L13.176,1.092 L13,0.982 Z" id="Fill-1050" fill="#FFFFFF" fill-rule="evenodd"></path>
            <path d="M3.144,20.397 L22.857,20.397 L22.857,19.341 L3.144,19.341 L3.144,20.397 Z M17.224,18.638 L20.392,18.638 L20.392,10.894 L17.224,10.894 L17.224,18.638 Z M13.352,18.638 L16.52,18.638 L16.52,10.894 L13.352,10.894 L13.352,18.638 Z M9.48,18.638 L12.648,18.638 L12.648,10.894 L9.48,10.894 L9.48,18.638 Z M5.608,18.638 L8.776,18.638 L8.776,10.894 L5.608,10.894 L5.608,18.638 Z M13,1.796 L24.968,8.968 L24.968,10.189 L1.032,10.189 L1.032,8.968 L13,1.796 Z M13,0.982 L12.824,1.092 L0.504,8.484 L0.328,8.583 L0.328,8.781 L0.328,10.542 L0.328,10.894 L0.68,10.894 L4.904,10.894 L4.904,18.637 L2.792,18.637 L2.44,18.637 L2.44,18.989 L2.44,20.397 L0.68,20.397 L0.328,20.397 L0.328,20.75 L0.328,22.509 L0.328,22.861 L0.68,22.861 L22.856,22.861 L22.856,22.157 L1.032,22.157 L1.032,21.102 L24.968,21.102 L24.968,22.861 L25.672,22.861 L25.672,20.75 L25.672,20.397 L25.32,20.397 L23.56,20.397 L23.56,18.989 L23.56,18.637 L23.208,18.637 L21.096,18.637 L21.096,10.894 L25.32,10.894 L25.672,10.894 L25.672,10.542 L25.672,8.781 L25.672,8.583 L25.496,8.484 L13.176,1.092 L13,0.982 Z" id="Stroke-1051" stroke="#FFFFFF" stroke-width="0.4"></path>
          </g>
        </g>
      </g>
    </g>
  </g>
</svg>
