<?xml version="1.0" encoding="utf-8"?>
<!-- Generator: Adobe Illustrator 23.0.1, SVG Export Plug-In . SVG Version: 6.00 Build 0)  -->
<svg version="1.1" id="Capa_1" xmlns="http://www.w3.org/2000/svg" xmlns:xlink="http://www.w3.org/1999/xlink" x="0px" y="0px"
	 viewBox="0 0 200 200" style="enable-background:new 0 0 200 200;" xml:space="preserve">
<style type="text/css">
	.st0{fill:#FFFFFF;}
</style>
<path class="st0" d="M159.3,53.5h-29V43.3c0-5.4-4.4-9.9-9.9-9.9H80c-5.4,0-9.9,4.4-9.9,9.9v10.2H39.5c-8.2,0-14.8,6.6-14.8,14.8
	v80.9c0,8.2,6.6,14.8,14.8,14.8h119.8c9,0,16.5-7.4,16.5-16.5V69.9C175.7,60.9,168.3,53.5,159.3,53.5z M80,43.1h40.5v10.2H80V43.1z
	 M120.3,113.7h-15.1v15.1c0,2.8-2.1,4.9-4.9,4.9c-2.8,0-4.9-2.1-4.9-4.9v-15.1H80.1c-2.8,0-4.9-2.1-4.9-4.9c0-2.8,2.1-4.9,4.9-4.9
	h15.1V88.7c0-2.8,2.1-4.9,4.9-4.9c2.8,0,4.9,2.1,4.9,4.9v15.1h15.1c2.8,0,4.9,2.1,4.9,4.9C125.2,111.5,123.1,113.7,120.3,113.7z"/>
</svg>
