<?xml version="1.0" encoding="utf-8"?>
<!-- Generator: Adobe Illustrator 23.0.1, SVG Export Plug-In . SVG Version: 6.00 Build 0)  -->
<svg version="1.1" id="Capa_1" xmlns="http://www.w3.org/2000/svg" xmlns:xlink="http://www.w3.org/1999/xlink" x="0px" y="0px"
	 viewBox="0 0 200 200" style="enable-background:new 0 0 200 200;" xml:space="preserve">
<style type="text/css">
	.st0{fill:#FFFFFF;}
</style>
<path class="st0" d="M99.7,176.2c-41.9,0-75.9-34-75.9-75.9s34-75.9,75.9-75.9s75.9,34,75.9,75.9S141.6,176.2,99.7,176.2z
	 M99.7,153.8c29.6,0,53.6-24,53.6-53.6s-24-53.6-53.6-53.6s-53.6,24-53.6,53.6S70.1,153.8,99.7,153.8z M119.8,140.2
	c-4.8,2.4-10,4-15.6,4.5V55.9c5.6,0.6,10.8,2.1,15.6,4.5V140.2z M128.7,66.4c9.6,8.2,15.6,20.3,15.6,33.9s-6.1,25.7-15.6,33.9V66.4z
	 M79.6,60.4c4.8-2.4,10-4,15.6-4.5v88.8c-5.6-0.6-10.8-2.1-15.6-4.5V60.4z M55.1,100.3c0-13.6,6.1-25.7,15.6-33.9v67.8
	C61.1,126,55.1,113.9,55.1,100.3z"/>
</svg>
