<?xml version="1.0" encoding="utf-8"?>
<!-- Generator: Adobe Illustrator 23.0.1, SVG Export Plug-In . SVG Version: 6.00 Build 0)  -->
<svg version="1.1" id="Capa_1" xmlns="http://www.w3.org/2000/svg" xmlns:xlink="http://www.w3.org/1999/xlink" x="0px" y="0px"
	 viewBox="0 0 200 200" style="enable-background:new 0 0 200 200;" xml:space="preserve">
<style type="text/css">
	.st0{fill:#FFFFFF;}
</style>
<path class="st0" d="M147.9,93.3L147.9,93.3l-43.5-66.9c-0.8-1.4-2.4-2.2-4-2.2c-1.6,0-3.2,0.8-4,2.2L52.9,93.1l-0.2,0.2
	c-9.7,16.7-9.1,37.3,1.2,55c10.1,17.5,27.6,28,46.4,28s36.3-10.5,46.4-28C156.9,130.6,157.6,109.8,147.9,93.3z M102.9,154
	c-2.8,0-4.8-2-4.8-4.8s2-4.8,4.8-4.8c12.1,0,22.2-10.1,22.2-22.4c0-2.8,2-4.8,4.8-4.8c2.8,0,4.8,2,4.8,4.8
	C134.6,139.6,120.3,154,102.9,154z"/>
</svg>
