<?xml version="1.0" encoding="utf-8"?>
<!-- Generator: Adobe Illustrator 23.0.1, SVG Export Plug-In . SVG Version: 6.00 Build 0)  -->
<svg version="1.1" id="Capa_1" xmlns="http://www.w3.org/2000/svg" xmlns:xlink="http://www.w3.org/1999/xlink" x="0px" y="0px"
	 viewBox="0 0 200 200" style="enable-background:new 0 0 200 200;" xml:space="preserve">
<style type="text/css">
	.st0{fill:#FFFFFF;}
</style>
<g>
	<path class="st0" d="M165.8,56.4h-33.9v-7.4c0-8-6.5-14.4-14.4-14.4H83.4c-8,0-14.4,6.5-14.4,14.4v7.4H35.1c-5.3,0-9.7,4.3-9.7,9.7
		v89.5c0,5.3,4.3,9.7,9.7,9.7h130.7c5.3,0,9.7-4.3,9.7-9.7V66.1C175.5,60.8,171.1,56.4,165.8,56.4z M116.4,92.4
		c0,11.6-7.5,20.2-16.7,20.2S83,104,83,92.4c0-8.6,6.5-15.6,14.8-16.6h3.8C109.9,76.8,116.4,83.8,116.4,92.4z M83.4,44.3h34.1
		c2.6,0,4.7,2.1,4.7,4.7v7.4H78.7v-7.4C78.7,46.5,80.8,44.3,83.4,44.3z M136.4,146H62.9c-1.3,0-2.3-1.2-2-2.5
		c2.6-12.1,11.2-21.3,22.8-25.7c0.9-0.4,2,0.1,2.5,0.9c5.3,9.1,4.6,7.9,7.1,12.3l3.9-6.7l-0.2-0.3l-1.8-3.1
		c-0.4-0.6,0.1-1.4,0.8-1.4h7.3c0.7,0,1.2,0.8,0.8,1.4l-1.8,3.1l-0.2,0.3l3.9,6.7c2.6-4.5,0.8-1.5,7.1-12.3c0.5-0.9,1.6-1.3,2.5-0.9
		c11.6,4.4,20.2,13.6,22.8,25.7C138.7,144.7,137.7,146,136.4,146z"/>
</g>
</svg>
