<svg width="200" height="200" viewBox="0 0 200 200" fill="none" xmlns="http://www.w3.org/2000/svg">
<g clip-path="url(#clip0_145_72)">
<rect width="200" height="200" fill="white"/>
<path d="M51.1247 144.926C51.3303 145.325 51.5352 145.723 51.7408 146.122C52.6805 147.335 53.7927 148.352 55.0911 149.178C55.395 149.372 55.5226 149.752 55.6191 150.107C55.667 150.312 55.6907 150.522 55.7015 150.732C55.7039 150.926 55.642 151.113 55.6126 151.304C55.4611 152.242 55.5695 152.375 56.5704 152.493C56.7045 152.488 56.8355 152.489 56.9704 152.497C58.3833 152.564 59.1605 153.412 59.6926 154.629C60.0941 155.551 60.5994 156.427 61.0282 157.34C61.1724 157.647 61.4363 157.98 61.0851 158.331C60.9813 158.309 60.8911 158.261 60.8138 158.19C60.1136 157.114 59.6346 155.924 59.0382 154.794C58.9752 154.668 58.9357 154.533 58.9015 154.385C59.0196 155.252 58.752 155.905 58.0078 156.428C57.5119 156.777 57.1419 157.309 56.6172 157.65C55.8222 158.166 55.2237 158.064 54.8018 157.244C54.3738 156.413 53.6932 156.03 52.8332 155.808C51.3844 155.435 49.9009 155.253 48.4371 154.96C47.7923 154.83 47.1959 154.619 46.7669 154.281C47.3663 155.367 47.9604 156.565 48.5153 157.782C48.6003 157.966 48.7929 158.26 48.3915 158.385C47.6821 157.991 47.558 157.198 47.2696 156.566C47.0085 155.996 46.7655 155.39 46.5703 154.781C46.202 154.647 46.3911 154.234 46.1894 154.017C45.6171 153.589 45.5135 152.933 45.3455 152.306C45.2937 151.916 45.3191 151.52 45.2922 151.126C45.1319 148.825 43.4897 147.241 41.1586 147.096C39.9715 147.023 38.7935 147.054 37.6118 147.15C36.7247 147.221 35.8686 147.108 35.0615 146.711C34.2392 146.306 33.3217 146.249 32.4579 145.992C32.2927 145.919 32.1487 145.817 32.0304 145.679C31.7661 144.948 31.8394 144.769 32.6689 144.674C33.8733 144.536 34.9275 144.133 35.7759 143.247C36.1711 142.886 36.5685 142.526 36.8628 142.07C37.5391 141.019 37.3066 140.139 36.1343 139.709C34.9445 139.274 33.7449 138.846 32.5061 138.567C31.3718 138.311 30.3851 137.813 29.5783 136.978C28.7935 136.168 28.0194 135.345 27.3239 134.456C26.9379 133.962 26.5724 133.474 25.9026 133.333C25.5737 133.262 25.328 132.988 25.3202 132.673C25.3045 131.973 24.8943 131.547 24.4098 131.144C23.7069 130.403 23.5401 129.34 22.86 128.584C22.1241 127.41 22.2441 126.844 23.3496 126.249C24.0881 126.066 24.7476 125.719 25.3548 125.263C26.1764 124.902 27.0163 124.627 27.9338 124.757L27.9172 124.746C28.8351 124.48 29.7515 124.225 30.7158 124.157C31.9225 124.073 33.0204 124.271 33.9188 125.146C34.2358 125.453 34.6184 125.475 35.0229 125.436C37.1832 125.221 39.3385 125.276 41.5067 125.383C42.7348 125.444 43.9808 125.307 45.221 125.309C47.208 125.312 49.1905 125.271 51.183 125.353C53.9936 125.468 56.794 125.094 59.5007 124.207C60.5443 123.866 61.5978 123.488 62.6756 123.325C64.6541 123.023 66.1562 121.952 67.5717 120.667C68.259 120.042 68.935 119.402 69.8043 119.012C70.4404 118.728 71.1312 118.578 71.7879 118.437C73.8261 118.001 75.9054 117.787 77.987 117.635C78.7657 117.578 79.4932 117.774 80.1874 118.128C81.6713 118.881 83.1265 119.686 84.5643 120.525C85.4079 121.018 86.1069 121.691 86.6485 122.48C87.542 123.783 88.7086 124.618 90.2581 124.916C90.4846 124.96 90.6786 125.075 90.8712 125.19C91.4406 124.966 92.0415 125.076 92.6263 125.048C93.7232 124.995 94.5675 124.532 95.1629 123.61C95.24 123.492 95.3256 123.379 95.3868 123.252C96.7851 120.359 99.357 119.54 102.285 119.352C102.868 119.313 103.433 119.148 104.033 119.207C105.526 119.355 106.706 119.978 107.559 121.245C107.997 121.895 108.411 122.556 108.814 123.227L108.801 123.22C109.278 123.563 109.789 123.858 110.313 124.109C111.432 124.648 112.231 125.446 112.681 126.616C113.047 127.569 113.747 128.249 114.592 128.807C114.931 129.031 115.297 129.147 115.671 129.267C117.883 129.968 120.09 129.964 122.313 129.292C122.97 129.094 123.655 128.832 124.361 129.155C124.579 129.635 124.253 129.957 124.014 130.293C123.215 131.417 122.33 132.476 121.538 133.606C120.401 135.231 119.592 136.956 119.792 139.023C119.917 140.313 119.675 141.549 119.016 142.68C118.635 143.335 118.661 143.898 119.129 144.543C119.62 145.221 119.964 146.006 120.244 146.807C120.402 147.258 120.574 147.704 120.872 148.09C121.357 149.046 122.121 149.823 122.601 150.781C122.655 150.908 122.722 151.018 122.873 151.043C123.82 151.175 124.341 151.841 124.875 152.547C126.32 154.464 128.141 155.814 130.589 156.184C131.922 156.386 133.241 156.686 134.601 156.662C134.744 156.66 134.879 156.695 134.998 156.777C135.075 156.811 135.169 156.862 135.237 156.828C136.642 156.145 138.1 155.56 139.394 154.66C140.725 153.873 142.249 153.646 143.697 153.203C144.855 152.848 146.035 152.566 147.205 152.258C148.046 152.038 148.773 151.641 149.282 150.903C149.614 150.422 150.116 150.161 150.62 149.901C151.544 149.426 152.531 149.051 153.285 148.296C153.337 148.195 153.388 148.092 153.437 147.991C153.676 147.128 154.421 146.641 154.948 145.999C155.529 145.287 155.952 144.55 156.173 143.638C156.48 142.368 157.328 141.337 157.944 140.204C158.586 139.03 159.643 138.462 160.875 138.123C161.622 137.92 162.203 137.249 163.055 137.336L163.047 137.331C163.483 137.294 163.882 137.081 164.183 136.826C165.357 135.826 166.795 135.549 168.225 135.304C169.359 135.109 170.432 134.636 171.598 134.611C171.738 134.609 171.877 134.538 171.982 134.449C173.158 133.46 174.604 133.408 176.022 133.304C176.647 133.258 177.28 133.367 177.522 134.112C177.366 135.423 176.474 136.315 175.7 137.271C175.346 137.709 174.887 138.05 174.481 138.441C173.948 138.955 173.693 139.539 173.724 140.321C173.776 141.701 173.147 142.895 172.391 143.992C171.638 145.084 170.888 146.161 170.348 147.386C169.908 148.387 169.366 148.52 168.386 148.019C168.066 147.855 167.759 147.789 167.413 147.881C166.144 148.219 165.036 148.756 164.511 150.084C164.321 150.567 163.981 150.855 163.414 150.844C162.767 150.83 162.264 151.278 161.67 151.448C159.152 152.174 156.642 152.926 154.063 153.422C152.739 153.676 152.505 153.934 152.393 155.28C152.36 155.668 152.132 155.886 151.875 156.106C151.43 156.488 151.482 156.851 151.98 157.096C152.997 157.598 154.053 157.969 155.219 157.866C155.459 157.844 155.82 157.631 155.809 158.154C155.621 158.591 155.81 158.968 155.996 159.344C156.454 160.265 156.92 161.184 157.376 162.105C157.525 162.402 157.695 162.696 157.678 163.045C157.668 163.145 157.615 163.213 157.522 163.251C157.065 163.144 156.995 162.709 156.793 162.386C156.275 161.552 156.065 160.547 155.362 159.825C155.157 160.483 154.659 160.74 154.032 160.851C152.918 161.048 151.79 161.137 150.665 161.167C148.653 161.22 147.257 162.484 146.15 163.841C145.456 164.69 145.036 165.966 144.896 167.189C144.867 167.441 144.876 167.698 144.833 167.947C144.627 169.117 144.116 169.363 143.085 168.785C142.786 168.616 142.476 168.48 142.139 168.429C140.218 168.141 138.436 167.454 136.716 166.578C134.317 165.357 131.881 165.456 129.414 166.355C128.324 166.751 127.321 167.295 126.3 167.843C124.946 168.571 123.481 169.11 121.937 169.398C119.992 169.763 118.027 169.955 116.064 170.171C115.467 170.238 114.878 170.156 114.297 170.047C111.511 169.528 108.689 169.391 105.868 169.41C103.509 169.425 101.199 169.219 98.9284 168.564C96.4188 167.84 93.8507 167.865 91.282 168.077C89.6822 168.208 88.1904 168.082 86.9047 166.98C86.4362 166.578 85.8006 166.572 85.2164 166.499C83.8731 166.333 82.5284 166.209 81.2145 165.844C80.2309 165.572 79.3836 165.125 78.6951 164.375C78.3819 163.999 78.2232 163.539 77.9895 163.118C77.2487 162.388 77.2427 161.529 77.5374 160.612C77.7527 159.941 78.0135 159.282 78.1356 158.584C78.4726 157.533 78.1385 156.612 77.4696 155.833C75.4851 153.518 73.1344 151.738 70.0817 151.075C68.7913 150.796 67.7492 150.206 66.9642 149.089C66.1579 147.941 64.9408 147.433 63.5559 147.305C62.3521 147.194 61.1287 147.297 59.9368 146.971C60.0545 147.301 60.4259 147.581 60.1596 147.995C59.5231 147.794 59.4248 147.148 59.0873 146.702C58.6457 145.843 58.8557 145.128 59.5612 144.513C59.7315 144.365 59.8852 144.199 60.0312 144.025C60.2795 143.73 60.4474 143.407 60.2902 143.018C60.1316 142.622 59.7716 142.528 59.3959 142.489C59.0299 142.45 58.6625 142.458 58.2974 142.463C57.561 142.472 56.9222 142.252 56.365 141.749C55.5235 140.988 54.5367 140.49 53.386 140.5C51.6679 140.516 50.483 139.554 49.3851 138.422C48.755 137.773 48.2218 137.034 47.7393 136.275C46.939 135.015 45.895 133.99 44.7155 133.114C43.8377 132.463 43.5242 131.693 43.7263 130.626C43.9239 129.579 43.7396 129.348 42.7174 129.043C42.2302 128.899 41.721 128.855 41.2263 128.756C39.5654 128.425 38.4828 129.217 37.6013 130.487C37.3464 130.855 37.1445 131.284 37.2978 131.677C37.8384 133.055 38.2699 134.51 39.4692 135.519C40.8041 136.535 42.0286 137.697 43.763 138.099C44.9336 138.371 45.6927 139.213 45.9641 140.427C45.7135 141.451 45.8015 141.623 46.7913 142.052C47.8425 142.611 48.7136 143.464 49.8443 143.891C50.3407 144.144 50.8825 144.344 51.1194 144.919L51.1247 144.926Z" fill="#D0D6DD"/>
<path d="M155.794 157.983C154.308 158.402 152.985 157.879 151.726 157.198C150.994 156.802 150.988 156.503 151.65 156.014C152.09 155.689 152.241 155.389 152.156 154.836C152.028 153.999 152.505 153.477 153.671 153.266C156.329 152.787 158.902 151.985 161.501 151.277C162.267 151.07 162.883 150.38 163.807 150.618C164.035 150.676 164.243 150.248 164.362 149.944C164.842 148.709 166.592 147.533 167.856 147.549C168.206 147.554 168.42 147.777 168.671 147.95C169.151 148.28 169.702 148.263 169.894 147.74C170.75 145.425 172.807 143.774 173.406 141.328C173.473 141.057 173.638 140.798 173.552 140.508C173.232 139.435 173.797 138.702 174.532 138.086C175.789 137.036 176.727 135.758 177.424 134.291C178.617 135.666 179.441 137.269 179.781 139.022C179.944 139.861 179.125 140.597 178.586 141.275C178.045 141.955 177.457 142.596 176.813 143.19C176.288 143.673 176.027 144.253 176.05 145.05C176.096 146.704 175.248 148.068 174.293 149.339C173.629 150.221 173.082 151.16 172.636 152.164C172.305 152.906 171.754 153.179 171.094 152.907C169.748 152.356 167.937 152.759 167.313 154.076C166.646 155.482 165.399 155.611 164.237 156.04C164.127 156.079 164.015 156.054 163.906 156.016L163.852 156.001L163.82 156.048C161.475 157.043 159.002 157.587 156.517 158.08C156.269 158.13 156.016 158.154 155.794 157.981L155.794 157.983Z" fill="#AAB0B5"/>
<path d="M88.109 171.085C87.2763 170.969 86.4482 170.799 85.6125 170.75C82.9193 170.589 81.0069 169.34 79.9177 166.848C79.5799 166.076 79.1793 165.333 78.8075 164.576C78.8006 164.494 78.8157 164.418 78.8557 164.347C80.2333 165.629 81.9941 165.933 83.7473 166.123C85.2966 166.292 86.7838 166.432 88.0824 167.458C88.9542 168.147 90.0744 167.917 91.1084 167.871C93.2719 167.776 95.4384 167.569 97.5864 168.052C98.7094 168.304 99.8489 168.503 100.956 168.814C101.919 169.083 102.895 169.17 103.875 169.172C107.566 169.179 111.236 169.343 114.9 169.887C116.962 170.193 119.034 169.606 121.095 169.34C122.733 169.13 124.232 168.491 125.752 167.922C126.062 167.807 126.329 167.58 126.623 167.414C129.527 165.771 132.543 164.781 135.875 165.973C136.769 166.292 137.584 166.831 138.472 167.178C139.599 167.619 140.747 168.005 141.96 168.168C142.484 168.239 142.995 168.351 143.42 168.749C143.841 169.147 144.235 169.071 144.463 168.494C144.494 168.416 144.575 168.339 144.567 168.267C144.44 166.804 145.296 165.596 145.605 164.248C145.648 164.058 145.682 163.806 145.813 163.704C147.268 162.564 148.488 161.028 150.578 160.953C151.699 160.912 152.815 160.743 153.936 160.655C154.635 160.601 155.092 160.281 155.269 159.591C155.677 159.595 155.718 159.957 155.865 160.212C156.435 161.199 156.776 162.311 157.478 163.229C157.519 163.212 157.56 163.191 157.598 163.169C157.686 163.284 157.717 163.406 157.641 163.541C157.496 163.654 157.471 163.778 157.604 163.918C157.602 164.779 157.22 165.276 156.317 165.338C155.279 165.411 154.246 165.585 153.209 165.603C151.022 165.642 149.664 167.129 148.162 168.378C147.994 169.578 147.149 170.553 147.044 171.774C147.013 172.139 147.021 172.511 146.941 172.865C146.736 173.753 146.273 173.896 145.605 173.276C145.311 173.003 144.964 172.938 144.603 172.884C142.976 172.64 141.396 172.25 139.949 171.434C137.216 169.893 134.398 169.731 131.495 170.897C131.394 170.938 131.275 170.939 131.165 170.958C131.16 170.891 131.187 170.851 131.249 170.83C131.255 170.826 131.247 170.781 131.245 170.755C129.904 171.549 128.419 172.075 127.114 172.939C126.217 173.444 125.228 173.683 124.231 173.859C121.097 174.412 117.981 174.908 114.766 174.262C112.449 173.796 110.055 173.859 107.689 173.872C105.85 173.88 104.031 173.789 102.257 173.264C99.4341 172.428 96.5529 172.267 93.6396 172.54C92.0489 172.689 90.5473 172.589 89.3016 171.404C88.9938 171.111 88.5476 171.049 88.112 171.087L88.109 171.085Z" fill="#AAB0B5"/>
<path d="M59.1851 146.545C58.0584 145.461 56.7299 144.904 55.1505 144.917C54.2543 144.925 53.5629 144.411 52.8928 143.883C51.4987 142.783 50.6209 141.254 49.5668 139.873C49.0389 139.182 48.4346 138.562 47.7084 138.07C46.3603 137.565 45.8002 136.383 45.2667 135.193C44.4796 133.433 44.2529 133.291 42.3379 133.402C41.7706 133.434 41.3374 133.64 40.931 134.054C40.42 134.573 40.0577 135.238 39.4149 135.626C38.9225 135.661 38.7396 135.269 38.5636 134.944C38.081 134.053 37.6477 133.135 37.1856 132.232C37.0528 131.971 37.0147 131.698 37.0326 131.413C37.0976 130.321 38.7279 128.655 39.8202 128.551C40.9853 128.441 42.1073 128.604 43.2212 128.956C43.9297 129.179 44.2263 129.65 44.0216 130.296C43.603 131.616 44.0704 132.458 45.1718 133.2C46.809 134.301 47.818 135.997 48.9474 137.563C49.6186 138.494 50.4919 139.189 51.422 139.828C51.8237 140.104 52.2874 140.22 52.7806 140.222C54.3078 140.226 55.6514 140.695 56.7493 141.789C57.1124 142.151 57.5799 142.237 58.067 142.249C58.5458 142.259 59.0261 142.234 59.5034 142.264C59.9731 142.294 60.3823 142.453 60.5683 142.953C60.7506 143.445 60.5759 143.826 60.2307 144.166C60.1104 144.285 60.0014 144.415 59.8712 144.522C59.2149 145.054 58.8381 145.675 59.1836 146.545L59.1851 146.545Z" fill="#AAB0B5"/>
<path d="M78.2721 158.584C76.364 157.109 74.3668 155.835 71.9339 155.377C70.9398 155.189 70.1621 154.616 69.5704 153.742C68.8248 152.639 67.722 152.015 66.4 151.865C65.3105 151.74 64.2128 151.697 63.118 151.619C62.1407 151.547 61.4374 151.244 61.2062 150.11C61.0533 149.362 60.5527 148.684 60.2074 147.976C60.0389 147.599 59.8712 147.222 59.6602 146.744C61.0884 147.058 62.4663 146.953 63.8202 147.121C65.2605 147.299 66.4883 147.904 67.3052 149.187C67.9197 150.152 68.8852 150.627 69.9528 150.833C73.2138 151.465 75.6669 153.362 77.7303 155.817C78.3605 156.568 78.8628 157.513 78.2736 158.583L78.2721 158.584Z" fill="#AAB0B5"/>
<path d="M124.362 129.228C124.708 129.299 124.72 129.634 124.84 129.866C125.373 130.891 125.826 131.962 126.418 132.95C126.839 133.65 126.739 134.172 126.273 134.771C125.324 135.992 124.377 137.218 123.492 138.485C122.37 140.092 121.673 141.823 121.933 143.867C122.131 145.414 121.431 146.777 120.773 148.124C120.229 147.976 120.245 147.413 120.1 147.052C119.7 146.06 119.318 145.079 118.638 144.233C118.316 143.832 118.4 143.369 118.639 142.965C119.394 141.693 119.743 140.327 119.582 138.853C119.368 136.882 120.16 135.235 121.228 133.691C122.06 132.492 122.968 131.347 123.85 130.185C124.073 129.892 124.268 129.59 124.363 129.231L124.362 129.228Z" fill="#AAB0B5"/>
<path d="M61.1109 158.333C61.2167 158.922 60.8877 159.491 61.0298 160.081C61.0352 160.106 61.039 160.152 61.0254 160.162C60.0192 160.854 59.4316 162.079 58.1637 162.426C57.8388 162.515 57.5274 162.404 57.4346 162.034C57.1602 160.938 56.2978 160.536 55.3431 160.317C53.7845 159.96 52.207 159.681 50.6408 159.354C49.8627 159.192 49.1488 158.879 48.5605 158.325C47.8305 156.869 47.0997 155.41 46.2771 153.768C48.3533 155.182 50.6954 154.929 52.8148 155.567C53.7749 155.857 54.6304 156.165 55.0002 157.179C55.2789 157.939 55.8243 157.875 56.3551 157.576C57.1895 157.109 57.7214 156.276 58.4943 155.709C58.9766 155.355 58.4965 154.624 58.8119 154.074C59.0385 154.163 59.0561 154.395 59.1411 154.576C59.6709 155.799 60.2719 156.987 60.9289 158.147L61.1139 158.331L61.1109 158.333Z" fill="url(#paint0_linear_145_72)"/>
<path d="M45.4417 152.139C44.561 151.644 43.6018 151.477 42.6056 151.5C41.8473 151.518 41.0906 151.551 40.3338 151.602C39.2847 151.671 38.2793 151.578 37.2903 151.147C36.628 150.858 35.8983 150.71 35.1846 150.564C34.6246 150.448 34.254 150.208 34.1702 149.617C33.8519 148.592 33.2383 147.708 32.8147 146.734C32.6955 146.458 32.4529 146.224 32.4958 145.886C33.2557 145.912 34.0292 146.008 34.6924 146.356C36.0687 147.076 37.5011 146.932 38.9616 146.867C40.3517 146.805 41.7395 146.732 43.0658 147.439C45.4259 148.697 45.6479 149.658 45.4387 152.14L45.4417 152.139Z" fill="url(#paint1_linear_145_72)"/>
<path d="M35.8632 143.315C33.0138 142.987 31.4045 140.932 29.7642 138.925C29.3562 138.425 29.0141 137.882 28.2701 137.819C27.9163 137.79 27.754 137.534 27.7953 137.155C27.8329 136.818 27.8447 136.452 27.5135 136.241C26.4394 135.557 26.1566 134.357 25.5944 133.341C25.1696 132.747 24.9153 132.061 24.5769 131.42C24.5048 131.284 24.4971 131.155 24.6773 131.091C25.1042 131.489 25.5734 131.836 25.4778 132.556C25.4379 132.851 25.67 133.193 26.042 133.179C26.6654 133.157 26.9468 133.609 27.2396 133.997C28.02 135.032 28.9094 135.968 29.8049 136.9C30.5722 137.698 31.5233 138.103 32.5924 138.368C33.8457 138.68 35.0846 139.084 36.2918 139.546C37.5339 140.021 37.7929 140.893 37.1318 142.036C36.8232 142.569 36.4857 143.087 35.8632 143.315Z" fill="url(#paint2_linear_145_72)"/>
<path d="M45.8779 140.535C46.164 141.087 46.4516 141.638 46.7377 142.19C45.6064 141.906 45.3181 141.35 45.8779 140.535Z" fill="#AAB0B5"/>
<path d="M157.603 163.916C157.43 163.865 157.305 163.763 157.374 163.573C157.419 163.45 157.542 163.483 157.64 163.54C157.627 163.666 157.616 163.791 157.603 163.916Z" fill="#29A60C"/>
<path d="M72.2938 72.8047C72.6474 72.8047 72.9964 72.6465 73.243 72.3859C73.792 71.7996 86.569 57.8734 86.569 50.2891C86.569 42.7049 80.1619 36 72.2938 36C64.4257 36 58 42.4117 58 50.2938C58 58.1759 70.7816 71.8043 71.326 72.3906C71.5726 72.6511 71.9262 72.8093 72.2891 72.8093L72.2938 72.8047ZM64.4908 50.2659C64.4908 45.9666 67.9945 42.4629 72.2938 42.4629C76.5931 42.4629 80.0828 45.9666 80.0828 50.2659C80.0828 54.5652 76.5931 58.0549 72.2938 58.0549C67.9945 58.0549 64.4908 54.5652 64.4908 50.2659Z" fill="#9F2241"/>
<path d="M128.333 62.9952H91.9541V87.5513H128.333V62.9952Z" fill="#CCCD67"/>
<path d="M79.2804 70.835L92.0586 62.9998V70.835L103.741 62.7679V70.835L115.892 62.9998V87.6787L79.2804 88.0061V70.835Z" fill="#929083"/>
<path d="M128.333 76.1827H116.055V78.4565H128.333V76.1827Z" fill="#F7F4F0"/>
<path d="M128.333 79.8207H116.055V82.0944H128.333V79.8207Z" fill="#F7F4F0"/>
<path d="M125.605 36.1655H119.693V62.9953H125.605V36.1655Z" fill="#929083"/>
<path d="M122.222 31.5998C124.104 31.5998 125.632 30.0719 125.632 28.1893C125.632 26.3066 124.104 24.7787 122.222 24.7787" fill="#F7F4F0"/>
<path d="M122.676 17.9576C120.794 17.9576 119.266 19.4855 119.266 21.3681C119.266 23.2508 120.794 24.7787 122.676 24.7787" fill="#EFEEDC"/>
<path d="M122.745 17.8211C124.627 17.8211 126.155 16.2932 126.155 14.4106C126.155 12.5279 124.627 11 122.745 11" fill="#F7F4F0"/>
<path d="M82.0634 75.437H85.0828V78.4565H82.0634V75.437Z" fill="#F7F4F0"/>
<path d="M88.0979 75.437H91.1174V78.4565H88.0979V75.437Z" fill="#F7F4F0"/>
<path d="M82.0816 80.8894H85.101V83.9089H82.0816V80.8894Z" fill="#F7F4F0"/>
<path d="M88.116 80.8894H91.1355V83.9089H88.116V80.8894Z" fill="#F7F4F0"/>
<path d="M99.5619 75.3733H102.581V78.3928H99.5619V75.3733Z" fill="#F7F4F0"/>
<path d="M105.596 75.3733H108.616V78.3928H105.596V75.3733Z" fill="#F7F4F0"/>
<path d="M99.5755 80.8211H102.595V83.8406H99.5755V80.8211Z" fill="#F7F4F0"/>
<path d="M105.61 80.8211H108.629V83.8406H105.61V80.8211Z" fill="#F7F4F0"/>
<path d="M80.9048 88.1865H58C58.0052 91.1471 58.2958 94.0999 58.8665 97.0055H61.8428C62.7851 97.0212 63.6987 97.3406 64.45 97.9112C65.1986 98.4845 65.7457 99.2829 66.0075 100.189C66.6907 102.335 67.5546 104.419 68.5938 106.416C69.0493 107.243 69.2299 108.196 69.1042 109.133C68.9786 110.07 68.5571 110.942 67.9001 111.623L65.785 113.738C69.099 118.659 73.3344 122.894 78.2583 126.211L80.3734 124.096C81.0514 123.439 81.9257 123.017 82.8602 122.892C83.7973 122.766 84.7502 122.947 85.5774 123.402C87.5747 124.442 89.6583 125.305 91.8048 125.989C92.7106 126.253 93.509 126.797 94.0822 127.549C94.6555 128.297 94.9722 129.214 94.9879 130.156V133.132C100.81 134.289 106.804 134.289 112.626 133.132V130.156C112.642 129.214 112.958 128.3 113.532 127.549C114.105 126.8 114.903 126.253 115.809 125.989C117.956 125.305 120.039 124.442 122.037 123.402C122.864 122.944 123.817 122.766 124.754 122.892C125.691 123.017 126.563 123.439 127.243 124.096L129.358 126.211C134.279 122.897 138.515 118.662 141.829 113.74L139.714 111.625C139.057 110.947 138.635 110.073 138.51 109.136C138.384 108.199 138.565 107.249 139.02 106.419C140.059 104.421 140.923 102.338 141.606 100.191C141.868 99.2855 142.415 98.4871 143.164 97.9139C143.913 97.3406 144.829 97.0238 145.771 97.0081H148.745C149.318 94.1051 149.609 91.1498 149.614 88.1891H126.709L80.9048 88.1865ZM112.966 88.1891H94.6424H112.966ZM131.696 92.7701C130.246 101.668 124.636 109.34 116.597 113.421C108.558 117.502 99.0532 117.502 91.0143 113.421C82.9754 109.34 77.3657 101.668 75.9155 92.7701H131.696Z" fill="#0D2633"/>
</g>
<defs>
<linearGradient id="paint0_linear_145_72" x1="49.2108" y1="159.631" x2="59.2426" y2="154.604" gradientUnits="userSpaceOnUse">
<stop offset="0.01" stop-color="#DCDCE3"/>
<stop offset="1" stop-color="#EDEDF1"/>
</linearGradient>
<linearGradient id="paint1_linear_145_72" x1="34.8305" y1="151.086" x2="43.8385" y2="146.572" gradientUnits="userSpaceOnUse">
<stop offset="0.01" stop-color="#DCDCE3"/>
<stop offset="1" stop-color="#EDEDF1"/>
</linearGradient>
<linearGradient id="paint2_linear_145_72" x1="28.0274" y1="138.333" x2="34.6668" y2="135.006" gradientUnits="userSpaceOnUse">
<stop offset="0.01" stop-color="#DCDCE3"/>
<stop offset="1" stop-color="#EDEDF1"/>
</linearGradient>
<clipPath id="clip0_145_72">
<rect width="200" height="200" fill="white"/>
</clipPath>
</defs>
</svg>
