<svg width="200" height="200" viewBox="0 0 200 200" fill="none" xmlns="http://www.w3.org/2000/svg">
<rect width="200" height="200" fill="white"/>
<path d="M44.7323 57.6904C40.7293 59.5104 38.182 63.3306 38.182 67.8794V105.362H75.3003V93.7167C75.3003 91.5337 74.5731 89.7137 73.1173 88.2578L44.7323 57.6904Z" fill="#CCCCCC"/>
<path d="M38 113.55H75.1183V140.661H38V113.55Z" fill="#D8DBE2"/>
<path d="M38 169.409C38 175.778 43.0947 180.873 49.4633 180.873H75.119V148.667H38.0006L38 169.409Z" fill="#D0D6DD"/>
<path d="M83.3062 113.55H112.601V140.661H83.3062V113.55Z" fill="#CCCCCC"/>
<path d="M83.3062 148.667H112.601V180.873H83.3062V148.667Z" fill="#CCCCCC"/>
<path d="M149.537 56.5987H148.81C142.987 67.8794 134.071 85.3472 133.525 86.2573C131.523 90.2602 127.52 92.8076 122.971 92.8076C118.423 92.8076 114.42 90.2603 112.418 86.4386L97.3162 56.78H54.5573L78.757 82.9815C81.4858 86.0745 83.1242 89.896 83.1242 94.0806V105.363H160.818L160.817 68.0623C160.999 61.6933 155.905 56.599 149.536 56.599L149.537 56.5987Z" fill="#D0D6DD"/>
<path d="M132.07 148.667H120.606V180.873H149.536C154.631 180.873 158.816 177.598 160.454 173.049L137.711 151.032C136.256 149.577 134.071 148.667 132.07 148.667L132.07 148.667Z" fill="#D0D6DD"/>
<path d="M120.607 140.661H132.07C136.437 140.661 140.44 142.298 143.351 145.21L161 162.313V113.55H120.607V140.661Z" fill="#D8DBE2"/>
<path d="M119.697 82.6179C121.153 85.3467 124.973 85.3467 126.429 82.6179C126.429 82.6179 142.258 51.8676 145.715 44.7717C149.354 37.4943 149.354 29.3051 145.715 22.0277C139.348 9.47261 124.064 4.37826 111.69 10.7456C99.1351 17.1146 94.2221 32.7625 100.409 44.7708C106.414 56.78 119.696 82.6169 119.696 82.6169L119.697 82.6179ZM123.154 21.8457C129.886 21.8457 135.163 27.3046 135.163 33.8549C135.163 40.5868 129.704 45.8641 123.154 45.8641C116.422 45.8641 111.145 40.4052 111.145 33.8549C110.963 27.3046 116.421 21.8457 123.154 21.8457Z" fill="#9F2241"/>
<path d="M48.0108 129.999C48.1012 130.249 48.202 130.494 48.3139 130.732C48.5103 131.149 48.4545 131.639 48.1284 131.966L46.9982 133.096L49.9666 136.064L51.0967 134.934C51.4219 134.609 51.9135 134.552 52.33 134.748C52.568 134.861 52.814 134.963 53.0638 135.052C53.4981 135.208 53.8055 135.594 53.8055 136.055V137.655H58.0038V136.055C58.0038 135.594 58.3112 135.208 58.7446 135.053C58.9953 134.962 59.2399 134.861 59.4784 134.749C59.895 134.553 60.3851 134.609 60.7117 134.935L61.8418 136.065L64.8102 133.097L63.68 131.967C63.3548 131.641 63.2981 131.15 63.4945 130.733C63.6069 130.495 63.7086 130.249 63.7976 130C63.9541 129.565 64.3402 129.258 64.8008 129.258H66.4005V125.06H64.8008C64.3402 125.06 63.9536 124.752 63.7985 124.319C63.7081 124.068 63.6074 123.823 63.4954 123.585C63.2991 123.168 63.3548 122.678 63.681 122.352L64.8111 121.222L61.8428 118.253L60.7117 119.383C60.3865 119.709 59.8949 119.765 59.4784 119.569C59.2404 119.456 58.9944 119.355 58.7446 119.266C58.3112 119.109 58.0038 118.723 58.0038 118.263V116.663H53.8055V118.263C53.8055 118.723 53.4981 119.11 53.0647 119.265C52.8145 119.355 52.5704 119.456 52.3309 119.569C51.9144 119.765 51.4238 119.709 51.0977 119.383L49.967 118.253L46.9992 121.221L48.1293 122.352C48.4545 122.677 48.5112 123.168 48.3149 123.585C48.202 123.824 48.1012 124.068 48.0108 124.319C47.8552 124.752 47.4691 125.06 47.0085 125.06H45.4088V129.258H47.0085C47.4691 129.258 47.8552 129.565 48.0108 129.999ZM55.9048 128.887C58.2232 128.887 55.5847 126.588 55.5847 128.907C55.5847 131.225 58.2232 128.887 55.9048 128.887C53.5863 128.887 55.9048 131.576 55.9048 129.258C55.9048 126.939 53.5863 128.887 55.9048 128.887Z" fill="white"/>
<path d="M90.602 130.336C90.6924 130.586 90.7931 130.831 90.9051 131.07C91.1014 131.486 91.0457 131.976 90.7196 132.303L89.5894 133.433L92.5577 136.401L93.6879 135.271C94.0131 134.946 94.5046 134.889 94.9211 135.086C95.1592 135.198 95.4052 135.3 95.6549 135.389C96.0893 135.545 96.3967 135.931 96.3967 136.392V137.992H100.595V136.392C100.595 135.931 100.902 135.545 101.336 135.39C101.586 135.299 101.831 135.199 102.07 135.087C102.486 134.89 102.976 134.946 103.303 135.272L104.433 136.402L107.401 133.434L106.271 132.304C105.946 131.979 105.889 131.487 106.086 131.071C106.198 130.832 106.3 130.586 106.389 130.337C106.545 129.902 106.931 129.595 107.392 129.595H108.992V125.397H107.392C106.931 125.397 106.545 125.089 106.39 124.656C106.299 124.405 106.199 124.161 106.087 123.922C105.89 123.506 105.946 123.015 106.272 122.689L107.402 121.559L104.434 118.59L103.303 119.72C102.978 120.046 102.486 120.102 102.07 119.906C101.832 119.794 101.586 119.692 101.336 119.603C100.902 119.446 100.595 119.06 100.595 118.6V117H96.3967V118.6C96.3967 119.06 96.0893 119.447 95.6559 119.602C95.4056 119.692 95.1615 119.793 94.9221 119.907C94.5055 120.102 94.0149 120.046 93.6888 119.721L92.5582 118.59L89.5903 121.558L90.7205 122.689C91.0457 123.014 91.1024 123.506 90.9061 123.922C90.7931 124.162 90.6924 124.406 90.602 124.656C90.4464 125.089 90.0603 125.397 89.5997 125.397H88V129.595H89.5997C90.0603 129.595 90.4464 129.902 90.602 130.336ZM98.4959 129.224C100.814 129.224 98.1758 126.925 98.1758 129.244C98.1758 131.562 100.814 129.224 98.4959 129.224C96.1775 129.224 98.4959 131.913 98.4959 129.595C98.4959 127.277 96.1775 129.224 98.4959 129.224Z" fill="white"/>
<path d="M47.602 168.336C47.6924 168.586 47.7931 168.831 47.9051 169.07C48.1014 169.486 48.0457 169.976 47.7196 170.303L46.5894 171.433L49.5577 174.401L50.6879 173.271C51.0131 172.946 51.5046 172.889 51.9211 173.086C52.1592 173.198 52.4052 173.3 52.6549 173.389C53.0893 173.545 53.3967 173.931 53.3967 174.392V175.992H57.595V174.392C57.595 173.931 57.9024 173.545 58.3358 173.39C58.5865 173.299 58.8311 173.199 59.0696 173.087C59.4862 172.89 59.9763 172.946 60.3028 173.272L61.433 174.402L64.4014 171.434L63.2712 170.304C62.946 169.979 62.8893 169.487 63.0856 169.071C63.1981 168.832 63.2998 168.586 63.3888 168.337C63.5453 167.902 63.9314 167.595 64.392 167.595H65.9917V163.397H64.392C63.9314 163.397 63.5448 163.089 63.3897 162.656C63.2993 162.405 63.1985 162.161 63.0866 161.922C62.8902 161.506 62.946 161.015 63.2721 160.689L64.4023 159.559L61.434 156.59L60.3028 157.72C59.9776 158.046 59.4861 158.102 59.0696 157.906C58.8316 157.794 58.5856 157.692 58.3358 157.603C57.9024 157.446 57.595 157.06 57.595 156.6V155H53.3967V156.6C53.3967 157.06 53.0893 157.447 52.6559 157.602C52.4056 157.692 52.1615 157.793 51.9221 157.907C51.5055 158.102 51.0149 158.046 50.6888 157.721L49.5582 156.59L46.5903 159.558L47.7205 160.689C48.0457 161.014 48.1024 161.506 47.9061 161.922C47.7931 162.162 47.6924 162.406 47.602 162.656C47.4464 163.089 47.0603 163.397 46.5997 163.397H45V167.595H46.5997C47.0603 167.595 47.4464 167.902 47.602 168.336ZM55.4959 167.224C57.8144 167.224 55.1758 164.925 55.1758 167.244C55.1758 169.562 57.8144 167.224 55.4959 167.224C53.1775 167.224 55.4959 169.913 55.4959 167.595C55.4959 165.277 53.1775 167.224 55.4959 167.224Z" fill="white"/>
<path d="M132.602 131.336C132.692 131.586 132.793 131.831 132.905 132.07C133.101 132.486 133.046 132.976 132.72 133.303L131.589 134.433L134.558 137.401L135.688 136.271C136.013 135.946 136.505 135.889 136.921 136.086C137.159 136.198 137.405 136.3 137.655 136.389C138.089 136.545 138.397 136.931 138.397 137.392V138.992H142.595V137.392C142.595 136.931 142.902 136.545 143.336 136.39C143.586 136.299 143.831 136.199 144.07 136.087C144.486 135.89 144.976 135.946 145.303 136.272L146.433 137.402L149.401 134.434L148.271 133.304C147.946 132.979 147.889 132.487 148.086 132.071C148.198 131.832 148.3 131.586 148.389 131.337C148.545 130.902 148.931 130.595 149.392 130.595H150.992V126.397H149.392C148.931 126.397 148.545 126.089 148.39 125.656C148.299 125.405 148.199 125.161 148.087 124.922C147.89 124.506 147.946 124.015 148.272 123.689L149.402 122.559L146.434 119.59L145.303 120.72C144.978 121.046 144.486 121.102 144.07 120.906C143.832 120.794 143.586 120.692 143.336 120.603C142.902 120.446 142.595 120.06 142.595 119.6V118H138.397V119.6C138.397 120.06 138.089 120.447 137.656 120.602C137.406 120.692 137.162 120.793 136.922 120.907C136.506 121.102 136.015 121.046 135.689 120.721L134.558 119.59L131.59 122.558L132.721 123.689C133.046 124.014 133.102 124.506 132.906 124.922C132.793 125.162 132.692 125.406 132.602 125.656C132.446 126.089 132.06 126.397 131.6 126.397H130V130.595H131.6C132.06 130.595 132.446 130.902 132.602 131.336ZM140.496 130.224C142.814 130.224 140.176 127.925 140.176 130.244C140.176 132.562 142.814 130.224 140.496 130.224C138.177 130.224 140.496 132.913 140.496 130.595C140.496 128.277 138.177 130.224 140.496 130.224Z" fill="white"/>
<path d="M90.602 169.336C90.6924 169.586 90.7931 169.831 90.9051 170.07C91.1014 170.486 91.0457 170.976 90.7196 171.303L89.5894 172.433L92.5577 175.401L93.6879 174.271C94.0131 173.946 94.5046 173.889 94.9211 174.086C95.1592 174.198 95.4052 174.3 95.6549 174.389C96.0893 174.545 96.3967 174.931 96.3967 175.392V176.992H100.595V175.392C100.595 174.931 100.902 174.545 101.336 174.39C101.586 174.299 101.831 174.199 102.07 174.087C102.486 173.89 102.976 173.946 103.303 174.272L104.433 175.402L107.401 172.434L106.271 171.304C105.946 170.979 105.889 170.487 106.086 170.071C106.198 169.832 106.3 169.586 106.389 169.337C106.545 168.902 106.931 168.595 107.392 168.595H108.992V164.397H107.392C106.931 164.397 106.545 164.089 106.39 163.656C106.299 163.405 106.199 163.161 106.087 162.922C105.89 162.506 105.946 162.015 106.272 161.689L107.402 160.559L104.434 157.59L103.303 158.72C102.978 159.046 102.486 159.102 102.07 158.906C101.832 158.794 101.586 158.692 101.336 158.603C100.902 158.446 100.595 158.06 100.595 157.6V156H96.3967V157.6C96.3967 158.06 96.0893 158.447 95.6559 158.602C95.4056 158.692 95.1615 158.793 94.9221 158.907C94.5055 159.102 94.0149 159.046 93.6888 158.721L92.5582 157.59L89.5903 160.558L90.7205 161.689C91.0457 162.014 91.1024 162.506 90.9061 162.922C90.7931 163.162 90.6924 163.406 90.602 163.656C90.4464 164.089 90.0603 164.397 89.5997 164.397H88V168.595H89.5997C90.0603 168.595 90.4464 168.902 90.602 169.336ZM98.4959 168.224C100.814 168.224 98.1758 165.925 98.1758 168.244C98.1758 170.562 100.814 168.224 98.4959 168.224C96.1775 168.224 98.4959 170.913 98.4959 168.595C98.4959 166.277 96.1775 168.224 98.4959 168.224Z" fill="white"/>
<path d="M60.2814 126.328C60.1657 126.168 59.9816 126.078 59.7844 126.078H52.4468C52.2495 126.078 52.0654 126.168 51.9497 126.328C51.834 126.489 51.8024 126.691 51.8655 126.878L52.7834 129.634C52.8676 129.884 53.099 130.055 53.3646 130.055H53.7276C53.8538 130.399 54.1904 130.665 54.5876 130.665C54.9847 130.665 55.3213 130.397 55.4476 130.055H56.7836C56.9098 130.399 57.2465 130.665 57.6436 130.665C58.0407 130.665 58.3773 130.397 58.5036 130.055H58.8665C59.1295 130.055 59.3636 129.881 59.4477 129.631L60.3656 126.88C60.4287 126.694 60.3972 126.489 60.2814 126.331V126.328Z" fill="#ADC6AB"/>
<path d="M59.1742 130.97H53.0596C52.7229 130.97 52.4494 131.244 52.4494 131.58C52.4494 131.917 52.7229 132.19 53.0596 132.19H59.1742C59.5109 132.19 59.7844 131.917 59.7844 131.58C59.7844 131.244 59.5109 130.97 59.1742 130.97Z" fill="#ADC6AB"/>
<path d="M53.0596 125.468H58.8692C58.9796 125.468 59.0822 125.405 59.1348 125.308C59.19 125.213 59.1874 125.092 59.1322 124.997L58.2143 123.467C58.167 123.385 58.0828 123.333 57.9907 123.319C57.8961 123.309 57.804 123.341 57.7383 123.406L57.3201 123.824L56.0051 122.772C55.8841 122.675 55.7079 122.686 55.5975 122.796L54.5297 123.864L54.1142 123.656C53.9827 123.59 53.8222 123.627 53.7328 123.746L52.815 124.968C52.7466 125.061 52.7334 125.189 52.786 125.295C52.8386 125.397 52.9438 125.468 53.0596 125.468Z" fill="#ADC6AB"/>
<path d="M103.338 123.907C102.128 122.698 100.168 122.698 98.9585 123.907L98.621 124.245L98.2835 123.907C97.0737 122.698 95.1144 122.698 93.9074 123.907C92.6975 125.117 92.6975 127.077 93.9074 128.286L98.621 133L103.335 128.286C104.545 127.077 104.545 125.117 103.335 123.907H103.338ZM100.469 128.315C100.469 128.464 100.349 128.584 100.2 128.584H99.2417V129.542C99.2417 129.691 99.1216 129.811 98.9728 129.811H98.2807C98.1319 129.811 98.0118 129.691 98.0118 129.542V128.584H97.0536C96.9049 128.584 96.7848 128.464 96.7848 128.315V127.623C96.7848 127.474 96.9049 127.354 97.0536 127.354H98.0118V126.396C98.0118 126.247 98.1319 126.127 98.2807 126.127H98.9728C99.1216 126.127 99.2417 126.247 99.2417 126.396V127.354H100.2C100.349 127.354 100.469 127.474 100.469 127.623V128.315Z" fill="#2C5388"/>
<path d="M137.999 123.692H141.644C142.373 122.747 142.4 122.04 142.411 121.994C142.487 121.382 141.927 120.898 141.326 121.019C140.865 121.128 140.362 121.181 139.829 121.181C139.296 121.181 138.789 121.128 138.331 121.03C137.73 120.898 137.159 121.393 137.235 121.994C137.242 122.047 137.36 122.97 137.999 123.692Z" fill="#785594"/>
<path d="M141.81 124.286H137.847C136.172 125.579 135 128.305 135 130.593C135 133.716 137.167 134.828 139.84 134.828C142.513 134.828 144.68 133.697 144.68 130.593C144.669 128.305 143.496 125.579 141.81 124.286ZM140.267 132.064V132.359C140.267 132.597 140.074 132.786 139.84 132.786C139.606 132.786 139.413 132.593 139.413 132.359V132.064C139.163 131.988 138.932 131.848 138.751 131.655C138.588 131.481 138.596 131.213 138.77 131.05C138.944 130.888 139.212 130.895 139.375 131.069C139.496 131.198 139.662 131.273 139.844 131.273C140.195 131.273 140.483 130.986 140.483 130.634C140.483 130.283 140.195 129.995 139.844 129.995C139.016 129.995 138.346 129.322 138.346 128.498C138.346 127.821 138.796 127.246 139.416 127.061V126.766C139.416 126.528 139.609 126.339 139.844 126.339C140.078 126.339 140.271 126.532 140.271 126.766V127.061C140.521 127.137 140.751 127.277 140.933 127.469C141.095 127.643 141.088 127.912 140.918 128.074C140.744 128.237 140.475 128.229 140.313 128.059C140.192 127.931 140.025 127.855 139.844 127.855C139.492 127.855 139.205 128.143 139.205 128.494C139.205 128.846 139.492 129.133 139.844 129.133C140.672 129.133 141.341 129.806 141.341 130.631C141.341 131.307 140.887 131.882 140.267 132.064Z" fill="#785594"/>
<path d="M59.6606 160H59.2508C59.2936 160.107 59.3119 160.226 59.3119 160.346V168.654C59.3119 169.226 58.844 169.694 58.2722 169.694H52.0398C51.8502 169.694 51.6942 169.538 51.6942 169.349C51.6942 169.159 51.8502 169.003 52.0398 169.003H58.2722C58.4618 169.003 58.6177 168.847 58.6177 168.657V160.346C58.6177 160.156 58.4618 160 58.2722 160H52.0398C51.4679 160 51 160.468 51 161.04V169.349C51 169.373 51.0031 169.398 51.0061 169.419C51.0306 169.838 51.3119 170.19 51.6911 170.327C51.7982 170.37 51.9174 170.388 52.0367 170.388H59.6544C59.844 170.388 60 170.232 60 170.043V160.346C60 160.156 59.844 160 59.6544 160H59.6606ZM52.737 163.116H55.1621C55.3517 163.116 55.5076 163.272 55.5076 163.462C55.5076 163.651 55.3517 163.807 55.1621 163.807H52.737C52.5474 163.807 52.3914 163.651 52.3914 163.462C52.3914 163.272 52.5474 163.116 52.737 163.116ZM52.737 161.731H55.8532C56.0428 161.731 56.1988 161.887 56.1988 162.076C56.1988 162.266 56.0428 162.422 55.8532 162.422H52.737C52.5474 162.422 52.3914 162.266 52.3914 162.076C52.3914 161.887 52.5474 161.731 52.737 161.731Z" fill="#E290D1"/>
<path d="M99.4768 171.389H96.5232V172.019H99.4768V171.389Z" fill="#FFE15A"/>
<path d="M96.5232 170.859H99.4768V170.229H96.5232V170.859Z" fill="#FFE15A"/>
<path d="M96.9879 166.112C96.7228 165.847 97.122 165.448 97.3871 165.713L98.0172 166.343L98.6472 165.713C98.878 165.448 99.2772 165.847 99.0121 166.112L98.2823 166.842V169.661H99.4768V168.966C99.4768 168.635 99.6421 168.367 99.9415 168.202C101.202 167.537 102 166.277 102 164.849C102 162.659 100.141 161 98.0172 161C95.8932 161 94 162.659 94 164.849C94 166.277 94.7953 167.537 96.0585 168.202C96.3579 168.367 96.5232 168.601 96.5232 168.966V169.661H97.7177V166.842L96.9879 166.112Z" fill="#FFE15A"/>
</svg>
