<svg width="200" height="200" viewBox="0 0 200 200" fill="none" xmlns="http://www.w3.org/2000/svg">
<g clip-path="url(#clip0_145_154)">
<rect width="200" height="200" fill="white"/>
<path d="M60.3412 67.9648H52.6V90.0824H60.3412V67.9648Z" fill="#929083"/>
<path d="M55.5422 65.2113C58.1204 65.2113 60.2129 63.1188 60.2129 60.5406C60.2129 57.9623 58.1204 55.8698 55.5422 55.8698" fill="#F7F4F0"/>
<path d="M56.165 46.5283C53.5867 46.5283 51.4942 48.6208 51.4942 51.199C51.4942 53.7773 53.5867 55.8698 56.165 55.8698" fill="#EFEEDC"/>
<path d="M56.2583 46.3415C58.8365 46.3415 60.929 44.249 60.929 41.6707C60.929 39.0925 58.8365 37 56.2583 37" fill="#F7F4F0"/>
<path d="M64.7647 90.0824H15V124.365H64.7647V90.0824Z" fill="#8DD7D1"/>
<path d="M15 101.184L29.0939 90.0824V101.184L43.7529 90.4016V124.365H15L15 113.3V101.184Z" fill="#929083"/>
<path d="M18.3177 105.565H21.2074V108.454H18.3177V105.565V105.565Z" fill="#F7F4F0"/>
<path d="M24.1032 105.565H26.9928V108.454H24.1032V105.565V105.565Z" fill="#F7F4F0"/>
<path d="M18.3364 110.79H21.2261V113.679H18.3364V110.79Z" fill="#F7F4F0"/>
<path d="M24.1219 110.79H27.0116V113.679H24.1219V110.79Z" fill="#F7F4F0"/>
<path d="M30.4824 105.565H33.372V108.454H30.4824V105.565V105.565Z" fill="#F7F4F0"/>
<path d="M36.2679 105.565H39.1576V108.454H36.2679V105.565V105.565Z" fill="#F7F4F0"/>
<path d="M30.5011 110.79H33.3907V113.679H30.5011V110.79Z" fill="#F7F4F0"/>
<path d="M36.2866 110.79H39.1762V113.679H36.2866V110.79Z" fill="#F7F4F0"/>
<path d="M51.6034 120.917C51.7225 121.247 51.8552 121.569 52.0027 121.883C52.2612 122.432 52.1878 123.077 51.7583 123.508L50.2698 124.996L54.1792 128.906L55.6677 127.417C56.096 126.989 56.7434 126.914 57.292 127.173C57.6055 127.321 57.9295 127.455 58.2584 127.572C58.8305 127.778 59.2353 128.287 59.2353 128.893V131H64.7647V128.893C64.7647 128.287 65.1696 127.777 65.7404 127.573C66.0706 127.454 66.3927 127.321 66.7068 127.174C67.2555 126.915 67.901 126.989 68.3311 127.418L69.8196 128.907L73.729 124.997L72.2405 123.509C71.8122 123.081 71.7376 122.433 71.9961 121.885C72.1443 121.571 72.2782 121.247 72.3954 120.918C72.6015 120.346 73.11 119.941 73.7167 119.941H75.8236V114.412H73.7167C73.1101 114.412 72.6009 114.007 72.3966 113.436C72.2775 113.106 72.1449 112.784 71.9974 112.47C71.7388 111.921 71.8122 111.276 72.2418 110.845L73.7303 109.357L69.8208 105.447L68.3311 106.936C67.9028 107.364 67.2554 107.439 66.7068 107.18C66.3933 107.032 66.0693 106.898 65.7404 106.781C65.1696 106.575 64.7647 106.066 64.7647 105.46V103.353H59.2353V105.46C59.2353 106.066 58.8305 106.576 58.2596 106.78C57.9301 106.899 57.6086 107.032 57.2932 107.181C56.7446 107.439 56.0985 107.364 55.669 106.936L54.1799 105.447L50.271 109.356L51.7595 110.845C52.1878 111.274 52.2625 111.921 52.0039 112.47C51.8552 112.785 51.7225 113.107 51.6034 113.436C51.3985 114.007 50.89 114.412 50.2834 114.412H48.1765V119.941H50.2834C50.89 119.941 51.3985 120.346 51.6034 120.917ZM62.0001 119.452C65.0537 119.452 61.5786 116.425 61.5786 119.479C61.5786 122.532 65.0537 119.452 62.0001 119.452C58.9466 119.452 62.0001 122.995 62.0001 119.941C62.0001 116.888 58.9466 119.452 62.0001 119.452Z" fill="#E7E7EC"/>
<path d="M65.5913 114.565C65.7637 114.549 65.8951 114.405 65.8951 114.232V109.88C65.8951 109.695 65.7473 109.548 65.5626 109.548C65.3778 109.548 65.23 109.695 65.23 109.88V111.572C64.7003 111.637 63.6451 111.872 62.8978 112.672V109.215C62.8978 109.03 62.75 108.882 62.5652 108.882C62.3805 108.882 62.2326 109.03 62.2326 109.215V112.676C61.4854 111.872 60.4301 111.637 59.9005 111.576V109.884C59.9005 109.699 59.7527 109.552 59.5679 109.552C59.3831 109.552 59.2353 109.699 59.2353 109.884V114.237C59.2353 114.409 59.3667 114.553 59.5392 114.569C60.0688 114.618 61.3663 114.832 62.2368 115.739V116.955C61.7153 115.633 60.2331 115.316 59.609 115.242C59.5145 115.23 59.4201 115.263 59.3503 115.325C59.2805 115.386 59.2394 115.477 59.2394 115.575V117.903C59.2394 118.076 59.3708 118.219 59.5433 118.236C60.0729 118.285 61.3704 118.498 62.2409 119.406V120.621C61.7194 119.299 60.2372 118.983 59.6131 118.909C59.5186 118.897 59.4242 118.93 59.3544 118.991C59.2846 119.053 59.2435 119.143 59.2435 119.242V119.55C59.2435 121.274 60.5615 122.678 62.2409 122.847V124.546C62.2409 124.731 62.3887 124.879 62.5734 124.879C62.7582 124.879 62.906 124.731 62.906 124.546V122.847C64.5853 122.678 65.9033 121.27 65.9033 119.55V119.242C65.9033 119.147 65.8623 119.057 65.7925 118.991C65.7227 118.93 65.6241 118.897 65.5297 118.909C64.9097 118.987 63.4193 119.311 62.906 120.621V119.406C63.7724 118.498 65.0698 118.281 65.6036 118.236C65.7761 118.219 65.9075 118.076 65.9075 117.903V115.579C65.9075 115.485 65.8664 115.394 65.7966 115.329C65.7268 115.267 65.6282 115.238 65.5338 115.247C64.9138 115.325 63.4275 115.649 62.9101 116.959V115.743C63.7765 114.836 65.0739 114.618 65.6077 114.573L65.5913 114.565Z" fill="#8DD7D1"/>
<path d="M137.907 94.8442H135.69C135.316 93.4079 134.754 92.0341 133.989 90.7539L135.565 89.1771C135.768 88.9741 135.878 88.6931 135.878 88.4121C135.878 88.1311 135.768 87.8501 135.565 87.6471L131.584 83.6661C131.163 83.2446 130.476 83.2446 130.054 83.6661L128.478 85.2429C127.197 84.4779 125.824 83.9159 124.387 83.5412V81.3243C124.387 80.7311 123.903 80.2471 123.31 80.2471H117.674C117.081 80.2471 116.597 80.7311 116.597 81.3243V83.5412C115.161 83.9159 113.787 84.4779 112.507 85.2429L110.93 83.6661C110.508 83.2446 109.822 83.2446 109.4 83.6661L105.419 87.6471C105.216 87.8501 105.107 88.1311 105.107 88.4121C105.107 88.6931 105.216 88.9741 105.419 89.1771L106.996 90.7539C106.231 92.0341 105.669 93.4079 105.294 94.8442H103.077C102.484 94.8442 102 95.3281 102 95.9214V101.557C102 102.151 102.484 102.634 103.077 102.634H105.294C105.669 104.071 106.231 105.445 106.996 106.725L105.419 108.302C105.216 108.505 105.107 108.786 105.107 109.067C105.107 109.348 105.216 109.629 105.419 109.832L109.4 113.813C109.822 114.234 110.508 114.234 110.93 113.813L112.507 112.236C113.787 113.001 115.161 113.563 116.597 113.937V116.154C116.597 116.748 117.081 117.232 117.674 117.232H123.326C123.919 117.232 124.403 116.748 124.403 116.154V113.937C125.824 113.578 127.182 113.001 128.478 112.236L130.054 113.813C130.476 114.234 131.163 114.234 131.584 113.813L135.565 109.832C135.768 109.629 135.878 109.348 135.878 109.067C135.878 108.786 135.768 108.505 135.565 108.302L133.989 106.725C134.754 105.445 135.316 104.071 135.69 102.634H137.907C138.5 102.634 138.984 102.151 138.984 101.557V95.9214C138.984 95.3281 138.5 94.8442 137.907 94.8442V94.8442ZM120.25 107.38C115.473 107.38 111.601 103.509 111.601 98.7315C111.601 93.9543 115.473 90.0826 120.25 90.0826C125.027 90.0826 128.899 93.9543 128.899 98.7315C128.899 103.509 125.027 107.38 120.25 107.38Z" fill="#1E2536"/>
<path d="M137.907 94.8442H135.69C135.316 93.4079 134.754 92.0341 133.989 90.7539L135.565 89.1771C135.768 88.9742 135.878 88.6932 135.878 88.4121C135.878 88.1311 135.768 87.8501 135.565 87.6472L131.584 83.6661C131.163 83.2446 130.476 83.2446 130.054 83.6661L128.478 85.2429C127.197 84.478 125.824 83.9159 124.387 83.5413V81.3244C124.387 80.7311 123.903 80.2472 123.31 80.2472H120.5V90.1138C125.168 90.2387 128.93 94.0636 128.93 98.7628C128.93 103.462 125.184 107.287 120.5 107.412V117.294H123.341C123.935 117.294 124.419 116.81 124.419 116.217V114C125.839 113.641 127.197 113.063 128.493 112.298L130.07 113.875C130.492 114.297 131.178 114.297 131.6 113.875L135.581 109.894C135.784 109.691 135.893 109.41 135.893 109.129C135.893 108.848 135.784 108.567 135.581 108.364L134.004 106.787C134.769 105.507 135.331 104.133 135.706 102.697H137.923C138.516 102.697 139 102.213 139 101.62V95.9839C139 95.3906 138.516 94.9067 137.923 94.9067L137.907 94.8442Z" fill="#1E2536"/>
<path d="M120.484 109.16C115.161 109.16 109.79 104.071 109.79 98.7472C109.79 93.4235 115.161 88.1624 120.484 88.1624C125.808 88.1624 130.133 93.4235 130.133 98.7472C130.133 104.071 125.808 109.16 120.484 109.16ZM120.484 91.2691C116.363 91.2691 113.006 94.6256 113.006 98.7472C113.006 102.869 116.363 106.225 120.484 106.225C124.606 106.225 127.962 102.869 127.962 98.7472C127.962 94.6256 124.606 91.2691 120.484 91.2691Z" fill="#1E2536"/>
<path d="M120.484 88.1624V91.2691C124.606 91.2691 127.962 94.6257 127.962 98.7472C127.962 102.869 124.606 106.225 120.484 106.225V109.519C125.808 109.519 131.428 104.055 131.428 98.7316C131.428 93.4079 125.808 88.1468 120.484 88.1468V88.1624Z" fill="#1E2536"/>
<circle cx="120.523" cy="98.7706" r="13.231" fill="#E8E8ED"/>
<g clip-path="url(#clip1_145_154)">
<path d="M115.028 102.432C114.875 102.709 114.751 103.124 114.751 103.383C114.751 103.445 114.751 103.522 114.766 103.628L112.847 100.327C112.785 100.222 112.742 100.065 112.742 99.9299C112.742 99.795 112.789 99.6236 112.847 99.5142L113.77 97.9023L112.742 97.2532H116.089L117.716 100.189L116.673 99.5908L115.028 102.432V102.432ZM116.899 105.09C116.024 105.09 115.302 104.368 115.302 103.493C115.302 103.248 115.411 102.833 115.564 102.57L116.056 101.695H119.495V105.09H116.899V105.09ZM119.608 93.0303C119.379 92.6328 119.072 92.3557 118.704 92.1989H122.482C122.821 92.1989 123.08 92.3374 123.237 92.6L124.174 94.1973L125.188 93.5992L123.558 96.5202H120.225L121.253 95.8893L119.608 93.0303V93.0303ZM116.374 93.2929C116.811 92.5344 117.796 92.2718 118.555 92.7094C118.766 92.8334 119.072 93.1324 119.222 93.3986L119.736 94.2629L118.015 97.2423L115.076 95.5393L116.374 93.2892V93.2929ZM125.432 101.728C125.892 101.728 126.278 101.604 126.599 101.359L124.696 104.678C124.542 104.941 124.265 105.094 123.944 105.094H122.147V106.275L120.425 103.402L122.147 100.528V101.728H125.436H125.432ZM126.88 98.7849C127.318 99.5434 127.055 100.528 126.297 100.966C126.085 101.09 125.669 101.203 125.367 101.199H124.364L122.642 98.2305L125.582 96.5348L126.88 98.7812V98.7849Z" fill="#929083"/>
</g>
<path d="M251.616 84.3418H245.034C243.921 80.0771 242.252 75.9979 239.981 72.1968L244.663 67.515C245.266 66.9124 245.59 66.078 245.59 65.2436C245.59 64.4092 245.266 63.5748 244.663 62.9722L232.842 51.1517C231.591 49.9001 229.551 49.9001 228.3 51.1517L223.618 55.8335C219.817 53.5622 215.737 51.8934 211.473 50.7809V44.1985C211.473 42.437 210.036 41 208.274 41H191.54C189.779 41 188.342 42.437 188.342 44.1985V50.7809C184.077 51.8934 179.998 53.5622 176.197 55.8335L171.515 51.1517C170.263 49.9001 168.224 49.9001 166.972 51.1517L155.152 62.9722C154.549 63.5748 154.225 64.4092 154.225 65.2436C154.225 66.078 154.549 66.9124 155.152 67.515L159.834 72.1968C157.562 75.9979 155.893 80.0771 154.781 84.3418H148.198C146.437 84.3418 145 85.7788 145 87.5403V104.274C145 106.036 146.437 107.473 148.198 107.473H154.781C155.893 111.737 157.562 115.817 159.834 119.618L155.152 124.3C154.549 124.902 154.225 125.737 154.225 126.571C154.225 127.405 154.549 128.24 155.152 128.842L166.972 140.663C168.224 141.914 170.263 141.914 171.515 140.663L176.197 135.981C179.998 138.252 184.077 139.921 188.342 141.034V147.616C188.342 149.378 189.779 150.815 191.54 150.815H208.321C210.082 150.815 211.519 149.378 211.519 147.616V141.034C215.737 139.968 219.77 138.252 223.618 135.981L228.3 140.663C229.551 141.914 231.591 141.914 232.842 140.663L244.663 128.842C245.266 128.24 245.59 127.405 245.59 126.571C245.59 125.737 245.266 124.902 244.663 124.3L239.981 119.618C242.252 115.817 243.921 111.737 245.034 107.473H251.616C253.378 107.473 254.815 106.036 254.815 104.274V87.5403C254.815 85.7788 253.378 84.3418 251.616 84.3418V84.3418ZM199.189 121.565C185.004 121.565 173.508 110.069 173.508 95.8841C173.508 81.6995 185.004 70.2035 199.189 70.2035C213.373 70.2035 224.869 81.6995 224.869 95.8841C224.869 110.069 213.373 121.565 199.189 121.565Z" fill="#E1E1E7"/>
<path d="M251.616 84.3418H245.034C243.921 80.0771 242.252 75.9979 239.981 72.1968L244.663 67.515C245.266 66.9124 245.59 66.078 245.59 65.2436C245.59 64.4092 245.266 63.5748 244.663 62.9722L232.842 51.1517C231.591 49.9001 229.551 49.9001 228.3 51.1517L223.618 55.8335C219.817 53.5622 215.737 51.8934 211.473 50.7809V44.1985C211.473 42.437 210.036 41 208.274 41H199.93V70.2963C213.791 70.6671 224.962 82.024 224.962 95.9768C224.962 109.93 213.837 121.287 199.93 121.657V151H208.367C210.129 151 211.566 149.563 211.566 147.802V141.219C215.784 140.153 219.817 138.438 223.664 136.166L228.346 140.848C229.598 142.1 231.637 142.1 232.889 140.848L244.709 129.028C245.312 128.425 245.636 127.591 245.636 126.756C245.636 125.922 245.312 125.088 244.709 124.485L240.027 119.803C242.299 116.002 243.968 111.923 245.08 107.658H251.662C253.424 107.658 254.861 106.221 254.861 104.46V87.7257C254.861 85.9642 253.424 84.5272 251.662 84.5272L251.616 84.3418Z" fill="#E1E1E7"/>
<path d="M199.884 126.849C184.077 126.849 168.131 111.737 168.131 95.9305C168.131 80.1235 184.077 64.5019 199.884 64.5019C215.691 64.5019 228.531 80.1235 228.531 95.9305C228.531 111.737 215.691 126.849 199.884 126.849ZM199.884 73.7265C187.646 73.7265 177.68 83.6928 177.68 95.9305C177.68 108.168 187.646 118.134 199.884 118.134C212.122 118.134 222.088 108.168 222.088 95.9305C222.088 83.6928 212.122 73.7265 199.884 73.7265Z" fill="#E1E1E7"/>
<path d="M199.884 64.502V73.7266C212.122 73.7266 222.088 83.6929 222.088 95.9306C222.088 108.168 212.122 118.135 199.884 118.135V127.915C215.691 127.915 232.379 111.691 232.379 95.8842C232.379 80.0772 215.691 64.4556 199.884 64.4556V64.502Z" fill="#E1E1E7"/>
<path d="M92.913 99V44H112.043" stroke="#EFEFEF" stroke-width="1.5942"/>
<path d="M93 99V154H112.13" stroke="#EFEFEF" stroke-width="1.5942"/>
<path d="M102 99H71" stroke="#EFEFEF" stroke-width="1.26087"/>
<path d="M137.907 40.597H135.69C135.316 39.1608 134.754 37.7869 133.989 36.5068L135.565 34.93C135.768 34.727 135.878 34.446 135.878 34.165C135.878 33.884 135.768 33.603 135.565 33.4L131.584 29.419C131.163 28.9975 130.476 28.9975 130.054 29.419L128.478 30.9958C127.197 30.2308 125.824 29.6688 124.387 29.2941V27.0772C124.387 26.484 123.903 26 123.31 26H117.674C117.081 26 116.597 26.484 116.597 27.0772V29.2941C115.161 29.6688 113.787 30.2308 112.507 30.9958L110.93 29.419C110.508 28.9975 109.822 28.9975 109.4 29.419L105.419 33.4C105.216 33.603 105.107 33.884 105.107 34.165C105.107 34.446 105.216 34.727 105.419 34.93L106.996 36.5068C106.231 37.7869 105.669 39.1608 105.294 40.597H103.077C102.484 40.597 102 41.081 102 41.6743V47.3101C102 47.9034 102.484 48.3873 103.077 48.3873H105.294C105.669 49.8236 106.231 51.1975 106.996 52.4776L105.419 54.0544C105.216 54.2574 105.107 54.5384 105.107 54.8194C105.107 55.1004 105.216 55.3814 105.419 55.5844L109.4 59.5654C109.822 59.9869 110.508 59.9869 110.93 59.5654L112.507 57.9886C113.787 58.7536 115.161 59.3156 116.597 59.6903V61.9072C116.597 62.5004 117.081 62.9844 117.674 62.9844H123.326C123.919 62.9844 124.403 62.5004 124.403 61.9072V59.6903C125.824 59.3312 127.182 58.7536 128.478 57.9886L130.054 59.5654C130.476 59.9869 131.163 59.9869 131.584 59.5654L135.565 55.5844C135.768 55.3814 135.878 55.1004 135.878 54.8194C135.878 54.5384 135.768 54.2574 135.565 54.0544L133.989 52.4776C134.754 51.1975 135.316 49.8236 135.69 48.3873H137.907C138.5 48.3873 138.984 47.9034 138.984 47.3101V41.6743C138.984 41.081 138.5 40.597 137.907 40.597V40.597ZM120.25 53.1333C115.473 53.1333 111.601 49.2616 111.601 44.4844C111.601 39.7072 115.473 35.8354 120.25 35.8354C125.027 35.8354 128.899 39.7072 128.899 44.4844C128.899 49.2616 125.027 53.1333 120.25 53.1333Z" fill="#9F2241"/>
<path d="M137.907 40.597H135.69C135.316 39.1608 134.754 37.7869 133.989 36.5068L135.565 34.93C135.768 34.727 135.878 34.446 135.878 34.165C135.878 33.884 135.768 33.603 135.565 33.4L131.584 29.419C131.163 28.9975 130.476 28.9975 130.054 29.419L128.478 30.9958C127.197 30.2308 125.824 29.6688 124.387 29.2941V27.0772C124.387 26.484 123.903 26 123.31 26H120.5V35.8667C125.168 35.9916 128.93 39.8165 128.93 44.5156C128.93 49.2148 125.184 53.0397 120.5 53.1646V63.0468H123.341C123.935 63.0468 124.419 62.5629 124.419 61.9696V59.7528C125.839 59.3937 127.197 58.816 128.493 58.0511L130.07 59.6279C130.492 60.0494 131.178 60.0494 131.6 59.6279L135.581 55.6468C135.784 55.4439 135.893 55.1629 135.893 54.8819C135.893 54.6009 135.784 54.3198 135.581 54.1169L134.004 52.5401C134.769 51.2599 135.331 49.8861 135.706 48.4498H137.923C138.516 48.4498 139 47.9658 139 47.3726V41.7367C139 41.1435 138.516 40.6595 137.923 40.6595L137.907 40.597Z" fill="#9F2241"/>
<path d="M120.484 54.9131C115.161 54.9131 109.79 49.8236 109.79 44.5C109.79 39.1764 115.161 33.9152 120.484 33.9152C125.808 33.9152 130.133 39.1764 130.133 44.5C130.133 49.8236 125.808 54.9131 120.484 54.9131ZM120.484 37.0219C116.363 37.0219 113.006 40.3785 113.006 44.5C113.006 48.6215 116.363 51.9781 120.484 51.9781C124.606 51.9781 127.962 48.6215 127.962 44.5C127.962 40.3785 124.606 37.0219 120.484 37.0219Z" fill="#9F2241"/>
<path d="M120.484 33.9152V37.0219C124.606 37.0219 127.962 40.3785 127.962 44.5C127.962 48.6215 124.606 51.9781 120.484 51.9781V55.2722C125.808 55.2722 131.428 49.808 131.428 44.4844C131.428 39.1607 125.808 33.8996 120.484 33.8996V33.9152Z" fill="#9F2241"/>
<circle cx="120.523" cy="44.5234" r="13.231" fill="#E8E8ED"/>
<path d="M115.673 46.0185L118.299 46.5909L117.553 47.4961V48.0551C117.553 48.1583 117.47 48.2448 117.364 48.2448C117.257 48.2448 117.174 48.1583 117.174 48.0551V47.4994H116.688V48.0551C116.688 48.1583 116.602 48.2448 116.498 48.2448C116.395 48.2448 116.309 48.1583 116.309 48.0551V47.4994H115.743L116.062 49.9786H115.443L114.838 47.4994L114.828 47.1167L115.676 46.0118L115.673 46.0185ZM121.001 46.6341L120.572 49.982H121.191L121.83 47.2365L121.507 46.6341H121.001V46.6341ZM128.462 46.511L126.911 46.5177L124.156 41.2197C123.943 40.8104 123.52 40.5541 123.058 40.5541H113.577C113.031 40.5541 112.585 41.0001 112.585 41.5458V46.2581H113.081V41.5458C113.081 41.273 113.304 41.05 113.577 41.05V43.2963L113.826 45.0168L113.577 46.5044L113.826 49.9753H114.445V47.0002L115.52 45.5992L118.538 46.2548H121.78L122.429 47.4961L122.692 49.9753H123.31V46.2548L126.845 49.9753H127.361C127.59 49.9753 127.773 49.7889 127.773 49.5627V47.1866L128.455 46.5044L128.462 46.511Z" fill="#929083"/>
<path d="M137.907 149.091H135.69C135.316 147.655 134.754 146.281 133.989 145.001L135.565 143.424C135.768 143.221 135.878 142.94 135.878 142.659C135.878 142.378 135.768 142.097 135.565 141.894L131.584 137.913C131.163 137.492 130.476 137.492 130.054 137.913L128.478 139.49C127.197 138.725 125.824 138.163 124.387 137.788V135.572C124.387 134.978 123.903 134.494 123.31 134.494H117.674C117.081 134.494 116.597 134.978 116.597 135.572V137.788C115.161 138.163 113.787 138.725 112.507 139.49L110.93 137.913C110.508 137.492 109.822 137.492 109.4 137.913L105.419 141.894C105.216 142.097 105.107 142.378 105.107 142.659C105.107 142.94 105.216 143.221 105.419 143.424L106.996 145.001C106.231 146.281 105.669 147.655 105.294 149.091H103.077C102.484 149.091 102 149.575 102 150.169V155.804C102 156.398 102.484 156.882 103.077 156.882H105.294C105.669 158.318 106.231 159.692 106.996 160.972L105.419 162.549C105.216 162.752 105.107 163.033 105.107 163.314C105.107 163.595 105.216 163.876 105.419 164.079L109.4 168.06C109.822 168.481 110.508 168.481 110.93 168.06L112.507 166.483C113.787 167.248 115.161 167.81 116.597 168.185V170.402C116.597 170.995 117.081 171.479 117.674 171.479H123.326C123.919 171.479 124.403 170.995 124.403 170.402V168.185C125.824 167.826 127.182 167.248 128.478 166.483L130.054 168.06C130.476 168.481 131.163 168.481 131.584 168.06L135.565 164.079C135.768 163.876 135.878 163.595 135.878 163.314C135.878 163.033 135.768 162.752 135.565 162.549L133.989 160.972C134.754 159.692 135.316 158.318 135.69 156.882H137.907C138.5 156.882 138.984 156.398 138.984 155.804V150.169C138.984 149.575 138.5 149.091 137.907 149.091V149.091ZM120.25 161.628C115.473 161.628 111.601 157.756 111.601 152.979C111.601 148.201 115.473 144.33 120.25 144.33C125.027 144.33 128.899 148.201 128.899 152.979C128.899 157.756 125.027 161.628 120.25 161.628Z" fill="#CCCD67"/>
<path d="M137.907 149.091H135.69C135.316 147.655 134.754 146.281 133.989 145.001L135.565 143.424C135.768 143.221 135.878 142.94 135.878 142.659C135.878 142.378 135.768 142.097 135.565 141.894L131.584 137.913C131.163 137.492 130.476 137.492 130.054 137.913L128.478 139.49C127.197 138.725 125.824 138.163 124.387 137.788V135.572C124.387 134.978 123.903 134.494 123.31 134.494H120.5V144.361C125.168 144.486 128.93 148.311 128.93 153.01C128.93 157.709 125.184 161.534 120.5 161.659V171.541H123.341C123.935 171.541 124.419 171.057 124.419 170.464V168.247C125.839 167.888 127.197 167.31 128.493 166.545L130.07 168.122C130.492 168.544 131.178 168.544 131.6 168.122L135.581 164.141C135.784 163.938 135.893 163.657 135.893 163.376C135.893 163.095 135.784 162.814 135.581 162.611L134.004 161.034C134.769 159.754 135.331 158.38 135.706 156.944H137.923C138.516 156.944 139 156.46 139 155.867V150.231C139 149.638 138.516 149.154 137.923 149.154L137.907 149.091Z" fill="#CCCD67"/>
<path d="M120.484 163.407C115.161 163.407 109.79 158.318 109.79 152.994C109.79 147.671 115.161 142.41 120.484 142.41C125.808 142.41 130.133 147.671 130.133 152.994C130.133 158.318 125.808 163.407 120.484 163.407ZM120.484 145.516C116.363 145.516 113.006 148.873 113.006 152.994C113.006 157.116 116.363 160.472 120.484 160.472C124.606 160.472 127.962 157.116 127.962 152.994C127.962 148.873 124.606 145.516 120.484 145.516Z" fill="#CCCD67"/>
<path d="M120.484 142.41V145.516C124.606 145.516 127.962 148.873 127.962 152.994C127.962 157.116 124.606 160.472 120.484 160.472V163.767C125.808 163.767 131.428 158.302 131.428 152.979C131.428 147.655 125.808 142.394 120.484 142.394V142.41Z" fill="#CCCD67"/>
<circle cx="120.523" cy="153.018" r="13.231" fill="#E8E8ED"/>
<path d="M116.494 157.091C117.451 157.091 118.229 156.354 118.321 155.432H122.157C122.249 156.354 123.043 157.091 123.984 157.091C124.925 157.091 125.719 156.354 125.811 155.432H127.139V148.831C127.139 148.221 126.64 147.725 126.034 147.725H117.914C117.304 147.725 116.809 148.224 116.809 148.831V148.886H115.094C114.467 148.886 113.897 149.237 113.618 149.791L112.641 151.723C112.604 151.795 112.585 151.89 112.585 151.982V155.448H114.651C114.743 156.354 115.536 157.088 116.494 157.088V157.091ZM123.981 154.51C124.387 154.51 124.719 154.842 124.719 155.248C124.719 155.655 124.387 155.986 123.981 155.986C123.574 155.986 123.243 155.655 123.243 155.248C123.243 154.842 123.574 154.51 123.981 154.51ZM117.232 155.248C117.232 155.655 116.901 155.986 116.494 155.986C116.087 155.986 115.756 155.655 115.756 155.248C115.756 154.842 116.087 154.51 116.494 154.51C116.901 154.51 117.232 154.842 117.232 155.248ZM114.615 150.287C114.707 150.103 114.89 149.991 115.113 149.991H116.828V151.411H114.041L114.611 150.287H114.615Z" fill="#929083"/>
</g>
<defs>
<clipPath id="clip0_145_154">
<rect width="200" height="200" fill="white"/>
</clipPath>
<clipPath id="clip1_145_154">
<rect width="14.5541" height="14.277" fill="white" transform="translate(112.585 92.1551)"/>
</clipPath>
</defs>
</svg>
