<svg width="200" height="200" viewBox="0 0 200 200" fill="none" xmlns="http://www.w3.org/2000/svg">
<rect width="200" height="200" fill="white"/>
<g clip-path="url(#clip0_116_1080)">
<path d="M32.529 92.3416H19.802C18.8068 92.3416 18 93.1484 18 94.1437V108.56C18 109.555 18.8068 110.362 19.802 110.362H32.529C33.5243 110.362 34.3311 109.555 34.3311 108.56V94.1437C34.3311 93.1484 33.5243 92.3416 32.529 92.3416Z" fill="#A4DAD8"/>
<path d="M64.1775 78.8263H32.6416V110.362H64.1775V78.8263Z" fill="#394D5C"/>
<path d="M78.8191 78.8263H64.1775V110.362H78.8191V78.8263Z" fill="#A4DAD8"/>
<path d="M70.372 71.5054H67.5563V78.8263H70.372V71.5054Z" fill="#394D5C"/>
<path d="M74.314 71.5054H71.4983V78.8263H74.314V71.5054Z" fill="#394D5C"/>
<path d="M101.063 63.0584C98.7317 63.0584 96.8396 61.1662 96.8396 58.8348C96.8396 56.5034 98.7317 54.6113 101.063 54.6113" fill="#F7F4F0"/>
<path d="M100.5 46.1642C102.831 46.1642 104.724 48.0563 104.724 50.3877C104.724 52.7191 102.831 54.6113 100.5 54.6113" fill="#EFEEDC"/>
<path d="M100.416 45.9952C98.0841 45.9952 96.192 44.1031 96.192 41.7717C96.192 39.4403 98.0841 37.5481 100.416 37.5481" fill="#F7F4F0"/>
<path d="M52.3515 47.2904C52.3515 40.4483 58.1519 34.9014 65.3038 34.9014C72.4556 34.9014 78.256 40.4483 78.256 47.2904" fill="url(#paint0_linear_116_1080)"/>
<path d="M41.0887 47.572C41.0887 43.0613 45.7515 39.4065 51.5068 39.4065C57.2621 39.4065 61.9249 43.0613 61.9249 47.572" fill="#D0D6DD"/>
<path d="M69.5498 69.9287C68.3841 69.9287 67.4381 68.9826 67.4381 67.8169C67.4381 66.6512 68.3841 65.7051 69.5498 65.7051" fill="#D0D6DD"/>
<path d="M69.2683 61.4816C70.434 61.4816 71.38 62.4276 71.38 63.5933C71.38 64.759 70.434 65.7051 69.2683 65.7051" fill="url(#paint1_linear_116_1080)"/>
<path d="M69.2232 61.3971C68.0575 61.3971 67.1114 60.451 67.1114 59.2853C67.1114 58.1196 68.0575 57.1736 69.2232 57.1736" fill="#D0D6DD"/>
<path d="M72.9287 69.9287C71.763 69.9287 70.8169 68.9826 70.8169 67.8169C70.8169 66.6512 71.763 65.7051 72.9287 65.7051" fill="url(#paint2_linear_116_1080)"/>
<path d="M72.6471 61.4816C73.8128 61.4816 74.7589 62.4276 74.7589 63.5933C74.7589 64.759 73.8128 65.7051 72.6471 65.7051" fill="#D0D6DD"/>
<path d="M72.6021 61.3971C71.4364 61.3971 70.4903 60.451 70.4903 59.2853C70.4903 58.1196 71.4364 57.1736 72.6021 57.1736" fill="url(#paint3_linear_116_1080)"/>
<path d="M19.1263 72.0686C19.1263 69.8893 20.8889 68.1266 23.0683 68.1266C25.2476 68.1266 27.0102 69.8893 27.0102 72.0686" fill="#EFEEDC"/>
<path d="M23.6314 72.0686C23.6314 65.5362 28.5476 60.2427 34.6126 60.2427C40.6777 60.2427 45.5939 65.5362 45.5939 72.0686" fill="#D0D6DD"/>
<path d="M33.171 72.0686C33.171 65.4686 38.0872 60.1244 44.1522 60.1244C50.2172 60.1244 55.1334 65.4742 55.1334 72.0686" fill="url(#paint4_linear_116_1080)"/>
<path d="M183 79.3894H137.949V109.799H183V79.3894Z" fill="#CCCD67"/>
<path d="M122.254 89.098L138.078 79.3951V89.098L152.545 79.1078V89.098L167.592 79.3951V109.957L122.254 110.362V89.098Z" fill="#929083"/>
<path d="M183 95.7205H167.795V98.5362H183V95.7205Z" fill="#F7F4F0"/>
<path d="M183 100.226H167.795V103.041H183V100.226Z" fill="#F7F4F0"/>
<path d="M179.621 46.1642H172.3V79.3894H179.621V46.1642Z" fill="#929083"/>
<path d="M175.431 40.5102C177.763 40.5102 179.655 38.6181 179.655 36.2867C179.655 33.9553 177.763 32.0631 175.431 32.0631" fill="#F7F4F0"/>
<path d="M175.995 23.616C173.663 23.616 171.771 25.5082 171.771 27.8396C171.771 30.171 173.663 32.0631 175.995 32.0631" fill="#EFEEDC"/>
<path d="M176.079 23.4471C178.41 23.4471 180.303 21.5549 180.303 19.2235C180.303 16.8922 178.41 15 176.079 15" fill="#F7F4F0"/>
<path d="M131.844 65.7502C131.844 63.5708 133.607 61.8082 135.786 61.8082C137.966 61.8082 139.728 63.5708 139.728 65.7502" fill="url(#paint5_linear_116_1080)"/>
<path d="M138.512 65.7502C138.512 59.1502 145.078 53.806 153.182 53.806C161.285 53.806 167.852 59.1558 167.852 65.7502" fill="#D0D6DD"/>
<path d="M125.701 94.7969H129.44V98.5362H125.701V94.7969Z" fill="#F7F4F0"/>
<path d="M133.173 94.7969H136.913V98.5362H133.173V94.7969Z" fill="#F7F4F0"/>
<path d="M125.723 101.549H129.462V105.288H125.723V101.549Z" fill="#F7F4F0"/>
<path d="M133.196 101.549H136.935V105.288H133.196V101.549Z" fill="#F7F4F0"/>
<path d="M147.37 94.7181H151.109V98.4573H147.37V94.7181Z" fill="#F7F4F0"/>
<path d="M154.843 94.7181H158.582V98.4573H154.843V94.7181Z" fill="#F7F4F0"/>
<path d="M147.387 101.464H151.126V105.204H147.387V101.464Z" fill="#F7F4F0"/>
<path d="M154.86 101.464H158.599V105.204H154.86V101.464Z" fill="#F7F4F0"/>
<path d="M114.297 71.5054H86.7031V84.4577H114.297V71.5054Z" fill="#D0D6DD"/>
<path d="M114.297 84.4577H86.7031V88.3997H114.297V84.4577Z" fill="url(#paint6_linear_116_1080)"/>
<path d="M78.8191 110.362H124.371L114.297 88.3997H86.7031L78.8191 110.362Z" fill="#D0D6DD"/>
<path d="M67.5901 85.2855H70.2031V87.8985H67.5901V85.2855Z" fill="#F7F4F0"/>
<path d="M72.8217 85.2855H75.4346V87.8985H72.8217V85.2855Z" fill="#F7F4F0"/>
<path d="M67.607 90.0102H70.22V92.6232H67.607V90.0102Z" fill="#F7F4F0"/>
<path d="M72.8386 90.0102H75.4515V92.6232H72.8386V90.0102Z" fill="#F7F4F0"/>
<path d="M67.7872 95.484H70.4002V98.0969H67.7872V95.484Z" fill="#F7F4F0"/>
<path d="M73.0188 95.484H75.6317V98.0969H73.0188V95.484Z" fill="#F7F4F0"/>
<path d="M67.7985 100.209H70.4114V102.822H67.7985V100.209Z" fill="#F7F4F0"/>
<path d="M73.03 100.209H75.643V102.822H73.03V100.209Z" fill="#F7F4F0"/>
<path d="M37.1411 86.9186H39.7541V89.5316H37.1411V86.9186Z" fill="#F7F4F0"/>
<path d="M42.3727 86.9186H44.9857V89.5316H42.3727V86.9186Z" fill="#F7F4F0"/>
<path d="M37.158 91.6433H39.771V94.2563H37.158V91.6433Z" fill="#F7F4F0"/>
<path d="M42.3896 91.6433H45.0026V94.2563H42.3896V91.6433Z" fill="#F7F4F0"/>
<path d="M50.0933 86.9186H52.7063V89.5316H50.0933V86.9186Z" fill="#F7F4F0"/>
<path d="M55.3249 86.9186H57.9379V89.5316H55.3249V86.9186Z" fill="#F7F4F0"/>
<path d="M50.1102 91.6433H52.7232V94.2563H50.1102V91.6433Z" fill="#F7F4F0"/>
<path d="M55.3418 91.6433H57.9548V94.2563H55.3418V91.6433Z" fill="#F7F4F0"/>
<path d="M21.3732 99.3077H23.9862V101.921H21.3732V99.3077Z" fill="#F7F4F0"/>
<path d="M26.6048 99.3077H29.2178V101.921H26.6048V99.3077Z" fill="#F7F4F0"/>
<path d="M21.3901 104.032H24.0031V106.645H21.3901V104.032Z" fill="#F7F4F0"/>
<path d="M26.6217 104.032H29.2347V106.645H26.6217V104.032Z" fill="#F7F4F0"/>
<path d="M64.1775 78.8263H32.6416V82.7682H64.1775V78.8263Z" fill="url(#paint7_linear_116_1080)"/>
<path d="M131.98 156.607L134.232 154.355L136.502 152.102L127.548 143.148C128.471 141.87 129.321 140.468 130.087 138.981C130.2 138.756 130.313 138.547 130.391 138.328C132.323 134.256 133.314 129.897 133.314 125.347C133.314 108.616 119.714 95.0165 102.978 95.0165C86.2413 95.0165 72.6471 108.616 72.6471 125.347C72.6471 142.078 86.2469 155.678 102.978 155.678C107.528 155.678 111.887 154.687 115.958 152.755C116.183 152.66 116.403 152.564 116.662 152.434C118.115 151.685 119.506 150.835 120.779 149.911L129.733 158.865L131.985 156.596L131.98 156.607ZM124.366 136.137C122.068 140.67 118.301 144.438 113.762 146.741C110.377 148.43 106.756 149.298 102.972 149.298C89.7666 149.298 79.0218 138.553 79.0218 125.353C79.0218 112.153 89.7666 101.408 102.972 101.408C116.178 101.408 126.917 112.153 126.917 125.353C126.917 129.137 126.055 132.764 124.36 136.143L124.366 136.137Z" fill="#9F2241"/>
<path d="M159.235 168.039L143.287 152.091C143.209 152.012 143.13 151.944 143.045 151.882C142.505 151.533 141.801 151.533 141.254 151.882C141.221 151.916 141.176 151.944 141.142 151.995C141.097 152.012 141.063 152.04 141.012 152.091L138.743 154.36L136.49 156.63L134.238 158.882L131.968 161.135L129.699 163.404C129.654 163.449 129.62 163.483 129.603 163.534C129.558 163.568 129.524 163.613 129.49 163.646C129.107 164.238 129.141 165.02 129.603 165.561C129.637 165.595 129.665 165.64 129.699 165.674L145.647 181.622C147.438 183.413 149.91 184.432 152.433 184.432C157.715 184.432 162.029 180.124 162.029 174.836C162.029 172.313 161.009 169.841 159.219 168.05L159.235 168.039Z" fill="#0D2633"/>
<path d="M112.585 140.946C113.165 140.625 113.554 140.096 113.723 139.51C113.891 138.925 113.83 138.266 113.509 137.691C112.861 136.537 111.408 136.126 110.248 136.768C103.716 140.417 95.4317 138.074 91.7826 131.542C91.135 130.387 89.6821 129.976 88.522 130.618C87.3676 131.266 86.9565 132.724 87.5985 133.879C92.5372 142.715 103.744 145.885 112.579 140.952L112.585 140.946Z" fill="url(#paint8_linear_116_1080)"/>
</g>
<defs>
<linearGradient id="paint0_linear_116_1080" x1="52.3515" y1="41.0959" x2="78.256" y2="41.0959" gradientUnits="userSpaceOnUse">
<stop offset="0.01" stop-color="#DCDCE3"/>
<stop offset="1" stop-color="#EDEDF1"/>
</linearGradient>
<linearGradient id="paint1_linear_116_1080" x1="69.2683" y1="63.5933" x2="71.38" y2="63.5933" gradientUnits="userSpaceOnUse">
<stop offset="0.01" stop-color="#DCDCE3"/>
<stop offset="1" stop-color="#EDEDF1"/>
</linearGradient>
<linearGradient id="paint2_linear_116_1080" x1="70.8169" y1="67.8169" x2="72.9287" y2="67.8169" gradientUnits="userSpaceOnUse">
<stop offset="0.01" stop-color="#DCDCE3"/>
<stop offset="1" stop-color="#EDEDF1"/>
</linearGradient>
<linearGradient id="paint3_linear_116_1080" x1="70.4903" y1="59.2853" x2="72.6021" y2="59.2853" gradientUnits="userSpaceOnUse">
<stop offset="0.01" stop-color="#DCDCE3"/>
<stop offset="1" stop-color="#EDEDF1"/>
</linearGradient>
<linearGradient id="paint4_linear_116_1080" x1="33.171" y1="66.0937" x2="55.1334" y2="66.0937" gradientUnits="userSpaceOnUse">
<stop offset="0.01" stop-color="#DCDCE3"/>
<stop offset="1" stop-color="#EDEDF1"/>
</linearGradient>
<linearGradient id="paint5_linear_116_1080" x1="131.844" y1="63.7792" x2="139.728" y2="63.7792" gradientUnits="userSpaceOnUse">
<stop offset="0.01" stop-color="#DCDCE3"/>
<stop offset="1" stop-color="#EDEDF1"/>
</linearGradient>
<linearGradient id="paint6_linear_116_1080" x1="86.7031" y1="86.4287" x2="114.297" y2="86.4287" gradientUnits="userSpaceOnUse">
<stop offset="0.01" stop-color="#DCDCE3"/>
<stop offset="1" stop-color="#EDEDF1"/>
</linearGradient>
<linearGradient id="paint7_linear_116_1080" x1="32.6416" y1="80.7973" x2="64.1775" y2="80.7973" gradientUnits="userSpaceOnUse">
<stop offset="0.01" stop-color="#DCDCE3"/>
<stop offset="1" stop-color="#EDEDF1"/>
</linearGradient>
<linearGradient id="paint8_linear_116_1080" x1="113.537" y1="135.413" x2="87.6995" y2="137.564" gradientUnits="userSpaceOnUse">
<stop offset="0.01" stop-color="#DCDCE3"/>
<stop offset="1" stop-color="#EDEDF1"/>
</linearGradient>
<clipPath id="clip0_116_1080">
<rect width="165" height="169.415" fill="white" transform="translate(18 15)"/>
</clipPath>
</defs>
</svg>
