<svg width="200" height="200" viewBox="0 0 200 200" fill="none" xmlns="http://www.w3.org/2000/svg">
<rect width="200" height="200" fill="white"/>
<circle cx="147.515" cy="95.6599" r="36.4855" fill="#EFEEDC"/>
<path d="M161.256 63.9128H154.622V82.8663H161.256V63.9128Z" fill="#929083"/>
<path d="M157.143 61.5533C159.353 61.5533 161.146 59.7602 161.146 57.5508C161.146 55.3413 159.353 53.5482 157.143 53.5482" fill="#F7F4F0"/>
<path d="M157.677 45.5431C155.468 45.5431 153.674 47.3362 153.674 49.5456C153.674 51.7551 155.468 53.5482 157.677 53.5482" fill="#EFEEDC"/>
<path d="M157.757 45.383C159.966 45.383 161.76 43.5899 161.76 41.3805C161.76 39.171 159.966 37.3779 157.757 37.3779" fill="#F7F4F0"/>
<circle cx="57.4855" cy="66.282" r="36.4855" fill="#D0D6DD"/>
<path d="M71.2267 34.5349H64.593V53.4884H71.2267V34.5349Z" fill="#929083"/>
<path d="M67.1142 32.1754C69.3236 32.1754 71.1168 30.3823 71.1168 28.1729C71.1168 25.9634 69.3236 24.1703 67.1142 24.1703" fill="#F7F4F0"/>
<path d="M67.6479 16.1652C65.4385 16.1652 63.6454 17.9583 63.6454 20.1677C63.6454 22.3771 65.4385 24.1703 67.6479 24.1703" fill="#EFEEDC"/>
<path d="M67.7279 16.0051C69.9373 16.0051 71.7305 14.212 71.7305 12.0025C71.7305 9.79314 69.9373 8 67.7279 8" fill="#F7F4F0"/>
<circle cx="82.125" cy="156.311" r="36.4855" fill="#E0E0E7"/>
<path d="M75.0174 53.4884H32.3721V82.8663H75.0174V53.4884Z" fill="#ADC6AB"/>
<path d="M32.3721 63.0021L44.4497 53.4884V63.0021L57.0116 53.7619V82.8663H32.3721L32.3721 73.3844V63.0021Z" fill="#929083"/>
<path d="M35.2151 66.7558H37.6914V69.2321H35.2151V66.7558Z" fill="#F7F4F0"/>
<path d="M40.173 66.7558H42.6492V69.2321H40.173V66.7558Z" fill="#F7F4F0"/>
<path d="M35.2312 71.2333H37.7074V73.7096H35.2312V71.2333Z" fill="#F7F4F0"/>
<path d="M40.189 71.2333H42.6652V73.7096H40.189V71.2333Z" fill="#F7F4F0"/>
<path d="M45.6395 66.7558H48.1158V69.2321H45.6395V66.7558Z" fill="#F7F4F0"/>
<path d="M50.5974 66.7558H53.0736V69.2321H50.5974V66.7558Z" fill="#F7F4F0"/>
<path d="M45.6556 71.2333H48.1318V73.7096H45.6556V71.2333Z" fill="#F7F4F0"/>
<path d="M50.6134 71.2333H53.0896V73.7096H50.6134V71.2333Z" fill="#F7F4F0"/>
<path d="M63.739 79.9117C63.841 80.1946 63.9547 80.4707 64.0811 80.7399C64.3027 81.21 64.2398 81.7632 63.8717 82.1317L62.5961 83.4073L65.9463 86.7575L67.2219 85.4819C67.5889 85.1149 68.1436 85.0509 68.6137 85.2725C68.8824 85.3994 69.16 85.5142 69.4419 85.6146C69.9321 85.7913 70.2791 86.227 70.2791 86.7469V88.5523H75.0174V86.7469C75.0174 86.227 75.3644 85.7907 75.8535 85.6157C76.1365 85.5136 76.4125 85.3999 76.6817 85.2735C77.1518 85.052 77.705 85.1149 78.0736 85.483L79.3491 86.7585L82.6993 83.4083L81.4237 82.1328C81.0567 81.7658 80.9927 81.211 81.2143 80.7409C81.3412 80.4723 81.456 80.1946 81.5565 79.9128C81.7331 79.4225 82.1689 79.0756 82.6887 79.0756H84.4942V74.3372H82.6887C82.1689 74.3372 81.7326 73.9903 81.5575 73.5011C81.4555 73.2182 81.3418 72.9421 81.2154 72.673C80.9938 72.2028 81.0567 71.6497 81.4248 71.2811L82.7004 70.0055L79.3502 66.6553L78.0736 67.9309C77.7066 68.2979 77.1518 68.3619 76.6817 68.1403C76.4131 68.0134 76.1354 67.8986 75.8535 67.7982C75.3644 67.6215 75.0174 67.1858 75.0174 66.6659V64.8605H70.2791V66.6659C70.2791 67.1858 69.9321 67.6221 69.443 67.7971C69.1606 67.8992 68.885 68.0129 68.6148 68.1409C68.1447 68.3619 67.591 68.2979 67.2229 67.9309L65.9468 66.6554L62.5972 70.005L63.8728 71.2811C64.2398 71.6481 64.3038 72.2029 64.0822 72.673C63.9547 72.9432 63.8411 73.2187 63.739 73.5011C63.5634 73.9903 63.1276 74.3372 62.6078 74.3372H60.8023V79.0756H62.6078C63.1276 79.0756 63.5634 79.4225 63.739 79.9117ZM72.6484 78.6567C75.265 78.6567 72.2871 76.0626 72.2871 78.6793C72.2871 81.296 75.265 78.6567 72.6484 78.6567C70.0317 78.6567 72.6484 81.6923 72.6484 79.0756C72.6484 76.4589 70.0317 78.6567 72.6484 78.6567Z" fill="white"/>
<path d="M77.588 75.7692C77.4574 75.5881 77.2496 75.4872 77.027 75.4872H68.7455C68.5229 75.4872 68.3151 75.5881 68.1845 75.7692C68.0539 75.9502 68.0183 76.1788 68.0896 76.3895L69.1255 79.5003C69.2205 79.7823 69.4817 79.9752 69.7815 79.9752H70.1911C70.3336 80.364 70.7135 80.6638 71.1617 80.6638C71.6099 80.6638 71.9899 80.3611 72.1323 79.9752H73.6402C73.7827 80.364 74.1626 80.6638 74.6108 80.6638C75.059 80.6638 75.439 80.3611 75.5815 79.9752H75.9911C76.2879 79.9752 76.5521 79.7793 76.6471 79.4973L77.683 76.3925C77.7542 76.1817 77.7186 75.9502 77.588 75.7721V75.7692Z" fill="#ADC6AB"/>
<path d="M76.3384 81.0081H69.4371C69.0572 81.0081 68.7485 81.3168 68.7485 81.6968C68.7485 82.0767 69.0572 82.3854 69.4371 82.3854H76.3384C76.7183 82.3854 77.027 82.0767 77.027 81.6968C77.027 81.3168 76.7183 81.0081 76.3384 81.0081Z" fill="#ADC6AB"/>
<path d="M69.4371 74.7985H75.994C76.1187 74.7985 76.2345 74.7273 76.2938 74.6175C76.3562 74.5106 76.3532 74.3741 76.2909 74.2672L75.2549 72.5397C75.2015 72.4477 75.1065 72.3883 75.0026 72.3735C74.8958 72.3616 74.7919 72.3972 74.7177 72.4714L74.2457 72.9434L72.7616 71.7561C72.6251 71.6462 72.4262 71.6581 72.3015 71.7828L71.0964 72.9879L70.6274 72.7534C70.479 72.6792 70.2979 72.7207 70.197 72.8543L69.1611 74.2346C69.0839 74.3384 69.0691 74.4839 69.1284 74.6026C69.1878 74.7184 69.3065 74.7985 69.4371 74.7985Z" fill="#ADC6AB"/>
<path d="M165.047 82.8663H122.401V112.244H165.047V82.8663Z" fill="#8DD7D1"/>
<path d="M122.401 92.38L134.479 82.8663V92.38L147.041 83.1398V112.244H122.401L122.401 102.762V92.38Z" fill="#929083"/>
<path d="M125.244 96.1337H127.72V98.61H125.244V96.1337Z" fill="#F7F4F0"/>
<path d="M130.202 96.1337H132.678V98.61H130.202V96.1337Z" fill="#F7F4F0"/>
<path d="M125.26 100.611H127.736V103.087H125.26V100.611Z" fill="#F7F4F0"/>
<path d="M130.218 100.611H132.694V103.087H130.218V100.611Z" fill="#F7F4F0"/>
<path d="M135.669 96.1337H138.145V98.61H135.669V96.1337Z" fill="#F7F4F0"/>
<path d="M140.626 96.1337H143.103V98.61H140.626V96.1337Z" fill="#F7F4F0"/>
<path d="M135.685 100.611H138.161V103.087H135.685V100.611Z" fill="#F7F4F0"/>
<path d="M140.642 100.611H143.119V103.087H140.642V100.611Z" fill="#F7F4F0"/>
<path d="M153.768 109.29C153.87 109.573 153.984 109.849 154.11 110.118C154.332 110.588 154.269 111.141 153.901 111.51L152.625 112.785L155.975 116.135L157.251 114.86C157.618 114.493 158.173 114.429 158.643 114.65C158.911 114.777 159.189 114.892 159.471 114.993C159.961 115.169 160.308 115.605 160.308 116.125V117.93H165.046V116.125C165.046 115.605 165.393 115.169 165.883 114.994C166.166 114.892 166.442 114.778 166.711 114.651C167.181 114.43 167.734 114.493 168.103 114.861L169.378 116.136L172.728 112.786L171.453 111.511C171.086 111.144 171.022 110.589 171.243 110.119C171.37 109.85 171.485 109.573 171.586 109.291C171.762 108.8 172.198 108.453 172.718 108.453H174.523V103.715H172.718C172.198 103.715 171.762 103.368 171.587 102.879C171.485 102.596 171.371 102.32 171.244 102.051C171.023 101.581 171.086 101.028 171.454 100.659L172.729 99.3834L169.379 96.0332L168.103 97.3088C167.736 97.6758 167.181 97.7398 166.711 97.5182C166.442 97.3913 166.164 97.2765 165.883 97.1761C165.393 96.9994 165.046 96.5637 165.046 96.0438V94.2384H160.308V96.0438C160.308 96.5637 159.961 97 159.472 97.175C159.19 97.2771 158.914 97.3908 158.644 97.5188C158.174 97.7398 157.62 97.6758 157.252 97.3088L155.976 96.0333L152.626 99.3829L153.902 100.659C154.269 101.026 154.333 101.581 154.111 102.051C153.984 102.321 153.87 102.597 153.768 102.879C153.592 103.368 153.157 103.715 152.637 103.715H150.831V108.453H152.637C153.157 108.453 153.592 108.8 153.768 109.29ZM162.677 108.035C165.294 108.035 162.316 105.441 162.316 108.057C162.316 110.674 165.294 108.035 162.677 108.035C160.061 108.035 162.677 111.07 162.677 108.453C162.677 105.837 160.061 108.035 162.677 108.035Z" fill="white"/>
<path d="M165.755 103.846C165.903 103.832 166.015 103.709 166.015 103.561V99.8317C166.015 99.6734 165.888 99.5467 165.73 99.5467C165.572 99.5467 165.445 99.6734 165.445 99.8317V101.281C164.991 101.338 164.087 101.538 163.447 102.224V99.2617C163.447 99.1034 163.32 98.9767 163.162 98.9767C163.003 98.9767 162.877 99.1034 162.877 99.2617V102.228C162.236 101.538 161.332 101.338 160.878 101.285V99.8353C160.878 99.6769 160.751 99.5503 160.593 99.5503C160.435 99.5503 160.308 99.6769 160.308 99.8353V103.565C160.308 103.713 160.421 103.836 160.568 103.85C161.022 103.892 162.134 104.075 162.88 104.853V105.894C162.433 104.761 161.163 104.49 160.628 104.427C160.547 104.416 160.466 104.445 160.407 104.497C160.347 104.55 160.312 104.627 160.312 104.712V106.707C160.312 106.855 160.424 106.978 160.572 106.992C161.026 107.034 162.138 107.217 162.884 107.995V109.036C162.437 107.903 161.167 107.632 160.632 107.569C160.551 107.558 160.47 107.587 160.41 107.639C160.35 107.692 160.315 107.77 160.315 107.854V108.118C160.315 109.596 161.445 110.799 162.884 110.943V112.4C162.884 112.558 163.01 112.685 163.169 112.685C163.327 112.685 163.454 112.558 163.454 112.4V110.943C164.893 110.799 166.022 109.592 166.022 108.118V107.854C166.022 107.773 165.987 107.696 165.927 107.639C165.867 107.587 165.783 107.558 165.702 107.569C165.171 107.636 163.893 107.914 163.454 109.036V107.995C164.196 107.217 165.308 107.031 165.765 106.992C165.913 106.978 166.026 106.855 166.026 106.707V104.715C166.026 104.635 165.991 104.557 165.931 104.501C165.871 104.448 165.786 104.423 165.706 104.43C165.174 104.497 163.901 104.775 163.457 105.898V104.856C164.2 104.079 165.311 103.892 165.769 103.853L165.755 103.846Z" fill="#8DD7D1"/>
<path d="M99.657 143.517H57.0116V172.895H99.657V143.517Z" fill="#C8B176"/>
<path d="M57.0116 153.031L69.0893 143.517V153.031L81.6512 143.791V172.895H57.0116L57.0116 163.413V153.031Z" fill="#929083"/>
<path d="M95.8663 124.564H89.2325V143.517H95.8663V124.564Z" fill="#929083"/>
<path d="M91.7538 122.204C93.9632 122.204 95.7563 120.411 95.7563 118.202C95.7563 115.993 93.9632 114.199 91.7538 114.199" fill="#F7F4F0"/>
<path d="M92.2874 106.194C90.078 106.194 88.2849 107.987 88.2849 110.197C88.2849 112.406 90.078 114.199 92.2874 114.199" fill="#EFEEDC"/>
<path d="M92.3674 106.034C94.5768 106.034 96.37 104.241 96.37 102.032C96.37 99.8222 94.5768 98.0291 92.3674 98.0291" fill="#F7F4F0"/>
<path d="M59.8546 156.785H62.3309V159.261H59.8546V156.785Z" fill="#F7F4F0"/>
<path d="M64.8125 156.785H67.2887V159.261H64.8125V156.785Z" fill="#F7F4F0"/>
<path d="M59.8707 161.262H62.3469V163.739H59.8707V161.262Z" fill="#F7F4F0"/>
<path d="M64.8285 161.262H67.3048V163.739H64.8285V161.262Z" fill="#F7F4F0"/>
<path d="M70.2791 156.785H72.7553V159.261H70.2791V156.785Z" fill="#F7F4F0"/>
<path d="M75.2369 156.785H77.7132V159.261H75.2369V156.785Z" fill="#F7F4F0"/>
<path d="M70.2951 161.262H72.7714V163.739H70.2951V161.262Z" fill="#F7F4F0"/>
<path d="M75.2529 161.262H77.7292V163.739H75.2529V161.262Z" fill="#F7F4F0"/>
<path d="M88.3785 169.941C88.4806 170.224 88.5943 170.5 88.7207 170.769C88.9422 171.239 88.8793 171.792 88.5112 172.161L87.2357 173.436L90.5858 176.787L91.8614 175.511C92.2284 175.144 92.7832 175.08 93.2533 175.302C93.5219 175.428 93.7996 175.543 94.0814 175.644C94.5717 175.82 94.9186 176.256 94.9186 176.776V178.581H99.657V176.776C99.657 176.256 100.004 175.82 100.493 175.645C100.776 175.543 101.052 175.429 101.321 175.303C101.791 175.081 102.345 175.144 102.713 175.512L103.989 176.788L107.339 173.437L106.063 172.162C105.696 171.795 105.632 171.24 105.854 170.77C105.981 170.501 106.096 170.224 106.196 169.942C106.373 169.452 106.808 169.105 107.328 169.105H109.134V164.366H107.328C106.808 164.366 106.372 164.019 106.197 163.53C106.095 163.247 105.981 162.971 105.855 162.702C105.633 162.232 105.696 161.679 106.064 161.31L107.34 160.035L103.99 156.684L102.713 157.96C102.346 158.327 101.791 158.391 101.321 158.169C101.053 158.042 100.775 157.928 100.493 157.827C100.004 157.651 99.657 157.215 99.657 156.695V154.89H94.9186V156.695C94.9186 157.215 94.5717 157.651 94.0825 157.826C93.8001 157.928 93.5246 158.042 93.2543 158.17C92.7842 158.391 92.2305 158.327 91.8625 157.96L90.5864 156.684L87.2367 160.034L88.5123 161.31C88.8793 161.677 88.9433 162.232 88.7217 162.702C88.5943 162.972 88.4806 163.248 88.3785 163.53C88.2029 164.019 87.7672 164.366 87.2473 164.366H85.4418V169.105H87.2473C87.7672 169.105 88.2029 169.452 88.3785 169.941ZM97.2879 168.686C99.9046 168.686 96.9266 166.092 96.9266 168.708C96.9266 171.325 99.9046 168.686 97.2879 168.686C94.6712 168.686 97.2879 171.721 97.2879 169.105C97.2879 166.488 94.6712 168.686 97.2879 168.686Z" fill="white"/>
<path d="M100.376 166.404H95.5033L96.5751 162.432H99.3039L100.376 166.404ZM98.852 160.775C98.824 160.656 98.7189 160.576 98.5998 160.576H97.2757C97.1566 160.576 97.0515 160.656 97.0235 160.775L96.7188 161.9H99.1567L98.852 160.775ZM100.519 166.933H95.3561L94.4279 170.377H101.434L100.519 166.933ZM101.577 170.905H94.2808C93.5802 170.944 93.0233 171.515 93.0233 172.23C93.0233 172.377 93.1424 172.496 93.2895 172.496H102.558C102.705 172.496 102.824 172.377 102.824 172.23C102.838 171.529 102.281 170.944 101.581 170.905H101.577Z" fill="#C8B176"/>
</svg>
