<svg width="200" height="200" viewBox="0 0 200 200" fill="none" xmlns="http://www.w3.org/2000/svg">
<rect width="200" height="200" fill="white"/>
<path d="M189.471 40H154.092V75.3793H189.471V40ZM177.855 67.5172L171.781 64.1601L165.708 67.5172L166.868 60.4063L161.954 55.3706L168.744 54.3325L171.781 47.862L174.818 54.3325L181.609 55.3706L176.695 60.4063L177.855 67.5172Z" fill="#FBD77F"/>
<path d="M150.161 79.3103H114.781V114.69H150.161V79.3103ZM130.505 108.793C125.078 108.793 120.678 104.393 120.678 98.9655C120.678 93.5384 125.078 89.1379 130.505 89.1379V98.9655H140.333C140.333 104.393 135.933 108.793 130.505 108.793ZM134.436 95.0345V85.2069C139.864 85.2069 144.264 89.6074 144.264 95.0345H134.436Z" fill="#9F2241"/>
<path d="M75.471 154H110.85V118.621H75.471V154ZM83.333 142.207C83.333 137.865 86.8535 134.345 91.1951 134.345H93.1606C89.9035 134.345 87.2641 131.705 87.2641 128.448C87.2641 125.191 89.9035 122.552 93.1606 122.552C96.4178 122.552 99.0572 125.191 99.0572 128.448C99.0572 131.705 96.4178 134.345 93.1606 134.345H95.1261C99.4678 134.345 102.988 137.865 102.988 142.207V150.069H83.333V142.207Z" fill="#A4DAD8"/>
<path d="M114.781 154H150.161V118.621H114.781V154ZM132.471 138.276C129.22 138.276 126.574 135.63 126.574 132.379C126.574 129.821 128.223 127.658 130.505 126.844V124.517H134.436V126.844C136.719 127.658 138.368 129.82 138.368 132.379H134.436C134.436 131.295 133.554 130.414 132.471 130.414C131.388 130.414 130.505 131.295 130.505 132.379C130.505 133.464 131.388 134.345 132.471 134.345C135.722 134.345 138.368 136.99 138.368 140.241C138.368 142.8 136.719 144.962 134.436 145.777V148.103H130.505V145.777C128.223 144.963 126.574 142.801 126.574 140.241H130.505C130.505 141.326 131.388 142.207 132.471 142.207C133.554 142.207 134.436 141.326 134.436 140.241C134.436 139.157 133.554 138.276 132.471 138.276Z" fill="#394D5C"/>
<path d="M189.471 79.3103H154.092V114.69H189.471V79.3103ZM179.924 98.9655L176.162 95.2039L164.495 106.081L161.814 103.205L173.381 92.4223L169.816 88.8571L181.609 87.1724L179.924 98.9655Z" fill="#C8B176"/>
<path d="M189.471 118.621H154.092V154H189.471V118.621ZM165.885 148.103H161.954V138.276H165.885V148.103ZM173.747 148.103H169.816V132.379H173.747V148.103ZM181.609 148.103H177.678V126.483H181.609V148.103Z" fill="#929083"/>
<path fill-rule="evenodd" clip-rule="evenodd" d="M28.1675 80.5012L28.121 91.9037L23.1644 91.8882C20.3952 91.8882 18.1379 94.4635 18.1147 97.6593L8.21695 97.6205C8.25573 88.1261 14.9576 80.4624 23.2109 80.4934L28.1675 80.5089" fill="#0D2633"/>
<path fill-rule="evenodd" clip-rule="evenodd" d="M50.4064 69.7502C50.4064 72.9227 47.8311 75.5057 44.6508 75.5057C41.4705 75.5057 38.8952 72.9305 38.8952 69.7502C38.8952 66.5699 41.4705 63.9946 44.6508 63.9946C47.8311 63.9946 50.4064 66.5699 50.4064 69.7502Z" fill="#0D2633"/>
<path fill-rule="evenodd" clip-rule="evenodd" d="M61.3901 91.8882L61.4366 80.4856L66.3932 80.5011C69.1624 80.5011 71.4197 77.9259 71.4429 74.7301L81.3407 74.7688C81.3019 84.2632 74.6 91.927 66.3467 91.8959L61.3901 91.8804" fill="#0D2633"/>
<path d="M13.5042 90H13.4958C10.4605 90 8 92.4517 8 95.4761V96.5239C8 99.5483 10.4605 102 13.4958 102H13.5042C16.5395 102 19 99.5483 19 96.5239V95.4761C19 92.4517 16.5395 90 13.5042 90Z" fill="#0D2633"/>
<path fill-rule="evenodd" clip-rule="evenodd" d="M65.6874 122.52H23.2419L27.1591 80.4934H61.6848L65.6874 122.52Z" fill="#0D2633"/>
<path d="M63.7918 42.2755L66.502 45.5216C67.8953 45.5828 68.5997 45.6134 70.0084 45.6594L72.9483 42.6429C74.2957 43.2656 75.6431 43.8883 76.9906 44.511L76.6078 48.7217C77.5571 49.7476 78.0318 50.2682 78.9811 51.2941L83.2072 51.2482C83.7176 52.6365 84.228 54.0298 84.7384 55.4283L81.4923 58.1385C81.431 59.5319 81.4004 60.2362 81.3545 61.6449L84.3709 64.6001C83.7482 65.9475 83.1255 67.295 82.5028 68.6424L78.2921 68.2596C77.2662 69.209 76.7456 69.6836 75.7197 70.633L75.7656 74.859C74.3774 75.3694 72.984 75.8798 71.5855 76.3902L68.8753 73.1441C67.4819 73.0829 66.7776 73.0522 65.3689 73.0063L62.4137 76.0227C61.0663 75.4001 59.7188 74.7774 58.3714 74.1547L58.7542 69.9439C57.8048 68.918 57.3302 68.3974 56.3808 67.3715L52.1548 67.4175C51.6444 66.0292 51.134 64.6358 50.6236 63.2374L53.8697 60.5272C53.931 59.1338 53.9616 58.4294 54.0075 57.0207L50.9911 54.0809C51.6138 52.7334 52.2364 51.386 52.8591 50.0386L57.0699 50.4213C58.0958 49.472 58.6164 48.9973 59.6423 48.048L59.5963 43.8219C60.9846 43.3116 62.378 42.8012 63.7765 42.2908L63.7918 42.2755Z" fill="#CCCD67"/>
<path d="M67.7269 65.0595C71.008 65.0595 73.6678 62.3996 73.6678 59.1185C73.6678 55.8373 71.008 53.1775 67.7269 53.1775C64.4457 53.1775 61.7859 55.8373 61.7859 59.1185C61.7859 62.3996 64.4457 65.0595 67.7269 65.0595Z" fill="#EFEEDC"/>
<g clip-path="url(#clip0_118_1742)">
<path fill-rule="evenodd" clip-rule="evenodd" d="M50.1456 154.75H60.7075V122.171H47.5208L50.1456 154.75Z" fill="#929083"/>
<path fill-rule="evenodd" clip-rule="evenodd" d="M40.242 154.75H29.6801V122.171H42.8667L40.242 154.75Z" fill="#929083"/>
</g>
<path d="M79.2662 66.9681L78.6506 66.8711C76.7238 66.5677 74.899 67.9906 74.5747 70.0494L73.7055 75.5679C73.3813 77.6267 74.6804 79.5417 76.6071 79.8452L77.2228 79.9422C79.1495 80.2456 80.9744 78.8227 81.2986 76.7639L82.1678 71.2453C82.4921 69.1866 81.193 67.2716 79.2662 66.9681Z" fill="#0D2633"/>
<defs>
<clipPath id="clip0_118_1742">
<rect width="30.9823" height="31.803" fill="white" transform="translate(29.6801 122.171)"/>
</clipPath>
</defs>
</svg>
