<svg width="20" height="17" viewBox="0 0 20 17" fill="none" xmlns="http://www.w3.org/2000/svg">
<path d="M20 2.21167C19.2673 2.53706 18.4802 2.75603 17.6541 2.85479C18.4978 2.34948 19.1448 1.54942 19.4495 0.595464C18.6609 1.06325 17.7866 1.40319 16.8556 1.58693C16.1107 0.792992 15.0495 0.296875 13.8751 0.296875C11.6196 0.296875 9.79129 2.12593 9.79129 4.38066C9.79129 4.70068 9.82804 5.01305 9.89694 5.31088C6.50298 5.14091 3.49412 3.51475 1.47902 1.04335C1.12837 1.64665 0.927015 2.34795 0.927015 3.09749C0.927015 4.51387 1.64746 5.76412 2.74305 6.49605C2.0739 6.47461 1.4438 6.29086 0.893328 5.98538C0.893328 6.00299 0.893328 6.01907 0.893328 6.03668C0.893328 8.01579 2.30052 9.66645 4.16939 10.0408C3.82716 10.1342 3.46579 10.184 3.09293 10.184C2.83033 10.184 2.57385 10.158 2.32502 10.1113C2.84488 11.7336 4.35313 12.9149 6.14008 12.9479C4.74283 14.0435 2.98192 14.6965 1.06789 14.6965C0.738674 14.6965 0.413288 14.6774 0.0932617 14.6391C1.90087 15.7975 4.04689 16.4735 6.35368 16.4735C13.8659 16.4735 17.9726 10.2506 17.9726 4.85381C17.9726 4.67695 17.9688 4.50086 17.9611 4.32553C18.7597 3.74903 19.4526 3.03011 20 2.21167Z" fill="#235B4E"/>
</svg>
