<svg width="21" height="17" viewBox="0 0 21 17" fill="none" xmlns="http://www.w3.org/2000/svg">
<path d="M20.2434 2.21167C19.5094 2.53706 18.721 2.75603 17.8934 2.85479C18.7386 2.34948 19.3867 1.54942 19.692 0.595464C18.902 1.06325 18.0261 1.40319 17.0934 1.58693C16.3471 0.792992 15.284 0.296875 14.1075 0.296875C11.8479 0.296875 10.0163 2.12593 10.0163 4.38066C10.0163 4.70068 10.0531 5.01305 10.1222 5.31088C6.72207 5.14091 3.70778 3.51475 1.68904 1.04335C1.33776 1.64665 1.13604 2.34795 1.13604 3.09749C1.13604 4.51387 1.85778 5.76412 2.95535 6.49605C2.285 6.47461 1.65376 6.29086 1.10229 5.98538C1.10229 6.00299 1.10229 6.01907 1.10229 6.03668C1.10229 8.01579 2.51203 9.66645 4.38427 10.0408C4.04142 10.1342 3.6794 10.184 3.30587 10.184C3.04279 10.184 2.78585 10.158 2.53657 10.1113C3.05737 11.7336 4.56835 12.9149 6.35852 12.9479C4.95875 14.0435 3.19466 14.6965 1.27717 14.6965C0.947359 14.6965 0.621386 14.6774 0.300781 14.6391C2.11166 15.7975 4.26155 16.4735 6.57251 16.4735C14.0983 16.4735 18.2124 10.2506 18.2124 4.85381C18.2124 4.67695 18.2086 4.50086 18.2009 4.32553C19.0009 3.74903 19.695 3.03011 20.2434 2.21167Z" fill="white"/>
</svg>
