<svg width="19" height="16" viewBox="0 0 19 16" fill="none" xmlns="http://www.w3.org/2000/svg">
<path d="M9.45371 0C6.40961 0 2.45859 0.762716 2.45859 0.762716L2.44865 0.774079C1.06221 0.995813 0 2.18717 0 3.63604V7.99929V8.00071V12.3625V12.364C0.00135294 13.0559 0.249338 13.7247 0.699427 14.2503C1.14952 14.7759 1.77223 15.1238 2.45575 15.2316L2.45859 15.2359C2.45859 15.2359 6.40961 16 9.45371 16C12.4978 16 16.4488 15.2359 16.4488 15.2359L16.4502 15.2344C17.1345 15.1269 17.7579 14.7787 18.2084 14.2525C18.6588 13.7263 18.9067 13.0566 18.9074 12.364V12.3625V8.00071V7.99929V3.63604C18.9064 2.94383 18.6586 2.27467 18.2084 1.7488C17.7583 1.22292 17.1354 0.874796 16.4517 0.766977L16.4488 0.762716C16.4488 0.762716 12.4978 0 9.45371 0ZM7.27208 4.653L13.0897 7.99929L7.27208 11.3456V4.653Z" fill="white"/>
</svg>
