<?xml version="1.0" encoding="utf-8"?>
<!-- Generator: Adobe Illustrator 23.0.1, SVG Export Plug-In . SVG Version: 6.00 Build 0)  -->
<svg version="1.1" id="Capa_1" xmlns="http://www.w3.org/2000/svg" xmlns:xlink="http://www.w3.org/1999/xlink" x="0px" y="0px"
	 viewBox="0 0 200 200" style="enable-background:new 0 0 200 200;" xml:space="preserve">
<style type="text/css">
	.st0{fill:#153F6E;}
	.st1{fill:#8ACB91;}
	.st2{fill:#D0D6DD;}
	.st3{fill:#929083;}
	.st4{fill:#FBD77F;}
</style>
<g>
	<g>
		<path class="st0" d="M187.8,77.4h-25.7v108.2H37.9V77.4H12.2L100,13.5l60.3,43.9L187.8,77.4z"/>
	</g>
	<g>
		<path class="st1" d="M144.4,119.8c0,24.5-19.9,44.4-44.4,44.4s-44.4-19.9-44.4-44.4c0-24.5,19.9-44.4,44.4-44.4
			S144.4,95.3,144.4,119.8z"/>
		<path class="st0" d="M123.1,141.4c4.3-10.2,5.4-21.7,3-33c-0.7-3.5-1.7-6.8-3.1-10c2-0.4,3.9-0.9,5.8-1.4c2.1-0.6,4.8-1.4,7.5-2.5
			c-0.6-0.8-1.2-1.7-1.8-2.4c-2.3,0.9-4.6,1.6-6.4,2.1c-2,0.6-4.1,1.1-6.2,1.5c-1.2-2.6-2.7-5.1-4.3-7.5c-3.3-4.8-7.2-8.9-11.8-12.2
			h0c-0.7-0.1-1.5-0.2-2.2-0.2c-1.1-0.1-2.2-0.1-3.3-0.1h0c0,0,0,0,0,0h-0.3c0,0,0,0,0,0h0c-1.1,0-2.2,0-3.3,0.1
			c-0.8,0.1-1.5,0.1-2.2,0.2h0c-4.6,3.4-8.5,7.5-11.8,12.2c-1.7,2.4-3.2,5-4.4,7.7c-4.2-0.8-8.5-2-12.6-3.8
			c-0.6,0.8-1.3,1.6-1.8,2.4c4.3,1.9,8.8,3.2,13.2,4.1c-1.3,3.2-2.3,6.4-3,9.8c-2.3,11.2-1.2,22.7,3,32.8c-4.4,0.9-8.9,2.2-13.2,4.1
			c0.6,0.8,1.2,1.6,1.8,2.4c4.1-1.7,8.3-2.9,12.6-3.8c1.4,2.8,3,5.5,4.8,8c3.4,4.7,7.3,8.7,11.5,11.9c0.7,0.1,1.4,0.2,2.2,0.2
			c1.1,0.1,2.2,0.1,3.3,0.1h0c0,0,0,0,0,0h0.3c0,0,0,0,0,0h0c1.1,0,2.2,0,3.3-0.1c0.7-0.1,1.4-0.1,2.2-0.2
			c4.2-3.2,8.1-7.2,11.5-11.9c1.8-2.5,3.4-5.1,4.8-7.9c2.1,0.4,4.2,0.9,6.3,1.5c1.8,0.5,4.2,1.2,6.4,2.1c0.6-0.8,1.3-1.6,1.8-2.4
			c-2.6-1.1-5.3-2-7.5-2.5C127,142.2,125.1,141.8,123.1,141.4z M123.3,109c2.3,10.9,1.1,22.1-3.1,31.8c-2.8-0.5-5.6-0.9-8.5-1.1
			c1.6-9.5,2-20.1,1.1-30.5c-0.3-3.1-0.6-6.2-1.1-9.1c2.9-0.3,5.8-0.7,8.5-1.1C121.5,102.1,122.6,105.5,123.3,109z M100,164
			c-2.2-3.2-4.2-7.8-6-13.3c-0.8-2.6-1.5-5.4-2.1-8.4c2.4-0.1,4.7-0.2,6.8-0.2c3.2,0,6.4,0,9.4,0.2c-0.6,2.9-1.3,5.7-2.1,8.4
			C104.2,156.2,102.2,160.8,100,164z M98.6,139.1c-2.3,0-4.7,0.1-7.3,0.2c-1.6-9.3-2-19.7-1.1-30c0.3-3.1,0.6-6.2,1.1-9.1
			c2.5,0.1,5,0.2,7.3,0.2c0.6,0,1.2,0,1.8,0c2.8,0,5.5-0.1,8.2-0.3c0.5,2.9,0.9,6,1.1,9.1c0.9,10.3,0.5,20.7-1.1,30
			C105.4,139.2,102,139.1,98.6,139.1z M100,75.6c3.5,5.2,6.3,12.7,8.1,21.7c-3.1,0.2-6.2,0.3-9.4,0.2c-2.1,0-4.4-0.1-6.8-0.2
			C93.7,88.4,96.5,80.8,100,75.6z M115.1,89.7c1.4,2,2.7,4.2,3.8,6.4c-2.5,0.4-5.1,0.8-7.8,1c-1.3-6.8-3.2-12.8-5.5-17.7
			C109.2,82.4,112.4,85.8,115.1,89.7z M84.9,89.7c2.7-3.9,5.9-7.4,9.6-10.3c-2.3,4.9-4.2,11-5.5,17.7c-2.5-0.2-5.2-0.5-7.8-0.9
			C82.2,94,83.5,91.8,84.9,89.7z M76.7,109c0.7-3.4,1.7-6.7,3.1-9.9c2.9,0.5,5.8,0.8,8.6,1c-0.5,2.9-0.9,5.9-1.1,9
			c-0.9,10.4-0.5,21,1.1,30.4c-2.8,0.2-5.7,0.6-8.6,1C75.6,130.9,74.5,119.8,76.7,109z M85.3,150.3c-1.6-2.2-3-4.5-4.2-6.8
			c2.7-0.4,5.3-0.7,7.8-0.9c0.6,3.2,1.4,6.2,2.3,9.1c0.8,2.5,1.9,5.6,3.3,8.6C91.2,157.4,88,154,85.3,150.3z M114.7,150.3
			c-2.8,3.8-5.9,7.1-9.2,9.9c1.4-3,2.5-6.1,3.3-8.6c0.9-2.8,1.7-5.8,2.3-9c2.6,0.2,5.2,0.6,7.7,1
			C117.7,145.9,116.3,148.1,114.7,150.3z"/>
		<path class="st2" d="M147,131.1H53c-1.2,0-2.2-1-2.2-2.2v-13.4c0-1.2,1-2.2,2.2-2.2H147c1.2,0,2.2,1,2.2,2.2v13.4
			C149.2,130.1,148.2,131.1,147,131.1z"/>
		<g>
			<path class="st0" d="M61.8,124.9c0,0.2-0.3,0.4-0.7,0.4c-0.4,0-0.7-0.2-0.7-0.4v-7.1c0-0.3,0.3-0.4,0.7-0.4
				c0.4,0,0.7,0.2,0.7,0.4v3.3c0.2-0.4,0.7-0.8,1.3-0.8c1,0,1.8,1,1.8,2.2v2.5c0,0.3-0.4,0.4-0.7,0.4c-0.3,0-0.7-0.1-0.7-0.4v-2.5
				c0-0.5-0.4-1-0.9-1c-0.4,0-0.9,0.4-0.9,1V124.9z"/>
			<path class="st0" d="M68,123.6c0,0.4,0.1,0.6,0.6,0.6H69c0.4,0,0.6,0.3,0.6,0.6c0,0.3-0.2,0.6-0.6,0.6h-0.4c-1.3,0-2-0.5-2-1.7
				v-5.2c0-0.3,0.4-0.4,0.7-0.4c0.4,0,0.7,0.2,0.7,0.4v1.8h1.3c0.2,0,0.4,0.3,0.4,0.5c0,0.3-0.1,0.5-0.4,0.5H68V123.6z"/>
			<path class="st0" d="M72.3,123.6c0,0.4,0.1,0.6,0.6,0.6h0.4c0.4,0,0.6,0.3,0.6,0.6c0,0.3-0.2,0.6-0.6,0.6h-0.4
				c-1.3,0-2-0.5-2-1.7v-5.2c0-0.3,0.4-0.4,0.7-0.4c0.4,0,0.7,0.2,0.7,0.4v1.8h1.3c0.2,0,0.4,0.3,0.4,0.5c0,0.3-0.1,0.5-0.4,0.5
				h-1.3V123.6z"/>
			<path class="st0" d="M76.6,120.7v0.3c0.2-0.4,0.8-0.8,1.4-0.8c1.1,0,1.9,1,1.9,2.2v0.9c0,1.1-0.9,2.2-1.9,2.2
				c-0.6,0-1.2-0.4-1.4-0.8v2.7c0,0.2-0.3,0.4-0.7,0.4c-0.4,0-0.7-0.2-0.7-0.4v-6.5c0-0.3,0.3-0.4,0.6-0.4
				C76.3,120.3,76.6,120.4,76.6,120.7z M78.6,122.4c0-0.5-0.4-1-1-1c-0.4,0-0.9,0.4-0.9,1v1.1c0,0.2,0.4,0.8,0.9,0.8
				c0.5,0,0.9-0.5,0.9-1V122.4z"/>
			<path class="st0" d="M83.8,123.9c0-0.9-2.5-0.4-2.5-2.1c0-0.8,0.5-1.6,1.9-1.6c0.9,0,1.7,0.3,1.7,0.7c0,0.2-0.2,0.7-0.5,0.7
				c-0.3,0-0.6-0.3-1.2-0.3c-0.5,0-0.7,0.3-0.7,0.5c0,0.8,2.6,0.2,2.6,2.1c0,0.9-0.7,1.6-2,1.6c-1.1,0-1.9-0.4-1.9-0.9
				c0-0.2,0.2-0.6,0.5-0.6c0.3,0,0.5,0.5,1.4,0.5C83.7,124.4,83.8,124.1,83.8,123.9z"/>
			<path class="st0" d="M87.9,121.6c0,0.4-0.3,0.7-0.7,0.7c-0.4,0-0.7-0.3-0.7-0.7c0-0.4,0.3-0.7,0.7-0.7
				C87.5,120.8,87.9,121.2,87.9,121.6z M87.9,124.7c0,0.4-0.3,0.7-0.7,0.7c-0.4,0-0.7-0.3-0.7-0.7c0-0.4,0.3-0.7,0.7-0.7
				C87.5,123.9,87.9,124.3,87.9,124.7z"/>
			<path class="st0" d="M93.9,117.6c0,0.1,0,0.1,0,0.2l-3.8,7.7c-0.1,0.1-0.2,0.2-0.4,0.2c-0.3,0-0.5-0.2-0.5-0.5
				c0-0.1,0-0.1,0.1-0.2l3.8-7.8c0.1-0.1,0.2-0.2,0.4-0.2C93.7,117.1,93.9,117.3,93.9,117.6z"/>
			<path class="st0" d="M97.2,117.6c0,0.1,0,0.1,0,0.2l-3.8,7.7c-0.1,0.1-0.2,0.2-0.4,0.2c-0.3,0-0.5-0.2-0.5-0.5
				c0-0.1,0-0.1,0.1-0.2l3.8-7.8c0.1-0.1,0.2-0.2,0.4-0.2C96.9,117.1,97.2,117.3,97.2,117.6z"/>
			<path class="st0" d="M103.3,125.2c-0.1,0.2-0.3,0.2-0.5,0.2c-0.3,0-0.5-0.1-0.6-0.2l-0.8-2.3l-0.8,2.3c-0.1,0.2-0.3,0.3-0.6,0.3
				c-0.2,0-0.5-0.1-0.5-0.3l-1.6-4.2c0-0.1-0.1-0.1-0.1-0.2c0-0.3,0.5-0.6,0.9-0.6c0.2,0,0.3,0.1,0.4,0.2l1.1,3l0.8-2.6
				c0.1-0.2,0.3-0.3,0.5-0.3c0.2,0,0.4,0,0.5,0.3l0.8,2.6l1.1-3c0.1-0.1,0.2-0.2,0.4-0.2c0.3,0,0.9,0.2,0.9,0.6c0,0.1,0,0.1,0,0.2
				L103.3,125.2z"/>
			<path class="st0" d="M111.3,125.2c-0.1,0.2-0.3,0.2-0.5,0.2c-0.3,0-0.5-0.1-0.6-0.2l-0.8-2.3l-0.8,2.3c-0.1,0.2-0.3,0.3-0.6,0.3
				c-0.2,0-0.5-0.1-0.5-0.3l-1.6-4.2c0-0.1-0.1-0.1-0.1-0.2c0-0.3,0.5-0.6,0.9-0.6c0.2,0,0.3,0.1,0.4,0.2l1.1,3l0.8-2.6
				c0.1-0.2,0.3-0.3,0.5-0.3c0.2,0,0.4,0,0.5,0.3l0.8,2.6l1.1-3c0.1-0.1,0.2-0.2,0.4-0.2c0.3,0,0.9,0.2,0.9,0.6c0,0.1,0,0.1,0,0.2
				L111.3,125.2z"/>
			<path class="st0" d="M119.3,125.2c-0.1,0.2-0.3,0.2-0.5,0.2c-0.3,0-0.5-0.1-0.6-0.2l-0.8-2.3l-0.8,2.3c-0.1,0.2-0.3,0.3-0.6,0.3
				c-0.2,0-0.5-0.1-0.5-0.3l-1.6-4.2c0-0.1-0.1-0.1-0.1-0.2c0-0.3,0.5-0.6,0.9-0.6c0.2,0,0.3,0.1,0.4,0.2l1.1,3l0.8-2.6
				c0.1-0.2,0.3-0.3,0.5-0.3c0.2,0,0.4,0,0.5,0.3l0.8,2.6l1.1-3c0.1-0.1,0.2-0.2,0.4-0.2c0.3,0,0.9,0.2,0.9,0.6c0,0.1,0,0.1,0,0.2
				L119.3,125.2z"/>
		</g>
		<path class="st3" d="M147,131.1h-17.3v-18H147c1.2,0,2.2,1,2.2,2.2v13.6C149.2,130.1,148.2,131.1,147,131.1z"/>
		<path class="st4" d="M140.1,118l0.9,1.8c0.1,0.2,0.3,0.4,0.6,0.4l2,0.3c0.6,0.1,0.9,0.8,0.4,1.3l-1.4,1.4
			c-0.2,0.2-0.3,0.4-0.2,0.7l0.3,2c0.1,0.6-0.5,1.1-1.1,0.8l-1.8-0.9c-0.2-0.1-0.5-0.1-0.7,0l-1.8,0.9c-0.5,0.3-1.2-0.2-1.1-0.8
			l0.3-2c0-0.2,0-0.5-0.2-0.7l-1.4-1.4c-0.4-0.4-0.2-1.2,0.4-1.3l2-0.3c0.2,0,0.5-0.2,0.6-0.4l0.9-1.8
			C139,117.4,139.8,117.4,140.1,118z"/>
	</g>
	<rect x="141" y="33" class="st0" width="21" height="33"/>
</g>
</svg>
