<?xml version="1.0" encoding="utf-8"?>
<!-- Generator: Adobe Illustrator 23.0.1, SVG Export Plug-In . SVG Version: 6.00 Build 0)  -->
<svg version="1.1" id="Capa_1" xmlns="http://www.w3.org/2000/svg" xmlns:xlink="http://www.w3.org/1999/xlink" x="0px" y="0px"
	 viewBox="0 0 200 200" style="enable-background:new 0 0 200 200;" xml:space="preserve">
<style type="text/css">
	.st0{fill:#CCCD67;}
	.st1{fill:#3C7483;}
	.st2{fill:#153F6E;}
	.st3{fill:#FFFFFF;}
	.st4{fill:#929083;}
</style>
<g>
	<g>
		<path class="st0" d="M187.7,77.3l-25.7,0l0.2,108.2L38,185.7L37.8,77.5l-25.7,0l87.7-64.1l60.4,43.8L187.7,77.3z"/>
	</g>
	<g>
		<title>Tv Ads</title>
		<path class="st1" d="M145.3,95.4l0.1,53.2c0,2.5-2.1,4.6-4.6,4.6l-82.9,0.1c-2.5,0-4.6-2.1-4.6-4.6l-0.1-53.2
			c0-2.5,2.1-4.6,4.6-4.6l82.9-0.1C143.2,90.8,145.3,92.9,145.3,95.4z M133.8,104.2c0-2-1.6-3.6-3.6-3.6s-3.6,1.6-3.6,3.6
			c0,2,1.6,3.6,3.6,3.6l0,0C132.1,107.9,133.8,106.2,133.8,104.2L133.8,104.2z M133.8,118.3c0-2.1-1.7-3.7-3.8-3.6
			c-1.9,0.1-3.4,1.6-3.5,3.5c-0.1,2.1,1.6,3.8,3.6,3.8l0,0C132.2,121.9,133.8,120.3,133.8,118.3L133.8,118.3z M116.1,141.1
			l-0.1-38.2c0-1.3-1-2.3-2.3-2.3l-48.6,0.1c-1.3,0-2.3,1-2.3,2.3l0.1,38.2c0,1.3,1,2.3,2.3,2.3l48.6-0.1
			C115.1,143.4,116.1,142.3,116.1,141.1z"/>
		
			<rect x="127.4" y="153.3" transform="matrix(1 -1.474163e-03 1.474163e-03 1 -0.2312 0.1951)" class="st2" width="9.7" height="7.4"/>
		<circle class="st3" cx="130.1" cy="104.2" r="3.6"/>
		<path class="st3" d="M130.1,114.7c2,0,3.6,1.6,3.6,3.6c0,2-1.6,3.6-3.6,3.6c-2,0-3.6-1.6-3.6-3.6
			C126.5,116.3,128.1,114.7,130.1,114.7z"/>
		<path class="st2" d="M65.1,100.6l48.6-0.1c1.3,0,2.3,1,2.3,2.3l0.1,38.2c0,1.3-1,2.3-2.3,2.3l-48.6,0.1c-1.3,0-2.3-1-2.3-2.3
			l-0.1-38.2C62.8,101.6,63.9,100.6,65.1,100.6z"/>
		
			<rect x="61.5" y="153.4" transform="matrix(1 -1.474163e-03 1.474163e-03 1 -0.2314 9.800605e-02)" class="st2" width="9.7" height="7.4"/>
		<path class="st2" d="M106.6,66.1c-0.6-0.5-1.4-0.5-2,0.1L89.7,82.9L73.4,68.6c-0.6-0.5-1.4-0.5-2,0.1c-0.5,0.6-0.5,1.4,0.1,2
			c0,0,0,0,0,0l17.3,15.2c0,0,0.1,0.1,0.1,0.1c0,0,0.1,0,0.1,0.1c0,0,0.1,0,0.1,0.1c0,0,0.1,0,0.1,0c0.1,0,0.1,0,0.2,0
			c0,0,0,0,0.1,0c0.1,0,0.2,0,0.2,0l0,0c0,0,0.1,0,0.1,0c0,0,0,0,0,0c0,0,0.1,0,0.1,0c0,0,0,0,0,0c0,0,0.1,0,0.1,0c0,0,0,0,0.1,0
			c0,0,0.1,0,0.1,0c0,0,0,0,0.1,0c0,0,0,0,0.1,0c0,0,0,0,0.1,0c0,0,0,0,0.1,0c0,0,0,0,0.1,0c0,0,0,0,0.1,0c0,0,0,0,0.1-0.1
			c0,0,0,0,0.1-0.1L106.7,68C107.2,67.5,107.1,66.6,106.6,66.1C106.6,66.1,106.6,66.1,106.6,66.1z"/>
		<path class="st3" d="M126.3,143.4l0-3.6c0-0.7,0.5-1.3,1.2-1.4c0.8-0.1,1.6,0.5,1.6,1.4l0,3.7c0,0.8-0.7,1.5-1.6,1.4
			C126.8,144.8,126.3,144.1,126.3,143.4z"/>
		<path class="st3" d="M131.3,143.4l0-3.6c0-0.7,0.5-1.3,1.2-1.4c0.8-0.1,1.6,0.5,1.6,1.4l0,3.7c0,0.8-0.7,1.5-1.6,1.4
			C131.8,144.8,131.3,144.1,131.3,143.4z"/>
		<path class="st3" d="M121.2,143.4l0-3.6c0-0.7,0.5-1.3,1.2-1.4c0.8-0.1,1.6,0.5,1.6,1.4l0,3.7c0,0.8-0.7,1.5-1.6,1.4
			C121.7,144.8,121.2,144.1,121.2,143.4z"/>
		<path class="st3" d="M136.4,143.4l0-3.6c0-0.7,0.5-1.3,1.2-1.4c0.8-0.1,1.6,0.5,1.6,1.4l0,3.7c0,0.8-0.7,1.5-1.6,1.4
			C136.9,144.8,136.4,144.1,136.4,143.4z"/>
		<path class="st4" d="M96,90.8L96,90.8l-12.2,0.1l0,0c0-2.7,1.8-5.2,4.4-5.9C92.3,83.9,96,87,96,90.8L96,90.8z"/>
	</g>
	<rect x="142" y="33" class="st0" width="21" height="33"/>
</g>
</svg>
