<?xml version="1.0" encoding="utf-8"?>
<!-- Generator: Adobe Illustrator 23.0.1, SVG Export Plug-In . SVG Version: 6.00 Build 0)  -->
<svg version="1.1" id="Capa_1" xmlns="http://www.w3.org/2000/svg" xmlns:xlink="http://www.w3.org/1999/xlink" x="0px" y="0px"
	 viewBox="0 0 300 300" style="enable-background:new 0 0 300 300;" xml:space="preserve">
<style type="text/css">
	.st0{fill:#FBD77F;}
	.st1{fill:#A4DAD8;}
	.st2{fill:#153F6E;}
	.st3{fill-rule:evenodd;clip-rule:evenodd;fill:#929083;}
	.st4{fill-rule:evenodd;clip-rule:evenodd;fill:#A3D4F7;}
	.st5{fill-rule:evenodd;clip-rule:evenodd;fill:#0D2633;}
	.st6{fill-rule:evenodd;clip-rule:evenodd;fill:#DDDDDD;}
	.st7{fill-rule:evenodd;clip-rule:evenodd;fill:#8ACB91;}
</style>
<g>
	<path class="st0" d="M123.4,68c0-4.4,0-8.8,0.1-13.2c0-5.4,2.9-8.2,8.3-8.2c27.9,0,55.9,0,83.8,0c5.3,0,8.1,2.8,8.1,8.2
		c0,16,0,32,0,48c0,5.6-2.8,8.4-8.3,8.3c-1.9,0-2.6,0.3-2.5,2.4c0.2,3.6,0,7.3,0,10.9c0,0.1-0.1,0.2-0.1,0.4c-0.8,0.1-1.1-0.6-1.5-1
		c-3.9-3.8-7.7-7.7-11.5-11.5c-0.6-0.6-1.1-1.1-2.1-1.1c-10.4,0.1-20.8,0.1-31.3,0.1c-0.1-0.1-0.2-0.2-0.3-0.3c-0.5-1-0.4-2-0.4-3
		c0-9.9,0-19.8,0-29.7c0-7.4-2-9.5-9.5-9.5c-9.8,0-19.6,0-29.3,0c-1,0-2,0.1-3-0.2C123.8,68.4,123.6,68.2,123.4,68z"/>
	<path class="st1" d="M166.5,111.1c0,4.5,0,9.1,0,13.6c0,4.7-3.1,7.8-7.8,7.8c-21.9,0-43.8,0-65.6,0c-1.4,0-2.4,0.4-3.4,1.4
		c-3.6,3.7-7.3,7.4-11,11c-0.4,0.4-0.8,1-1.7,1.2c0-3.7,0-7.3,0-10.9c0-2.7,0-2.8-2.7-2.7c-3.1,0.1-5.5-0.9-7.1-3.6
		c-0.7-1.1-1-2.3-1-3.6c0-16.7,0-33.4,0-50.1c0-4.2,3-7.2,7.3-7.2c16.2,0,32.4,0,48.6,0c0.4,0,0.9,0,1.3,0c0,0,0.1,0.1,0.1,0.1
		c0.7,0.9,0.6,2.1,0.6,3.1c0,10.6,0,21.1,0,31.7c0,4.8,2.7,7.4,7.5,7.5c0.7,0,1.4,0,2.1,0c9.9,0,19.7,0,29.6,0
		c1.1,0,2.2-0.2,3.1,0.6L166.5,111.1z"/>
	<path class="st2" d="M166.5,111c-12,0-24,0.1-36,0c-3.8,0-6.9-3.1-6.9-6.9c-0.1-12,0-24,0-36c11.6,0,23.3,0,34.9,0
		c3,0,5.6,0.9,7.2,3.8c0.7,1.3,0.9,2.8,0.9,4.2C166.5,87.7,166.5,99.4,166.5,111z"/>
</g>
<polyline id="Fill-214_2_" class="st3" points="207.2,263.6 193.2,263.6 193.2,221.6 210.6,221.6 207.2,263.6 "/>
<polyline id="Fill-215_2_" class="st3" points="220.1,263.6 234.1,263.6 234.1,221.6 216.6,221.6 220.1,263.6 "/>
<polyline id="Fill-213_2_" class="st4" points="240.1,230.8 188.3,230.8 193.1,179.5 235.2,179.5 240.1,230.8 "/>
<path id="Fill-217_4_" class="st4" d="M172.3,207.4v-7c0-11.6,9.4-20.9,20.9-20.9v13.9c-3.9,0-7,3.2-7.1,7.1v7H172.3"/>
<path id="Fill-217_1_" class="st4" d="M255.4,207.4h-13.9v-7c0-3.9-3.2-7-7.1-7.1v-13.9c11.6,0,20.9,9.4,20.9,20.9V207.4"/>
<path id="Fill-181_3_" class="st5" d="M221.8,166.3c0,4.2-3.4,7.7-7.7,7.7c-4.2,0-7.7-3.4-7.7-7.7s3.4-7.7,7.7-7.7
	C218.3,158.7,221.8,162.1,221.8,166.3"/>
<polyline id="Fill-214_1_" class="st6" points="75.2,263.6 61.2,263.6 61.2,221.6 78.6,221.6 75.2,263.6 "/>
<polyline id="Fill-215_1_" class="st6" points="88.1,263.6 102.1,263.6 102.1,221.6 84.6,221.6 88.1,263.6 "/>
<polyline id="Fill-213_1_" class="st7" points="108.1,230.8 56.3,230.8 61.1,179.5 103.2,179.5 108.1,230.8 "/>
<path id="Fill-217_3_" class="st7" d="M40.3,207.4v-7c0-11.6,9.4-20.9,20.9-20.9v13.9c-3.9,0-7,3.2-7.1,7.1v7H40.3"/>
<path id="Fill-217_2_" class="st7" d="M123.4,207.4h-13.9v-7c0-3.9-3.2-7-7.1-7.1v-13.9c11.6,0,20.9,9.4,20.9,20.9V207.4"/>
<path id="Fill-181_1_" class="st5" d="M89.8,166.3c0,4.2-3.4,7.7-7.7,7.7c-4.2,0-7.7-3.4-7.7-7.7s3.4-7.7,7.7-7.7
	C86.3,158.7,89.8,162.1,89.8,166.3"/>
</svg>
