<?xml version="1.0" encoding="utf-8"?>
<!-- Generator: Adobe Illustrator 23.0.1, SVG Export Plug-In . SVG Version: 6.00 Build 0)  -->
<svg version="1.1" id="Capa_1" xmlns="http://www.w3.org/2000/svg" xmlns:xlink="http://www.w3.org/1999/xlink" x="0px" y="0px"
	 viewBox="0 0 300 300" style="enable-background:new 0 0 300 300;" xml:space="preserve">
<style type="text/css">
	.st0{fill:#8ACB91;}
	.st1{fill-rule:evenodd;clip-rule:evenodd;fill:#FBD77F;}
	.st2{fill-rule:evenodd;clip-rule:evenodd;fill:#3C7483;}
	.st3{fill-rule:evenodd;clip-rule:evenodd;fill:#0D2633;}
	.st4{fill-rule:evenodd;clip-rule:evenodd;fill:#153F6E;}
	.st5{fill:#FFFFFF;}
	.st6{fill:#FBD77F;}
	.st7{fill:#153F6E;}
	.st8{filter:url(#Adobe_OpacityMaskFilter);}
	.st9{fill-rule:evenodd;clip-rule:evenodd;fill:#FFFFFF;}
	.st10{mask:url(#mask-2_2_);fill-rule:evenodd;clip-rule:evenodd;fill:#FBD77F;}
	.st11{filter:url(#Adobe_OpacityMaskFilter_1_);}
	.st12{mask:url(#mask-2_1_);fill-rule:evenodd;clip-rule:evenodd;fill:#FBD77F;}
</style>
<g>
	<g>
		<path class="st0" d="M267.8,152.6c0,20.2-5.3,40-15.4,57.4L153,152.6V37.8C216.4,37.8,267.8,89.2,267.8,152.6z"/>
		<path class="st0" d="M153,37.8v114.8l-99.4,57.4C33,174.5,33,130.8,53.5,95.2S112,37.8,153,37.8z"/>
		<path class="st0" d="M53.4,210.1l99.4-57.4l99.4,57.4c-20.5,35.5-58.4,57.4-99.4,57.4C111.8,267.5,73.9,245.6,53.4,210.1z"/>
	</g>
	<polyline id="Fill-214_5_" class="st1" points="88.3,218.3 77.5,218.3 77.5,186 91,186 88.3,218.3 	"/>
	<polyline id="Fill-215_5_" class="st1" points="98.2,218.3 109,218.3 109,186 95.5,186 98.2,218.3 	"/>
	<polyline id="Fill-213_5_" class="st2" points="230.3,186.5 190.4,186.5 194.1,146.9 226.5,146.9 230.3,186.5 	"/>
	<path id="Fill-217_12_" class="st2" d="M178,168.4v-5.4c0-8.9,7.2-16.1,16.1-16.1v10.7c-3,0-5.4,2.4-5.4,5.4v5.4H178"/>
	<path id="Fill-217_9_" class="st2" d="M242.1,168.4h-10.7v-5.4c0-3-2.4-5.4-5.4-5.4v-10.7c8.9,0,16.1,7.2,16.1,16.1V168.4"/>
	<path id="Fill-181_4_" class="st3" d="M216.1,136.8c0,3.3-2.6,5.9-5.9,5.9s-5.9-2.6-5.9-5.9c0-3.3,2.6-5.9,5.9-5.9
		S216.1,133.6,216.1,136.8"/>
	<polyline id="Fill-213_3_" class="st1" points="113.3,187 77.6,187 80.9,151.8 109.9,151.8 113.3,187 	"/>
	<path id="Fill-217_13_" class="st1" d="M66.6,170.9v-4.8c0-8,6.4-14.4,14.4-14.4v9.5c-2.7,0-4.8,2.2-4.8,4.9v4.8H66.6"/>
	<path id="Fill-218_2_" class="st3" d="M97.8,142.1c0,1.8-1.4,3.2-3.2,3.2c-1.8,0-3.2-1.4-3.2-3.2c0-1.8,1.4-3.2,3.2-3.2
		C96.4,138.9,97.8,140.3,97.8,142.1"/>
	<path id="Fill-219_2_" class="st4" d="M101.8,148.6h-1.6v-6.6c0-3.1-2.5-5.6-5.6-5.6c-3.1,0-5.6,2.5-5.6,5.6v6.4h-1.6v-6.4
		c0-4,3.2-7.2,7.2-7.2c4,0,7.2,3.2,7.2,7.2V148.6"/>
	<g>
		<path class="st5" d="M197.9,127.2v56.4c0,2.1-1.7,3.8-3.8,3.8H167c-1.2,0-2.3,0.1-3.5,0.4c-1.1,0.2-2.2,0.6-3.3,1
			c-2.1,0.9-4.4,1.4-6.8,1.4v-64c2.3,0,4.6-0.5,6.8-1.4c2.1-0.9,4.4-1.4,6.8-1.4h27.1C196.2,123.4,197.9,125.1,197.9,127.2z"/>
		<path class="st5" d="M153.5,126.2v63.9c-2.3,0-4.6-0.5-6.8-1.4c-2.1-0.9-4.4-1.4-6.8-1.4H113c-2.1,0-3.8-1.7-3.8-3.8v-56.4
			c0-2.1,1.7-3.8,3.8-3.8h27c1.2,0,2.3,0.1,3.5,0.4c1.1,0.2,2.2,0.6,3.3,1C148.8,125.7,151.1,126.2,153.5,126.2z"/>
		<g>
			<path class="st6" d="M120,139.7h8.5c0.9,0,1.8-0.7,1.9-1.6c0.2-1.2-0.7-2.2-1.9-2.2H120c-0.9,0-1.8,0.7-1.9,1.6
				C117.9,138.7,118.8,139.7,120,139.7z"/>
			<path class="st6" d="M141.8,147.6H120c-0.9,0-1.8,0.7-1.9,1.6c-0.2,1.2,0.7,2.2,1.9,2.2h21.7c0.9,0,1.8-0.7,1.9-1.6
				C143.8,148.6,142.9,147.6,141.8,147.6z"/>
			<path class="st6" d="M141.8,159.5H120c-0.9,0-1.8,0.7-1.9,1.6c-0.2,1.2,0.7,2.2,1.9,2.2h21.7c0.9,0,1.8-0.7,1.9-1.6
				C143.8,160.5,142.9,159.5,141.8,159.5z"/>
			<path class="st6" d="M141.8,171.5H120c-0.9,0-1.8,0.7-1.9,1.6c-0.2,1.2,0.7,2.2,1.9,2.2h21.7c0.9,0,1.8-0.7,1.9-1.6
				C143.8,172.5,142.9,171.5,141.8,171.5z"/>
		</g>
		<path class="st0" d="M183.2,150.9c-0.4-0.4-0.8-0.6-1.3-0.6c-0.5,0-1,0.2-1.3,0.6l-7.8,7.8l-3.8-3.8c-0.7-0.7-1.9-0.8-2.7,0
			c-0.7,0.7-0.8,1.9,0,2.7l5.1,5.1c0.4,0.4,0.8,0.6,1.3,0.5c0.5,0,1-0.2,1.3-0.5l9.1-9.1c0.4-0.3,0.6-0.8,0.6-1.3
			C183.7,151.7,183.5,151.3,183.2,150.9z"/>
	</g>
	<rect x="153" y="124.4" class="st7" width="4.4" height="66"/>
	<g>
		<path id="Fill-195_2_" class="st1" d="M168.8,92.4c0,7.3-5.9,13.2-13.2,13.2c-7.3,0-13.2-5.9-13.2-13.2c0-7.3,5.9-13.2,13.2-13.2
			C162.9,79.1,168.8,85.1,168.8,92.4"/>
		<path id="Fill-196_2_" class="st4" d="M158.3,92.8h-0.6c0-1.2-1-2.2-2.2-2.2c-1.2,0-2.2,1-2.2,2.2h-0.6c0-1.5,1.2-2.8,2.8-2.8
			C157.1,90.1,158.3,91.3,158.3,92.8"/>
		<path id="Fill-197_2_" class="st4" d="M160,98.1h-2c-2.9,0-5.2-2.3-5.2-5.2h0.6c0,2.6,2.1,4.7,4.7,4.7h2V98.1"/>
		<path id="Fill-198_2_" class="st4" d="M153.1,98.1h-2v-0.6h2c2.6,0,4.7-2.1,4.7-4.7h0.6C158.3,95.7,156,98.1,153.1,98.1"/>
		<polygon id="Fill-199_2_" class="st1" points="148.9,108.9 162.2,108.9 162.2,102.3 148.9,102.3 		"/>
		<path id="Fill-200_2_" class="st4" d="M152.2,113.5c-0.2,0-0.3-0.1-0.3-0.3v-12.1c0-0.2,0.1-0.3,0.3-0.3c0.2,0,0.3,0.1,0.3,0.3
			v12.1C152.5,113.4,152.4,113.5,152.2,113.5"/>
		<path id="Fill-201_2_" class="st4" d="M158.8,113.5c-0.2,0-0.3-0.1-0.3-0.3v-12.1c0-0.2,0.1-0.3,0.3-0.3c0.2,0,0.3,0.1,0.3,0.3
			v12.1C159.1,113.4,159,113.5,158.8,113.5"/>
		<polygon id="Fill-202_2_" class="st4" points="148.9,117.7 162.2,117.7 162.2,108.9 148.9,108.9 		"/>
		<path id="Fill-203_2_" class="st4" d="M163.2,114.4h-15.4c-0.6,0-1.1-0.5-1.1-1.1c0-0.6,0.5-1.1,1.1-1.1h15.4
			c0.6,0,1.1,0.5,1.1,1.1C164.3,113.9,163.8,114.4,163.2,114.4"/>
		<path id="Fill-204_2_" class="st1" d="M140.1,92.8h-4.4c-0.2,0-0.4-0.2-0.4-0.4c0-0.2,0.2-0.4,0.4-0.4h4.4c0.2,0,0.4,0.2,0.4,0.4
			C140.5,92.6,140.3,92.8,140.1,92.8"/>
		<path id="Fill-205_2_" class="st1" d="M175.3,92.8h-4.4c-0.2,0-0.4-0.2-0.4-0.4c0-0.2,0.2-0.4,0.4-0.4h4.4c0.2,0,0.4,0.2,0.4,0.4
			C175.7,92.6,175.6,92.8,175.3,92.8"/>
		<path id="Fill-206_2_" class="st1" d="M168.9,85.1c-0.1,0-0.3-0.1-0.4-0.2c-0.1-0.2,0-0.5,0.2-0.6l3.8-2.2c0.2-0.1,0.4,0,0.6,0.2
			c0.1,0.2,0,0.5-0.2,0.6l-3.8,2.2L168.9,85.1"/>
		<g id="Group-210_2_" transform="translate(184.663371, 0.000000)">
			<g id="Clip-208_2_">
			</g>
			<defs>
				<filter id="Adobe_OpacityMaskFilter" filterUnits="userSpaceOnUse" x="-21.9" y="74.8" width="3" height="4.6">
					<feColorMatrix  type="matrix" values="1 0 0 0 0  0 1 0 0 0  0 0 1 0 0  0 0 0 1 0"/>
				</filter>
			</defs>
			<mask maskUnits="userSpaceOnUse" x="-21.9" y="74.8" width="3" height="4.6" id="mask-2_2_">
				<g class="st8">
					<polygon id="path-1_2_" class="st9" points="-18.8,72.2 -29.6,72.2 -29.6,79.5 -18.8,79.5 					"/>
				</g>
			</mask>
			<path id="Fill-207_2_" class="st10" d="M-21.5,79.5l-0.2-0.1c-0.2-0.1-0.3-0.4-0.2-0.6l2.2-3.8c0.1-0.2,0.4-0.3,0.6-0.2
				c0.2,0.1,0.3,0.4,0.2,0.6l-2.2,3.8C-21.2,79.4-21.3,79.5-21.5,79.5"/>
			<defs>
				<filter id="Adobe_OpacityMaskFilter_1_" filterUnits="userSpaceOnUse" x="-29.6" y="72.2" width="0.8" height="5.2">
					<feColorMatrix  type="matrix" values="1 0 0 0 0  0 1 0 0 0  0 0 1 0 0  0 0 0 1 0"/>
				</filter>
			</defs>
			<mask maskUnits="userSpaceOnUse" x="-29.6" y="72.2" width="0.8" height="5.2" id="mask-2_1_">
				<g class="st11">
					<polygon id="path-1_1_" class="st9" points="-18.8,72.2 -29.6,72.2 -29.6,79.5 -18.8,79.5 					"/>
				</g>
			</mask>
			<path id="Fill-209_2_" class="st12" d="M-29.2,77.4c-0.2,0-0.4-0.2-0.4-0.4v-4.4c0-0.2,0.2-0.4,0.4-0.4c0.2,0,0.4,0.2,0.4,0.4V77
				C-28.7,77.2-28.9,77.4-29.2,77.4"/>
		</g>
		<path id="Fill-211_2_" class="st1" d="M147.8,79.5c-0.1,0-0.3-0.1-0.4-0.2l-2.2-3.8c-0.1-0.2,0-0.5,0.2-0.6c0.2-0.1,0.5,0,0.6,0.2
			l2.2,3.8c0.1,0.2,0,0.5-0.2,0.6L147.8,79.5"/>
		<path id="Fill-212_2_" class="st1" d="M142.2,85.1l-0.2-0.1l-3.8-2.2c-0.2-0.1-0.3-0.4-0.2-0.6c0.1-0.2,0.4-0.3,0.6-0.2l3.8,2.2
			c0.2,0.1,0.3,0.4,0.2,0.6C142.4,85,142.3,85.1,142.2,85.1"/>
	</g>
	<polyline id="Fill-214_7_" class="st2" points="209.3,218.3 198.5,218.3 198.5,186 212,186 209.3,218.3 	"/>
	<polyline id="Fill-215_7_" class="st2" points="219.2,218.3 230,218.3 230,186 216.5,186 219.2,218.3 	"/>
</g>
</svg>
