<?xml version="1.0" encoding="utf-8"?>
<!-- Generator: Adobe Illustrator 23.0.1, SVG Export Plug-In . SVG Version: 6.00 Build 0)  -->
<svg version="1.1" id="Capa_1" xmlns="http://www.w3.org/2000/svg" xmlns:xlink="http://www.w3.org/1999/xlink" x="0px" y="0px"
	 viewBox="0 0 300 300" style="enable-background:new 0 0 300 300;" xml:space="preserve">
<style type="text/css">
	.st0{fill:#FBD77F;}
	.st1{fill:#E8B35C;}
	.st2{fill-rule:evenodd;clip-rule:evenodd;fill:#A4DAD8;}
	.st3{fill-rule:evenodd;clip-rule:evenodd;fill:#5AB4BE;}
	.st4{fill-rule:evenodd;clip-rule:evenodd;fill:#0D2633;}
</style>
<g>
	<g>
		<ellipse class="st0" cx="152.2" cy="237.1" rx="81.8" ry="24.9"/>
		<ellipse class="st1" cx="152.2" cy="237.1" rx="39.2" ry="10.6"/>
		<g>
		</g>
		<g>
		</g>
		<g>
		</g>
		<g>
		</g>
		<g>
		</g>
		<g>
		</g>
		<g>
		</g>
		<g>
		</g>
		<g>
		</g>
		<g>
		</g>
		<g>
		</g>
		<g>
		</g>
		<g>
		</g>
		<g>
		</g>
		<g>
		</g>
	</g>
	<polyline id="Fill-214_8_" class="st2" points="146,237.7 131.3,237.7 131.3,193.6 149.7,193.6 146,237.7 	"/>
	<polyline id="Fill-215_8_" class="st2" points="159.6,237.7 174.3,237.7 174.3,193.6 155.9,193.6 159.6,237.7 	"/>
	<polyline id="Fill-213_7_" class="st3" points="180.6,203.2 126.2,203.2 131.3,149.4 175.5,149.4 180.6,203.2 	"/>
	<path id="Fill-217_11_" class="st3" d="M109.4,178.7v-7.3c0-12.1,9.8-22,22-22V164c-4.1,0-7.4,3.3-7.4,7.4v7.3H109.4"/>
	<path id="Fill-217_10_" class="st3" d="M196.7,178.7h-14.6v-7.3c0-4.1-3.3-7.4-7.4-7.4v-14.6c12.1,0,22,9.8,22,22V178.7"/>
	<path id="Fill-181_6_" class="st4" d="M161.4,135.6c0,4.4-3.6,8-8.1,8c-4.4,0-8.1-3.6-8.1-8c0-4.4,3.6-8,8.1-8
		C157.8,127.6,161.4,131.2,161.4,135.6"/>
</g>
</svg>
