<?xml version="1.0" encoding="utf-8"?>
<!-- Generator: Adobe Illustrator 23.0.1, SVG Export Plug-In . SVG Version: 6.00 Build 0)  -->
<svg version="1.1" id="Capa_1" xmlns="http://www.w3.org/2000/svg" xmlns:xlink="http://www.w3.org/1999/xlink" x="0px" y="0px"
	 viewBox="0 0 300 300" style="enable-background:new 0 0 300 300;" xml:space="preserve">
<style type="text/css">
	.st0{fill:#E8B35C;}
	.st1{fill:#8ACB91;}
	.st2{fill:#F2EBD9;}
	.st3{fill:#A3D4F7;}
	.st4{fill:#0D2633;}
	.st5{fill:#FBD77F;}
	.st6{fill:#A4DAD8;}
	.st7{fill:#FFFFFF;}
</style>
<g>
	<g>
		<polygon class="st0" points="51.7,172.3 51.7,247.9 248.3,247.9 248.3,172.3 150,163.7 		"/>
		<rect x="51.7" y="155.4" class="st1" width="196.6" height="17.3"/>
		<polygon class="st2" points="99.3,128.7 99.3,247.9 120.9,247.9 150,239.3 179.1,247.9 200.7,247.9 200.7,128.7 150,120 		"/>
		<rect x="150" y="51.7" class="st3" width="34.9" height="18.4"/>
		<rect x="146.5" y="51.7" class="st4" width="6.5" height="45.7"/>
		<polygon class="st1" points="150,188.4 154.3,239.5 120.8,235.2 120.8,188.4 		"/>
		<polygon class="st1" points="179.2,188.4 179.2,235.2 150,239.5 150,188.4 		"/>
		<polygon class="st5" points="179.2,235.2 179.2,248.3 120.8,248.3 120.8,235.2 150,235.2 		"/>
		<path class="st6" d="M149.9,146.1c6.9,0,12.5,5.6,12.5,12.5c0,6.9-5.6,12.5-12.5,12.5s-12.5-5.6-12.5-12.5
			C137.4,151.7,143,146.1,149.9,146.1z"/>
		<polygon class="st0" points="153.1,91.2 146.7,91.2 99.1,128.9 200.7,128.9 		"/>
		<path class="st7" d="M64.4,201.3v-12.9c0-1.5,1-2.9,2.5-3.2c2.1-0.5,4,1.1,4,3.2v13.1c0,2.1-1.9,3.7-4,3.2
			C65.4,204.2,64.4,202.8,64.4,201.3z"/>
		<path class="st7" d="M80.1,201.3v-12.9c0-1.5,1-2.9,2.5-3.2c2.1-0.5,4,1.1,4,3.2v13.1c0,2.1-1.9,3.7-4,3.2
			C81.1,204.2,80.1,202.8,80.1,201.3z"/>
		<path class="st7" d="M229.1,201.3v-12.9c0-1.5,1-2.9,2.5-3.2c2.1-0.5,4,1.1,4,3.2v13.1c0,2.1-1.9,3.7-4,3.2
			C230.1,204.2,229.1,202.8,229.1,201.3z"/>
		<path class="st7" d="M213.4,201.3v-12.9c0-1.5,1-2.9,2.5-3.2c2.1-0.5,4,1.1,4,3.2v13.1c0,2.1-1.9,3.7-4,3.2
			C214.4,204.2,213.4,202.8,213.4,201.3z"/>
	</g>
</g>
</svg>
