<?xml version="1.0" encoding="utf-8"?>
<!-- Generator: Adobe Illustrator 23.0.1, SVG Export Plug-In . SVG Version: 6.00 Build 0)  -->
<svg version="1.1" id="Capa_1" xmlns="http://www.w3.org/2000/svg" xmlns:xlink="http://www.w3.org/1999/xlink" x="0px" y="0px"
	 viewBox="0 0 300 300" style="enable-background:new 0 0 300 300;" xml:space="preserve">
<style type="text/css">
	.st0{fill:#A4DAD8;}
	.st1{fill:#FBD77F;}
</style>
<g>
	<path class="st0" d="M89,106.9l-4.1,4.1c-0.9,0.9-1.2,2.3-0.7,3.5c0.5,1.2,1.7,2,3,2h25.6c1.8,0,3.2-1.4,3.2-3.2V87.7
		c0-1.3-0.8-2.5-2-3c-1.2-0.5-2.6-0.2-3.5,0.7l-4.1,4.1L89.4,72.7c-1.3-1.3-3.3-1.3-4.5,0L72,85.5c-1.3,1.3-1.3,3.3,0,4.5L89,106.9z
		"/>
	<path class="st0" d="M87.2,79.3l16.9,16.9c1.2,1.2,3.3,1.2,4.5,0l0.9-0.9v14.7H94.9l0.9-0.9c1.3-1.3,1.3-3.3,0-4.5L78.9,87.5
		L87.2,79.3z"/>
	<path class="st0" d="M180.1,113.3c0,1.8,1.4,3.2,3.2,3.2h25.6c1.3,0,2.5-0.8,3-2c0.5-1.2,0.2-2.6-0.7-3.5l-4.1-4.1L224,90
		c1.3-1.3,1.3-3.3,0-4.5l-12.8-12.8c-1.3-1.3-3.3-1.3-4.5,0l-16.9,16.9l-4.1-4.1c-0.9-0.9-2.3-1.2-3.5-0.7c-1.2,0.5-2,1.7-2,3V113.3
		z"/>
	<path class="st0" d="M186.4,95.3l0.9,0.9c1.3,1.3,3.3,1.3,4.5,0l16.9-16.9l8.3,8.3l-16.9,16.9c-1.2,1.2-1.2,3.3,0,4.5l0.9,0.9
		h-14.7V95.3z"/>
	<path class="st0" d="M112.7,180.4H87.1c-1.3,0-2.5,0.8-3,2c-0.5,1.2-0.2,2.6,0.7,3.5L89,190L72,207c-1.3,1.3-1.3,3.3,0,4.5
		l12.8,12.8c0.6,0.6,1.4,0.9,2.3,0.9s1.6-0.3,2.3-0.9l16.9-16.9l4.1,4.1c0.9,0.9,2.3,1.2,3.5,0.7c1.2-0.5,2-1.7,2-3v-25.6
		C115.9,181.9,114.5,180.4,112.7,180.4z"/>
	<path class="st0" d="M109.6,201.4l-0.9-0.9c-1.3-1.3-3.3-1.3-4.5,0l-16.9,16.9l-8.3-8.3l16.9-16.9c1.2-1.2,1.2-3.3,0-4.5l-0.9-0.9
		h14.7V201.4z"/>
	<path class="st0" d="M207,190l4.1-4.1c0.9-0.9,1.2-2.3,0.7-3.5c-0.5-1.2-1.7-2-3-2h-25.6c-1.8,0-3.2,1.4-3.2,3.2v25.6
		c0,1.3,0.8,2.5,2,3c1.2,0.5,2.6,0.2,3.5-0.7l4.1-4.1l16.9,16.9c0.6,0.6,1.4,0.9,2.3,0.9c0.8,0,1.6-0.3,2.3-0.9l12.8-12.8
		c1.3-1.3,1.3-3.3,0-4.5L207,190z"/>
	<path class="st0" d="M208.8,217.4l-16.9-16.9c-0.6-0.6-1.4-0.9-2.3-0.9c-0.8,0-1.6,0.3-2.3,0.9l-0.9,0.9v-14.7h14.7l-0.9,0.9
		c-1.3,1.3-1.3,3.3,0,4.5l16.9,16.9L208.8,217.4z"/>
	<circle class="st1" cx="148" cy="148.5" r="32"/>
	<circle class="st1" cx="148" cy="148.5" r="25.6"/>
	<path class="st1" d="M166.8,131.2c0.3,1.5,0.5,3,0.5,4.5c0,14.1-11.5,25.6-25.6,25.6c-7.4,0-14.1-3.2-18.7-8.3
		c2.1,12,12.6,21.1,25.1,21.1c14.1,0,25.6-11.5,25.6-25.6C173.6,141.8,171,135.7,166.8,131.2z"/>
	<g>
	</g>
	<g>
	</g>
	<g>
	</g>
	<g>
	</g>
	<g>
	</g>
	<g>
	</g>
	<g>
	</g>
	<g>
	</g>
	<g>
	</g>
	<g>
	</g>
	<g>
	</g>
	<g>
	</g>
	<g>
	</g>
	<g>
	</g>
	<g>
	</g>
</g>
</svg>
