<svg width="21" height="18" viewBox="0 0 21 18" fill="none" xmlns="http://www.w3.org/2000/svg">
<path d="M9.95996 0V18C12.8442 17.8533 15.3725 16.3443 16.9149 14.1056C16.8248 14.0814 16.7437 14.0293 16.6833 13.9589L14.1051 10.956C13.3135 10.0347 12.9792 8.8473 12.9792 7.93625C12.9792 5.74692 14.7353 3.95482 16.9082 3.88535C15.3646 1.65306 12.8407 0.147748 9.96008 0.00010722L9.95996 0Z" fill="#235B4E"/>
<path d="M7.9568 0.12207C3.71494 0.852932 0.481445 4.55131 0.481445 8.9992C0.481445 9.02091 0.482686 9.04324 0.482686 9.06495H3.77649V8.9992C3.77649 5.53358 5.33686 2.29163 7.95681 0.12207H7.9568Z" fill="#235B4E"/>
<path d="M9.02599 0.469389C6.33296 2.45312 4.71069 5.60765 4.71069 8.99876C4.71069 9.02047 4.71193 9.0428 4.71193 9.0645H9.02564L9.0258 0.469238L9.02599 0.469389Z" fill="#235B4E"/>
<path d="M17.0554 6.67079C17.3847 6.6742 17.6999 6.80834 17.9329 7.04126C18.4269 7.53532 18.4269 8.33661 17.9329 8.83162C17.4376 9.32567 16.636 9.32567 16.1421 8.83162C15.6468 8.33661 15.6468 7.53536 16.1421 7.04126C16.3835 6.79919 16.7129 6.66552 17.0555 6.67079H17.0554ZM17.0359 4.81299C15.3107 4.81299 13.9133 6.21004 13.9133 7.93652C13.9133 8.59946 14.2055 9.64235 14.8115 10.3493L17.0359 12.9391L19.2618 10.3493C19.868 9.64263 20.1613 8.59946 20.1613 7.93652C20.161 6.21008 18.7627 4.81299 17.0359 4.81299H17.0359Z" fill="#235B4E"/>
<path d="M0.538086 9.99902C0.979422 13.9924 4.03626 17.202 7.95548 17.8793C5.5906 15.9195 4.08914 13.0836 3.82041 9.99902H0.538086Z" fill="#235B4E"/>
<path d="M4.76221 9.99902C5.04801 13.0042 6.60048 15.7435 9.0263 17.5315V9.99902H4.76221Z" fill="#235B4E"/>
</svg>
