<svg width="21" height="22" viewBox="0 0 21 22" fill="none" xmlns="http://www.w3.org/2000/svg">
<path d="M19.6521 15.6571C19.9815 15.4585 20.1836 15.1024 20.1853 14.7176V1.10219C20.1865 0.908279 20.1363 0.717699 20.0399 0.549422C19.9433 0.381162 19.804 0.241547 19.6362 0.144675C19.2913 -0.0466994 18.8711 -0.0416341 18.5311 0.158288L13.6976 3.0583L8.871 0.158288C8.69989 0.0547657 8.50361 0 8.30369 0C8.10361 0 7.90749 0.0547698 7.73638 0.158288L2.35139 3.39184C2.02199 3.59065 1.81986 3.94662 1.81812 4.3313V9.62309C2.49561 9.2451 3.2402 9.00229 4.01028 8.90824V4.95307L7.30984 2.9743L7.30968 9.42786C8.0728 9.78433 8.7541 10.2942 9.31128 10.9256V2.98325L12.6947 5.00968V16.0722L10.8362 14.958C10.8298 15.7501 10.7034 16.5365 10.4617 17.2907L13.1325 18.8928L13.1327 18.8929C13.3037 18.9966 13.4999 19.0515 13.7 19.0515C13.8999 19.0515 14.0962 18.9966 14.2673 18.8929L19.6521 15.6571ZM14.6982 5.0099L17.991 3.03335V14.0959L14.6982 16.0725V5.0099Z" fill="#DAC6A1"/>
<path d="M0.481535 14.9989C0.508761 17.8581 2.8847 20.5496 4.08055 21.7248C4.25974 21.9011 4.50097 21.9999 4.75233 21.9999C5.00353 21.9999 5.24492 21.9011 5.42394 21.7248C6.62664 20.5311 9.02077 17.8263 9.02077 14.9491C9.02077 13.8167 8.57106 12.7308 7.77058 11.93C6.97027 11.129 5.88456 10.6789 4.75233 10.6782H4.47548C3.38629 10.7588 2.36833 11.2495 1.62706 12.0514C0.885622 12.8535 0.476307 13.9069 0.481494 14.9989H0.481535ZM4.75217 13.2403H4.75232C5.20552 13.2403 5.64017 13.4203 5.96053 13.7407C6.28091 14.0612 6.46106 14.4959 6.46106 14.9491C6.46106 15.4022 6.28093 15.8367 5.96053 16.1573C5.64016 16.4776 5.20548 16.6578 4.75232 16.6578C4.29917 16.6578 3.86448 16.4777 3.54412 16.1573C3.22358 15.8367 3.04359 15.4022 3.04359 14.9491C3.04359 14.4959 3.22356 14.0612 3.54412 13.7407C3.86449 13.4203 4.29917 13.2403 4.75232 13.2403H4.75217Z" fill="#DAC6A1"/>
</svg>
