<?xml version="1.0" encoding="utf-8"?>
<svg version="1.1" id="Capa_1" x="0px" y="0px" viewBox="0 0 65 65" style="enable-background:new 0 0 65 65;" xmlns="http://www.w3.org/2000/svg">
  <style type="text/css">
	.st0{fill:#FFFFFF;}
	.st1{fill-rule:evenodd;clip-rule:evenodd;fill:#FFFFFF;}
	.st2{fill:#FFFFFF;stroke:#FFFFFF;stroke-miterlimit:10;}
	.st3{fill:#FFFFFF;stroke:#FFFFFF;stroke-width:0.99;stroke-miterlimit:10;}
	.st4{fill:none;stroke:#FFFFFF;stroke-width:2;stroke-miterlimit:10;}
	.st5{fill:#FFFFFF;stroke:#FFFFFF;stroke-width:0.5;stroke-miterlimit:10;}
	.st6{fill:none;stroke:#FFFFFF;stroke-width:2.853;stroke-miterlimit:10;}
</style>
  <g>
    <path class="st0" d="M32.42,0.48c-11.4,0-20.67,9.27-20.67,20.67c0,10.19,7.07,23.56,13,32.97c0.38,0.61,1.19,0.79,1.79,0.41 c0.61-0.38,0.79-1.19,0.41-1.79c-10.42-16.53-12.6-26.3-12.6-31.59c0-9.97,8.11-18.07,18.07-18.07S50.5,11.19,50.5,21.16 c0,16.19-18.91,40.86-19.1,41.11c-0.44,0.57-0.33,1.38,0.23,1.82c0.24,0.18,0.52,0.27,0.79,0.27c0.39,0,0.77-0.17,1.03-0.51 c0.8-1.04,19.65-25.62,19.65-42.7C53.1,9.76,43.82,0.48,32.42,0.48z" style="fill: rgb(63, 144, 142);"/>
    <path class="st0" d="M32.42,14.57c0.72,0,1.3-0.58,1.3-1.3s-0.58-1.3-1.3-1.3c-5.07,0-9.19,4.12-9.19,9.19s4.12,9.19,9.19,9.19 s9.19-4.12,9.19-9.19c0-2.02-0.65-3.94-1.87-5.55c-0.43-0.57-1.25-0.68-1.82-0.25c-0.57,0.43-0.68,1.25-0.25,1.82 c0.88,1.15,1.34,2.53,1.34,3.98c0,3.64-2.96,6.59-6.59,6.59s-6.59-2.96-6.59-6.59S28.79,14.57,32.42,14.57z" style="fill: rgb(63, 144, 142);"/>
  </g>
  <g/>
</svg>