<svg width="19" height="19" viewBox="0 0 19 19" fill="none" xmlns="http://www.w3.org/2000/svg">
<path d="M17.4478 2.60912L11.7927 5.51912V3.06058C11.7927 2.65916 11.2455 2.40823 10.8196 2.60911L5.16443 5.51911V0.501867C5.16443 0.200887 4.86029 0 4.55615 0H1.08972C0.724926 0 0.481445 0.250934 0.481445 0.501867V18.3131C0.481445 18.6141 0.785587 18.865 1.15039 18.865H17.8125C18.1773 18.865 18.4814 18.6141 18.4814 18.3131V3.06066C18.4208 2.65959 17.8736 2.40866 17.4477 2.60919L17.4478 2.60912ZM7.77906 15.3027C7.77906 15.5033 7.59666 15.7042 7.29252 15.7042H4.98161C4.73855 15.7042 4.49507 15.5537 4.49507 15.3027V13.3961C4.49507 13.1956 4.73813 12.9947 4.98161 12.9947L7.29252 12.995C7.53558 12.995 7.77906 13.1455 7.77906 13.3965V15.3027ZM7.77906 10.6869C7.77906 10.8874 7.59666 11.0883 7.29252 11.0883H4.98161C4.73855 11.0883 4.49507 10.9378 4.49507 10.6869V8.78024C4.49507 8.5797 4.73813 8.37882 4.98161 8.37882L7.29252 8.37917C7.53558 8.37917 7.77906 8.52966 7.77906 8.78059V10.6869ZM14.4073 15.3027C14.4073 15.5033 14.1643 15.7042 13.9208 15.7042H11.6099C11.3668 15.7042 11.1233 15.5537 11.1233 15.3027V13.3961C11.1233 13.1956 11.3664 12.9947 11.6099 12.9947H13.9208C14.1638 12.9947 14.4073 13.1452 14.4073 13.3961V15.3027ZM14.4073 10.6869C14.4073 10.8874 14.1643 11.0883 13.9208 11.0883H11.6099C11.3668 11.0883 11.1233 10.9378 11.1233 10.6869V8.78024C11.1233 8.5797 11.3664 8.37882 11.6099 8.37882H13.9208C14.1638 8.37882 14.4073 8.52931 14.4073 8.78024V10.6869Z" fill="#235B4E"/>
</svg>
