<svg width="18" height="18" viewBox="0 0 18 18" fill="none" xmlns="http://www.w3.org/2000/svg">
<path d="M0.982254 6.07086C0.714169 6.07086 0.499575 5.85639 0.499575 5.58818V3.78275C0.499575 3.58611 0.624767 3.40729 0.821278 3.33585L8.82966 0.529282C8.93689 0.493495 9.04413 0.493495 9.15136 0.529282L17.1597 3.33585C17.3563 3.4073 17.4814 3.58611 17.4814 3.78275V5.58818C17.4814 5.85627 17.267 6.07086 16.9988 6.07086H15.39V14.544H16.9988C17.2669 14.544 17.4814 14.7585 17.4814 15.0267V16.9395C17.4814 17.2076 17.267 17.4222 16.9988 17.4222H0.964123C0.696037 17.4222 0.481445 17.2077 0.481445 16.9395L0.481567 15.0088C0.481567 14.7407 0.696041 14.5261 0.964249 14.5261H2.57301V6.0708L0.982254 6.07086ZM12.4228 6.07086H10.4744V14.544H12.4228V6.07086ZM5.55847 14.544H7.50691V6.07086H5.55847V14.544Z" fill="#235B4E"/>
</svg>
