<svg width="18" height="18" viewBox="0 0 18 18" fill="none" xmlns="http://www.w3.org/2000/svg">
<path d="M16.9507 3.46714H12.6166C12.6166 2.22846 11.9558 1.08384 10.8831 0.464505C9.81028 -0.154835 8.48862 -0.154835 7.4158 0.464505C6.34314 1.08384 5.68231 2.22846 5.68231 3.46714H1.34819C1.11834 3.46714 0.897768 3.55842 0.735244 3.72109C0.572719 3.88361 0.481445 4.10405 0.481445 4.33389V6.93428H17.8172V4.33389C17.8172 4.10403 17.7259 3.88361 17.5634 3.72109C17.4008 3.55842 17.1803 3.46714 16.9504 3.46714H16.9507ZM9.14952 1.7335C9.60924 1.7335 10.0502 1.91619 10.3754 2.24124C10.7005 2.56644 10.8832 3.00743 10.8832 3.46714H7.41588C7.41588 3.00743 7.59858 2.56644 7.92362 2.24124C8.24882 1.91619 8.68981 1.7335 9.14952 1.7335Z" fill="#235B4E"/>
<path d="M10.0161 9.53472C10.0161 9.84438 9.85099 10.1305 9.58282 10.2854C9.31466 10.4402 8.9841 10.4402 8.71593 10.2854C8.44776 10.1305 8.28263 9.84439 8.28263 9.53472V8.66797H0.481445V16.4692C0.481445 16.699 0.572719 16.9196 0.735244 17.0821C0.897768 17.2446 1.11832 17.3359 1.34819 17.3359H16.9506C17.1804 17.3359 17.401 17.2446 17.5635 17.0821C17.726 16.9196 17.8173 16.699 17.8173 16.4692V8.66797H10.0161V9.53472Z" fill="#235B4E"/>
</svg>
