<?xml version="1.0" encoding="utf-8"?>
<!-- Generator: Adobe Illustrator 23.0.1, SVG Export Plug-In . SVG Version: 6.00 Build 0)  -->
<svg version="1.1" id="Capa_1" xmlns="http://www.w3.org/2000/svg" xmlns:xlink="http://www.w3.org/1999/xlink" x="0px" y="0px"
	 viewBox="0 0 200 200" style="enable-background:new 0 0 200 200;" xml:space="preserve">
<style type="text/css">
	.st0{fill:#FFFFFF;}
</style>
<g>
	<title>191-Location</title>
	<g>
		<path class="st0" d="M93.9,28c28.6,0,51.8,23.2,51.8,51.8h10.4c0-34.4-27.9-62.2-62.2-62.2S31.7,45.5,31.7,79.9
			c0,48.3,51.2,100,53.3,102.2l7.3-7.3c-0.5-0.5-50.3-50.9-50.3-94.9C42.1,51.2,65.3,28,93.9,28z"/>
		<path class="st0" d="M119.8,74.7c0-14.3-11.6-25.9-25.9-25.9S68,60.4,68,74.7s11.6,25.9,25.9,25.9S119.8,89,119.8,74.7z
			 M93.9,90.2c-8.6,0-15.6-7-15.6-15.6s7-15.6,15.6-15.6s15.6,7,15.6,15.6S102.5,90.2,93.9,90.2z"/>
		<polygon class="st0" points="161.3,131.7 140.6,131.7 140.6,111 130.2,111 130.2,131.7 109.5,131.7 109.5,142.1 130.2,142.1 
			130.2,162.8 140.6,162.8 140.6,142.1 161.3,142.1 		"/>
	</g>
</g>
</svg>
