<?xml version="1.0" encoding="utf-8"?>
<!-- Generator: Adobe Illustrator 23.0.1, SVG Export Plug-In . SVG Version: 6.00 Build 0)  -->
<svg version="1.1" id="Capa_1" xmlns="http://www.w3.org/2000/svg" xmlns:xlink="http://www.w3.org/1999/xlink" x="0px" y="0px"
	 viewBox="0 0 200 200" style="enable-background:new 0 0 200 200;" xml:space="preserve">
<style type="text/css">
	.st0{fill:#BC955C;}
</style>
<g>
	<g>
		<path class="st0" d="M152.8,36.8H138v-6.1c0-2.8-1.6-5.4-4.2-6.2c-4.4-1.4-8.4,1.8-8.4,6v6.3H74.6v-6.1c0-2.8-1.7-5.4-4.3-6.2
			c-4.4-1.4-8.4,1.9-8.4,6v6.3H47.2c-9.3,0-16.9,7.6-16.9,16.9v105.6c0,9.3,7.6,16.9,16.9,16.9h105.6c9.3,0,16.9-7.6,16.9-16.9V53.8
			C169.7,44.4,162.1,36.8,152.8,36.8z M152.8,163.6H47.2c-2.3,0-4.2-1.9-4.2-4.2V89.6h114v69.7C157,161.6,155.1,163.6,152.8,163.6z
			 M157,79.1H43V53.8c0-2.3,1.9-4.2,4.2-4.2H62v9.7c0,2.8,1.6,5.4,4.3,6.2c4.4,1.4,8.4-1.8,8.4-6v-9.9h50.7l0,9.8
			c0,2.8,1.7,5.4,4.3,6.2c4.4,1.4,8.4-1.9,8.4-6v-9.9h14.8c2.3,0,4.2,1.9,4.2,4.2L157,79.1z"/>
	</g>
	<g>
		<path class="st0" d="M69.8,119.2H69c-3.1,0-6-2.1-6.5-5.2c-0.7-4,2.3-7.5,6.2-7.5l0.9,0c2.8,0,5.4,1.7,6.2,4.3
			C77.1,115.2,73.9,119.2,69.8,119.2z"/>
		<path class="st0" d="M100.7,119.2h-1.2c-3.1,0-6-2.1-6.5-5.2c-0.7-4,2.3-7.5,6.2-7.5l1.2,0c3.1,0,6,2.1,6.5,5.2
			C107.7,115.7,104.6,119.2,100.7,119.2z"/>
		<path class="st0" d="M131.3,119.2h-0.7c-3.1,0-6-2.1-6.5-5.2c-0.7-4,2.3-7.5,6.2-7.5l0.7,0c3.1,0,6,2.1,6.5,5.2
			C138.2,115.7,135.2,119.2,131.3,119.2z"/>
	</g>
	<g>
		<path class="st0" d="M69.8,150.9H69c-3.1,0-6-2.1-6.5-5.2c-0.7-4,2.3-7.5,6.2-7.5h0.9c2.8,0,5.4,1.7,6.2,4.3
			C77.1,146.9,73.9,150.9,69.8,150.9z"/>
		<path class="st0" d="M100.7,150.9h-1.2c-3.1,0-6-2.1-6.5-5.2c-0.7-4,2.3-7.5,6.2-7.5h1.2c3.1,0,6,2.1,6.5,5.2
			C107.7,147.4,104.6,150.9,100.7,150.9z"/>
		<path class="st0" d="M131.3,150.9h-0.7c-3.1,0-6-2.1-6.5-5.2c-0.7-4,2.3-7.5,6.2-7.5h0.7c3.1,0,6,2.1,6.5,5.2
			C138.2,147.4,135.2,150.9,131.3,150.9z"/>
	</g>
</g>
</svg>
