<?xml version="1.0" encoding="utf-8"?>
<!-- Generator: Adobe Illustrator 23.0.1, SVG Export Plug-In . SVG Version: 6.00 Build 0)  -->
<svg version="1.1" id="Capa_1" xmlns="http://www.w3.org/2000/svg" xmlns:xlink="http://www.w3.org/1999/xlink" x="0px" y="0px"
	 viewBox="0 0 200 200" style="enable-background:new 0 0 200 200;" xml:space="preserve">
<style type="text/css">
	.st0{fill:#BC955C;}
</style>
<g>
	<path class="st0" d="M86.4,34.7C74.5,34.7,65,44.5,65,56.1c0,11.9,9.5,21.4,21.4,21.4s21.4-9.8,21.4-21.4S98.3,34.7,86.4,34.7
		 M86.4,91.4c-19.3,0-35-15.8-35-35s15.8-35,35-35s35,15.8,35,35S105.6,91.4,86.4,91.4"/>
	<g>
		<path class="st0" d="M152.2,135.9L152.2,135.9L152.2,135.9L152.2,135.9z"/>
		<path class="st0" d="M121.4,104.8H53.1c-8.1,0-18.6,3.5-23.8,8.8c-5.3,5.3-9.5,14.7-9.5,22.8v38.5h14v-38.5c0-4.9,2.8-10.5,5.3-13
			c2.5-2.5,9.1-4.6,13.7-4.6h68.6V104.8z"/>
	</g>
	<path class="st0" d="M171.4,98.1l-28.7,60.6L114,139.4l-6.7,9.8l34.3,23.1c1.1,0.7,2.1,1.1,3.5,1.1c0.4,0,1.1,0,1.8-0.4
		c1.8-0.4,3.2-1.8,3.9-3.2l31.9-66.9L171.4,98.1z"/>
</g>
</svg>
