<?xml version="1.0" encoding="utf-8"?>
<!-- Generator: Adobe Illustrator 23.0.1, SVG Export Plug-In . SVG Version: 6.00 Build 0)  -->
<svg version="1.1" id="Capa_1" xmlns="http://www.w3.org/2000/svg" xmlns:xlink="http://www.w3.org/1999/xlink" x="0px" y="0px"
	 viewBox="0 0 200 200" style="enable-background:new 0 0 200 200;" xml:space="preserve">
<style type="text/css">
	.st0{fill:#CAD9DD;}
</style>
<g>
	<path class="st0" d="M144.6,130.1L69.3,54.8c-3.3-3.3-8.6-3.3-11.9,0l-4,4c-3.3,3.3-3.3,8.6,0,11.9l75.3,75.3
		c3.3,3.3,8.6,3.3,11.9,0l4-4C147.9,138.7,147.9,133.4,144.6,130.1z"/>
	<path class="st0" d="M128.7,54.8l-75.3,75.3c-3.3,3.3-3.3,8.6,0,11.9l4,4c3.3,3.3,8.6,3.3,11.9,0l75.3-75.3c3.3-3.3,3.3-8.6,0-11.9
		l-4-4C137.3,51.5,132,51.5,128.7,54.8z"/>
</g>
</svg>
