<?xml version="1.0" encoding="utf-8"?>
<!-- Generator: Adobe Illustrator 23.0.1, SVG Export Plug-In . SVG Version: 6.00 Build 0)  -->
<svg version="1.1" id="Capa_1" xmlns="http://www.w3.org/2000/svg" xmlns:xlink="http://www.w3.org/1999/xlink" x="0px" y="0px"
	 viewBox="0 0 200 200" style="enable-background:new 0 0 200 200;" xml:space="preserve">
<style type="text/css">
	.st0{fill:#B5C1C6;}
</style>
<g>
	<g>
		<g>
			<path class="st0" d="M133.9,114.6c-7.1,0-13.3,3.5-17.1,8.8l-33.8-16.9c0.6-2,1-4.1,1-6.3c0-2.2-0.3-4.3-1-6.3l33.8-16.9
				c3.8,5.3,10.1,8.8,17.1,8.8c11.6,0,21.1-9.5,21.1-21.1c0-11.6-9.5-21.1-21.1-21.1c-11.6,0-21.1,9.5-21.1,21.1
				c0,2.2,0.3,4.3,1,6.3L79.9,87.9c-3.8-5.3-10.1-8.8-17.1-8.8c-11.6,0-21.1,9.5-21.1,21.1s9.5,21.1,21.1,21.1
				c7.1,0,13.3-3.5,17.1-8.8l33.8,16.9c-0.6,2-1,4.1-1,6.3c0,11.6,9.5,21.1,21.1,21.1c11.6,0,21.1-9.5,21.1-21.1
				S145.5,114.6,133.9,114.6z M133.9,50.2c8,0,14.5,6.5,14.5,14.5s-6.5,14.5-14.5,14.5c-8,0-14.5-6.5-14.5-14.5
				C119.5,56.6,125.9,50.2,133.9,50.2z M62.8,114.6c-8,0-14.5-6.5-14.5-14.5s6.5-14.5,14.5-14.5c8,0,14.5,6.5,14.5,14.5
				S70.8,114.6,62.8,114.6z M133.9,150.2c-8,0-14.5-6.5-14.5-14.5c0-8,6.5-14.5,14.5-14.5c8,0,14.5,6.5,14.5,14.5
				C148.4,143.7,141.9,150.2,133.9,150.2z"/>
		</g>
	</g>
</g>
</svg>
