<?xml version="1.0" encoding="utf-8"?>
<!-- Generator: Adobe Illustrator 23.0.1, SVG Export Plug-In . SVG Version: 6.00 Build 0)  -->
<svg version="1.1" id="Capa_1" xmlns="http://www.w3.org/2000/svg" xmlns:xlink="http://www.w3.org/1999/xlink" x="0px" y="0px"
	 viewBox="0 0 200 200" style="enable-background:new 0 0 200 200;" xml:space="preserve">
<style type="text/css">
	.st0{fill:#BC955C;}
</style>
<g>
	<path class="st0" d="M111.6,118.5c0-3.2,2.6-5.9,5.9-5.9s5.9,2.6,5.9,5.9s-2.6,5.9-5.9,5.9S111.6,121.8,111.6,118.5z"/>
	<path class="st0" d="M93.9,77.4c0-3.2,2.6-5.9,5.9-5.9s5.9,2.6,5.9,5.9c0,3.2-2.6,5.9-5.9,5.9S93.9,80.6,93.9,77.4z"/>
	<path class="st0" d="M70.4,109.7c0-4.9,3.9-8.8,8.8-8.8s8.8,3.9,8.8,8.8c0,4.9-3.9,8.8-8.8,8.8S70.4,114.6,70.4,109.7z"/>
	<path class="st0" d="M27.3,128.6c-2.8,1.6-3.8,5.2-2.2,8l5.9,10.2c1.6,2.8,5.2,3.8,8,2.2c2.8-1.6,3.8-5.2,2.2-8l0,0l10.5-6.1
		c3.6,5,8,9.4,13,13.1l-5.3,7.9c-1.6,2.4-1.5,5.7,0.5,7.7c2.7,2.7,7,2.1,9-0.8l5.9-8.7c5.8,2.7,12,4.5,18.6,5.1v12.1
		c-3.6,0-6.5,3.2-5.8,7c0.5,2.8,3.2,4.8,6.1,4.8H105c2.9,0,5.6-1.9,6.1-4.8c0.7-3.7-2.2-7-5.8-7v-12.1c6.6-0.7,12.8-2.5,18.6-5.1
		l5.8,8.5c1.6,2.4,4.7,3.5,7.4,2.3c3.5-1.5,4.5-5.7,2.5-8.7L134,148c5-3.7,9.4-8.1,13-13.1l10.5,6.1l0,0c-1.6,2.8-0.7,6.4,2.2,8
		c2.8,1.6,6.4,0.6,8-2.2l5.7-10c1.4-2.5,1.1-5.8-1.2-7.7c-2.9-2.4-7.1-1.6-8.9,1.5l-10.5-6.1c2.6-5.7,4.3-11.8,4.9-18.2l5.9,0
		c2.9,0,5.6-1.9,6.1-4.8c0.7-3.7-2.2-7-5.8-7h-6.2c-0.6-6.5-2.4-12.6-4.9-18.2l10.5-6.1c1.6,2.8,5.2,3.8,8,2.2
		c2.8-1.6,3.8-5.2,2.2-8l-5.9-10.2c-1.6-2.8-5.2-3.8-8-2.2c-2.8,1.6-3.8,5.2-2.2,8l0,0L147,66.3c-3.6-5-8-9.4-13-13.1l5.3-7.9
		c1.6-2.4,1.5-5.7-0.5-7.7c-2.7-2.6-7-2.1-9,0.9l-5.9,8.7c-5.8-2.7-12-4.5-18.6-5.1V30.1c3.6,0,6.5-3.2,5.8-7
		c-0.5-2.8-3.2-4.8-6.1-4.8H93.8c-2.9,0-5.6,1.9-6.1,4.8c-0.7,3.7,2.2,7,5.8,7l0,12.1c-6.6,0.7-12.8,2.5-18.6,5.1l-5.8-8.5
		c-1.6-2.4-4.7-3.5-7.4-2.3c-3.5,1.5-4.5,5.7-2.5,8.7l5.5,8.1c-5,3.7-9.4,8.1-13,13.1l-10.5-6.1l0,0c1.8-3.1,0.4-7.2-3.2-8.5
		c-2.7-1-5.7,0.4-7.2,2.9l-5.6,9.7c-1.4,2.5-1.1,5.7,1.1,7.6c2.9,2.5,7.1,1.7,9-1.5l10.5,6.1c-2.6,5.7-4.3,11.8-4.9,18.2H35
		c-2.9,0-5.6,1.9-6.1,4.8c-0.7,3.7,2.2,7,5.8,7h6.2c0.6,6.5,2.4,12.6,4.9,18.2l-10.5,6.1C33.7,128,30.1,127,27.3,128.6z M99.8,53.9
		c25.9,0,47,21.1,47,47s-21.1,47-47,47s-47-21.1-47-47S73.9,53.9,99.8,53.9z"/>
</g>
</svg>
