<?xml version="1.0" encoding="utf-8"?>
<!-- Generator: Adobe Illustrator 23.0.1, SVG Export Plug-In . SVG Version: 6.00 Build 0)  -->
<svg version="1.1" id="Capa_1" xmlns="http://www.w3.org/2000/svg" xmlns:xlink="http://www.w3.org/1999/xlink" x="0px" y="0px"
	 viewBox="0 0 200 200" style="enable-background:new 0 0 200 200;" xml:space="preserve">
<style type="text/css">
	.st0{fill:#BC955C;}
</style>
<g>
	<title>mortality, population, death, die, cardiogram</title>
	<g>
		<path class="st0" d="M181.6,30H18.3c-3.2,0-5.8,2.6-5.8,5.8v128.3c0,3.2,2.6,5.8,5.8,5.8h163.3c3.2,0,5.8-2.6,5.8-5.8V35.8
			C187.5,32.6,184.8,30,181.6,30z M175.8,41.7v52.5h-72.2L93.5,74c-1.5-2.9-5-4-7.9-2.5c-1.4,0.7-2.5,2-2.9,3.6l-10.3,37.7L65,64.1
			c-0.4-2.6-2.4-4.6-5-5c-2.4-0.3-4.7,1-5.8,3.1L39,92.2l-14.9-7.5v-43H175.8z M24.2,158.3V97.8l14.9,7.4c2.9,1.4,6.4,0.3,7.8-2.6
			L56.2,84l8.8,57.7c0.4,2.7,2.7,4.8,5.4,5h0.4c2.7,0.1,5.1-1.7,5.8-4.3l13.5-49.4l4.8,9.7c0.9,1.9,2.8,3.1,5,3.2h75.8v52.5H24.2z"
			/>
	</g>
</g>
</svg>
