<?xml version="1.0" encoding="utf-8"?>
<!-- Generator: Adobe Illustrator 23.0.1, SVG Export Plug-In . SVG Version: 6.00 Build 0)  -->
<svg version="1.1" id="Capa_1" xmlns="http://www.w3.org/2000/svg" xmlns:xlink="http://www.w3.org/1999/xlink" x="0px" y="0px"
	 viewBox="0 0 200 200" style="enable-background:new 0 0 200 200;" xml:space="preserve">
<style type="text/css">
	.st0{fill:#BC955C;}
</style>
<g>
	<path class="st0" d="M174.3,92.7c-0.2-3.4-3.2-6-6.6-5.8c-3.4,0.2-6,3.2-5.8,6.6c0,0.1,0,0.2,0,0.3c3,35-22.9,65.9-58,69
		s-65.9-22.9-69-58c-3-35,22.9-65.9,58-69c8.5-0.7,17,0.2,25,2.8c3.3,0.9,6.7-1,7.7-4.4c0.9-3.1-0.8-6.4-3.8-7.5
		c-40-13-83,8.9-96,49c-9.6,29.6-0.3,62,23.6,82c13.7,11.5,31,17.8,48.8,17.8c2.2,0,4.5-0.1,6.8-0.3C147,171.6,178,134.6,174.3,92.7
		z"/>
	<path class="st0" d="M104.6,64.6c0-3.4-2.8-6.2-6.2-6.2c-3.4,0-6.2,2.8-6.2,6.2v28.5H63.7c-3.4,0-6.2,2.8-6.2,6.2
		c0,3.4,2.8,6.2,6.2,6.2h28.5V134c0,3.4,2.8,6.2,6.2,6.2s6.2-2.8,6.2-6.2v-28.5h28.5c3.4,0,6.2-2.8,6.2-6.2c0-3.4-2.8-6.2-6.2-6.2
		h-28.5V64.6z"/>
</g>
</svg>
