<?xml version="1.0" encoding="utf-8"?>
<!-- Generator: Adobe Illustrator 23.0.1, SVG Export Plug-In . SVG Version: 6.00 Build 0)  -->
<svg version="1.1" id="Capa_1" xmlns="http://www.w3.org/2000/svg" xmlns:xlink="http://www.w3.org/1999/xlink" x="0px" y="0px"
	 viewBox="0 0 200 200" style="enable-background:new 0 0 200 200;" xml:space="preserve">
<style type="text/css">
	.st0{fill:#B5C1C6;}
</style>
<g>
	<g>
		<g>
			<path class="st0" d="M145.8,51H54.5c-7.8,0-14.2,6.4-14.2,14.2v69.2c0,7.8,6.4,14.2,14.2,14.2h91.2c7.8,0,14.2-6.4,14.2-14.2
				V65.2C159.9,57.4,153.6,51,145.8,51z M46.7,66c0-4.4,3.3-8.6,7.7-8.6h91.4c4.3,0,7.7,3.5,7.7,7.7v28.8l-36.2,21.2
				c-3.4,2.1-7.8,1.7-10.8-0.9L88.7,98.4c-5.5-4.8-13.6-5.1-19.5-0.8L46.7,114L46.7,66z M153.9,133.6c0,4.4-3.3,8.7-7.7,8.7H54.7
				c-4.3,0-7.7-3.5-7.7-7.7v-12.7l26.2-19.2c3.5-2.6,8.4-2.3,11.6,0.6l17.9,15.6c5.1,4.4,12.3,5.1,18.1,1.7l33-19.5V133.6z"/>
		</g>
	</g>
	<g>
		<g>
			<path class="st0" d="M111.3,68.6c-7.7,0-14,6.3-14,14s6.3,14,14,14s14-6.3,14-14S119,68.6,111.3,68.6z M111.3,90.4
				c-4.2,0-7.7-3.5-7.7-7.7s3.4-7.7,7.7-7.7c4.2,0,7.7,3.5,7.7,7.7S115.6,90.4,111.3,90.4z"/>
		</g>
	</g>
</g>
</svg>
