<?xml version="1.0" encoding="utf-8"?>
<!-- Generator: Adobe Illustrator 23.0.1, SVG Export Plug-In . SVG Version: 6.00 Build 0)  -->
<svg version="1.1" id="Capa_1" xmlns="http://www.w3.org/2000/svg" xmlns:xlink="http://www.w3.org/1999/xlink" x="0px" y="0px"
	 viewBox="0 0 200 200" style="enable-background:new 0 0 200 200;" xml:space="preserve">
<style type="text/css">
	.st0{fill:#CAD9DD;}
</style>
<g>
	<path class="st0" d="M159.4,152.4l-31.7-31.7c17.3-21.2,14.1-52.5-7.2-69.7c-19.7-16-48.3-14.6-66.2,3.3
		C34.9,73.7,35,105,54.4,124.4c18,17.9,46.6,19.3,66.2,3.3l31.7,31.7c2.1,1.8,5.2,1.5,7-0.5C161,157,161,154.3,159.4,152.4z
		 M61.2,117.4c-15.5-15.5-15.5-40.6,0-56.1s40.6-15.5,56.1,0s15.5,40.6,0,56.1c0,0,0,0,0,0c-15.3,15.5-40.3,15.6-55.7,0.3
		C61.5,117.6,61.3,117.5,61.2,117.4z"/>
</g>
</svg>
