<?xml version="1.0" encoding="utf-8"?>
<!-- Generator: Adobe Illustrator 23.0.1, SVG Export Plug-In . SVG Version: 6.00 Build 0)  -->
<svg version="1.1" id="Capa_1" xmlns="http://www.w3.org/2000/svg" xmlns:xlink="http://www.w3.org/1999/xlink" x="0px" y="0px"
	 viewBox="0 0 200 200" style="enable-background:new 0 0 200 200;" xml:space="preserve">
<style type="text/css">
	.st0{fill:#B5C1C6;}
</style>
<g>
	<g>
		<g>
			<g>
				<rect x="83.6" y="118.4" class="st0" width="26.7" height="8.7"/>
				<rect x="83.6" y="100.9" class="st0" width="50.7" height="8.7"/>
				<path class="st0" d="M143,61.5h-4.4v-4.4c0-7.2-5.9-13.1-13.1-13.1H57.3c-7.2,0-13.1,5.9-13.1,13.1v68.2
					c0,7.2,5.9,13.1,13.1,13.1h4.4v4.4c0,7.2,5.9,13.1,13.1,13.1H125l31.1-31.2V74.6C156.1,67.4,150.2,61.5,143,61.5z M61.7,70.3
					v59.5h-4.4c-2.4,0-4.4-2-4.4-4.4V57.2c0-2.4,2-4.4,4.4-4.4H127c1.6,0,2.9,1.3,2.9,2.9v5.8H70.4C65.6,61.5,61.7,65.5,61.7,70.3z
					 M127.7,140.9v-9.2c0-2.4,2-4.4,4.4-4.4h9.2L127.7,140.9z M147.4,118.6h-15.3c-7.2,0-13.1,5.9-13.1,13.1v15.5H74.8
					c-2.4,0-4.4-2-4.4-4.4V74.6c0-2.4,2-4.4,4.4-4.4H143c2.4,0,4.4,2,4.4,4.4V118.6z"/>
				<rect x="83.6" y="83.4" class="st0" width="50.7" height="8.7"/>
			</g>
		</g>
	</g>
</g>
</svg>
