<svg width="200" height="200" viewBox="0 0 200 200" fill="none" xmlns="http://www.w3.org/2000/svg">
<rect width="200" height="200" fill="white"/>
<path d="M100.36 48C129.28 48 152.72 71.44 152.72 100.36C152.72 129.28 129.28 152.72 100.36 152.72C71.44 152.72 48 129.28 48 100.36C48 71.44 71.44 48 100.36 48Z" fill="url(#paint0_linear_145_288)"/>
<path d="M48.04 102.21H76.57C76.68 110.51 77.52 118.5 79.01 125.73H54.57C55.29 127.03 56.07 128.31 56.9 129.54H79.88C79.88 129.54 81.85 136.61 83.09 139.7C85.13 144.79 87.52 148.83 90.15 151.71C92.75 152.22 95.43 152.54 98.16 152.66C92.68 150.88 87.25 142.54 83.88 129.76H116.82C113.45 142.53 108.02 150.87 102.54 152.66C105.27 152.55 107.94 152.23 110.55 151.71C113.19 148.82 115.58 144.79 117.62 139.7C118.86 136.61 120.83 129.54 120.83 129.54H143.81C144.64 128.31 145.42 127.04 146.14 125.73H121.7C123.19 118.5 124.03 110.51 124.14 102.21H152.67C152.69 101.58 152.71 100.94 152.71 100.31C152.71 99.67 152.69 99.04 152.67 98.41H124.14C124.03 90.11 123.19 82.12 121.7 74.89H146.16C145.42 73.59 144.62 72.31 143.77 71.08H120.81C119.91 67.55 118.84 64.25 117.6 61.24C115.56 56.27 113.17 52.33 110.53 49.52C107.93 49.02 105.25 48.71 102.52 48.6C108 50.34 113.43 58.48 116.8 71.09H83.86C87.23 58.48 92.66 50.34 98.14 48.6C95.41 48.71 92.74 49.02 90.13 49.52C87.49 52.34 85.1 56.28 83.06 61.24C81.82 64.25 80.75 67.56 79.85 71.08H56.89C56.04 72.31 55.24 73.58 54.5 74.89H78.96C77.47 82.12 76.63 90.11 76.52 98.41H48.04C48.02 99.04 48 99.68 48 100.31C48 100.94 48.02 101.58 48.04 102.21ZM80.38 102.21H120.33C120.21 110.97 119.3 118.88 117.83 125.73H82.88C81.41 118.88 80.5 110.97 80.38 102.21ZM80.38 98.4C80.5 89.64 81.41 81.73 82.88 74.88H117.84C119.31 81.73 120.22 89.65 120.34 98.4H80.38Z" fill="#D0D6DD"/>
<path d="M125.37 131.59C134.91 123.94 140.38 112.56 140.38 100.35C140.38 88.14 134.91 76.76 125.37 69.11C124.56 68.46 124.43 67.29 125.08 66.48C125.73 65.67 126.9 65.54 127.71 66.19C138.14 74.55 144.12 87 144.12 100.34C144.12 113.68 138.14 126.13 127.71 134.49C127.36 134.77 126.95 134.9 126.54 134.9C125.99 134.9 125.45 134.66 125.08 134.2C124.43 133.39 124.56 132.22 125.37 131.57V131.59Z" fill="url(#paint1_linear_145_288)"/>
<path d="M45.5634 70.1212L16.6162 70.2283L16.579 60.1597" stroke="#EFEFEF" stroke-width="0.839054"/>
<path d="M44.4737 53.7369H75V84.2632H44.4737V53.7369Z" fill="#F2D1A5"/>
<path d="M64.6943 66.1591L59.745 63.0332L54.7956 66.1591V53.7369H64.6943V66.1591Z" fill="#E3A76F"/>
<path d="M153.437 100.384L182.384 100.491L182.421 90.4228" stroke="#EFEFEF" stroke-width="0.839054"/>
<path d="M154.526 84H124V114.526H154.526V84Z" fill="#F2D1A5"/>
<path d="M134.306 96.4222L139.255 93.2963L144.204 96.4222V84H134.306V96.4222Z" fill="#E3A76F"/>
<path d="M138.437 149.384L167.384 149.491L167.421 139.423" stroke="#EFEFEF" stroke-width="0.839054"/>
<path d="M139.526 133H109V163.526H139.526V133Z" fill="#F2D1A5"/>
<path d="M119.306 145.422L124.255 142.296L129.204 145.422V133H119.306V145.422Z" fill="#E3A76F"/>
<path d="M63.2121 69.6455L61.833 70.2821L63.2498 72.332C63.3251 72.4415 63.3798 72.5442 63.4106 72.6366C63.4791 72.8419 63.438 72.9959 63.3901 73.0883C63.3011 73.256 63.13 73.3553 62.9281 73.3553C62.798 73.3553 62.6509 73.3142 62.4798 73.2321L59.3313 71.7194L56.4052 73.2115C56.2307 73.3005 56.0835 73.3416 55.9466 73.3416C55.7481 73.3416 55.577 73.2458 55.4846 73.0815C55.4367 72.9925 55.3888 72.8454 55.4435 72.64C55.4709 72.5408 55.5188 72.4381 55.5873 72.3252L56.8535 70.2649L55.7789 69.6832C54.102 70.7167 53 72.4176 53 74.3477C53 77.4963 55.9226 80.0493 59.5263 80.0493C63.13 80.0493 66.0527 77.4963 66.0527 74.3477C66.0527 72.397 64.9267 70.6722 63.2156 69.6455H63.2121Z" fill="white" stroke="white" stroke-width="0.0958243" stroke-miterlimit="10"/>
<path d="M60.8337 68.4955L59.9644 67.2601C59.8412 67.0856 59.6803 67 59.5195 67C59.3587 67 59.2012 67.0821 59.078 67.2498L58.1574 68.4887L55.8953 68.7728C55.4812 68.8241 55.4401 69.0294 55.8097 69.2279L56.2067 69.4435L57.4353 70.1109L55.9398 72.5407C55.7892 72.7871 55.7995 72.9274 55.9466 72.9274C56.0116 72.9274 56.104 72.9 56.217 72.8419L59.3244 71.2573L62.6577 72.859C62.7741 72.9137 62.8631 72.9411 62.9247 72.9411C63.0684 72.9411 63.0753 72.8042 62.9076 72.5647L61.2135 70.1109L62.7604 69.399L63.2224 69.1868C63.6023 69.0123 63.5749 68.8275 63.1574 68.7796L60.8268 68.499L60.8337 68.4955Z" fill="white" stroke="white" stroke-width="0.0958243" stroke-miterlimit="10"/>
<path d="M6.63459 56V51.2105H8.3109C8.68494 51.2105 8.99511 51.2744 9.24143 51.4021C9.48774 51.5253 9.6702 51.6963 9.7888 51.9153C9.91196 52.1296 9.97353 52.3737 9.97353 52.6474C9.97353 52.9074 9.91424 53.1468 9.79564 53.3658C9.6816 53.5802 9.50143 53.7512 9.25511 53.8789C9.0088 54.0067 8.69406 54.0705 8.3109 54.0705H7.35985V56H6.63459ZM7.35985 53.4753H8.27669C8.6188 53.4753 8.86283 53.4023 9.0088 53.2563C9.15932 53.1058 9.23459 52.9028 9.23459 52.6474C9.23459 52.3828 9.15932 52.1775 9.0088 52.0316C8.86283 51.8811 8.6188 51.8058 8.27669 51.8058H7.35985V53.4753ZM12.8251 56.0821C12.3508 56.0821 11.9402 55.9795 11.5936 55.7742C11.2515 55.5644 10.9869 55.2747 10.7999 54.9053C10.6129 54.5312 10.5194 54.1002 10.5194 53.6121C10.5194 53.1195 10.6129 52.6884 10.7999 52.3189C10.9869 51.9449 11.2515 51.653 11.5936 51.4432C11.9402 51.2333 12.3508 51.1284 12.8251 51.1284C13.3862 51.1284 13.8446 51.2653 14.2004 51.5389C14.5562 51.8126 14.782 52.1958 14.8778 52.6884H14.0704C14.0065 52.4102 13.8697 52.1889 13.6599 52.0247C13.4501 51.8605 13.1695 51.7784 12.8183 51.7784C12.3394 51.7784 11.9608 51.9426 11.6825 52.2711C11.4043 52.5949 11.2651 53.0419 11.2651 53.6121C11.2651 54.1777 11.4043 54.6225 11.6825 54.9463C11.9608 55.2702 12.3394 55.4321 12.8183 55.4321C13.1695 55.4321 13.4501 55.3546 13.6599 55.1995C13.8697 55.0444 14.0065 54.8323 14.0704 54.5632H14.8778C14.782 55.0375 14.5562 55.4093 14.2004 55.6784C13.8446 55.9475 13.3862 56.0821 12.8251 56.0821ZM15.675 56V51.2105H16.4002V56H15.675ZM19.5887 56V52.0316L18.8155 52.2095V51.6758L19.876 51.2105H20.3413V56H19.5887ZM21.5744 56.0411C21.4375 56.0411 21.3235 55.9977 21.2323 55.9111C21.1456 55.8198 21.1023 55.7126 21.1023 55.5895C21.1023 55.4618 21.1456 55.3546 21.2323 55.2679C21.3235 55.1767 21.4375 55.1311 21.5744 55.1311C21.7112 55.1311 21.823 55.1767 21.9096 55.2679C21.9963 55.3546 22.0396 55.4618 22.0396 55.5895C22.0396 55.7126 21.9963 55.8198 21.9096 55.9111C21.823 55.9977 21.7112 56.0411 21.5744 56.0411ZM24.4672 56.0821C24.1297 56.0821 23.8377 56.0228 23.5914 55.9042C23.3451 55.7811 23.149 55.6146 23.003 55.4047C22.8616 55.1904 22.7749 54.9486 22.743 54.6795H23.4546C23.5002 54.9075 23.6142 55.0968 23.7967 55.2474C23.9791 55.3933 24.2049 55.4663 24.474 55.4663C24.6747 55.4663 24.8481 55.4184 24.994 55.3226C25.14 55.2223 25.254 55.09 25.3361 54.9258C25.4183 54.7616 25.4593 54.5768 25.4593 54.3716C25.4593 54.0477 25.3681 53.79 25.1856 53.5984C25.0032 53.4023 24.7728 53.3042 24.4946 53.3042C24.2574 53.3042 24.0544 53.3612 23.8856 53.4753C23.7168 53.5847 23.5937 53.7239 23.5161 53.8926H22.8251L23.2356 51.2105H25.8219V51.8468H23.783L23.5367 53.1263C23.6416 53.0077 23.7853 52.9096 23.9677 52.8321C24.1547 52.75 24.3646 52.7089 24.5972 52.7089C24.9211 52.7089 25.1993 52.7842 25.4319 52.9347C25.6646 53.0807 25.8425 53.2791 25.9656 53.53C26.0933 53.7809 26.1572 54.0591 26.1572 54.3647C26.1572 54.684 26.0888 54.9737 25.9519 55.2337C25.8151 55.4937 25.619 55.7012 25.3635 55.8563C25.1126 56.0068 24.8139 56.0821 24.4672 56.0821ZM28.7723 56.0821C28.4211 56.0821 28.1246 56.016 27.8829 55.8837C27.6411 55.7514 27.445 55.5758 27.2944 55.3568C27.1485 55.1379 27.0436 54.8916 26.9797 54.6179C26.9158 54.3442 26.8839 54.0637 26.8839 53.7763C26.8839 53.2472 26.9569 52.7842 27.1029 52.3874C27.2534 51.9905 27.4678 51.6826 27.746 51.4637C28.0243 51.2402 28.3618 51.1284 28.7586 51.1284C29.0734 51.1284 29.3425 51.19 29.566 51.3132C29.7895 51.4363 29.9629 51.6005 30.086 51.8058C30.2137 52.0111 30.2913 52.2346 30.3186 52.4763H29.6413C29.6002 52.2391 29.5021 52.0567 29.3471 51.9289C29.192 51.8012 28.9936 51.7374 28.7518 51.7374C28.4188 51.7374 28.1429 51.8947 27.9239 52.2095C27.7095 52.5196 27.5955 52.9986 27.5818 53.6463C27.6913 53.4456 27.86 53.2746 28.0881 53.1332C28.3207 52.9918 28.5876 52.9211 28.8886 52.9211C29.1578 52.9211 29.4086 52.9849 29.6413 53.1126C29.8785 53.2404 30.07 53.4205 30.216 53.6532C30.3665 53.8812 30.4418 54.1526 30.4418 54.4674C30.4418 54.7456 30.3734 55.0079 30.2365 55.2542C30.0997 55.5005 29.9058 55.7012 29.655 55.8563C29.4086 56.0068 29.1144 56.0821 28.7723 56.0821ZM28.7313 55.4526C28.9229 55.4526 29.0939 55.4116 29.2444 55.3295C29.395 55.2474 29.5136 55.1356 29.6002 54.9942C29.6869 54.8482 29.7302 54.684 29.7302 54.5016C29.7302 54.2096 29.6344 53.977 29.4429 53.8037C29.2558 53.6304 29.0164 53.5437 28.7244 53.5437C28.5329 53.5437 28.3595 53.587 28.2044 53.6737C28.0539 53.7604 27.9353 53.8767 27.8486 54.0226C27.762 54.164 27.7186 54.3214 27.7186 54.4947C27.7186 54.6818 27.762 54.8482 27.8486 54.9942C27.9399 55.1356 28.0607 55.2474 28.2113 55.3295C28.3664 55.4116 28.5397 55.4526 28.7313 55.4526Z" fill="#5F5D5D"/>
<path d="M49.5634 116.121L20.6162 116.228L20.579 106.16" stroke="#EFEFEF" stroke-width="0.839054"/>
<path d="M38.4737 99.7369H69V130.263H38.4737V99.7369Z" fill="#F2D1A5"/>
<path d="M58.6943 112.159L53.745 109.033L48.7956 112.159V99.7369H58.6943V112.159Z" fill="#E3A76F"/>
<path d="M9.75712 103V98.2105H11.4334C11.8075 98.2105 12.1176 98.2744 12.364 98.4021C12.6103 98.5253 12.7927 98.6963 12.9113 98.9153C13.0345 99.1296 13.0961 99.3737 13.0961 99.6474C13.0961 99.9074 13.0368 100.147 12.9182 100.366C12.8041 100.58 12.624 100.751 12.3776 100.879C12.1313 101.007 11.8166 101.071 11.4334 101.071H10.4824V103H9.75712ZM10.4824 100.475H11.3992C11.7413 100.475 11.9854 100.402 12.1313 100.256C12.2819 100.106 12.3571 99.9028 12.3571 99.6474C12.3571 99.3828 12.2819 99.1775 12.1313 99.0316C11.9854 98.8811 11.7413 98.8058 11.3992 98.8058H10.4824V100.475ZM15.9477 103.082C15.4733 103.082 15.0628 102.979 14.7161 102.774C14.374 102.564 14.1094 102.275 13.9224 101.905C13.7354 101.531 13.6419 101.1 13.6419 100.612C13.6419 100.119 13.7354 99.6884 13.9224 99.3189C14.1094 98.9449 14.374 98.653 14.7161 98.4432C15.0628 98.2333 15.4733 98.1284 15.9477 98.1284C16.5087 98.1284 16.9671 98.2653 17.3229 98.5389C17.6787 98.8126 17.9045 99.1958 18.0003 99.6884H17.1929C17.1291 99.4102 16.9922 99.1889 16.7824 99.0247C16.5726 98.8605 16.2921 98.7784 15.9408 98.7784C15.4619 98.7784 15.0833 98.9426 14.805 99.2711C14.5268 99.5949 14.3877 100.042 14.3877 100.612C14.3877 101.178 14.5268 101.622 14.805 101.946C15.0833 102.27 15.4619 102.432 15.9408 102.432C16.2921 102.432 16.5726 102.355 16.7824 102.199C16.9922 102.044 17.1291 101.832 17.1929 101.563H18.0003C17.9045 102.038 17.6787 102.409 17.3229 102.678C16.9671 102.948 16.5087 103.082 15.9477 103.082ZM18.7975 103V98.2105H19.5228V103H18.7975ZM22.7112 103V99.0316L21.938 99.2095V98.6758L22.9986 98.2105H23.4638V103H22.7112ZM24.6969 103.041C24.5601 103.041 24.446 102.998 24.3548 102.911C24.2681 102.82 24.2248 102.713 24.2248 102.589C24.2248 102.462 24.2681 102.355 24.3548 102.268C24.446 102.177 24.5601 102.131 24.6969 102.131C24.8338 102.131 24.9455 102.177 25.0322 102.268C25.1188 102.355 25.1622 102.462 25.1622 102.589C25.1622 102.713 25.1188 102.82 25.0322 102.911C24.9455 102.998 24.8338 103.041 24.6969 103.041ZM26.2258 103V99.0316L25.4526 99.2095V98.6758L26.5132 98.2105H26.9784V103H26.2258ZM30.1341 103V102.042H27.7326V101.467L30.0178 98.2105H30.8526V101.413H31.5231V102.042H30.8526V103H30.1341ZM28.5194 101.413H30.1752V99.0111L28.5194 101.413Z" fill="#5F5D5D"/>
<path d="M168.922 84V79.2105H170.598C170.972 79.2105 171.282 79.2744 171.529 79.4021C171.775 79.5253 171.958 79.6963 172.076 79.9153C172.199 80.1296 172.261 80.3737 172.261 80.6474C172.261 80.9074 172.202 81.1468 172.083 81.3658C171.969 81.5802 171.789 81.7512 171.542 81.8789C171.296 82.0067 170.981 82.0705 170.598 82.0705H169.647V84H168.922ZM169.647 81.4753H170.564C170.906 81.4753 171.15 81.4023 171.296 81.2563C171.447 81.1058 171.522 80.9028 171.522 80.6474C171.522 80.3828 171.447 80.1775 171.296 80.0316C171.15 79.8811 170.906 79.8058 170.564 79.8058H169.647V81.4753ZM175.112 84.0821C174.638 84.0821 174.228 83.9795 173.881 83.7742C173.539 83.5644 173.274 83.2747 173.087 82.9053C172.9 82.5312 172.807 82.1002 172.807 81.6121C172.807 81.1195 172.9 80.6884 173.087 80.3189C173.274 79.9449 173.539 79.653 173.881 79.4432C174.228 79.2333 174.638 79.1284 175.112 79.1284C175.674 79.1284 176.132 79.2653 176.488 79.5389C176.844 79.8126 177.069 80.1958 177.165 80.6884H176.358C176.294 80.4102 176.157 80.1889 175.947 80.0247C175.737 79.8605 175.457 79.7784 175.106 79.7784C174.627 79.7784 174.248 79.9426 173.97 80.2711C173.692 80.5949 173.552 81.0419 173.552 81.6121C173.552 82.1777 173.692 82.6225 173.97 82.9463C174.248 83.2702 174.627 83.4321 175.106 83.4321C175.457 83.4321 175.737 83.3546 175.947 83.1995C176.157 83.0444 176.294 82.8323 176.358 82.5632H177.165C177.069 83.0375 176.844 83.4093 176.488 83.6784C176.132 83.9475 175.674 84.0821 175.112 84.0821ZM177.962 84V79.2105H178.688V84H177.962ZM181.876 84V80.0316L181.103 80.2095V79.6758L182.163 79.2105H182.629V84H181.876ZM183.862 84.0411C183.725 84.0411 183.611 83.9977 183.52 83.9111C183.433 83.8198 183.39 83.7126 183.39 83.5895C183.39 83.4618 183.433 83.3546 183.52 83.2679C183.611 83.1767 183.725 83.1311 183.862 83.1311C183.999 83.1311 184.11 83.1767 184.197 83.2679C184.284 83.3546 184.327 83.4618 184.327 83.5895C184.327 83.7126 184.284 83.8198 184.197 83.9111C184.11 83.9977 183.999 84.0411 183.862 84.0411ZM184.989 84V83.48C185.299 83.2337 185.596 82.9851 185.879 82.7342C186.162 82.4833 186.412 82.237 186.631 81.9953C186.855 81.7489 187.03 81.5095 187.158 81.2768C187.286 81.0396 187.35 80.8116 187.35 80.5926C187.35 80.4467 187.325 80.3098 187.275 80.1821C187.224 80.0498 187.142 79.9449 187.028 79.8674C186.914 79.7853 186.761 79.7442 186.57 79.7442C186.282 79.7442 186.066 79.8354 185.92 80.0179C185.778 80.2004 185.71 80.4193 185.715 80.6747H185.01C185.014 80.3372 185.085 80.0544 185.222 79.8263C185.363 79.5982 185.55 79.4249 185.783 79.3063C186.02 79.1877 186.287 79.1284 186.583 79.1284C187.035 79.1284 187.395 79.2561 187.665 79.5116C187.938 79.7625 188.075 80.1137 188.075 80.5653C188.075 80.8344 188.009 81.1012 187.877 81.3658C187.749 81.6304 187.58 81.8858 187.37 82.1321C187.165 82.3739 186.944 82.6019 186.707 82.8163C186.469 83.0307 186.244 83.2246 186.029 83.3979H188.219V84H184.989ZM190.533 84.0821C190.223 84.0821 189.94 84.0274 189.685 83.9179C189.434 83.8039 189.233 83.6328 189.083 83.4047C188.932 83.1767 188.852 82.8916 188.843 82.5495H189.562C189.571 82.8049 189.657 83.0216 189.822 83.1995C189.99 83.3728 190.228 83.4595 190.533 83.4595C190.825 83.4595 191.049 83.3796 191.204 83.22C191.359 83.0558 191.436 82.8528 191.436 82.6111C191.436 82.3191 191.331 82.1025 191.122 81.9611C190.916 81.8196 190.663 81.7489 190.362 81.7489H190.006V81.1468H190.369C190.638 81.1468 190.855 81.083 191.019 80.9553C191.188 80.8275 191.272 80.6474 191.272 80.4147C191.272 80.2186 191.206 80.0589 191.074 79.9358C190.946 79.8126 190.764 79.7511 190.526 79.7511C190.28 79.7511 190.086 79.824 189.945 79.97C189.803 80.1114 189.726 80.2893 189.712 80.5037H188.994C189.003 80.2254 189.071 79.9837 189.199 79.7784C189.331 79.5732 189.511 79.4135 189.739 79.2995C189.968 79.1854 190.23 79.1284 190.526 79.1284C190.846 79.1284 191.112 79.1854 191.327 79.2995C191.546 79.4089 191.71 79.5595 191.819 79.7511C191.934 79.9381 191.991 80.1433 191.991 80.3668C191.991 80.6223 191.92 80.8458 191.778 81.0374C191.637 81.2289 191.448 81.3567 191.211 81.4205C191.484 81.4798 191.71 81.6144 191.888 81.8242C192.066 82.0295 192.155 82.2963 192.155 82.6247C192.155 82.8893 192.093 83.1333 191.97 83.3568C191.847 83.5758 191.664 83.7514 191.423 83.8837C191.181 84.016 190.884 84.0821 190.533 84.0821Z" fill="#5F5D5D"/>
<path d="M146.781 135V130.211H148.457C148.831 130.211 149.141 130.274 149.387 130.402C149.634 130.525 149.816 130.696 149.935 130.915C150.058 131.13 150.119 131.374 150.119 131.647C150.119 131.907 150.06 132.147 149.942 132.366C149.828 132.58 149.647 132.751 149.401 132.879C149.155 133.007 148.84 133.071 148.457 133.071H147.506V135H146.781ZM147.506 132.475H148.423C148.765 132.475 149.009 132.402 149.155 132.256C149.305 132.106 149.381 131.903 149.381 131.647C149.381 131.383 149.305 131.178 149.155 131.032C149.009 130.881 148.765 130.806 148.423 130.806H147.506V132.475ZM152.971 135.082C152.497 135.082 152.086 134.979 151.739 134.774C151.397 134.564 151.133 134.275 150.946 133.905C150.759 133.531 150.665 133.1 150.665 132.612C150.665 132.119 150.759 131.688 150.946 131.319C151.133 130.945 151.397 130.653 151.739 130.443C152.086 130.233 152.497 130.128 152.971 130.128C153.532 130.128 153.991 130.265 154.346 130.539C154.702 130.813 154.928 131.196 155.024 131.688H154.216C154.152 131.41 154.016 131.189 153.806 131.025C153.596 130.861 153.315 130.778 152.964 130.778C152.485 130.778 152.107 130.943 151.828 131.271C151.55 131.595 151.411 132.042 151.411 132.612C151.411 133.178 151.55 133.622 151.828 133.946C152.107 134.27 152.485 134.432 152.964 134.432C153.315 134.432 153.596 134.355 153.806 134.199C154.016 134.044 154.152 133.832 154.216 133.563H155.024C154.928 134.038 154.702 134.409 154.346 134.678C153.991 134.948 153.532 135.082 152.971 135.082ZM155.821 135V130.211H156.546V135H155.821ZM159.735 135V131.032L158.961 131.209V130.676L160.022 130.211H160.487V135H159.735ZM161.72 135.041C161.583 135.041 161.469 134.998 161.378 134.911C161.292 134.82 161.248 134.713 161.248 134.589C161.248 134.462 161.292 134.355 161.378 134.268C161.469 134.177 161.583 134.131 161.72 134.131C161.857 134.131 161.969 134.177 162.056 134.268C162.142 134.355 162.186 134.462 162.186 134.589C162.186 134.713 162.142 134.82 162.056 134.911C161.969 134.998 161.857 135.041 161.72 135.041ZM163.249 135V131.032L162.476 131.209V130.676L163.537 130.211H164.002V135H163.249ZM166.644 135.082C166.307 135.082 166.015 135.023 165.769 134.904C165.522 134.781 165.326 134.615 165.18 134.405C165.039 134.19 164.952 133.949 164.92 133.679H165.632C165.677 133.908 165.791 134.097 165.974 134.247C166.156 134.393 166.382 134.466 166.651 134.466C166.852 134.466 167.025 134.418 167.171 134.323C167.317 134.222 167.431 134.09 167.513 133.926C167.595 133.762 167.636 133.577 167.636 133.372C167.636 133.048 167.545 132.79 167.363 132.598C167.18 132.402 166.95 132.304 166.672 132.304C166.435 132.304 166.232 132.361 166.063 132.475C165.894 132.585 165.771 132.724 165.693 132.893H165.002L165.413 130.211H167.999V130.847H165.96L165.714 132.126C165.819 132.008 165.962 131.91 166.145 131.832C166.332 131.75 166.542 131.709 166.774 131.709C167.098 131.709 167.376 131.784 167.609 131.935C167.842 132.081 168.02 132.279 168.143 132.53C168.271 132.781 168.334 133.059 168.334 133.365C168.334 133.684 168.266 133.974 168.129 134.234C167.992 134.494 167.796 134.701 167.541 134.856C167.29 135.007 166.991 135.082 166.644 135.082Z" fill="#5F5D5D"/>
<path d="M144.917 107.098C145.327 105.864 144.123 103.903 143.35 102.823L141.668 104.505L144.389 107.226C144.514 107.351 144.715 107.351 144.84 107.226C144.876 107.191 144.901 107.149 144.917 107.101V107.098Z" fill="white" stroke="white" stroke-width="0.0769037" stroke-miterlimit="10"/>
<path d="M135.904 98.0839C135.737 98.1384 135.644 98.321 135.702 98.4909C135.718 98.5389 135.743 98.5806 135.779 98.6158L138.499 101.333L140.181 99.6508C139.101 98.8786 137.14 97.6706 135.907 98.0839H135.904Z" fill="white" stroke="white" stroke-width="0.0769037" stroke-miterlimit="10"/>
<path d="M140.988 99.7455L138.723 102.011C138.597 102.136 138.597 102.339 138.723 102.464L140.535 104.277C140.66 104.402 140.863 104.402 140.988 104.277L143.254 102.011C143.379 101.886 143.379 101.683 143.254 101.558L141.442 99.7455C141.316 99.6203 141.114 99.6203 140.988 99.7455Z" fill="white" stroke="white" stroke-width="0.0769037" stroke-miterlimit="10"/>
<path d="M133.286 108.357C132.907 108.732 132.904 109.341 133.279 109.716C133.654 110.091 134.263 110.097 134.638 109.722L134.644 109.716L139.854 104.505L138.496 103.147L133.286 108.357Z" fill="white" stroke="white" stroke-width="0.0769037" stroke-miterlimit="10"/>
<g clip-path="url(#clip0_145_288)">
<path d="M119.396 156.077C119.246 156.349 119.124 156.757 119.124 157.01C119.124 157.071 119.124 157.146 119.138 157.25L117.257 154.014C117.197 153.91 117.154 153.756 117.154 153.624C117.154 153.492 117.2 153.324 117.257 153.216L118.162 151.636L117.154 150.999H120.437L122.031 153.878L121.009 153.291L119.396 156.077ZM121.23 158.684C120.372 158.684 119.664 157.976 119.664 157.118C119.664 156.878 119.771 156.47 119.922 156.213L120.404 155.355H123.777V158.684H121.23ZM123.887 146.858C123.662 146.468 123.362 146.197 123.001 146.043H126.705C127.038 146.043 127.292 146.179 127.445 146.436L128.364 148.003L129.359 147.416L127.76 150.28H124.492L125.5 149.662L123.887 146.858ZM120.715 147.116C121.145 146.372 122.11 146.114 122.854 146.544C123.061 146.665 123.362 146.958 123.508 147.219L124.013 148.067L122.325 150.989L119.442 149.319L120.715 147.112V147.116ZM129.598 155.387C130.049 155.387 130.428 155.265 130.743 155.026L128.876 158.28C128.726 158.537 128.454 158.688 128.139 158.688H126.376V159.846L124.688 157.028L126.376 154.21V155.387H129.602H129.598ZM131.018 152.501C131.447 153.245 131.19 154.21 130.446 154.64C130.238 154.761 129.831 154.872 129.534 154.868H128.55L126.863 151.958L129.745 150.295L131.018 152.498V152.501Z" fill="white" stroke="white" stroke-width="0.0858238" stroke-miterlimit="10"/>
</g>
<path d="M60.6369 116.228L59.3166 119.14L57.8418 118.505V125.244H50.1553L50.1485 118.499L48.6603 119.137L47.3366 116.228L50.6256 114.356L52.2986 114.35C52.4061 115.028 53.031 115.714 53.9817 115.714C54.9325 115.714 55.5574 115.032 55.6649 114.353H57.3379L60.6336 116.231L60.6369 116.228Z" fill="white" stroke="white" stroke-width="0.0974257" stroke-miterlimit="10"/>
<path d="M60.3379 116.053C60.1901 116.379 60.0423 116.705 59.8945 117.034L59.1823 118.606C59.1285 118.727 59.0748 118.848 59.0176 118.969C59.1755 118.929 59.3368 118.885 59.4947 118.845C59.0647 118.66 58.6347 118.475 58.2013 118.29C58.1408 118.263 58.0803 118.237 58.0165 118.213C57.8989 118.163 57.7813 118.142 57.6638 118.213C57.5562 118.277 57.4924 118.391 57.4924 118.515V124.425C57.4924 124.697 57.479 124.972 57.4924 125.244V125.258L57.8418 124.909H51.106C50.7936 124.909 50.4811 124.895 50.1721 124.909H50.1586L50.508 125.258V124.589C50.508 124.052 50.508 123.514 50.508 122.973C50.508 122.325 50.508 121.677 50.508 121.028C50.508 120.464 50.508 119.903 50.508 119.338C50.508 119.066 50.5147 118.794 50.508 118.522V118.509C50.508 118.384 50.4408 118.27 50.3367 118.206C50.2191 118.136 50.1015 118.156 49.9839 118.206C49.5505 118.391 49.1172 118.579 48.6838 118.764C48.62 118.791 48.5595 118.818 48.4957 118.845C48.6536 118.885 48.8148 118.929 48.9727 118.969L48.5259 117.988C48.2874 117.464 48.0488 116.94 47.8103 116.416C47.7566 116.295 47.6995 116.174 47.6457 116.053C47.6054 116.211 47.5617 116.372 47.5214 116.53C47.8909 116.322 48.2605 116.11 48.63 115.898L50.4072 114.887C50.5416 114.81 50.6793 114.733 50.8137 114.655C50.7532 114.672 50.6961 114.686 50.639 114.702C51.1262 114.702 51.6166 114.702 52.1038 114.699H52.3154C52.2046 114.615 52.0903 114.528 51.9795 114.444C52.0971 115.156 52.6614 115.74 53.3333 115.962C54.0758 116.207 54.9493 116.013 55.4935 115.452C55.7556 115.179 55.9571 114.823 56.0176 114.447C55.9067 114.531 55.7925 114.618 55.6816 114.702H57.3547C57.2942 114.686 57.2371 114.672 57.18 114.655C57.5495 114.867 57.9191 115.079 58.292 115.287C58.8866 115.623 59.4779 115.962 60.0725 116.298C60.2103 116.375 60.3446 116.453 60.479 116.53C60.6369 116.621 60.8687 116.57 60.9561 116.406C61.0434 116.241 60.9997 116.026 60.8318 115.929C60.1767 115.556 59.5216 115.183 58.8665 114.81C58.4936 114.598 58.1173 114.383 57.7444 114.172C57.6738 114.135 57.6066 114.091 57.5361 114.054C57.3916 113.98 57.2001 114.004 57.0422 114.004H55.685C55.5439 114.004 55.3726 114.111 55.3491 114.259C55.339 114.319 55.3255 114.38 55.3087 114.44C55.2987 114.474 55.2886 114.507 55.2751 114.541C55.2718 114.551 55.2584 114.571 55.2584 114.581C55.2785 114.534 55.2819 114.521 55.2718 114.548C55.2684 114.558 55.2617 114.568 55.2584 114.578C55.2315 114.639 55.2012 114.692 55.1643 114.749C55.1475 114.773 55.134 114.8 55.1139 114.823C55.1038 114.84 55.0904 114.854 55.0803 114.87C55.0635 114.897 55.1341 114.81 55.0803 114.87C55.0333 114.921 54.9896 114.971 54.9392 115.018C54.9157 115.042 54.8888 115.065 54.8619 115.085C54.8149 115.126 54.8754 115.079 54.8787 115.072C54.8686 115.089 54.8384 115.102 54.8216 115.112C54.7645 115.153 54.704 115.189 54.6368 115.223C54.62 115.233 54.4991 115.297 54.5865 115.25C54.5529 115.27 54.5092 115.28 54.4689 115.294C54.395 115.317 54.321 115.337 54.2471 115.351C54.2303 115.354 54.2135 115.357 54.1934 115.361C54.1094 115.378 54.2505 115.357 54.1934 115.361C54.143 115.364 54.0926 115.371 54.0422 115.371C53.9649 115.371 53.8843 115.371 53.807 115.364C53.7835 115.364 53.7231 115.364 53.807 115.364C53.7902 115.364 53.7701 115.357 53.7533 115.354C53.713 115.347 53.6693 115.337 53.6256 115.327C53.5685 115.314 53.4577 115.297 53.4106 115.257C53.461 115.297 53.4476 115.273 53.4173 115.257C53.3972 115.247 53.3804 115.24 53.3636 115.23C53.33 115.213 53.293 115.193 53.2594 115.173C53.2292 115.156 53.199 115.136 53.1687 115.116C53.1519 115.105 53.1385 115.092 53.1217 115.082C53.0814 115.055 53.1217 115.095 53.1385 115.095C53.1217 115.095 53.0713 115.038 53.0612 115.028C53.031 115.001 53.0008 114.971 52.9705 114.941C52.9437 114.914 52.9201 114.884 52.8966 114.857C52.8563 114.806 52.9134 114.874 52.91 114.874C52.91 114.87 52.8765 114.827 52.8731 114.82C52.8294 114.756 52.7891 114.692 52.7555 114.625C52.7454 114.608 52.7387 114.595 52.732 114.575C52.7286 114.568 52.7253 114.561 52.7219 114.555C52.7051 114.521 52.7085 114.528 52.732 114.578C52.732 114.548 52.7051 114.507 52.695 114.477C52.6715 114.407 52.6547 114.329 52.6413 114.256C52.6178 114.108 52.4464 114 52.3053 114C51.9123 114 51.5226 114 51.1295 114.004C50.9683 114.004 50.8036 114 50.639 114.004C50.5181 114.007 50.4307 114.064 50.3299 114.121C49.5405 114.571 48.7476 115.021 47.9548 115.472L47.1653 115.922C46.9906 116.023 46.9637 116.228 47.041 116.399L47.4878 117.38C47.7263 117.904 47.9649 118.428 48.2034 118.952C48.2571 119.073 48.3142 119.194 48.368 119.315C48.4016 119.385 48.5024 119.459 48.5763 119.476C48.6737 119.5 48.7543 119.48 48.845 119.443C49.2784 119.258 49.7118 119.07 50.1452 118.885C50.209 118.858 50.2695 118.831 50.3333 118.804C50.1586 118.704 49.9839 118.603 49.8092 118.502V119.17C49.8092 119.708 49.8092 120.246 49.8092 120.786C49.8092 121.435 49.8092 122.083 49.8092 122.732C49.8092 123.296 49.8092 123.857 49.8092 124.421C49.8092 124.694 49.8025 124.966 49.8092 125.238V125.251C49.8092 125.439 49.9705 125.601 50.1586 125.601H56.8944C57.2069 125.601 57.5193 125.611 57.8284 125.601H57.8418C58.0299 125.601 58.1912 125.439 58.1912 125.251V119.338C58.1912 119.066 58.2046 118.791 58.1912 118.519V118.505C58.0165 118.606 57.8418 118.707 57.6671 118.808C58.0971 118.992 58.5271 119.177 58.9605 119.362C59.021 119.389 59.0815 119.416 59.1453 119.439C59.3032 119.506 59.5384 119.503 59.6223 119.315C59.7702 118.989 59.918 118.663 60.0658 118.334L60.778 116.762C60.8318 116.641 60.8855 116.52 60.9426 116.399C61.0165 116.234 60.9964 116.016 60.8183 115.922C60.6638 115.845 60.4186 115.871 60.3379 116.049V116.053Z" fill="white" stroke="white" stroke-width="0.0974257" stroke-miterlimit="10"/>
<path d="M108.144 33.1304C107.794 33.5165 107.615 34.0007 107.634 34.5243C107.652 35.0479 107.867 35.5284 108.253 35.879L119.775 46.5181C120.356 47.0537 121.198 47.1761 121.9 46.86C122.606 46.5219 123.063 45.806 123.031 45.0062L122.848 40.2772C131.807 40.7007 139.565 46.4073 142.534 54.9571L144.022 59.2259C144.309 60.0493 145.082 60.5638 145.914 60.5335C146.006 60.5291 146.107 60.522 146.207 60.5053C147.154 60.3294 147.817 59.495 147.779 58.5206L147.537 52.4392C146.995 38.7688 135.84 27.9567 122.348 27.6732L122.156 22.874C122.127 22.0838 121.61 21.4061 120.878 21.1188C120.155 20.8604 119.324 21.0459 118.789 21.6277L108.144 33.1304Z" fill="#0D2633"/>
<path d="M48.092 160.309C47.852 161.069 48.092 161.879 48.692 162.379C49.302 162.869 50.142 162.979 50.842 162.609L55.102 160.389C62.042 171.959 76.972 176.279 89.112 169.959L94.512 167.149C95.372 166.699 95.772 165.709 95.452 164.799C95.422 164.709 95.382 164.619 95.332 164.529C94.952 163.789 94.112 163.369 93.262 163.529L88.822 164.359C79.922 166.019 71.112 162.129 66.302 154.559L70.502 152.379C71.212 152.009 71.602 151.259 71.542 150.479C71.472 149.709 70.942 149.039 70.192 148.799L55.232 144.089C54.732 143.929 54.202 143.989 53.752 144.229C53.302 144.469 52.952 144.869 52.792 145.359L48.092 160.309Z" fill="#0D2633"/>
<g clip-path="url(#clip1_145_288)">
<path d="M81 93.3215V108.958C81 110.239 82.0407 111.28 83.3215 111.28H91.3533V91H83.3215C82.0407 91 81 92.0407 81 93.3215Z" fill="#73AF00"/>
<path d="M101.707 91H91.3533V111.28H101.707V91Z" fill="#F5F5F5"/>
<path d="M109.679 91H101.647V111.28H109.679C110.959 111.28 112 110.239 112 108.958V93.3215C112 92.0407 110.959 91 109.679 91Z" fill="#FF4B55"/>
<path d="M97.4239 101.64L96.4967 102.1V102.561H96.957L97.4239 101.64Z" fill="#FFD250"/>
<path d="M96.2565 103.488V102.521C96.2565 102.421 96.3165 102.321 96.4166 102.294C96.5834 102.241 96.7368 102.361 96.7368 102.521V103.488C96.7368 103.648 96.5834 103.775 96.4166 103.715C96.3165 103.681 96.2565 103.588 96.2565 103.488Z" fill="#00C3A0"/>
<path d="M96.51 102.774C95.6028 102.774 94.7289 102.427 94.0484 101.794C93.955 101.707 93.9484 101.56 94.0351 101.467C94.1218 101.373 94.2686 101.367 94.362 101.453C94.9557 102.007 95.7228 102.314 96.51 102.314C97.2972 102.314 98.0643 102.007 98.6581 101.453C98.7515 101.367 98.8982 101.373 98.9849 101.467C99.0717 101.56 99.065 101.707 98.9716 101.794C98.2912 102.427 97.4173 102.774 96.51 102.774Z" fill="#00C3A0"/>
<path d="M96.51 103.695C95.9163 103.695 95.3493 103.521 94.8556 103.195L95.1091 102.808C95.943 103.361 97.077 103.361 97.9109 102.808L98.1644 103.195C97.6708 103.521 97.0971 103.695 96.51 103.695Z" fill="#00AADC"/>
<path d="M96.1431 100.586L95.6361 101.373L95.5494 101.634L96.8769 101.327L96.1431 100.586Z" fill="#732D37"/>
<path d="M95.1024 101.9C94.4954 101.9 93.7616 101.387 93.5681 100.246L94.0217 100.166C94.1818 101.113 94.7689 101.44 95.1158 101.44C95.2225 101.44 95.3359 101.4 95.3426 101.327C95.3559 101.233 95.3559 101.213 95.1158 101.133C94.9824 101.087 94.8356 101.04 94.7289 100.92C94.3086 100.439 94.8756 99.9258 95.1491 99.6856C95.1958 99.6456 95.2158 99.6055 95.2092 99.5922C95.1958 99.5522 95.1024 99.4921 95.0024 99.4921C94.7088 99.4921 94.4887 99.3254 94.422 99.0585C94.3553 98.785 94.482 98.4915 94.7222 98.3647L94.9357 98.7717C94.8823 98.7984 94.8556 98.8851 94.8689 98.9451C94.8689 98.9718 94.889 99.0252 95.0024 99.0252C95.2825 99.0252 95.5561 99.1919 95.6428 99.4188C95.6828 99.5188 95.7362 99.7723 95.456 100.019C95.1558 100.293 94.969 100.493 95.0757 100.606C95.0958 100.633 95.1958 100.666 95.2625 100.686C95.4693 100.76 95.8563 100.886 95.8029 101.367C95.7695 101.674 95.496 101.88 95.1291 101.894H95.1024V101.9Z" fill="#AAD264"/>
<path d="M96.9836 99.3187C96.9836 99.3187 97.4439 98.3981 96.5233 97.9378C96.5233 97.9378 99.7521 97.4775 99.2918 101.627C98.9916 101.387 98.538 100.94 98.3779 100.593L96.9836 99.7857V99.3254V99.3187Z" fill="#874150"/>
<path d="M96.4967 100.239L98.7981 101.62L97.8776 102.08L96.4967 100.7V100.239Z" fill="#732D37"/>
<path d="M95.5894 98.8451C95.8429 98.8451 96.043 99.0519 96.043 99.3054C95.7829 99.6056 95.7228 100.032 95.9029 100.393L95.983 100.56C96.023 100.646 96.0831 100.726 96.1498 100.793L97.4106 102.074V101.44C97.4106 100.646 97.2305 99.8657 96.8769 99.1519C96.6434 98.685 96.1765 98.3848 95.6561 98.3848H95.5894V98.8451Z" fill="#783C46"/>
<path d="M95.5694 98.3981L95.1091 98.8584V99.3187C95.1091 99.3187 95.6561 99.0385 95.8429 98.9518C95.9697 98.8918 95.9496 98.745 95.8763 98.6716C95.8162 98.6183 95.5694 98.3981 95.5694 98.3981Z" fill="#FFD250"/>
<path d="M96.51 104.602C94.3486 104.602 92.5941 102.848 92.5941 100.686H93.0544C93.0544 102.594 94.6021 104.142 96.51 104.142C98.4179 104.142 99.9656 102.594 99.9656 100.686H100.426C100.426 102.848 98.6714 104.602 96.51 104.602Z" fill="#AAD264"/>
<path d="M93.0811 102.381C93.2543 102.381 93.3947 102.24 93.3947 102.067C93.3947 101.894 93.2543 101.754 93.0811 101.754C92.908 101.754 92.7676 101.894 92.7676 102.067C92.7676 102.24 92.908 102.381 93.0811 102.381Z" fill="#FFE15A"/>
<path d="M93.7682 103.488C93.9414 103.488 94.0818 103.348 94.0818 103.174C94.0818 103.001 93.9414 102.861 93.7682 102.861C93.5951 102.861 93.4547 103.001 93.4547 103.174C93.4547 103.348 93.5951 103.488 93.7682 103.488Z" fill="#FFE15A"/>
<path d="M94.8956 104.322C95.0688 104.322 95.2092 104.182 95.2092 104.008C95.2092 103.835 95.0688 103.695 94.8956 103.695C94.7225 103.695 94.5821 103.835 94.5821 104.008C94.5821 104.182 94.7225 104.322 94.8956 104.322Z" fill="#FFE15A"/>
<path d="M99.9722 102.381C100.145 102.381 100.286 102.24 100.286 102.067C100.286 101.894 100.145 101.754 99.9722 101.754C99.7991 101.754 99.6587 101.894 99.6587 102.067C99.6587 102.24 99.7991 102.381 99.9722 102.381Z" fill="#FFE15A"/>
<path d="M99.2851 103.488C99.4583 103.488 99.5987 103.348 99.5987 103.174C99.5987 103.001 99.4583 102.861 99.2851 102.861C99.112 102.861 98.9716 103.001 98.9716 103.174C98.9716 103.348 99.112 103.488 99.2851 103.488Z" fill="#FFE15A"/>
<path d="M98.1577 104.322C98.3309 104.322 98.4713 104.182 98.4713 104.008C98.4713 103.835 98.3309 103.695 98.1577 103.695C97.9846 103.695 97.8442 103.835 97.8442 104.008C97.8442 104.182 97.9846 104.322 98.1577 104.322Z" fill="#FFE15A"/>
<path d="M96.7368 103.895H96.2832C96.0297 103.895 95.8296 103.695 95.8296 103.441C95.8296 103.188 96.0297 102.988 96.2832 102.988H96.7368C96.9903 102.988 97.1904 103.188 97.1904 103.441C97.1904 103.695 96.9903 103.895 96.7368 103.895Z" fill="#FFB478"/>
<path d="M98.3645 100.586C98.518 101.04 98.8448 101.453 99.2785 101.62C99.7388 97.4708 96.51 97.9311 96.51 97.9311C98.8115 97.9311 98.3645 100.58 98.3645 100.58V100.586Z" fill="#9B4B5A"/>
</g>
<defs>
<linearGradient id="paint0_linear_145_288" x1="48" y1="100.35" x2="152.71" y2="100.35" gradientUnits="userSpaceOnUse">
<stop offset="0.01" stop-color="#DCDCE3"/>
<stop offset="1" stop-color="#EDEDF1"/>
</linearGradient>
<linearGradient id="paint1_linear_145_288" x1="144.11" y1="100.35" x2="124.66" y2="100.35" gradientUnits="userSpaceOnUse">
<stop offset="0.01" stop-color="#DCDCE3"/>
<stop offset="1" stop-color="#EDEDF1"/>
</linearGradient>
<clipPath id="clip0_145_288">
<rect width="14.2718" height="14" fill="white" transform="translate(117 146)"/>
</clipPath>
<clipPath id="clip1_145_288">
<rect width="31" height="20.2797" fill="white" transform="translate(81 91)"/>
</clipPath>
</defs>
</svg>
