<svg width="200" height="200" viewBox="0 0 200 200" fill="none" xmlns="http://www.w3.org/2000/svg">
<rect width="200" height="200" fill="white"/>
<path d="M157.2 127.6C157.2 133.343 152.543 138 146.8 138C141.057 138 136.4 133.343 136.4 127.6C136.4 121.857 141.057 117.2 146.8 117.2C152.543 117.2 157.2 121.857 157.2 127.6Z" fill="#D0D6DD"/>
<path d="M63.6 127.6C63.6 133.343 58.9432 138 53.2 138C47.4568 138 42.8 133.343 42.8 127.6C42.8 121.857 47.4568 117.2 53.2 117.2C58.9432 117.2 63.6 121.857 63.6 127.6Z" fill="#D0D6DD"/>
<path d="M22 164H178V91.2H22V164ZM120.8 122.4H124.763C125.904 122.4 126.861 121.639 127.245 120.565C127.469 119.944 127.719 119.338 127.996 118.747C128.483 117.715 128.345 116.501 127.537 115.692L124.737 112.893L132.09 105.54L134.89 108.339C135.695 109.145 136.913 109.285 137.945 108.799C138.534 108.52 139.144 108.268 139.763 108.048C140.838 107.66 141.6 106.704 141.6 105.563V101.6H152V105.563C152 106.704 152.761 107.661 153.835 108.046C154.456 108.27 155.062 108.519 155.653 108.797C156.685 109.283 157.899 109.145 158.708 108.337L161.507 105.537L168.86 112.89L166.061 115.69C165.255 116.496 165.115 117.713 165.601 118.745C165.88 119.335 166.132 119.944 166.352 120.563C166.74 121.639 167.696 122.4 168.837 122.4H172.8V132.8H168.837C167.696 132.8 166.739 133.561 166.354 134.635C166.13 135.256 165.881 135.862 165.603 136.453C165.117 137.485 165.255 138.699 166.063 139.508L168.863 142.307L161.51 149.66L158.71 146.861C157.904 146.055 156.687 145.915 155.655 146.401C155.065 146.68 154.456 146.932 153.837 147.152C152.761 147.54 152 148.496 152 149.637V153.6H141.6V149.637C141.6 148.496 140.838 147.539 139.765 147.154C139.144 146.93 138.538 146.681 137.947 146.403C136.915 145.917 135.701 146.055 134.892 146.863L132.093 149.663L124.739 142.31L127.539 139.51C128.345 138.705 128.485 137.487 127.999 136.455C127.72 135.865 127.468 135.256 127.248 134.637C126.86 133.561 125.904 132.8 124.763 132.8H120.8V122.4ZM110.4 101.6H115.6V106.8H110.4V101.6ZM110.4 148.4H115.6V153.6H110.4V148.4ZM97.4 101.6H102.6V106.8H97.4V101.6ZM97.4 148.4H102.6V153.6H97.4V148.4ZM84.4 101.6H89.6V106.8H84.4V101.6ZM84.4 148.4H89.6V153.6H84.4V148.4ZM27.2 122.4H31.1627C32.3037 122.4 33.2613 121.639 33.6455 120.565C33.8695 119.944 34.1191 119.338 34.3964 118.747C34.8828 117.715 34.7447 116.501 33.9368 115.692L31.1371 112.893L38.4902 105.54L41.2899 108.339C42.0954 109.145 43.313 109.285 44.3448 108.799C44.9345 108.52 45.5438 108.268 46.1625 108.048C47.2385 107.66 47.9999 106.704 47.9999 105.563V101.6H58.3999V105.563C58.3999 106.704 59.1613 107.661 60.235 108.046C60.856 108.27 61.4619 108.519 62.0527 108.797C63.0846 109.283 64.2987 109.145 65.1076 108.337L67.9073 105.537L75.2604 112.89L72.4607 115.69C71.6552 116.496 71.5147 117.713 72.0011 118.745C72.2796 119.335 72.5315 119.944 72.752 120.563C73.1397 121.639 74.0961 122.4 75.2371 122.4H79.1998V132.8H75.2371C74.0962 132.8 73.1385 133.561 72.7543 134.635C72.5303 135.256 72.2808 135.862 72.0034 136.453C71.517 137.485 71.6552 138.699 72.463 139.508L75.2627 142.307L67.9096 149.66L65.1099 146.861C64.3044 146.055 63.0868 145.915 62.055 146.401C61.4654 146.68 60.856 146.932 60.2373 147.152C59.1613 147.54 58.3999 148.496 58.3999 149.637V153.6H47.9999V149.637C47.9999 148.496 47.2385 147.539 46.1648 147.154C45.5438 146.93 44.9379 146.681 44.3471 146.403C43.3152 145.917 42.1012 146.055 41.2922 146.863L38.4926 149.663L31.1395 142.31L33.9391 139.51C34.7446 138.705 34.8851 137.487 34.3988 136.455C34.1202 135.865 33.8683 135.256 33.6478 134.637C33.2601 133.561 32.3037 132.8 31.1627 132.8H27.2V122.4Z" fill="#E4E4EA"/>
<path d="M68.5263 55H38V85.5263H68.5263V55Z" fill="#F2D1A5"/>
<path d="M48.3057 67.4222L53.255 64.2963L58.2044 67.4222V55H48.3057V67.4222Z" fill="#E3A76F"/>
<path d="M115.526 55H85V85.5263H115.526V55Z" fill="#F2D1A5"/>
<path d="M95.3057 67.4222L100.255 64.2963L105.204 67.4222V55H95.3057V67.4222Z" fill="#E3A76F"/>
<path d="M161.526 55H131V85.5263H161.526V55Z" fill="#F2D1A5"/>
<path d="M141.306 67.4222L146.255 64.2963L151.204 67.4222V55H141.306V67.4222Z" fill="#E3A76F"/>
<path d="M59.9967 73.2211V71.5083H55.6964C55.594 71.2013 55.3102 71 54.9835 71H50.033C49.7063 71 49.4224 71.2244 49.3201 71.5083H45V73.2211L49.9505 75.9505V77.3168L47.5676 78.3366V79.3564H57.4719V78.3366L55.0891 77.3168V75.9505L60 73.2211H59.9967Z" fill="white" stroke="white" stroke-width="0.0858086" stroke-miterlimit="10"/>
<path d="M104.488 74.0348C103.898 73.8142 102.688 73.4591 101.581 73.8728C101.212 74.0072 100.888 74.2279 100.605 74.4623L101.254 73.0178C101.843 72.7075 102.76 72.1179 103.188 71.1595C103.66 70.0838 103.395 68.8426 103.202 68.2531C103.143 68.0462 102.905 67.9428 102.715 68.0324C102.153 68.2979 101.047 68.9185 100.574 69.9942C100.147 70.9526 100.323 72.0145 100.485 72.6661L99.8367 74.1279C99.8229 73.759 99.778 73.3763 99.616 73.0074C99.1747 71.9145 98.1094 71.2525 97.5509 70.9561C97.3578 70.8526 97.1371 70.9561 97.0647 71.1491C96.8579 71.7387 96.5338 72.9626 96.9751 74.0555C97.4026 75.1036 98.4059 75.769 98.9816 76.062L98.0818 78.0824C98.068 77.7135 98.0232 77.3308 97.8611 76.9619C97.4198 75.869 96.3545 75.207 95.796 74.9105C95.6029 74.8071 95.3823 74.9105 95.3099 75.1036C95.103 75.6931 94.7789 76.9171 95.2202 78.01C95.6477 79.058 96.651 79.7234 97.2268 80.0165L96.6062 81.4197C96.5166 81.6266 96.6062 81.8782 96.8131 81.9644C96.9165 82.0092 97.0337 82.0092 97.1371 81.9782C97.2406 81.9334 97.313 81.861 97.3716 81.7576L97.9922 80.3544C98.5955 80.575 99.7643 80.8853 100.826 80.4888C101.933 80.0751 102.626 79.027 102.922 78.4823C103.026 78.2892 102.936 78.0686 102.746 77.9789C102.157 77.7583 100.947 77.4032 99.8401 77.8169C99.4712 77.9514 99.1471 78.172 98.8644 78.4064L99.7643 76.3861C100.368 76.6068 101.536 76.9171 102.598 76.5206C103.705 76.1069 104.398 75.0588 104.694 74.514C104.767 74.3382 104.681 74.1141 104.488 74.0417V74.0348Z" fill="white"/>
<path fill-rule="evenodd" clip-rule="evenodd" d="M148.287 68C148.529 68 148.722 68.193 148.722 68.4351C148.722 68.6773 148.529 68.8702 148.287 68.8702H147.818V72.9035C148.703 73.2516 149.471 73.8418 150.043 74.6061C150.633 75.4423 151 76.4487 151 77.5611C151 78.9345 150.444 80.1869 149.54 81.0912C148.635 81.9955 147.383 82.5516 146.009 82.5516C144.636 82.5516 143.384 81.9955 142.479 81.0912C141.575 80.1869 141 78.9345 141 77.5611C141 76.4487 141.367 75.4385 141.972 74.6061C142.529 73.8418 143.312 73.2516 144.197 72.9035V68.8702H143.728C143.486 68.8702 143.293 68.6773 143.293 68.4351C143.293 68.193 143.486 68 143.728 68H148.283H148.287ZM146.721 75.7563C144.719 75.7563 143.592 76.7817 141.885 77.3227C141.938 76.5055 142.215 75.7412 142.669 75.132C143.191 74.4207 143.921 73.8986 144.772 73.6186C144.946 73.5656 145.067 73.3916 145.067 73.2024V68.874H146.929V73.2024C146.929 73.4105 147.069 73.5846 147.258 73.6375C148.094 73.8986 148.824 74.4359 149.328 75.132C149.521 75.3742 149.676 75.6542 149.797 75.9493C148.927 75.9152 147.935 75.7563 146.721 75.7563Z" fill="white" stroke="white" stroke-width="0.124858" stroke-miterlimit="10"/>
<g clip-path="url(#clip0_145_289)">
<path d="M84 119.321V134.958C84 136.239 85.0407 137.28 86.3215 137.28H94.3533V117H86.3215C85.0407 117 84 118.041 84 119.321Z" fill="#73AF00"/>
<path d="M104.707 117H94.3533V137.28H104.707V117Z" fill="#F5F5F5"/>
<path d="M112.679 117H104.647V137.28H112.679C113.959 137.28 115 136.239 115 134.958V119.321C115 118.041 113.959 117 112.679 117Z" fill="#FF4B55"/>
<path d="M100.424 127.64L99.4967 128.1V128.561H99.957L100.424 127.64Z" fill="#FFD250"/>
<path d="M99.2565 129.488V128.521C99.2565 128.421 99.3166 128.321 99.4166 128.294C99.5834 128.241 99.7368 128.361 99.7368 128.521V129.488C99.7368 129.648 99.5834 129.775 99.4166 129.715C99.3166 129.681 99.2565 129.588 99.2565 129.488Z" fill="#00C3A0"/>
<path d="M99.51 128.774C98.6028 128.774 97.7289 128.427 97.0484 127.794C96.955 127.707 96.9484 127.56 97.0351 127.467C97.1218 127.373 97.2686 127.367 97.362 127.453C97.9557 128.007 98.7228 128.314 99.51 128.314C100.297 128.314 101.064 128.007 101.658 127.453C101.751 127.367 101.898 127.373 101.985 127.467C102.072 127.56 102.065 127.707 101.972 127.794C101.291 128.427 100.417 128.774 99.51 128.774Z" fill="#00C3A0"/>
<path d="M99.51 129.695C98.9163 129.695 98.3493 129.521 97.8556 129.195L98.1091 128.808C98.943 129.361 100.077 129.361 100.911 128.808L101.164 129.195C100.671 129.521 100.097 129.695 99.51 129.695Z" fill="#00AADC"/>
<path d="M99.1431 126.586L98.6361 127.373L98.5494 127.634L99.8769 127.327L99.1431 126.586Z" fill="#732D37"/>
<path d="M98.1024 127.9C97.4954 127.9 96.7616 127.387 96.5681 126.246L97.0217 126.166C97.1818 127.113 97.7689 127.44 98.1158 127.44C98.2225 127.44 98.3359 127.4 98.3426 127.327C98.3559 127.233 98.3559 127.213 98.1158 127.133C97.9824 127.087 97.8356 127.04 97.7289 126.92C97.3086 126.439 97.8756 125.926 98.1491 125.686C98.1958 125.646 98.2158 125.606 98.2092 125.592C98.1958 125.552 98.1024 125.492 98.0024 125.492C97.7089 125.492 97.4887 125.325 97.422 125.059C97.3553 124.785 97.482 124.491 97.7222 124.365L97.9357 124.772C97.8823 124.798 97.8556 124.885 97.869 124.945C97.869 124.972 97.889 125.025 98.0024 125.025C98.2826 125.025 98.5561 125.192 98.6428 125.419C98.6828 125.519 98.7362 125.772 98.456 126.019C98.1558 126.293 97.969 126.493 98.0758 126.606C98.0958 126.633 98.1958 126.666 98.2625 126.686C98.4693 126.76 98.8563 126.886 98.8029 127.367C98.7695 127.674 98.496 127.88 98.1291 127.894H98.1024V127.9Z" fill="#AAD264"/>
<path d="M99.9836 125.319C99.9836 125.319 100.444 124.398 99.5233 123.938C99.5233 123.938 102.752 123.478 102.292 127.627C101.992 127.387 101.538 126.94 101.378 126.593L99.9836 125.786V125.325V125.319Z" fill="#874150"/>
<path d="M99.4967 126.239L101.798 127.62L100.878 128.08L99.4967 126.7V126.239Z" fill="#732D37"/>
<path d="M98.5894 124.845C98.8429 124.845 99.043 125.052 99.043 125.305C98.7829 125.606 98.7228 126.032 98.903 126.393L98.983 126.56C99.023 126.646 99.0831 126.726 99.1498 126.793L100.411 128.074V127.44C100.411 126.646 100.23 125.866 99.8769 125.152C99.6434 124.685 99.1765 124.385 98.6561 124.385H98.5894V124.845Z" fill="#783C46"/>
<path d="M98.5694 124.398L98.1091 124.858V125.319C98.1091 125.319 98.6561 125.039 98.8429 124.952C98.9697 124.892 98.9496 124.745 98.8763 124.672C98.8162 124.618 98.5694 124.398 98.5694 124.398Z" fill="#FFD250"/>
<path d="M99.51 130.602C97.3486 130.602 95.5941 128.848 95.5941 126.686H96.0544C96.0544 128.594 97.6021 130.142 99.51 130.142C101.418 130.142 102.966 128.594 102.966 126.686H103.426C103.426 128.848 101.671 130.602 99.51 130.602Z" fill="#AAD264"/>
<path d="M96.0811 128.381C96.2543 128.381 96.3947 128.24 96.3947 128.067C96.3947 127.894 96.2543 127.754 96.0811 127.754C95.908 127.754 95.7676 127.894 95.7676 128.067C95.7676 128.24 95.908 128.381 96.0811 128.381Z" fill="#FFE15A"/>
<path d="M96.7682 129.488C96.9414 129.488 97.0818 129.348 97.0818 129.174C97.0818 129.001 96.9414 128.861 96.7682 128.861C96.5951 128.861 96.4547 129.001 96.4547 129.174C96.4547 129.348 96.5951 129.488 96.7682 129.488Z" fill="#FFE15A"/>
<path d="M97.8956 130.322C98.0688 130.322 98.2092 130.182 98.2092 130.008C98.2092 129.835 98.0688 129.695 97.8956 129.695C97.7225 129.695 97.5821 129.835 97.5821 130.008C97.5821 130.182 97.7225 130.322 97.8956 130.322Z" fill="#FFE15A"/>
<path d="M102.972 128.381C103.145 128.381 103.286 128.24 103.286 128.067C103.286 127.894 103.145 127.754 102.972 127.754C102.799 127.754 102.659 127.894 102.659 128.067C102.659 128.24 102.799 128.381 102.972 128.381Z" fill="#FFE15A"/>
<path d="M102.285 129.488C102.458 129.488 102.599 129.348 102.599 129.174C102.599 129.001 102.458 128.861 102.285 128.861C102.112 128.861 101.972 129.001 101.972 129.174C101.972 129.348 102.112 129.488 102.285 129.488Z" fill="#FFE15A"/>
<path d="M101.158 130.322C101.331 130.322 101.471 130.182 101.471 130.008C101.471 129.835 101.331 129.695 101.158 129.695C100.985 129.695 100.844 129.835 100.844 130.008C100.844 130.182 100.985 130.322 101.158 130.322Z" fill="#FFE15A"/>
<path d="M99.7368 129.895H99.2832C99.0297 129.895 98.8296 129.695 98.8296 129.441C98.8296 129.188 99.0297 128.988 99.2832 128.988H99.7368C99.9903 128.988 100.19 129.188 100.19 129.441C100.19 129.695 99.9903 129.895 99.7368 129.895Z" fill="#FFB478"/>
<path d="M101.365 126.586C101.518 127.04 101.845 127.453 102.278 127.62C102.739 123.471 99.51 123.931 99.51 123.931C101.811 123.931 101.365 126.58 101.365 126.58V126.586Z" fill="#9B4B5A"/>
</g>
<defs>
<clipPath id="clip0_145_289">
<rect width="31" height="20.2797" fill="white" transform="translate(84 117)"/>
</clipPath>
</defs>
</svg>
