<svg width="139" height="114" viewBox="0 0 139 114" fill="none" xmlns="http://www.w3.org/2000/svg">
<path d="M69.3153 114C107.597 114 138.631 104.543 138.631 92.8768C138.631 81.2108 107.597 71.7537 69.3153 71.7537C31.0335 71.7537 0 81.2108 0 92.8768C0 104.543 31.0335 114 69.3153 114Z" fill="url(#paint0_linear_25_389)"/>
<path d="M69.3153 101.848C87.6569 101.848 102.526 97.8314 102.526 92.877C102.526 87.9225 87.6569 83.9061 69.3153 83.9061C50.9738 83.9061 36.105 87.9225 36.105 92.877C36.105 97.8314 50.9738 101.848 69.3153 101.848Z" fill="#D0D6DD"/>
<path fill-rule="evenodd" clip-rule="evenodd" d="M62.3784 93.3722H49.9131V56.0155H65.4686L62.3784 93.3722Z" fill="#9F2241"/>
<path fill-rule="evenodd" clip-rule="evenodd" d="M73.8528 93.3722H86.3181V56.0155H70.7495L73.8528 93.3722Z" fill="#9F2241"/>
<path fill-rule="evenodd" clip-rule="evenodd" d="M91.7161 64.1519H45.5972L49.8609 18.5023H87.3611L91.7161 64.1519Z" fill="#9F2241"/>
<path fill-rule="evenodd" clip-rule="evenodd" d="M31.3457 43.3286V37.135C31.3457 26.8342 39.6907 18.5023 49.9784 18.5023V30.8503C46.5231 30.8633 43.7067 33.6667 43.7067 37.135V43.3286H31.3457Z" fill="#9F2241"/>
<path fill-rule="evenodd" clip-rule="evenodd" d="M105.342 43.3286H92.9812V37.135C92.9812 33.6797 90.1648 30.8763 86.7095 30.8503V18.5023C97.0103 18.5023 105.342 26.8342 105.342 37.135V43.3286Z" fill="#9F2241"/>
<path fill-rule="evenodd" clip-rule="evenodd" d="M75.3782 6.8194C75.3782 10.5877 72.3141 13.6388 68.5458 13.6388C64.7775 13.6388 61.7134 10.5877 61.7134 6.8194C61.7134 3.05113 64.7645 0 68.5458 0C72.3271 0 75.3782 3.05113 75.3782 6.8194Z" fill="#0D2633"/>
<defs>
<linearGradient id="paint0_linear_25_389" x1="0" y1="92.8768" x2="138.631" y2="92.8768" gradientUnits="userSpaceOnUse">
<stop offset="0.01" stop-color="#DCDCE3"/>
<stop offset="1" stop-color="#EDEDF1"/>
</linearGradient>
</defs>
</svg>
