<?xml version="1.0"?>
<svg xmlns="http://www.w3.org/2000/svg" version="1.2" baseProfile="tiny" width="800" height="257" viewBox="0 0 800 257" stroke-linecap="round" stroke-linejoin="round" fill="#FFF">
<g id="continent_mena">
<path d="M 441.9564 1 446.5404 1.6261 452.3978 7.0822 459.5285 9.1394 456.4725 11.8227 450.8698 10.6599 443.8664 11.6438 440.4284 15.1321 429.4777 15.4004 434.9531 7.7083 432.0244 4.3989 434.8258 1.805 441.9564 1 Z M 698.0244 253.6787 694.4591 247.1493 686.9464 230.2444 658.6783 234.0905 649.001 238.6521 643.2709 245.5393 641.6156 249.2065 637.1589 250.5481 634.6123 247.3281 630.6649 247.8648 621.7516 247.0598 619.2049 245.8076 605.1982 246.702 601.5055 245.0026 599.3408 246.8809 599.7228 252.337 595.6482 256.362 595.0115 253.4103 591.0641 248.4015 590.8095 245.5393 584.9521 241.0671 579.8588 233.196 577.3121 226.7561 573.1101 220.495 564.3241 215.7545 558.7214 207.2573 557.7027 201.8013 559.3581 196.5241 557.5754 191.6941 552.482 182.6603 542.55 176.1309 539.494 172.0165 540.258 168.6176 534.6553 161.9988 530.326 154.3961 518.7386 139.5484 514.4093 139.1906 517.5926 127.2946 517.72 125.2374 516.3193 123.3591 510.7166 108.7797 513.0086 105.1125 516.574 98.1359 519.1206 90.086 524.3413 79.0844 527.7793 74.6122 527.7793 69.1562 525.4873 65.5784 527.1427 62.0007 525.9966 58.0651 529.944 55.2029 528.034 52.0724 521.6673 55.829 515.81 53.1457 503.7133 59.7646 494.9272 60.7484 488.5606 55.829 481.8119 53.1457 475.3179 52.3407 472.7712 58.7807 466.4045 59.7646 461.6932 58.7807 459.4011 54.5768 444.1211 50.0152 440.6831 47.3319 440.9378 41.4286 434.6984 40.2658 438.0091 37.0458 438.7731 32.6631 435.7171 28.012 430.1144 26.8492 430.1144 22.0193 435.9718 17.4577 443.1024 18.2626 454.8171 17.8154 461.1838 12.8066 460.8018 9.1394 480.7932 10.481 482.5759 8.2449 490.8526 4.3989 501.4213 1.3578 511.4806 2.0733 516.956 1.4472 521.0306 4.3989 527.0153 4.4883 543.0594 11.1071 551.2087 12.2699 562.1594 10.3916 569.0354 12.2699 581.8961 7.6188 583.0421 6.3666 592.0828 7.1716 593.4835 5.7405 602.0148 10.481 604.9435 14.6849 603.5428 17.9943 607.8722 21.3932 612.2015 21.6615 615.2575 24.3448 615.6395 25.0604 622.8976 31.6792 628.8822 32.7525 632.5749 32.5737 636.1403 29.7115 645.8176 24.5237 650.7836 27.6542 647.473 33.1103 653.4576 37.4036 656.1316 37.0458 657.405 43.8436 661.7343 46.348 668.7377 47.2424 672.0483 50.9096 678.033 53.8613 686.3097 55.3818 701.9718 52.4302 707.1924 53.0563 706.1738 47.8685 714.8325 46.0797 715.5965 43.7541 721.1991 40.6236 729.9852 40.5341 731.2585 38.8347 737.2432 39.4608 740.2992 41.6075 755.3246 44.6486 760.2906 46.348 761.8186 49.3891 766.7846 50.9991 770.0953 54.8452 777.3533 54.7557 779.2633 65.0417 777.2259 73.0022 773.7879 75.775 771.4959 80.1577 771.7506 84.7194 775.4433 85.6138 772.3873 89.5493 774.9339 98.4937 775.1886 106.0964 783.2106 107.1698 784.6113 112.4469 775.0613 122.2858 779.3906 126.7579 783.0833 133.1979 790.214 136.5968 793.9067 140.8006 794.5433 148.4033 799 148.4928 797.854 154.3961 794.034 154.2172 785.248 158.2421 783.2106 162.8932 782.4466 168.6176 780.7913 169.9593 770.2226 167.276 754.8152 164.9504 748.4485 165.1293 746.4112 163.6982 740.0445 162.8038 738.5165 159.6733 736.6065 150.9972 730.3672 148.6717 723.8731 150.6394 714.9598 155.6483 710.1211 153.5016 704.2638 153.5911 701.2078 150.7289 693.0584 147.1511 691.4031 144.2889 681.089 140.8006 677.7784 133.3768 673.7037 129.3518 673.831 126.3107 668.7377 121.4808 656.641 120.0497 652.6936 121.2124 646.8363 120.9441 647.091 125.0585 651.675 135.3445 653.4576 139.459 659.697 145.2728 661.3523 149.2978 666.7003 152.0705 669.5017 158.5105 668.2283 160.7466 675.359 173.0898 674.7224 166.3815 677.3964 160.3888 679.6884 159.0471 683.1264 162.8932 683.381 168.3493 681.5984 173.8054 679.3064 174.2526 682.8717 178.0092 685.291 180.5136 689.3657 180.782 693.8224 179.0825 705.5371 179.8875 710.7578 178.0092 714.0685 172.4637 717.7611 170.4065 727.6932 160.031 729.7305 164.3243 730.7492 170.7643 733.0412 175.5942 738.3892 180.9609 754.5606 185.3436 757.6166 189.9052 764.6199 198.4024 760.1632 206.0051 755.9612 208.8673 751.8865 216.2017 745.3925 217.6328 743.8645 222.7311 743.8645 230.781 738.8985 231.0494 733.5505 234.1799 732.5318 238.6521 728.8392 240.6199 721.4538 241.6932 717.2518 250.0115 707.8291 250.0115 702.8631 252.5159 698.0244 253.6787 Z M 522.686 106.007 523.7046 97.1521 520.1393 95.5421 517.5926 99.2093 522.686 106.007 Z M 525.6146 93.5743 525.8693 93.5743 526.7607 86.6871 526.2513 86.9555 525.6146 93.5743 Z M 625.4442 72.1078 629.1369 69.2456 625.5716 63.1634 620.9876 60.3012 615.2575 49.8363 609.7822 48.763 602.3968 48.8524 595.3935 47.5108 591.3188 50.1046 591.4461 50.6413 593.7382 53.3246 603.9248 52.9668 607.8722 55.1135 601.1235 61.1957 605.3255 64.0579 613.8569 62.3584 615.6395 66.4728 614.2389 70.7661 622.0062 74.4333 625.4442 72.1078 Z M 418.527 200.3702 418.3997 220.3161 408.595 220.3161 408.595 225.325 379.0536 210.6562 364.4102 203.4113 329.1388 186.0592 319.0795 190.4419 311.6941 194.1985 304.1814 188.7425 289.1561 185.3436 276.932 192.4097 244.5893 211.6401 228.1632 225.4144 212.2465 228.8133 203.0785 230.4233 202.1872 222.2839 188.9445 217.9011 181.5591 212.3556 181.5591 209.3145 148.4524 187.7586 122.2216 170.5854 101.5936 158.3316 83.8942 147.8667 83.8942 144.1995 83.1302 148.8506 73.4528 152.0705 61.6108 150.55 53.5888 159.5838 50.5328 160.2994 46.5854 172.1954 40.3461 176.5781 37.7994 180.782 31.1781 185.3436 28.7587 197.3291 22.6467 205.9157 1 206.0946 3.0373 199.118 14.8794 180.3348 22.0101 173.7159 23.2834 166.1132 26.8487 158.0633 34.7434 153.77 41.2374 141.6056 56.0081 137.4912 65.0488 130.9618 74.2169 119.6024 72.1795 106.9014 77.0182 100.6404 78.1642 95.2737 88.2236 86.9555 102.3576 80.6944 107.7056 72.3761 111.2709 63.3423 116.4916 62.0007 117.1283 62.8056 122.731 68.7089 126.6783 69.6928 140.8124 67.9039 141.1944 68.3512 148.0704 70.2295 180.5404 56.3657 196.3298 55.2029 199.3858 53.1457 217.7219 52.2513 222.9426 54.8452 242.4246 50.6413 248.7913 52.6985 255.7946 51.8935 266.236 47.958 274.8947 53.5035 275.6587 62.6268 280.752 69.0667 275.5314 75.5961 270.82 77.8322 272.9847 84.0933 280.6247 85.6138 284.572 89.1916 292.9761 92.6799 302.9081 92.0538 321.2441 97.1521 324.1728 104.3076 329.6482 108.1536 342.8909 110.032 350.9129 113.073 358.8076 118.0819 362.3729 117.8136 369.3763 112.7153 368.2303 103.8603 374.5969 95.3632 385.0383 91.7854 399.6817 94.5582 399.809 97.7782 409.741 100.9087 418.527 101.2665 420.1824 104.397 441.7018 107.0803 458.7645 112.6258 472.0072 105.8281 480.5385 105.1125 488.8152 110.1214 504.7319 109.7636 510.0799 107.7959 516.3193 123.4485 514.5366 133.019 510.3346 142.9473 503.4586 144.3784 508.4246 154.575 523.1953 180.782 525.1053 191.1575 536.82 200.3702 513.7726 200.3702 480.7932 200.3702 451.3791 200.3702 418.527 200.3702 Z"/>
</g>
</svg>
