<?xml version="1.0"?>
<svg xmlns="http://www.w3.org/2000/svg" version="1.2" baseProfile="tiny" width="800" height="311" viewBox="0 0 800 311" stroke-linecap="round" stroke-linejoin="round" fill="#FFF">
<g id="continent_wld">
<path d="M 251.5646 308.1027 250.847 308.9883 248.9435 309.6814 247.8514 309.6044 246.5097 309.4311 244.9183 308.7766 242.6092 308.4493 239.8321 307.2171 237.5542 306.0234 234.4963 303.5398 236.3061 304.0018 239.4577 305.4651 242.3908 306.2737 243.5141 305.2533 244.2318 303.7516 246.26 302.8467 247.8514 303.097 248.7251 304.1366 249.8172 305.7731 252.688 307.1208 255.8083 307.6599 254.8098 308.7766 252.688 308.8921 251.5646 308.1027 Z M 264.3269 301.3257 267.0104 300.0165 268.8826 300.5748 270.2244 299.6892 272.003 300.6711 271.3165 301.4412 268.3522 302.1343 267.3536 301.3257 265.419 302.3461 264.3269 301.3257 Z M 783.523 277.1248 784.0223 278.0297 785.6137 277.1441 786.2689 278.0682 786.2689 279.0116 785.4577 280.032 783.9599 281.6685 782.8366 282.5734 783.6478 283.613 781.9316 283.6515 780.0594 284.4987 779.4666 285.9234 778.1872 288.176 776.471 289.1771 775.3477 289.7932 773.3195 289.7547 771.8841 289.0231 769.4814 288.8691 769.107 288.0412 770.2927 286.4047 773.0698 284.2099 774.5052 283.8056 776.0966 282.9584 778 281.8033 779.3105 280.6481 780.3091 278.9923 781.1516 278.434 781.4636 277.2211 783.0238 276.1814 783.523 277.1248 Z M 722.3016 276.8553 724.4547 277.6061 725.6404 277.2981 727.3878 276.8938 728.6672 277.0286 728.8232 279.6469 728.1055 280.3978 727.8871 282.2076 727.107 281.6107 725.578 283.151 725.11 283.0162 723.737 282.9392 722.3952 281.0332 722.0832 279.5892 720.8039 277.6639 720.8663 276.6435 722.3016 276.8553 Z M 787.0802 266.555 788.6716 268.9038 788.734 267.3829 789.7325 267.999 790.0446 269.6547 791.792 270.3671 793.2897 270.5596 794.6003 269.7125 795.7236 269.9627 795.1932 271.9458 794.5067 273.2357 792.7905 273.178 792.1976 273.8518 792.416 274.8145 792.0728 275.2188 791.2303 276.4317 790.1694 277.9334 788.4532 278.8191 788.0788 278.2415 787.1738 277.9142 788.422 276.1044 787.7043 274.8722 785.3328 273.9866 785.3952 273.178 786.9866 272.4271 787.3611 270.6944 787.2675 269.2696 786.3626 267.7872 786.425 267.4021 785.364 266.478 783.5854 264.5334 782.6805 262.9547 783.4918 262.7814 784.7088 263.9944 786.4562 264.5719 787.0802 266.555 Z M 772.0713 222.9087 771.3224 223.1975 770.6048 222.2349 770.6672 221.638 772.0713 222.9087 Z M 767.4844 233.1512 769.2942 234.4989 770.4487 235.5386 769.6062 236.0777 768.3893 235.4616 766.8291 234.4604 765.3626 233.286 763.896 231.7265 763.584 230.9949 764.5513 231.0142 765.7682 231.765 766.7979 232.5159 767.4844 233.1512 Z M 770.4175 219.5394 770.792 221.3107 770.1991 221.0219 769.7311 221.1567 769.419 220.5406 769.3566 218.8271 770.4175 219.5394 Z M 756.5632 208.2958 755.6895 208.3343 754.3165 208.1225 753.8796 207.7759 754.0045 206.9096 755.471 207.2561 756.1887 207.7182 756.5632 208.2958 Z M 667.5706 209.1044 666.6345 209.1621 663.7013 207.5834 665.792 207.1598 666.9465 207.8337 667.7266 208.5075 667.5706 209.1044 Z M 677.2749 207.2369 675.8395 208.8734 673.9361 209.3932 673.6553 209.1044 673.8737 208.3535 674.841 207.0058 677.0253 206.1202 677.2749 205.6196 679.1783 205.0998 680.7385 205.042 681.425 204.7532 682.2363 205.042 681.4562 205.6389 679.1471 206.6015 677.2749 207.2369 Z M 718.214 216.9211 719.0253 218.6538 720.4606 217.8259 721.2095 218.7501 722.2704 219.6357 722.0208 220.6176 722.4889 222.5044 722.8321 223.6211 723.3938 223.8906 723.9866 225.7966 723.7994 226.9326 724.4859 228.4343 726.8886 229.5895 728.4487 230.6676 729.9465 231.6303 729.6657 232.1501 730.9138 233.5363 731.7875 235.9429 732.6612 235.4423 733.5661 236.405 734.0966 236.0777 734.5022 238.4073 736.0624 239.7742 737.0921 240.6406 738.8395 242.4119 739.4636 244.2024 739.526 245.4731 739.37 246.84 740.4309 248.7268 740.3061 250.6906 739.9316 251.711 739.3076 253.6941 739.37 254.9648 738.9331 256.5627 737.9346 258.5458 736.2808 259.6432 735.4695 261.3952 734.7207 262.4734 734.0654 264.3794 733.2229 265.4768 732.6612 267.1326 732.3804 268.6728 732.5052 269.3659 731.2259 270.136 728.6984 270.2323 726.7013 271.1372 725.6716 272.0035 724.3611 272.9469 722.5201 271.965 721.1471 271.58 721.4903 270.4056 720.3046 270.8484 718.3076 272.4464 716.4042 271.8495 715.156 271.503 713.8767 271.3297 711.786 270.6751 710.3195 269.3081 709.9138 267.6524 709.3834 266.5165 708.2912 265.6116 706.1694 265.3421 706.8871 264.2639 706.3566 262.6466 705.2957 264.1676 703.2987 264.5719 704.4844 263.3398 704.7964 262.0691 705.6701 260.9909 705.4829 259.3352 703.6731 261.2412 702.3001 261.9921 701.4264 263.7441 699.679 262.8392 699.7727 261.684 698.3685 260.0475 697.2452 259.2196 697.6196 258.7191 694.8113 257.3714 693.2511 257.2943 691.0981 256.2354 687.1352 256.4472 684.2645 257.2366 681.7058 257.9682 679.6464 257.8334 677.2749 258.9501 675.3715 259.4699 674.9346 260.6443 674.1233 261.5492 672.2199 261.607 670.8158 261.7803 668.8811 261.3952 667.2897 261.6262 665.792 261.7225 664.4814 262.9162 663.7949 262.8007 662.6716 263.436 661.6107 264.1484 660.0193 264.0521 658.5215 264.0521 656.1813 262.6466 654.9643 262.2231 654.9955 260.9524 656.1189 260.6636 656.4933 260.1245 656.4309 259.3352 656.7117 257.7949 656.4621 256.4857 655.2764 254.2331 654.9019 252.9817 654.9955 251.7303 654.0906 250.2863 654.0594 249.6317 653.0609 248.7461 652.7801 247.0133 651.5319 245.2613 651.2199 244.2987 652.1872 245.2613 651.4383 243.2012 652.5305 243.8558 653.1857 244.703 653.1545 243.567 652.0624 241.815 651.844 241.1412 651.3447 240.4866 651.5944 239.1774 652.0312 238.6191 652.3432 237.5216 652.0936 236.2317 652.9985 234.6337 653.1857 236.328 654.1218 234.807 655.9316 234.0561 657.0238 233.1127 658.7088 232.2849 659.7073 232.1308 660.3314 232.4004 662.0788 231.5918 663.4205 231.3222 663.7637 230.8409 664.3254 230.6484 665.6048 230.6869 667.8826 230.0515 669.0996 229.0696 669.6612 227.8759 670.9718 226.7593 671.0654 225.8736 671.1278 224.68 672.6568 222.7739 673.5929 224.6992 674.5602 224.2372 673.7801 223.1975 674.4666 222.1386 675.4651 222.6007 675.7147 220.9257 676.9316 219.8475 677.4621 218.9619 678.5854 218.5768 678.6166 217.9607 679.584 218.211 679.6152 217.6719 680.5825 217.3446 681.6434 217.0558 683.2972 218.057 684.5453 219.3662 685.9183 219.3662 687.3224 219.6165 686.8544 218.365 687.9153 216.5938 688.9138 216.0354 688.5706 215.4771 689.5379 214.2064 690.8796 213.417 692.003 213.6673 693.9064 213.263 693.844 212.1271 692.1902 211.3955 693.4071 211.0682 694.8737 211.6458 696.0594 212.5314 697.9004 213.109 698.5245 212.878 699.8975 213.5711 701.1768 212.9357 702.0505 213.109 702.581 212.6854 703.5795 213.7828 702.9866 214.9765 702.1441 215.8814 701.364 215.9584 701.6449 216.8248 700.9584 217.9415 700.1783 219.0196 700.3343 219.655 702.1441 220.8872 703.8291 221.5995 704.9837 222.3504 706.575 223.6788 707.1991 223.6596 708.3536 224.2372 708.6969 224.9303 710.8187 225.6619 712.2853 224.9303 712.7221 223.7173 713.159 222.7547 713.4398 221.5225 714.0951 219.7705 713.7831 218.6731 713.9391 218.0377 713.6895 216.767 713.9703 215.1113 714.4071 214.6685 714.0639 213.9176 714.5944 212.7432 715.0312 211.5303 715.0624 210.8949 715.9049 210.067 716.529 211.1452 716.685 212.5314 717.2155 212.8009 717.3091 213.7251 718.1204 214.861 718.3076 216.1317 718.214 216.9211 Z M 509.8053 214.0524 510.3982 214.9958 510.9599 216.459 511.3031 219.1159 511.8648 220.1748 511.6464 221.2145 511.2719 221.869 510.523 220.5791 510.0862 221.2337 510.523 222.8702 510.3358 223.8136 509.7117 224.3334 509.5869 226.2202 508.7444 228.8001 507.6523 231.8613 506.2481 236.0584 505.4056 239.1196 504.4071 241.7188 502.5973 242.2193 500.6627 243.1627 499.3834 242.6044 497.636 241.7958 496.9807 240.6406 496.8247 238.6576 496.0758 236.9055 495.8574 235.3076 496.263 233.7096 497.2615 233.3245 497.2927 232.5929 498.3536 230.9179 498.5721 229.4739 498.0416 228.4535 497.636 227.0481 497.4487 225.0073 498.2288 223.7558 498.5409 222.3696 499.633 222.2734 500.8811 221.8305 501.6924 221.4262 502.6597 221.3877 503.9079 220.1363 505.7489 218.7501 506.4042 217.6527 506.0921 216.7093 507.0906 216.9788 508.3076 215.4386 508.3388 214.0909 509.0565 213.0897 509.8053 214.0524 Z M 759.3715 209.6627 759.9643 210.4328 758.4666 210.4136 757.6241 209.0274 758.9346 209.5665 759.3715 209.6627 Z M 758.4042 207.6797 758.0921 208.1032 756.4071 206.178 755.9391 204.8688 756.688 204.8688 757.5305 206.6208 758.4042 207.6797 Z M 749.2303 202.6932 748.7623 202.8279 747.7637 202.3081 746.8588 201.4032 746.9837 201.0374 748.3254 201.9808 749.2303 202.6932 Z M 754.3789 204.9073 754.4725 205.3501 752.7563 204.4067 751.5394 203.5981 750.6969 202.8472 751.0401 202.6354 752.0386 203.1552 753.8796 204.1949 754.3789 204.9073 Z M 640.7667 201.4417 645.0104 201.6535 645.5097 200.7486 649.6597 201.8075 650.4086 203.2323 653.7474 203.6366 656.4933 204.9843 653.9346 205.8121 651.5007 204.9265 649.5349 204.9843 647.2259 204.811 645.1352 204.4259 642.5453 203.5596 640.9227 203.3478 640.0178 203.6173 635.9614 202.7124 635.5557 201.769 633.5587 201.5958 635.0565 199.4972 637.7712 199.632 639.5498 200.4791 640.4859 200.6524 640.7667 201.4417 Z M 661.3611 204.3682 662.1412 204.965 663.5141 204.7725 664.0758 205.7159 661.5171 206.1587 659.9569 206.4475 658.7712 206.4282 659.5513 205.1575 660.7682 205.1383 661.3611 204.3682 Z M 672.4071 204.3682 672.0951 205.6004 668.7563 206.2165 665.8544 205.9469 665.8544 205.1383 667.5706 204.6762 668.9747 205.3501 670.4413 205.1768 672.4071 204.3682 Z M 745.5171 201.538 744.893 201.7498 743.9569 200.9027 742.9896 199.4972 742.5215 197.7837 742.8336 197.5912 743.052 198.2458 743.7385 198.7271 744.7682 200.1711 745.8291 200.9219 745.5171 201.538 Z M 698.6181 200.1903 697.4948 201.692 697.3076 200.0363 697.6508 199.2469 698.1189 198.4768 698.6181 199.1314 698.6181 200.1903 Z M 736.8737 198.5538 735.7192 198.7271 735.3759 199.3624 734.159 199.9015 733.0357 200.4213 731.8499 200.4213 730.0401 199.7667 728.7296 199.1506 728.9168 198.4575 730.945 198.7848 732.162 198.6116 732.474 197.5527 732.8172 197.4949 733.0357 198.6693 734.2838 198.4961 734.9079 197.7452 736.156 196.9558 735.9064 195.6466 737.2169 195.6081 737.685 195.9739 737.6226 197.1869 736.8737 198.5538 Z M 739.4948 196.3975 738.7771 196.9751 738.3403 195.6659 737.8098 194.8188 736.8113 194.0871 735.5632 193.1245 733.9718 192.4892 734.5646 191.9501 735.7816 192.5662 736.5305 193.0475 737.4666 193.5866 738.3403 194.53 739.214 195.2231 739.4948 196.3975 Z M 55.2318 144.1067 54.9198 144.4917 54.3581 144.1644 54.4205 143.5483 54.0461 142.7397 54.1709 142.5087 54.5453 142.1236 54.3893 141.7001 54.5141 141.469 54.7013 141.5268 55.5438 141.8926 55.9183 142.0851 56.2615 142.3932 56.8232 143.1825 56.7608 143.298 55.9183 143.7601 55.2318 144.1067 Z M 680.1456 167.7492 680.364 169.2509 680.4889 170.4831 679.74 172.4854 678.9287 170.2328 677.899 171.3687 678.6166 173.0052 677.9614 174.0449 675.3715 172.7549 674.7474 171.157 675.4339 170.0981 674.0297 169.0584 673.2808 169.9633 672.2511 169.8863 670.5973 171.1185 670.2541 170.4831 671.1278 168.6156 672.5007 167.9802 673.7489 167.1331 674.529 168.1535 676.214 167.5374 676.5884 166.5363 678.1486 166.4785 677.9926 164.7843 679.8024 165.8239 679.9896 166.9406 680.1456 167.7492 Z M 678.211 159.4512 678.8351 161.9348 677.1189 161.338 677.1813 162.0696 677.7117 163.4558 676.6508 163.9564 676.5572 162.3776 675.9019 162.2814 675.5587 160.9337 676.838 161.107 676.838 160.2791 675.4651 158.5848 677.5869 158.6233 678.211 159.4512 Z M 674.841 163.6291 674.0609 164.3607 673.312 165.7662 672.6256 166.4208 671.2526 164.8805 671.7207 164.2837 672.2823 163.6676 672.5319 162.3006 673.7801 162.1466 673.3744 163.6483 675.0594 161.5113 674.841 163.6291 Z M 670.1605 160.0673 671.5022 160.7219 672.9064 160.7219 672.844 161.6653 671.8455 162.6087 670.4413 163.2633 670.3477 162.2429 670.5037 161.107 670.1605 160.0673 Z M 662.6716 165.7662 659.7385 167.8647 660.8306 166.3245 662.422 164.9383 663.7637 163.4173 664.9495 161.2032 665.3239 163.013 663.8574 164.2452 662.6716 165.7662 Z M 581.3239 169.7322 580.9807 172.0426 580.0134 172.6779 578.11 173.1978 577.049 171.4265 576.6434 168.2498 577.6419 164.6302 579.1709 165.8624 580.2006 167.4219 581.3239 169.7322 Z M 263.266 162.5509 264.5453 162.2814 265.0134 162.3391 264.9198 164.0141 263.0475 164.2452 262.6731 164.0526 263.2972 163.4558 263.266 162.5509 Z M 669.3804 157.4297 668.7875 159.3742 667.8514 158.2575 666.6969 156.5633 668.6003 156.6403 669.3804 157.4297 Z M 668.9123 145.3966 670.2853 146.032 670.9718 145.4544 671.159 146.0127 670.8158 146.9176 671.5646 148.5348 670.9718 150.3638 669.6612 151.0955 669.318 152.886 669.8172 154.6572 671.003 154.9075 671.9703 154.638 674.7786 155.8702 674.5602 157.0639 675.2779 157.5837 675.0594 158.6233 673.2808 157.5259 672.4695 156.3707 671.9079 157.1794 670.5037 155.8509 668.4755 156.1782 667.3834 155.6776 667.5082 154.7728 668.1947 154.2144 667.5394 153.7139 667.2585 154.5032 666.1352 153.2325 665.8544 152.2506 665.7608 150.1328 666.6345 150.8837 666.8529 147.3989 667.5706 145.3966 668.9123 145.3966 Z M 228.0371 145.4351 229.5349 145.6276 230.7207 146.1667 231.0951 146.7636 229.5349 146.8021 228.8484 147.1679 227.6315 146.8021 226.3522 146.0127 226.633 145.5121 227.5379 145.3581 228.0371 145.4351 Z M 253.0624 145.3774 254.2169 145.5506 254.5914 146.0127 254.0297 146.5518 252.3759 146.5518 251.0654 146.6288 250.9406 145.6854 251.2526 145.3581 253.0624 145.3774 Z M 241.049 142.7205 241.3299 142.3547 243.0461 142.3547 244.3254 142.9322 244.9183 142.8745 245.3239 143.6446 246.5409 143.6061 246.4473 144.2607 247.477 144.3377 248.5691 145.1656 247.7578 146.0512 246.6657 145.5699 245.636 145.6661 244.9183 145.5506 244.5126 145.9549 243.6701 146.109 243.3581 145.5506 242.6404 145.8779 241.7355 147.3989 241.1738 147.0524 241.049 146.417 239.5825 146.032 238.5527 146.186 237.1798 146.032 236.1189 146.4555 234.9331 145.7624 235.1516 145.0308 237.1798 145.3388 238.8648 145.5314 239.6761 145.0308 238.6776 144.0682 238.6776 143.2403 237.2422 142.8937 237.7727 142.2584 239.1456 142.3739 241.049 142.7205 Z M 644.5736 145.0115 642.6701 146.0705 640.8603 145.3966 640.7979 143.4906 641.89 142.4894 644.2927 141.8541 645.5721 141.8926 646.1025 142.759 645.104 143.7216 644.5736 145.0115 Z M 712.5661 192.1619 716.373 193.6828 720.523 194.9728 722.0208 196.1087 723.2689 197.2061 723.6122 198.5153 727.2942 199.9015 727.8247 201.0759 725.7964 201.307 726.2957 202.7894 728.2615 204.2527 729.6969 206.6015 730.9762 206.5245 730.8826 207.5064 732.5676 207.8915 731.9123 208.2958 734.2838 209.2392 734.0342 209.8745 732.5676 210.0285 732.0059 209.4702 730.1025 209.2007 727.8871 208.8541 726.1709 207.4486 724.8915 206.2357 723.737 204.3104 720.8663 203.3285 718.9629 203.9446 717.5899 204.7147 717.9019 206.3127 716.1545 207.0828 714.9064 206.717 712.6597 206.6208 710.6627 204.811 708.3848 204.3682 707.8544 205.0035 705.0461 205.0613 705.9822 203.2515 707.3863 202.6354 706.7935 200.2481 705.7325 198.3613 701.4264 196.4938 699.5854 196.3012 696.3091 194.2797 695.6538 195.3386 694.8113 195.5504 694.2808 194.7225 694.2808 193.7598 692.5958 192.6624 694.9673 191.8538 696.5587 191.9116 696.3715 191.334 693.1263 191.3147 692.2214 190.0055 690.2556 189.582 689.3195 188.4846 692.315 187.9455 693.4695 187.2331 697.0267 188.138 697.3388 188.9659 697.9629 192.5469 700.2407 193.8946 702.1129 191.5265 704.6716 190.1788 706.6374 190.1788 708.5409 190.9682 710.1634 191.7575 712.5661 192.1619 Z M 685.263 183.9024 685.1382 185.8469 684.0149 185.6351 683.6716 186.9828 684.5765 188.138 683.9525 188.4075 683.0788 187.0021 682.3611 184.1719 682.8291 182.4006 683.578 181.592 683.734 182.805 685.0446 182.9782 685.263 183.9024 Z M 689.1947 193.2785 690.0059 194.9728 688.1337 194.0486 686.2927 193.8754 685.0446 194.0101 683.5156 193.9524 684.0461 192.7009 686.7608 192.6239 689.1947 193.2785 Z M 682.049 194.0871 681.2377 194.8188 679.7088 194.4144 679.2719 193.4518 681.5186 193.3363 682.049 194.0871 Z M 677.6181 183.2478 675.8395 185.4619 674.1857 185.8854 672.0327 185.4619 668.3195 185.5774 666.3848 185.8854 666.0728 187.5604 668.0698 189.5242 669.2556 188.5231 673.3744 187.7722 673.2184 188.8119 672.2511 188.4653 671.2838 189.7937 669.318 190.6409 671.4398 193.471 671.0342 194.2604 673 196.8018 673 198.2458 671.8143 198.9196 670.9406 198.111 672.0015 196.3012 669.8484 197.1483 669.2868 196.5515 669.5676 195.7044 667.9762 194.3952 668.1322 192.2389 666.6657 192.9127 666.8529 195.5119 666.9465 198.6693 665.5736 198.9966 664.6374 198.342 665.2615 196.3012 664.9183 194.1642 663.951 194.1449 663.2645 192.6239 664.1694 191.1607 664.5438 189.4279 665.636 186.0587 666.0728 185.1538 667.945 183.5173 669.6924 184.1719 672.4695 184.4607 675.0594 184.3837 677.2437 182.7664 677.6181 183.2478 Z M 634.5572 199.3817 632.1233 199.4394 630.2511 197.5719 627.4116 195.7814 626.4443 194.4337 624.7593 192.6239 623.6672 190.9682 621.9822 187.8492 620.0163 186.0202 619.3923 184.1141 618.581 182.3621 616.5527 180.9759 615.3982 179.0891 613.7444 177.8185 611.4354 175.3926 611.2481 174.2759 612.6523 174.3529 616.0847 174.7765 618.0817 176.9521 619.7667 178.4538 620.9837 179.3972 623.0743 181.746 625.321 181.7846 627.1932 183.3055 628.5037 185.1731 630.1887 186.1742 629.315 187.984 630.5632 188.7733 631.3744 188.8311 631.7489 190.3713 632.4978 191.6035 634.1516 191.796 635.1813 193.2015 634.6508 195.9547 634.5572 199.3817 Z M 661.2987 177.2216 660.0505 179.2432 661.6731 181.3417 661.2987 182.3621 663.7637 184.4222 661.1426 184.6917 660.425 186.1935 660.5186 188.1958 658.3655 189.7167 658.3343 191.9116 657.4606 195.3001 657.1486 194.53 654.5899 195.5311 653.7162 194.1642 652.156 194.0486 651.0327 193.3363 648.4428 194.1256 647.6315 193.0282 646.1649 193.163 644.3239 192.9127 643.9807 189.9478 642.8886 189.3317 641.8276 187.4256 641.5156 185.4811 641.7652 183.4403 643.0758 181.9578 644.6984 182.7279 646.4458 182.3044 646.8826 180.4368 647.8499 180.0325 650.471 179.532 652.0312 177.78 653.1233 176.3745 653.997 175.5659 655.9316 174.3337 657.6166 172.7742 658.74 171.0607 659.6449 171.0607 660.7682 172.1581 660.893 173.1208 662.3284 173.7561 664.1694 174.4299 664.0134 175.2963 662.5468 175.4118 662.9212 176.49 661.2987 177.2216 Z M 105.8128 66.6331 107.9658 66.4405 107.2793 68.9627 109.214 70.7532 108.3403 70.7532 106.9673 69.7328 106.156 68.6931 105.0327 68.0193 104.627 67.0374 104.7519 66.3443 105.8128 66.6331 Z M 3.9019 29.2825 1 29.398 1 27.877 1.2808 27.7808 3.153 27.7808 6.3982 28.4161 6.211 28.7241 3.9019 29.2825 Z M 19.3477 45.0313 20.6895 45.4742 22.0936 45.2239 23.8722 45.8015 26.0565 46.1095 25.9004 46.3598 24.2467 46.8026 22.5305 46.3405 21.688 45.9362 19.7221 46.071 19.1917 45.8592 19.3477 45.0313 Z M 12.0461 38.8127 13.5438 39.371 13.0134 37.7537 19.0669 38.081 23.4042 40.1604 21.1887 41.123 17.5691 41.3733 17.5067 43.5296 16.633 43.9724 14.5111 43.9147 12.8262 43.1446 9.893 42.5092 9.3938 41.5466 7.1783 41.1808 4.6196 41.4696 3.4339 40.6994 3.9019 39.8716 1.2496 40.4106 2.2481 41.431 1 42.3744 1 33.5374 6.4606 35.2509 12.2333 37.4457 12.0461 38.8127 Z M 32.9525 53.6181 31.6107 53.9647 30.1441 53.5411 28.8024 52.9443 30.9866 52.5592 32.734 52.771 32.9525 53.6181 Z M 60.8172 59.7983 58.6018 60.6647 57.4785 60.0678 57.1352 59.0474 59.1322 58.2388 60.318 57.9115 61.8158 58.0655 62.7519 58.7586 60.8172 59.7983 Z M 224.2927 48.6316 223.419 49.7868 222.4517 49.5943 221.8588 48.9397 221.9837 48.7857 222.8262 48.1118 223.7311 48.1696 224.2927 48.6316 Z M 437.8187 59.2015 438.1308 59.3362 436.4146 61.8969 436.2585 61.0497 437.8187 59.2015 Z M 442.9361 57.9308 441.6568 58.6239 441.7192 59.0859 442.1248 59.0859 442.0312 59.24 441.4383 59.394 441.4695 59.6058 440.9079 59.7598 440.5958 60.2411 440.1278 60.3181 440.315 59.8176 440.0654 59.4517 440.2214 59.1822 440.0966 58.8357 441.3447 58.0078 442.2184 57.9693 442.3744 57.8538 442.9673 57.8538 442.9361 57.9308 Z M 799 29.398 796.5661 29.5328 796.1917 28.8012 799 27.877 799 29.398 Z M 218.4577 47.3994 215.8366 48.6316 214.2764 48.5739 213.8083 47.977 215.4621 46.9566 218.4889 46.9759 218.4577 47.3994 Z M 446.2125 44.9351 446.7117 44.9351 446.4933 45.1854 446.1813 45.4742 445.9004 45.4742 446.1501 45.1854 446.1189 45.0506 446.2125 44.9351 Z M 211.2496 40.8727 211.6553 41.8546 212.7474 41.5081 214.0579 42.0856 216.4606 42.8558 219.0193 43.5489 219.2377 44.5693 220.8603 44.4152 222.4517 45.1661 220.4859 45.8592 216.9911 45.3201 215.7741 44.319 213.5587 45.4934 210.4383 46.6486 209.6582 45.3586 206.6627 45.5704 208.5661 44.473 208.8782 42.721 209.627 40.6994 211.2496 40.8727 Z M 367.8603 39.1015 367.3299 40.5454 369.8262 42.0471 366.9554 43.7414 360.5587 45.2624 358.6553 45.6667 355.7221 45.3394 349.575 44.627 351.7281 43.6451 346.8915 42.567 350.8544 42.1434 350.7608 41.4888 346.0802 40.9882 347.578 39.525 350.948 39.1977 354.3804 40.7187 357.7504 39.4865 360.5587 40.1219 364.1783 38.9282 367.8603 39.1015 Z M 231.8128 37.5612 229.3477 37.6767 228.786 36.5986 229.7221 35.3471 231.7504 35.0391 233.4978 35.6744 233.529 36.6178 233.2793 36.9259 231.8128 37.5612 Z M 187.9718 33.2101 186.5988 33.9994 183.6033 33.3256 181.7935 33.5566 178.7979 32.5747 180.7325 31.8816 182.2927 30.919 184.633 31.5543 185.9747 31.9586 186.63 32.3822 187.9718 33.2101 Z M 208.1293 24.2575 209.9079 25.6244 211.9361 23.8339 217.5215 22.929 221.3596 25.2201 221.0163 26.6833 225.3848 26.0287 227.4755 25.1624 232.4056 26.279 235.4636 27.3379 235.7444 28.3006 239.8945 27.7808 242.1724 29.2055 247.5394 30.0911 249.4428 30.9767 251.5646 33.056 247.477 34.0764 252.688 35.5397 256.2452 36.021 259.3967 38.0425 262.8915 38.1966 262.2051 39.7753 258.3358 42.3167 255.5899 41.3733 252.0951 39.2362 249.2244 39.525 248.9435 40.7957 251.2838 42.0856 254.2793 43.1061 255.2155 43.6836 256.682 45.8977 255.8707 47.4765 253.0936 46.8796 247.5394 45.1276 250.6597 47.0336 252.9688 48.3428 253.3432 49.1322 247.321 48.2466 242.578 46.9566 239.8945 45.8785 240.6746 45.2624 237.3358 44.1072 234.1218 43.029 234.153 43.6836 227.7563 44.0302 225.8841 43.2601 227.3195 41.6621 231.5007 41.6043 236.0565 41.3348 235.3076 40.5262 236.0877 39.4288 238.9896 37.2532 238.3655 36.2905 237.4918 35.5397 234.0906 34.4615 229.5973 33.6914 231.0327 33.1331 228.6924 31.7661 226.7266 31.6313 224.9792 30.8805 223.7935 31.5351 219.7994 31.8239 211.7177 31.3233 207.0059 30.6687 203.4175 30.3414 201.5765 29.5713 203.8856 28.5316 200.7652 28.5316 200.0163 26.2983 201.7637 24.3152 204.0416 23.3911 209.7519 22.8135 208.1293 24.2575 Z M 146.9391 24.3345 145.847 25.3741 150.7459 24.7003 153.8039 25.817 156.3626 24.681 158.3596 25.4127 160.1694 27.5882 161.2927 26.6641 159.7325 24.4115 161.6672 24.065 163.9138 24.4308 166.3477 25.3164 167.7519 27.4727 168.4383 29.0322 172.1516 30.1489 176.1768 31.2078 175.9272 32.1704 172.2764 32.3437 173.7117 33.1908 172.9629 33.9994 168.9376 33.6529 165.162 33.056 162.5409 33.1908 158.3908 33.9417 152.7429 34.269 148.8425 34.5 147.6256 33.4411 144.5988 32.825 142.633 33.0946 139.8871 31.3425 141.3536 31.1115 144.786 30.7264 147.9376 30.8227 150.8083 30.4377 146.5334 29.9371 141.7905 30.0911 138.6389 30.0526 137.4844 29.2247 142.6018 28.3391 139.2006 28.3776 135.3001 27.7808 137.1724 26.1443 138.7325 25.2394 144.6612 23.8917 146.9391 24.3345 Z M 193.4324 25.1046 191.0297 26.7604 188.5022 26.6833 187.1293 24.7388 187.1605 23.6221 188.315 22.6787 190.4993 22.0627 195.1486 22.1589 199.3611 22.6787 196.0847 24.681 193.4324 25.1046 Z M 177.5498 22.7172 180.2021 23.1793 184.1337 22.9098 184.7266 23.5451 182.636 24.6233 186.0059 25.5667 185.6003 27.569 181.9807 28.4161 179.8276 28.2428 178.2987 27.3957 172.8068 25.6822 172.838 24.9698 177.3626 25.2394 174.9287 23.7954 177.5498 22.7172 Z M 168.3447 23.6414 166.4101 25.1431 162.9465 23.5836 163.7266 23.2756 166.6597 23.1793 168.3447 23.6414 Z M 230.7831 24.373 230.9703 24.9891 228.63 24.9121 226.2273 24.8928 223.8247 25.1816 223.1694 25.0468 220.7355 23.8532 220.8291 23.0445 221.89 22.9098 226.945 23.1408 230.7831 24.373 Z M 734.1278 19.9833 731.5691 20.8497 728.0119 20.6572 723.893 19.7908 724.4235 19.0785 728.5736 19.4058 734.1278 19.9833 Z M 718.3076 24.142 714.9376 24.1612 710.4131 23.8917 710.0386 23.7762 712.1605 22.8905 714.9064 22.6787 718.0267 23.5451 718.3076 24.142 Z M 132.9911 28.1658 127.156 29.244 125.9703 28.2813 120.8529 27.1069 121.789 26.1635 123.318 24.5655 125.2526 23.0831 123.0996 21.7354 130.5884 21.3888 133.7712 21.8316 139.419 21.9664 141.5721 22.621 143.9435 23.5451 141.1664 24.0842 135.737 25.6629 132.9911 27.2032 132.9911 28.1658 Z M 721.6152 18.9052 719.8366 20.5609 711.7236 20.5032 708.0104 21.023 703.6419 19.579 704.8276 18.0581 707.7296 17.6345 713.5958 17.7308 721.6152 18.9052 Z M 192.4963 20.2144 191.3105 21.0808 188.0654 20.9075 185.3819 20.3299 186.5676 19.3287 189.7504 18.7127 191.7162 19.5213 192.4963 20.2144 Z M 127.6865 17.673 131.4309 16.0365 135.9866 14.5925 139.3878 14.631 142.4146 14.3037 142.1025 16.0172 140.4175 16.7681 138.3581 16.8836 134.208 17.827 130.682 18.1736 127.6865 17.673 Z M 296.3418 3.2526 303.7994 1.9241 311.5379 2.0397 314.4086 1.2118 322.2095 1 339.9331 1.2695 353.7875 3.0408 349.7311 3.9072 341.2125 4.0034 329.2615 4.2152 330.3848 4.6195 338.2169 4.35 344.9257 5.1201 349.263 4.4463 351.104 5.2549 348.6389 6.5256 354.2556 5.6977 365.052 4.8506 371.6984 5.2741 372.9153 6.2175 363.8975 7.7963 362.6493 8.2968 355.5349 8.6819 360.7147 8.7974 358.0936 10.4147 356.315 11.8586 356.3774 14.323 359.0609 15.7477 355.5661 15.8632 351.9777 16.5563 356.003 17.7308 356.5334 19.6175 354.162 19.8293 357.0327 21.7354 352.1649 21.8894 354.6924 22.775 353.9747 23.5644 350.8856 23.9109 347.7652 23.9109 350.5736 25.4319 350.6048 26.4138 346.1738 25.5089 345.0505 26.0865 348.0149 26.6448 350.948 27.9925 351.7905 29.7831 347.8276 30.2066 346.1114 29.3402 343.3655 28.0696 344.1456 29.5905 341.5557 30.7457 347.3908 30.842 350.4799 30.9575 344.5201 32.8828 338.4666 34.654 332.0074 35.4049 329.5423 35.4049 327.2645 36.2713 324.1753 38.6009 319.4324 40.1604 317.9034 40.2566 314.9391 40.7957 311.7251 41.3155 309.8217 42.6825 309.7905 44.2227 308.6984 45.7052 305.11 47.4572 305.9837 49.19 305.0163 51.0382 303.8618 53.1946 300.7103 53.3293 297.4339 51.5196 293.003 51.5003 290.8499 50.3066 289.3834 48.1311 285.5765 45.3779 284.4532 43.9147 284.1412 41.9509 281.052 39.8908 281.8321 38.2543 280.3655 37.4842 282.5498 34.9043 285.9198 34.0572 286.7935 33.1331 287.2615 31.4003 284.734 32.1897 283.4859 32.517 281.4889 32.825 278.7741 32.1127 278.6181 30.6109 279.4918 29.4365 281.5513 29.398 286.107 29.9756 282.2689 28.5701 280.2719 27.8 278.0877 28.1081 276.2155 27.569 278.7117 25.5282 277.37 24.7003 275.5914 23.1408 272.9391 20.792 270.1308 19.9448 270.1308 19.0207 264.1709 17.7115 259.4591 17.5575 253.5617 17.6345 248.1634 17.8078 245.5423 17.0954 241.7355 15.7285 247.5394 15.0161 252.0015 14.9006 242.5468 14.323 237.523 13.4181 237.8351 12.5517 246.1976 11.4928 254.3418 10.4147 255.1842 9.6253 249.2244 8.8167 251.159 7.931 258.8351 6.3908 262.0178 6.1598 261.1129 5.1586 266.3863 4.581 273.1887 4.2345 279.9911 4.2152 282.425 4.9083 288.3224 3.6954 293.5958 4.504 296.7162 4.6773 301.3031 5.4089 296.0297 4.2152 296.3418 3.2526 Z M 191.997 14.5733 190.9673 14.6503 186.8172 14.4963 186.2244 13.8802 190.6865 13.9187 192.2779 14.3422 191.997 14.5733 Z M 155.7697 14.1882 151.5884 14.8236 148.3432 14.1305 150.1218 13.3989 153.3358 13.1678 156.4874 13.5144 155.7697 14.1882 Z M 527.529 29.6483 526.2184 29.8601 518.9792 29.5713 518.4175 28.5701 514.3611 27.9733 514.049 26.7796 516.3269 26.2983 516.2645 25.1046 520.6642 23.1986 518.6048 22.929 523.9094 20.9845 523.3165 19.9833 528.2779 18.8089 535.6107 17.3842 542.9435 16.9799 546.7816 16.152 551.0877 15.8632 552.6166 16.7296 551.1189 17.4227 543.2556 18.5201 536.5156 19.579 529.6196 21.6968 526.312 23.8532 522.8484 25.9902 523.2853 27.8193 527.529 29.6483 Z M 160.1382 17.4997 161.0119 18.2698 162.9777 17.9233 165.318 18.0003 165.6924 19.117 164.3507 20.1566 156.8306 20.4839 151.214 21.4466 147.8752 21.5043 147.5944 20.792 152.1813 19.8101 142.1649 20.0796 139.0758 19.6753 142.1025 17.4997 144.162 16.8836 150.4027 17.6152 154.3655 18.9244 158.2348 19.1362 155.0832 16.9799 157.1114 16.1905 159.3893 16.4408 160.1382 17.4997 Z M 190.0936 15.5167 192.5899 16.229 196.9272 16.229 198.8306 16.9606 198.3314 17.7693 200.89 18.2698 202.2942 18.8089 205.2897 18.8859 208.5349 19.0977 212.0609 18.5971 216.5542 18.4239 220.1738 18.5779 222.5453 19.425 223.0446 20.3491 221.6716 20.9267 218.3328 21.4081 215.4933 21.1193 209.159 21.4658 204.6033 21.5043 201.0149 21.2348 195.1486 20.5224 194.3685 19.3095 194.1189 18.2121 191.9034 17.2494 187.2853 16.9799 184.7266 16.2868 185.5379 15.3819 190.0936 15.5167 Z M 181.6374 16.3638 183.3536 17.3649 183.416 18.5201 182.4175 20.1566 178.7667 20.4069 176.3952 20.0411 176.4264 18.7319 172.8068 18.9052 172.6196 17.1917 175.0535 17.2687 178.3923 16.5178 181.4502 16.6526 181.6374 16.3638 Z M 156.9242 12.1859 154.2095 12.6095 150.5275 12.5902 150.5587 12.2822 152.8366 11.6276 154.0223 11.7239 156.9242 12.1859 Z M 632.9346 12.8405 620.422 13.6876 624.4473 10.7805 626.2883 10.5302 627.9733 10.6649 633.5899 11.9164 632.9346 12.8405 Z M 621.5141 11.5698 616.7088 11.8394 610.5305 11.204 606.8172 10.3376 605.1322 8.7589 602.1367 8.3161 607.847 6.8144 612.6835 6.2945 616.9896 7.4305 622.0758 9.5675 621.5141 11.5698 Z M 513.3314 7.854 510.367 8.1428 508.4012 8.3161 508.0892 8.6819 505.4681 9.067 503.0654 8.5279 504.3447 7.8348 499.4146 7.777 503.7519 7.3727 507.1218 7.3342 507.5899 7.931 508.8692 7.4112 510.8975 7.0454 514.2051 7.5075 513.3314 7.854 Z M 178.2051 12.802 179.0788 13.7069 175.4591 13.4759 171.7771 12.7443 166.847 12.6672 169 12.0126 166.3165 11.4736 166.1605 10.6457 170.4978 10.9345 176.5201 11.7431 178.2051 12.802 Z M 454.7935 13.8224 449.8321 14.7658 445.9629 14.2267 447.4606 13.6491 446.1501 12.9368 450.7058 12.5132 451.6107 13.3218 454.7935 13.8224 Z M 187.5661 13.3796 184.2897 13.8224 182.4799 13.3218 181.5126 12.494 181.3254 11.5891 184.2273 11.6661 185.5379 11.8201 188.159 12.571 187.5661 13.3796 Z M 440.4398 9.7408 447.7415 11.3966 442.1872 12.2629 440.9391 13.8994 439.0045 14.323 437.9435 16.152 435.26 16.2483 430.5171 14.8813 432.5141 14.1112 429.2065 13.4566 424.9004 11.5891 423.1218 9.8563 429.2065 9.067 430.4235 9.8371 433.575 9.7986 434.4175 9.067 437.6627 8.9707 440.4398 9.7408 Z M 248.1634 2.1937 254.0921 2.367 258.8663 2.6557 262.8915 3.2526 262.7979 3.8494 257.4309 4.8121 252.0327 5.2741 250.0357 5.7555 254.841 5.7362 249.63 7.0839 245.9792 7.7193 242.2348 9.529 237.679 9.8948 236.2125 10.3376 229.5349 10.5879 232.5617 10.8575 231.0327 11.2618 232.8737 12.3399 230.7831 13.1101 227.3507 13.7262 226.2897 14.6118 223.2006 15.2664 223.5126 15.767 227.2883 15.6899 227.3507 16.229 221.422 17.5575 215.6181 16.9414 209.1278 17.2879 205.8202 16.9991 201.6389 16.9029 201.3581 15.844 205.4458 15.3434 204.3536 13.7262 205.6954 13.5721 211.6553 14.5348 208.5973 13.1101 205.0089 12.6865 206.8187 11.8394 210.7816 11.3003 211.4056 10.5302 208.2541 9.683 207.2868 8.5086 213.3403 8.6049 215.0877 8.8552 218.5513 8.0466 213.5587 7.7963 205.8202 7.931 201.9198 7.1802 200.0475 6.2753 197.4577 5.6399 196.9584 4.8891 200.266 4.4655 202.8559 4.3885 207.2244 4.0227 210.5007 3.1948 213.2155 3.3103 215.6181 3.9457 217.2719 2.7328 220.2363 2.3862 224.1991 2.1359 230.9703 2.0589 232.156 2.2899 238.584 1.9049 243.3581 2.0589 248.1634 2.1937 Z M 207.0996 9.8371 209.8143 10.5494 206.7251 11.2233 202.6374 12.879 198.7058 13.0331 194.1501 12.7443 191.7474 11.8586 191.8098 11.0308 193.5572 10.4532 189.4695 10.4724 187.0357 9.7408 185.6315 8.7397 187.1605 7.7385 188.6895 7.0647 190.9673 6.9106 190 6.4101 195.1798 6.2945 197.9569 7.4882 201.7325 7.9503 205.3522 8.3739 207.0996 9.8371 Z M 456.416 8.1621 460.7845 8.9707 457.477 10.1451 451.0178 10.4147 444.5275 10.0296 444.1218 9.4328 440.9079 9.3943 438.5052 8.3739 445.37 7.7578 448.5527 8.2776 450.7682 7.623 456.416 8.1621 Z M 718.9941 88.5043 720.5854 88.9664 722.1456 88.023 722.6449 90.5066 719.3061 91.1227 717.3715 93.3176 713.9079 91.8158 712.7221 94.2417 710.2259 94.261 709.9138 92.0661 711.0371 90.3526 713.3774 90.2178 714.0327 87.1759 714.688 85.4239 717.2779 87.7535 718.9941 88.5043 Z M 258.8975 83.2291 260.4577 83.5178 262.5171 83.4793 261.425 84.3842 260.6137 84.4997 257.8366 83.5756 257.2749 82.844 258.1174 82.1509 258.8975 83.2291 Z M 275.5602 74.0454 274.0936 76.0092 275.5602 75.2391 277.0267 75.7397 276.2467 76.5098 278.2125 77.1066 279.2422 76.5676 281.4577 77.2414 280.7712 78.8586 282.3001 78.4736 282.6122 79.6673 283.2987 81.0535 282.3626 82.998 281.364 83.075 279.8975 82.6515 280.3655 80.8609 279.7727 80.5529 277.1828 82.4974 275.8722 82.4204 277.4324 81.3615 275.3105 80.8417 272.9391 80.9572 268.633 80.8995 268.2897 80.2256 269.6627 79.4555 268.7266 78.8394 270.5676 77.5109 272.8455 73.9684 274.2184 72.717 276.153 71.9661 277.1828 72.0624 276.7459 72.6592 275.5602 74.0454 Z M 421.1872 92.971 420.4383 94.6845 419.4398 94.2417 418.9406 92.74 419.3774 91.9314 420.8128 91.065 421.1872 92.971 Z M 718.4012 73.9299 720.679 77.8382 717.3403 77.1259 715.9985 80.3026 718.1516 82.5937 718.0892 84.1339 716.4042 82.8055 714.9688 84.519 714.5632 82.6515 714.8128 80.4951 714.5319 78.1078 715.0624 76.452 715.156 73.4678 713.8455 71.2923 714.0639 68.2696 716.0921 67.2492 715.2184 66.2288 716.2169 65.9015 716.7786 67.3647 717.5587 69.5017 717.4963 71.6966 718.4012 73.9299 Z M 262.9851 77.5687 261.893 77.6072 259.0535 76.9141 256.9941 75.8745 257.7741 75.6819 260.6449 76.221 262.9227 77.1451 262.9851 77.5687 Z M 126.1887 78.8779 125.0966 79.1859 121.4458 78.1848 120.7905 77.4147 118.8247 76.6253 118.419 75.99 116.1412 75.5857 115.2675 74.3727 115.4859 73.8722 117.8262 74.3535 119.1679 74.6808 121.2273 74.9311 121.9762 75.7012 123.0684 76.7601 125.2838 77.665 126.1887 78.8779 Z M 386.2704 67.0181 386.6449 68.5969 384.9287 70.5799 381.0282 71.8891 377.9079 71.5426 379.6865 69.2322 378.5319 66.9796 381.5587 65.2276 383.2125 64.188 385.0535 64.1109 387.4562 65.4779 386.2704 67.0181 Z M 392.4175 72.4089 388.9539 72.0624 388.3299 71.1575 390.6389 70.4836 389.422 69.2707 389.8588 67.8267 393.1352 68.0193 393.4785 66.7486 391.9807 65.4009 391.9495 65.3624 389.266 64.9581 388.7355 64.3612 389.5468 63.3601 388.7979 62.7632 387.6122 63.8029 387.4874 61.6658 386.364 60.5492 387.1753 58.2388 388.8915 56.4483 390.6701 56.6216 393.3224 56.4483 390.951 58.8357 393.2288 58.5276 395.6939 58.5276 395.0698 60.3566 393.0728 62.3397 395.4131 62.4744 395.5691 62.7055 397.5349 65.3431 399.0639 65.6897 400.4056 68.2118 401.0297 69.0782 403.7132 69.5017 403.4324 70.9265 402.3091 71.5811 403.1828 72.717 401.2169 73.8914 398.2838 73.8529 394.477 74.469 393.4473 74.0262 391.9807 75.0658 389.9212 74.8155 388.3611 75.6819 387.2065 75.2199 390.4517 72.9095 392.4175 72.4089 Z M 428.1456 63.1483 426.8039 64.9388 424.4948 63.6874 424.1828 62.7632 427.4279 62.0316 428.1456 63.1483 Z M 46.7756 137.6955 46.526 137.9265 45.7771 137.5222 45.9019 137.3489 46.214 137.1179 46.7444 137.1564 46.7756 137.6955 Z M 50.5201 139.1587 50.4264 139.2742 50.2392 139.2357 49.4903 139.1779 49.2095 138.6774 49.1159 138.5811 49.7088 138.273 49.896 138.4271 50.5201 139.1587 Z M 52.5483 139.486 52.4859 139.717 51.2689 139.64 51.425 139.3705 52.5483 139.486 Z M 54.0461 140.6604 53.2972 140.7952 52.9227 140.3524 52.6731 140.1598 52.6419 140.0251 52.8603 139.8325 53.6404 140.0443 54.2333 140.3909 54.0461 140.6604 Z M 698.4309 110.7029 698.7117 111.473 697.4636 112.8207 696.5899 112.1084 695.4666 112.6282 694.8737 113.9181 693.4383 113.2828 693.4383 112.2431 694.6553 110.9147 695.9346 111.165 696.8395 110.2408 698.4309 110.7029 Z M 432.2645 106.9486 432.1709 107.0256 431.9837 107.0064 431.7964 106.9101 431.7964 106.6598 431.9837 106.7176 432.2021 106.8716 432.2645 106.9486 Z M 431.7028 106.5635 431.578 106.5828 431.422 106.525 431.3908 106.4865 431.578 106.448 431.6716 106.4865 431.7028 106.5443 431.7028 106.5635 Z M 228.0996 133.7486 227.6003 133.8449 227.0386 132.5742 226.1961 131.9196 226.6954 130.5334 227.3507 130.6296 228.0996 132.4779 228.0996 133.7486 Z M 229.3165 127.4722 228.9421 129.0509 228.5364 128.7621 228.5676 127.6069 227.5691 126.7213 227.5691 126.471 229.3165 127.4722 Z M 227.5067 127.4914 225.0728 127.8572 224.948 127.0486 225.9777 126.8561 227.4443 126.8946 227.5067 127.4914 Z M 256.5884 114.6883 256.5884 114.7268 256.6196 114.746 256.6508 114.7268 256.682 114.7075 256.682 114.6883 256.7132 114.7075 256.6508 114.746 256.6196 114.7653 256.5884 114.7845 256.5572 114.7845 256.526 114.823 256.4948 114.823 256.4636 114.8423 256.4324 114.8615 256.4012 114.8808 256.37 114.9 256.3388 114.9193 256.3076 114.9193 256.2764 114.9193 256.2452 114.9193 256.214 114.9 256.1516 114.8423 256.214 114.823 256.214 114.8038 256.2452 114.8038 256.2452 114.823 256.2764 114.823 256.2452 114.823 256.214 114.8423 256.214 114.8615 256.2452 114.8615 256.2452 114.9 256.3076 114.9 256.3076 114.8808 256.3388 114.8808 256.37 114.8615 256.4012 114.8423 256.4324 114.8423 256.4012 114.823 256.37 114.823 256.3388 114.8038 256.37 114.8038 256.4012 114.823 256.4012 114.8038 256.4324 114.8038 256.4636 114.8038 256.4948 114.7845 256.526 114.7653 256.526 114.746 256.526 114.7268 256.5572 114.7075 256.5572 114.6883 256.5884 114.6883 Z M 256.2764 114.7653 256.2764 114.8038 256.2452 114.8038 256.2764 114.7845 256.2764 114.7653 Z M 256.2764 114.7653 256.3076 114.746 256.3076 114.7653 256.2764 114.7653 Z M 256.5884 114.6883 256.5884 114.669 256.5884 114.6498 256.6196 114.6498 256.6508 114.6305 256.682 114.6112 256.682 114.6498 256.7132 114.6498 256.7132 114.669 256.682 114.6883 256.6508 114.669 256.6508 114.6883 256.6196 114.669 256.6196 114.6883 256.5884 114.6883 Z M 452.5468 107.2759 453.7637 108.0268 455.4799 107.892 457.1337 108.046 457.0713 108.4311 458.2883 108.1615 458.0074 108.8161 454.8247 109.0087 454.8247 108.6429 452.1412 108.2 452.5468 107.2759 Z M 475.3254 108.7006 475.3878 108.8739 473.11 109.7595 472.0178 109.49 471.5186 108.6044 472.5795 108.5081 472.7355 108.5081 473.0475 107.969 474.6389 108.0075 476.636 107.3529 475.1382 108.2771 475.3254 108.7006 Z M 669.9421 132.3432 668.6003 135.8857 667.633 137.7147 666.4785 135.8279 666.2288 134.1914 667.5394 132.0159 669.318 130.3216 670.3165 130.9955 669.9421 132.3432 Z M 217.6152 135.0193 219.581 135.1733 221.2972 135.1926 223.3878 135.9434 224.2615 136.7521 226.321 136.5018 227.1322 137.0216 229.0045 138.4078 230.3774 139.409 231.0951 139.3705 232.4056 139.8325 232.2496 140.4486 233.9034 140.5256 235.5572 141.4305 235.3076 141.9696 233.841 142.2391 232.3432 142.3547 230.8143 142.1814 227.6315 142.3932 229.1293 141.161 228.1932 140.5834 226.789 140.4486 226.0401 139.8133 225.5097 138.5426 224.2615 138.6196 222.2021 138.042 221.5156 137.5799 218.6137 137.2334 217.8336 136.7713 218.6761 136.2322 216.4918 136.1167 214.9004 137.2911 213.9955 137.3104 213.6835 137.8495 212.5914 138.0998 211.6553 137.888 212.8098 137.2141 213.2779 136.3863 214.2764 135.9049 215.3997 135.4621 217.0847 135.2503 217.6152 135.0193 Z M 281.6761 261.2797 280.7088 262.6659 278.2125 263.8981 276.5899 263.4553 275.373 263.6863 273.3447 262.7237 271.847 262.8007 270.5052 261.5877 270.3492 262.7237 273.1575 264.6297 272.8455 266.1699 274.2184 267.1326 274.1248 268.2107 272.003 271.0602 268.6954 272.2346 264.2333 272.7159 261.7994 272.4849 262.2675 273.7941 261.8306 275.4498 262.2363 276.605 260.8945 277.3559 258.679 277.6639 256.526 276.8745 255.6523 277.4521 255.9643 279.6469 257.4933 280.3015 258.7103 279.6084 259.3343 280.7444 257.3061 281.4567 255.4963 282.8429 255.1842 285.057 254.6538 286.2507 252.5632 286.2699 250.847 287.3866 250.1917 289.0423 252.3759 290.6596 254.4978 291.1217 253.7177 293.1047 251.1278 294.3561 249.6924 296.9553 247.6642 297.8217 246.7281 298.8613 247.477 301.1717 248.9435 302.4616 248.0074 302.3461 246.0104 302.3268 244.9495 302.8659 242.9837 303.6745 242.6092 305.7346 241.6731 305.7924 239.1768 305.08 236.6181 303.5205 233.8722 302.2691 233.1545 300.8636 233.8098 299.5544 232.6865 298.0912 232.4056 294.3176 233.3418 292.1806 235.682 290.4671 232.312 289.8125 234.4339 287.8679 235.1828 284.1906 237.679 284.9415 238.8336 280.3593 237.3046 279.7625 236.6181 282.5541 235.214 282.2461 235.9316 279.0694 236.6805 274.9492 237.7103 273.4283 237.055 271.2719 236.8678 268.7691 237.8351 268.6921 239.1768 265.1303 240.737 261.5877 241.6731 258.2762 241.1426 254.9455 241.7979 253.1357 241.5483 250.4018 242.8276 247.6872 243.2333 243.3938 243.9198 238.7923 244.6062 233.8443 244.4502 230.2055 243.9822 227.0866 241.7979 225.8159 241.6107 224.911 237.1798 222.6777 233.2169 220.2518 231.5007 218.8849 230.5958 217.0558 230.9703 216.4205 229.0669 213.5133 226.9138 209.4317 224.792 205.0228 223.8871 203.9831 223.2006 202.3659 221.4844 200.9219 219.893 200.017 220.6107 199.0351 219.5498 196.8981 220.2363 195.3578 222.0149 193.9716 223.1694 192.2966 222.7013 191.334 221.8588 192.3736 220.5483 191.3917 220.9851 190.7756 220.6107 188.7733 221.3908 188.4075 221.7964 187.0406 222.6389 185.6159 222.4829 184.711 223.6999 184.2297 225.1976 183.344 224.9168 182.6509 225.7281 182.4969 225.6345 181.3802 226.1649 180.5909 227.2571 180.4368 228.162 179.0506 229.0357 177.857 228.1932 177.3564 228.63 176.0664 228.0996 174.0449 228.5988 173.4673 228.2244 171.5805 227.3507 170.4061 226.633 169.7708 226.1649 168.5771 226.6954 167.9802 226.1337 167.807 225.7281 167.0753 224.636 166.4593 223.6686 166.6133 223.2006 167.3641 222.2957 167.9417 221.8276 167.9995 221.6092 168.4808 222.6701 169.6745 222.0773 169.9633 221.734 170.2906 220.7043 170.4061 220.3299 169.0969 220.049 169.4627 219.3001 169.3279 218.8321 168.4423 217.9272 168.3075 217.3655 168.038 216.3982 168.038 216.3358 168.5193 216.0862 168.192 214.8692 167.6914 214.4324 167.2101 214.682 166.8251 214.5884 166.3437 213.9955 165.8047 213.1218 165.3811 212.3418 165.1116 212.2481 164.457 211.6553 164.0526 211.8113 164.7072 211.3744 165.2271 210.844 164.611 210.1575 164.3992 209.8455 163.9564 209.8455 163.2633 210.1575 162.5702 209.5022 162.2621 210.0327 161.8193 209.2214 161.1262 208.1917 160.2406 207.7236 159.4897 206.7875 158.8159 205.6642 157.8147 205.9138 157.4489 206.2883 157.7955 206.4443 157.6222 206.0698 156.9291 205.3834 156.7366 205.1337 157.2564 203.8544 157.2371 203.0743 157.0061 202.1382 156.5825 200.9212 156.4285 200.266 155.9664 199.1426 155.5814 197.7385 155.5429 196.74 155.1001 195.5854 154.1952 193.0579 151.8078 191.9346 151.0762 190.0936 150.4986 188.8455 150.6526 187.0669 151.4998 185.9747 151.7116 184.3834 151.134 182.7296 150.7104 180.6701 149.69 179.0163 149.382 176.4889 148.3615 174.6478 147.2834 174.0862 146.7058 172.8692 146.5518 170.5602 145.8587 169.6241 144.8575 167.2526 143.6061 166.1605 142.1814 165.63 141.1032 166.3477 140.8914 166.1293 140.2561 166.6285 139.6978 166.6597 138.9276 165.9108 137.9265 165.6924 137.0409 165.0059 135.9242 163.0089 133.7294 160.7935 131.9773 159.7013 130.6104 157.7979 129.7055 157.3923 129.1664 157.7355 127.7995 156.6122 127.2796 155.3016 126.2015 154.74 124.642 153.523 124.4687 152.2437 123.3136 151.214 122.2354 151.1204 121.523 149.9346 119.8673 149.1545 118.173 149.2169 117.3259 147.5944 116.421 146.8767 116.5173 145.5973 115.9204 145.2541 116.8253 145.5973 117.9035 145.8158 119.5592 146.5958 120.4641 148.2184 122.0044 148.5929 122.5242 148.9361 122.6782 149.2169 123.4291 149.6226 123.4098 150.0282 124.8345 150.7147 125.3929 151.1828 126.1822 152.5557 127.3182 153.3046 129.3782 153.9599 130.3409 154.6152 131.3805 154.7088 132.5549 155.8009 132.6319 156.6746 133.6331 157.4859 134.615 157.4235 135.0193 156.4874 135.8279 156.1129 135.8087 155.5201 134.461 154.0535 133.2095 152.4309 132.1506 151.3076 131.573 151.37 129.9558 151.0579 128.7429 149.997 128.069 148.4993 127.0871 148.2184 127.3759 147.6568 126.7791 146.2838 126.24 144.9733 124.95 145.1293 124.796 146.0654 124.9308 146.8767 124.0837 146.9703 123.0825 145.2541 121.5038 143.9123 120.8877 143.101 119.5207 142.2897 118.0575 141.26 116.2863 140.3551 114.284 139.9807 113.1673 138.5453 111.8966 137.5156 111.6463 137.2972 110.9917 136.049 110.8762 135.2065 110.2794 133.1783 110.0676 132.6166 109.7018 132.367 108.4888 130.214 106.2555 128.373 103.175 128.4354 102.6745 127.4681 101.9236 125.7207 100.0561 125.4086 98.2656 124.2229 97.0719 124.7221 95.2043 124.6597 93.2983 123.9421 91.6233 124.8158 89.5055 125.0654 87.5224 125.3462 85.5009 124.9406 82.5167 124.2541 80.6299 123.5988 79.6095 123.8796 79.1667 127.0936 79.9176 128.2793 82.0161 128.8098 81.4385 128.4666 79.6095 127.7177 77.7805 127.4368 77.7805 123.0996 75.6242 121.5082 74.6423 117.5453 73.7374 116.266 71.7736 116.6092 70.4259 113.7697 69.4632 113.364 67.6727 110.7117 66.0747 110.6493 64.9196 109.4324 64.0917 107.4666 63.3986 106.8113 61.4733 103.9718 59.6635 102.786 57.565 100.6954 57.4302 97.1382 57.3724 94.5483 56.7371 89.9614 54.4267 87.8083 54.0224 83.9703 53.2138 80.9123 53.4063 76.5126 52.4052 73.8915 51.4618 71.4264 51.9239 71.8945 53.4448 70.7088 53.5989 68.1189 54.0609 66.153 54.8118 63.688 55.2931 63.3759 53.9839 64.3744 51.8084 66.7459 51.1345 66.1218 50.5569 63.3135 51.8084 61.7845 53.2716 58.5706 54.8503 60.1932 55.9285 58.1025 57.5072 55.7623 58.4506 53.5468 59.1052 52.9851 60.0871 49.4903 61.2615 48.8039 62.2819 46.214 63.2253 44.685 63.0713 42.5944 63.6874 40.3477 64.4382 38.5379 65.1699 34.7311 65.8244 34.3878 65.4394 36.8217 64.3997 38.9747 63.7259 41.315 62.513 44.0921 62.2627 45.1842 61.3578 48.2422 60.0293 48.7415 59.5673 50.364 58.7779 50.7697 57.1221 51.893 55.813 49.3343 56.4868 48.6166 56.1017 47.4309 56.9104 45.9643 55.7937 45.3715 56.5638 44.5602 55.4857 42.3135 56.352 40.9406 56.352 40.7533 55.0428 41.159 54.215 39.7548 53.4256 36.8841 53.8492 35.0119 52.8095 33.5141 52.2897 33.4517 51.0382 31.7667 50.0948 32.6092 48.8049 34.4502 47.5727 35.2303 46.4368 37.0401 46.2828 38.5379 46.6293 40.2853 45.5704 41.9079 45.7629 43.6241 45.0698 43.2184 44.0494 41.9391 43.6451 43.6241 42.798 42.2199 42.8173 39.9108 43.2986 39.2244 43.7992 37.477 43.2986 34.3566 43.5681 31.0802 43.0098 30.1441 42.1242 27.3358 40.8535 30.4562 39.9293 35.4175 38.8319 37.2585 38.8319 36.9465 39.9486 41.5958 39.8523 39.8172 38.4854 37.1025 37.6382 35.5111 36.5408 33.3581 35.5974 30.3314 34.8851 31.5795 33.7299 35.5423 33.6529 38.3195 32.6325 38.8499 31.5543 41.0654 30.5147 43.2808 30.2644 47.4621 29.2825 49.4903 29.4173 52.9227 28.2236 56.2615 28.7049 57.8529 29.706 58.8514 29.2825 62.5958 29.4173 62.471 29.9371 65.8722 30.2836 68.1189 30.0718 72.7994 30.7842 77.0431 30.9767 78.7593 31.2655 81.7236 30.919 85.0936 31.5736 87.4651 31.8816 91.6152 32.4207 95.11 33.4796 97.419 33.6914 99.3848 32.7673 102.0684 32.0741 105.3135 32.3437 108.6835 31.3618 112.3031 30.8227 113.8009 31.7469 115.4547 31.227 115.9539 30.1874 117.5141 30.4184 121.2273 32.4014 124.1917 30.8997 124.4725 32.5747 127.2184 32.2089 128.0609 31.5543 130.7444 31.6891 134.1144 32.6132 139.3254 33.4411 142.3522 33.8069 144.5364 33.6721 147.5319 34.8081 144.4116 35.9055 148.4368 36.3675 154.3967 36.1173 156.3001 35.7129 158.6404 37.0414 161.0743 35.944 158.7964 35.0006 160.2318 34.2112 162.9153 34.115 164.7251 33.9032 166.4725 34.4423 168.7192 35.6552 171.1842 35.4627 175.1159 36.4638 178.5483 36.1173 181.7623 36.175 181.5126 34.7888 183.5097 34.4037 186.9421 35.1546 186.9108 37.2532 188.315 35.4819 190.0936 35.5397 191.0921 33.3063 188.7207 31.9394 186.162 31.0537 186.318 28.5894 188.9391 26.9914 191.9034 27.3379 194.1501 28.3198 197.1144 30.8227 195.1798 31.9009 199.2675 32.3629 199.2675 34.6348 202.2318 32.8828 204.8841 34.3075 204.2288 35.9632 206.3819 37.465 208.6909 35.867 210.3447 33.9417 210.4383 31.5158 213.5587 31.6698 216.8351 31.9971 219.8306 33.1138 219.9866 34.192 218.3016 35.3856 219.893 36.5793 219.6122 37.6382 215.2437 39.1785 212.1857 39.525 209.9079 38.8704 209.2214 40.0063 207.0684 41.8546 206.4443 42.8365 203.8544 44.319 200.7028 44.473 198.9242 45.4164 198.7682 46.8411 196.2407 47.1299 193.526 48.9204 191.0921 51.4233 190.2184 53.1561 190.0936 55.7552 193.4012 56.121 194.3997 58.1811 195.4294 59.8561 198.4874 59.4132 202.6374 60.3951 204.8529 61.2423 206.4443 62.2819 209.1902 62.898 211.5929 63.8221 215.2125 63.9377 217.6152 64.1687 217.2407 66.094 217.9272 68.3081 219.581 70.8109 222.8574 72.9095 224.5736 72.1779 225.7593 69.8868 224.6048 66.402 223.0446 65.2276 226.6018 64.188 229.0981 62.6285 230.3462 61.1075 230.159 59.6058 228.6612 57.7382 225.9465 56.0632 228.5676 53.7336 227.6003 51.7313 226.8514 48.2658 228.4116 47.746 232.1872 48.3428 234.4651 48.5739 236.3061 47.9963 238.3967 48.7471 241.1426 50.0371 241.7979 50.8842 245.7296 51.0767 245.6672 52.925 246.3848 55.7359 248.4443 56.0825 250.0357 57.3724 253.2496 56.1595 255.3715 53.6951 256.8692 52.6747 258.5854 54.6578 261.425 57.488 263.89 60.1448 262.9851 61.5311 265.9807 62.7825 267.9777 64.0339 271.5037 64.6115 272.9079 65.3431 273.7816 67.2107 275.529 67.4995 276.4027 68.3273 276.5587 70.8302 274.9673 71.6581 273.3759 72.4282 269.7251 73.2176 266.948 75.0273 263.1724 75.3931 258.4606 74.9311 255.1218 74.9118 252.8128 75.0658 250.9718 76.6638 248.1322 77.6457 244.9183 80.5722 242.3908 82.6322 244.2318 82.2664 247.8202 79.3592 252.4695 77.4917 255.7771 77.2799 257.7741 78.3773 255.6523 79.8598 256.4012 82.2472 257.1189 83.9222 259.9584 85.0196 263.6092 84.7115 265.8559 82.2087 266.0119 83.8066 267.4473 84.6153 264.6701 86.0785 259.7712 87.3877 257.6181 88.2926 255.0906 89.8713 253.4368 89.7173 253.3432 87.8497 257.2125 86.0207 253.6553 86.0977 251.1902 86.3673 251.5646 87.0796 249.1932 88.1578 246.9153 88.9087 244.5438 89.5633 243.4205 90.8917 243.0461 91.3923 243.0149 92.586 243.7013 93.7411 244.6374 93.7989 244.3878 92.9903 245.0743 93.4908 244.8871 94.1262 243.4205 94.4727 242.3596 94.4342 240.737 94.8193 239.7697 94.9156 238.4903 95.0311 236.5869 95.6664 239.8945 95.2621 240.5498 95.6857 237.3982 96.3595 235.9941 96.3595 236.0565 96.0707 235.4012 96.7061 236.0253 96.8023 235.5572 98.3811 233.9658 100.0946 233.7786 99.5362 233.3105 99.4015 232.5617 98.8624 233.0297 100.0368 233.5914 100.4411 233.6226 101.2883 232.9049 102.1546 231.6568 103.9259 231.4695 103.8296 232.156 102.3279 231.0015 101.4808 230.7519 99.6133 230.315 100.5759 230.8143 102.0006 229.3477 101.6541 230.8767 102.3664 230.9703 104.465 231.5944 104.619 231.8128 105.3891 232.1248 107.6032 230.7207 109.2589 228.4428 109.9135 226.9762 111.2035 225.8841 111.3383 224.7608 112.1854 224.4487 112.917 222.0149 114.3417 220.7667 115.4006 219.7058 116.7291 219.3626 118.3078 219.7682 119.848 220.5171 121.7348 221.4844 123.3136 221.5156 124.2569 222.5453 126.8368 222.4829 128.3386 222.3893 129.1857 221.8276 130.5334 221.1724 130.8222 220.0802 130.5526 219.737 129.5707 218.8633 129.0702 217.6776 127.1641 216.6478 125.4699 216.3358 124.6035 216.7727 123.121 216.1486 121.9081 214.4324 120.0598 213.5587 119.7133 211.3744 120.7144 210.9688 120.5989 209.9079 119.5592 208.4725 119.0202 205.9762 119.2897 204.0104 119.0587 202.3254 119.2127 201.4205 119.5592 201.7949 120.1561 201.7637 121.0417 202.2318 121.4653 201.8262 121.7733 200.9837 121.446 200.1412 121.8696 198.5186 121.7926 196.8648 120.6181 194.9614 120.8877 193.37 120.3871 191.997 120.5411 190.0936 121.061 188.0654 122.7167 185.8811 123.6794 184.6642 124.719 184.1649 125.7202 184.1337 127.2604 184.2585 128.3193 184.6642 129.0702 183.8217 130.9955 183.416 132.6127 183.26 135.5776 183.0416 136.6558 183.4473 137.888 184.1337 138.9469 184.5706 140.6796 186.0371 142.3161 186.5364 143.6061 187.4101 144.6842 189.7504 145.2618 190.6865 146.186 192.6523 145.5699 194.3373 145.3388 195.9911 144.9538 197.364 144.5687 198.7682 143.6638 199.2987 142.3739 199.4859 140.5064 199.8603 139.8518 201.3893 139.2742 203.7296 138.7736 205.6954 138.8506 207.0371 138.6581 207.5676 139.1394 207.5052 140.1791 206.2883 141.5075 205.789 142.8745 206.1947 143.2595 205.8514 144.2222 205.2897 145.9357 204.7281 145.3581 204.26 145.3966 204.2912 145.7239 204.6969 145.7432 204.6657 146.34 204.2912 147.3026 204.5097 147.6492 204.26 148.4386 204.416 148.6696 204.1352 149.767 203.6984 150.3446 203.3239 150.4216 202.8871 151.1917 203.6048 151.5768 203.792 151.2495 204.4473 151.5383 204.6657 151.6345 205.1649 151.2302 205.789 151.211 205.9762 151.3843 206.3195 151.2687 207.3492 151.4805 208.3789 151.4228 209.0966 151.1917 209.3462 150.9222 210.0951 151.0377 210.6256 151.211 211.2184 151.1532 211.6553 150.9414 212.6226 151.2495 212.9658 151.3072 213.6523 151.7308 214.2764 152.2121 215.0877 152.5394 215.6805 153.1748 215.4933 153.4058 215.3685 153.8871 215.5869 154.6957 215.0877 155.4466 214.838 156.3322 214.7756 157.2949 214.9004 157.8917 214.9629 158.8929 214.6196 159.1047 214.4012 160.0673 214.5572 160.6449 214.1204 161.2032 214.214 161.8001 214.5572 162.1659 215.1189 163.3788 215.9614 164.2644 217.0223 165.2078 217.8024 165.9972 217.7712 166.4593 218.6449 166.5748 218.8633 166.4015 219.4874 166.9406 220.5795 166.7673 221.5156 166.209 222.8574 165.7854 223.6062 165.1116 224.8544 165.2271 224.7608 165.4581 226.0089 165.5159 226.9762 165.9202 227.6939 166.5748 228.5364 167.1909 229.6909 167.2679 231.3447 165.7276 232.2496 165.4774 232.2808 164.7458 232.6865 162.8782 233.9346 161.8386 235.3388 161.8001 235.526 161.338 237.2422 161.5305 239.0208 160.4139 239.8945 159.9133 240.9554 158.8351 241.7355 158.9891 242.3284 159.5667 241.8915 160.3176 241.8291 160.8374 240.5186 161.0877 241.2675 162.0889 241.2363 163.2633 240.2377 164.534 241.0802 166.3052 242.0475 166.1512 242.5468 164.5532 241.8603 163.7831 241.7355 162.0889 244.4814 161.2032 244.1694 160.1443 244.9495 159.4512 245.7296 161.0107 247.321 161.0299 248.7563 162.2814 248.8499 163.013 250.8158 163.0515 253.1872 162.8012 254.4666 163.8216 256.1516 164.0912 257.4309 163.398 257.4621 162.8205 260.1768 162.6857 262.8291 162.6472 260.9257 163.321 261.7058 164.3607 263.4532 164.5147 265.1382 165.6121 265.5126 167.3834 266.6672 167.3449 267.5409 167.8647 269.0074 168.6733 270.3804 170.1366 270.4428 171.2532 271.2541 171.311 272.4398 172.4084 273.3135 173.1785 275.9658 173.6213 276.2155 173.217 277.9941 173.063 280.3967 173.6598 281.1456 173.9101 282.7682 174.4299 285.1397 176.2782 285.5141 177.1831 286.263 177.0868 286.8247 178.3383 288.0416 182.2081 289.2273 182.5739 289.2897 184.1141 287.636 185.9239 288.3224 186.5978 292.1917 186.9443 292.2853 189.1777 294.0015 187.6952 296.7786 188.5038 300.4606 189.8515 301.5215 191.1415 301.1783 192.3736 303.7682 191.6998 308.0431 192.855 311.3507 192.7779 314.6582 194.607 317.4978 197.1098 319.1828 197.7452 321.0862 197.8222 321.8975 198.5153 322.6464 201.3455 323.0208 202.6932 322.1159 206.3512 320.9926 207.7952 317.8722 210.8949 316.4681 213.3785 314.8455 215.3231 314.2838 215.3616 313.6597 216.9981 313.8158 221.1567 313.1917 224.5452 312.9733 226.0277 312.2556 226.894 311.8811 229.859 309.6033 232.7469 309.2288 235.0573 307.419 236.0199 306.9198 237.3484 304.5483 237.3291 301.0223 238.1762 299.4621 239.1581 296.997 239.8127 294.3759 241.584 292.4725 243.7596 292.1605 245.4346 292.5349 246.6475 292.0981 248.8808 291.5988 249.9783 290.101 251.2104 287.636 255.0803 285.7013 256.8515 284.1724 257.8912 283.1426 259.9898 281.6761 261.2797 Z M 472.7979 245.7041 472.2363 247.3021 471.9554 249.1311 471.3938 250.1323 469.896 251.2682 469.4279 251.5955 468.4918 252.7122 467.8678 253.8481 466.6196 255.4461 464.1233 257.7179 462.5632 259.0464 460.9094 260.0668 458.5691 260.9331 457.4458 261.0487 457.1337 261.6648 455.792 261.3375 454.6999 261.7418 452.2972 261.3375 450.9242 261.607 450.0193 261.4722 447.7415 262.3579 445.8692 262.7044 444.4963 263.5515 443.4978 263.6093 442.5617 262.8007 441.8128 262.7622 440.8455 261.7803 440.7207 262.0883 440.4398 261.4915 440.4398 260.163 439.7221 258.6998 440.4398 258.2955 440.3774 256.6012 438.9421 254.5027 437.8187 252.6352 436.2273 249.7472 434.5736 248.0915 433.7311 246.4742 433.2318 244.2987 432.6701 242.7007 431.9212 239.2737 431.8588 236.636 431.578 235.4423 430.7355 234.4989 429.6122 232.6699 428.4264 230.0323 427.9584 228.6268 426.1486 226.4705 426.0238 224.7762 425.8053 223.3708 426.1174 221.4262 426.8975 219.3854 426.9911 218.442 427.7088 216.4397 428.2392 215.5349 429.5186 214.0716 430.2363 213.0897 430.4547 211.4532 430.3299 210.2018 429.6746 209.4317 429.0817 208.0647 428.5513 206.7363 428.6761 206.2742 429.3626 205.3886 428.6761 203.2515 428.208 201.769 427.1159 200.3636 427.3343 199.94 427.0223 199.2662 426.4294 197.5719 424.6196 195.2231 422.3105 192.9897 420.844 191.1607 419.5022 188.8889 419.5646 188.138 420.0327 187.4256 420.5944 185.8084 421.0312 184.1719 420.6256 183.8446 421.3744 181.3417 421.6865 179.609 420.844 178.1265 419.8143 177.7607 419.3774 176.7595 418.8158 176.4515 418.847 175.8354 416.5379 176.6248 415.6954 176.5285 414.8841 177.0098 413.0743 176.9521 411.8886 175.5851 411.1709 173.9871 409.5795 172.5047 407.9257 172.5239 405.9599 172.5239 404.1189 172.7742 402.3403 173.2748 398.8767 174.584 397.6597 175.3156 395.6627 175.9702 393.6657 175.3348 392.6672 175.3541 391.107 174.9498 389.7028 174.969 387.0817 175.3348 385.4903 175.9702 383.3373 176.7981 382.9004 176.7403 382.3388 176.7595 380.0609 175.7006 378.0327 174.0256 376.1293 172.7935 374.6315 171.3687 374.0386 171.1955 372.4473 170.3098 371.2927 169.1354 370.8871 168.3268 370.6374 166.671 369.6701 165.3618 368.7964 164.5147 368.266 164.2067 367.7043 163.7831 367.4235 162.782 367.1114 162.3006 366.4562 161.9348 365.2704 161.0107 364.3343 160.8567 363.8351 160.2406 363.8663 159.9133 363.1798 159.4512 363.0238 158.9699 362.6805 157.2371 362.9614 156.2745 362.0565 154.561 360.9331 153.7524 361.9004 153.348 362.9926 151.7886 363.523 150.6334 363.3046 149.459 363.9287 148.3808 364.2095 146.263 363.9599 144.0874 363.7103 142.99 363.9287 141.8733 363.3358 140.8144 362.1813 139.8518 362.2749 138.9276 362.3685 137.9072 363.2422 137.2911 363.9599 136.136 363.8039 135.4044 364.584 133.8256 365.8009 132.4202 366.5498 132.0736 367.1426 130.7644 367.1738 129.59 368.0163 128.223 369.4517 127.4144 370.8559 125.1426 370.9183 125.1041 372.0104 124.2762 374.0698 124.0067 375.8172 122.5049 376.9718 121.9273 378.8128 120.0598 378.2511 117.3259 379.0936 115.4006 379.4056 114.2262 380.8098 112.7437 383.0253 111.7233 384.6478 110.7992 386.1768 108.5081 386.8633 107.1604 388.4859 107.1604 389.8276 108.1038 391.9183 107.9498 394.2273 108.4503 395.1947 108.4696 397.3477 107.2374 399.7192 106.8716 401.0921 105.9475 403.2452 105.2736 407.0208 104.8693 410.6716 104.6768 411.7949 105.0041 413.8856 104.1377 416.2571 104.1377 417.1308 104.6575 418.6597 104.5035 421.0624 103.6179 422.6226 103.8874 422.5602 105.0041 424.4636 104.1954 424.6196 104.619 423.4963 105.6972 423.4963 106.7368 424.2764 107.2759 423.9643 109.2012 422.4978 110.3179 422.9034 111.5308 424.0892 111.5693 424.6508 112.6089 425.4933 112.9555 428.0832 113.7256 429.0193 113.5331 430.8603 113.8989 433.7935 114.8808 434.8232 116.8638 436.8202 117.3067 439.9406 118.2308 442.3432 119.309 443.4042 118.7506 444.4651 117.7302 443.9658 116.036 444.6523 114.9385 446.2437 113.8989 447.7415 113.6101 450.737 114.0722 451.5171 115.0541 452.3284 115.0733 453.0461 115.4391 455.2303 115.7087 455.792 116.421 458.7251 116.4018 460.8782 116.9986 463.0624 117.6532 464.0921 117.9805 465.7771 117.2874 466.682 116.6713 468.6478 116.4595 470.2392 116.7483 470.8633 117.8457 471.3626 117.1141 473.1412 117.6532 474.8574 117.7687 475.9495 117.2104 476.6048 116.4595 476.4487 116.344 477.0416 115.3236 477.4785 113.6486 477.7905 113.0903 477.8529 113.071 478.633 111.2612 479.7563 109.7018 479.7875 109.6248 479.6003 107.9112 480.1308 107.0064 479.3195 105.986 480.162 105.1581 478.789 105.3506 476.948 104.85 475.419 106.1207 472.0802 106.3903 470.2704 105.1773 467.8678 105.1003 467.3373 106.0245 465.8083 106.2748 463.6865 105.1003 461.2838 105.1388 459.9421 102.944 458.3507 101.7311 459.4116 99.9791 458.0074 98.9394 460.5037 96.8216 463.8737 96.7446 464.8098 95.0311 469.0223 95.3199 471.7058 93.8951 474.2957 93.2791 477.9465 93.2406 481.8158 94.7808 484.9985 95.6279 487.5884 95.3006 489.523 95.4931 492.1129 94.338 492.4562 93.3946 491.8945 91.8929 490.6152 91.065 489.3982 90.7954 488.5869 90.1216 485.7474 88.2541 483.2199 87.4262 481.2853 86.1362 482.9079 85.7512 484.7489 83.9029 483.5007 83.0365 486.7771 82.1316 486.7147 81.6503 484.7177 81.9969 482.9703 82.1894 481.4725 82.9018 479.4131 83.0173 477.5097 83.8259 477.6345 85.2121 478.6954 85.7319 480.9733 85.6164 480.5364 86.425 478.1025 86.8101 475.107 88.0808 473.89 87.6187 474.3581 86.5983 471.9554 85.9437 472.3299 85.5009 474.4517 84.7693 473.8276 84.2687 470.364 83.7104 470.2392 82.8825 468.1486 83.152 467.3373 84.3842 465.6211 86.0207 465.6523 86.5983 464.5914 87.0604 463.9049 86.8678 463.2808 89.5247 462.1887 90.4296 461.3774 92.0276 462.0951 93.2983 462.3447 94.1454 464.2481 94.877 463.8425 95.3969 461.2526 95.5124 460.2853 96.2247 458.4131 97.3992 457.7266 96.398 457.7578 95.9167 456.416 95.8397 455.2615 95.6472 452.578 96.2247 454.107 97.4762 452.9837 97.8227 451.7355 97.842 450.5498 96.7061 450.1441 97.1874 450.6122 98.4966 451.7667 99.5362 450.893 100.0176 452.1724 101.038 453.2645 101.6926 453.2957 102.944 451.2363 102.3664 451.8915 103.4831 450.4562 103.7334 451.3299 105.6587 449.8321 105.6972 448.0223 104.7345 447.1798 102.9633 446.8366 101.5 445.9629 100.4796 444.8395 99.2089 444.6835 98.5736 444.3091 98.4196 444.2467 97.9383 443.0297 97.1874 442.8425 96.1285 443.0297 94.6075 443.3418 93.9144 442.9673 93.5871 442.4993 93.4138 441.8752 92.6822 440.8767 92.2587 438.8172 91.4308 437.5379 90.6222 435.5097 89.9676 433.6374 88.3311 434.0743 88.177 433.0758 87.2529 433.0446 86.502 431.578 86.1555 430.9227 87.0989 430.2675 86.3673 430.3299 85.5779 430.3923 85.5394 430.8915 85.3469 429.1441 85.0388 427.3343 85.8282 427.4591 86.9256 427.1783 87.561 427.9272 88.6776 429.9866 89.7943 431.11 91.6426 433.575 93.4138 435.2912 93.3946 435.8529 93.8951 435.2288 94.3187 437.1947 95.1273 438.8172 95.8012 440.7207 96.9756 440.9703 97.3799 440.5334 98.1693 439.3165 97.1296 437.3819 96.7638 436.4458 98.2078 438.0684 99.0164 437.7875 100.1716 436.8826 100.3064 435.6969 102.2124 434.7608 102.3857 434.7608 101.7118 435.2288 100.5181 435.6969 100.0368 434.8544 98.7469 434.1679 97.6495 433.263 97.3799 432.6077 96.4173 431.1724 95.9937 430.2051 95.1081 428.5825 94.9541 426.8351 93.9529 424.8068 92.5282 423.3091 91.2575 422.5914 89.0627 421.4993 88.8124 419.6895 88.0615 418.6597 88.3696 417.3804 89.39 416.4755 89.544 414.5097 90.7954 410.11 90.1986 406.8648 90.9302 406.6152 92.2779 406.74 93.5679 404.6181 95.0311 401.7786 95.4931 401.5914 96.244 400.2184 97.4762 399.4071 99.286 400.2184 100.5374 398.9703 101.5385 398.5022 102.9825 396.8172 103.4253 395.2259 105.1196 392.4175 105.1388 390.3269 105.1003 388.9227 105.8897 388.0802 106.7368 386.9881 106.5635 386.1768 105.7934 385.5215 104.5227 383.4933 104.1762 382.5884 104.7538 381.4339 104.4265 380.2793 104.6768 380.6226 102.9633 380.4042 101.5963 379.4368 101.4038 378.9064 100.5374 379.0624 99.0934 379.9673 98.3041 380.1233 97.3992 380.5602 96.0515 380.529 95.1273 380.0921 94.3187 379.9985 93.5871 380.0921 92.0084 379.1872 91.0457 382.3388 89.4477 384.9911 89.8328 388.0178 89.8135 390.3581 90.1986 392.1991 90.0831 395.8187 90.1408 396.9421 88.8316 397.3789 84.4227 395.0698 82.0931 393.416 80.9572 390.0461 80.1101 389.8276 78.4928 392.6984 78.0115 396.4428 78.5891 395.7251 76.0862 397.8158 77.0296 402.9331 75.2776 403.6196 73.4871 405.5854 73.025 407.364 72.6015 408.4874 72.0046 410.422 68.7124 413.4487 67.8075 415.321 67.8653 415.7266 67.3839 417.5988 67.2877 418.0045 67.7497 419.5022 66.6716 419.003 65.8437 418.8782 64.573 418.0045 63.3408 417.9108 61.0882 418.2853 60.4914 418.9406 59.7983 420.8752 59.6828 421.6553 59.0667 423.4651 58.4506 423.4027 59.5865 422.7162 60.3181 422.9658 60.9342 424.214 61.2808 423.6523 62.1086 422.9658 61.8584 421.3744 63.4563 421.9673 64.5153 422.0297 65.4009 424.2764 65.9207 424.2764 66.6908 426.523 66.2865 427.7712 65.6897 430.2675 66.5561 431.2972 67.2684 432.8262 66.6138 436.2585 65.5742 439.0669 64.804 441.2511 65.1891 441.4383 65.7474 443.5914 65.7667 444.0906 64.7848 447.1174 64.0724 446.6805 62.2242 446.7741 60.5492 447.8351 59.1437 449.8945 58.3928 451.7043 60.0486 453.4829 60.0101 453.8886 58.2966 454.1694 56.9874 453.3269 57.2762 451.9227 56.5061 451.7355 55.2354 454.5438 54.6 457.321 54.2727 459.7236 54.6385 462.0639 54.5808 464.529 53.3486 462.2511 52.2897 458.1947 52.463 454.2942 53.2908 450.6746 53.7336 449.3952 52.54 447.2422 51.8084 447.7415 49.6135 446.6805 47.6305 447.7103 46.3598 449.7385 44.9543 454.8247 42.5477 456.2912 42.0856 456.0728 41.1423 452.9837 40.1026 449.1456 40.7379 446.9926 42.2782 447.3358 43.6259 443.8722 45.4164 439.5661 47.3224 437.9435 50.4414 439.5037 52.0009 441.6256 53.2331 439.5973 55.7359 437.2883 56.2558 436.4458 59.9716 435.1976 62.0509 432.5141 61.8391 431.266 63.5911 428.7073 63.6874 427.9896 61.6081 426.1486 59.0859 424.4636 55.9477 422.9346 54.5808 418.5661 57.1607 415.6642 57.6805 412.5438 56.5638 411.7637 54.1572 411.0773 49.0359 413.1055 47.6305 418.9406 45.7629 423.3403 43.4719 427.3967 40.3914 432.7325 36.098 436.4146 34.4423 442.5305 31.6506 447.367 30.6879 451.0178 30.8035 454.419 28.9552 458.4443 29.0514 462.4695 28.6086 469.3655 30.2451 466.4948 30.842 468.9287 32.2089 471.2377 31.4581 474.8886 32.8058 480.9421 33.3256 489.3358 35.8285 491.0208 36.8874 491.1768 38.3506 488.7117 39.5058 485.0609 40.1219 475.2006 38.4276 473.578 38.7164 477.1664 40.3529 477.3224 41.3733 477.4473 43.6066 480.318 44.2997 482.0342 44.8773 482.315 43.7992 481.0045 42.8558 482.4086 42.0086 487.7444 43.3948 489.6478 42.8558 488.1189 41.2385 493.3299 39.0629 495.3269 39.1785 497.3863 39.9678 498.7281 38.4276 496.8559 37.1184 497.948 35.79 496.2942 34.423 502.5349 35.1354 503.7831 36.3675 500.9747 36.6371 501.0059 37.8885 502.7533 38.6201 506.1545 38.1581 506.7474 36.7333 511.3343 35.6744 519.0728 33.7684 520.7578 33.8839 518.5736 35.2509 521.3195 35.4627 522.9108 34.7118 527.0609 34.654 530.3373 33.7299 532.8648 35.0583 535.3923 33.5951 533.052 32.3052 534.2065 31.5736 540.7905 32.2474 543.8484 32.9405 551.8678 35.4819 553.3655 34.3075 551.0877 33.1331 551.0253 32.671 548.373 32.4592 549.0906 31.4003 547.9049 29.6675 547.8425 28.9552 551.9302 26.9529 553.3967 24.9506 555.0505 24.527 560.8856 25.1046 561.3536 26.3175 559.263 28.1081 560.636 28.8204 561.3224 30.3799 560.8232 33.4219 563.3195 34.7696 562.321 36.2713 557.9837 39.4095 560.5111 39.7368 561.416 38.9282 563.8811 38.3506 564.4428 37.2532 566.3774 36.2135 565.0669 34.9621 566.1278 33.4796 563.6939 33.3063 563.1634 32.0741 564.9421 29.8601 562.0089 28.0503 566.003 26.5486 565.5037 24.9698 566.5958 24.9121 567.7816 26.1635 566.9079 28.2813 569.2793 28.6856 568.2496 27.1069 571.9941 26.2213 576.5498 26.1058 580.6374 27.3764 578.6716 25.5282 578.4532 23.1601 582.3224 22.698 587.6582 22.7943 592.4636 22.5247 590.6538 21.3695 593.2125 19.9063 595.7712 19.8486 600.1085 18.7319 605.9123 18.4431 606.6612 17.8463 612.4963 17.6152 614.3061 18.1351 619.2675 16.9606 623.3551 16.9799 623.948 16.0365 626.0698 15.0931 631.312 14.1882 635.0877 14.9006 632.0921 15.4397 637.1159 15.7862 637.7088 16.8836 639.737 16.3445 646.2585 16.3638 651.1887 17.442 652.9673 18.2698 652.4368 19.4443 650.003 20.0989 644.1679 21.331 642.5141 21.9856 645.2288 22.2937 648.5364 22.852 650.5022 22.4285 651.6256 23.8532 652.6241 23.2756 656.1813 22.929 663.2957 23.2948 663.8262 24.3345 673.0936 24.6618 673.2184 22.9675 677.9302 23.3333 681.4562 23.3333 685.0446 24.527 686.0743 25.9325 684.7637 26.8566 687.5409 28.5894 691.0045 29.5135 693.1887 27.1647 696.7459 28.1658 700.4591 27.569 704.7964 28.2621 706.419 27.646 710.0386 27.954 708.4473 25.894 711.4116 24.9313 731.3819 26.3753 733.2853 27.6845 739.0892 29.3787 748.0446 28.9552 752.4443 29.3402 754.2853 30.2644 754.0045 31.8624 756.7504 32.4977 759.7459 32.0356 763.6464 31.9779 767.8588 32.4207 772.0401 32.1704 775.9094 34.1342 778.6553 33.4411 776.8455 32.0164 777.844 31.0345 784.896 31.6506 789.5453 31.5351 795.9108 32.5747 799 33.5374 799 42.3744 798.9688 42.3744 796.1293 43.3563 793.2273 43.2023 795.2556 44.3767 796.5973 46.2058 797.5958 46.8026 797.8767 47.7075 797.2838 48.3043 793.1337 47.823 786.9866 49.4788 784.9896 49.7483 781.5884 51.3078 778.3744 52.6747 777.5632 53.6759 774.4116 52.1357 768.6389 53.8684 767.6092 53.0598 765.4562 54.0032 762.4918 53.7144 761.7741 55.1776 759.153 57.3147 759.2467 58.2003 761.7429 58.7009 761.4309 61.9354 759.4027 62.0124 758.4666 63.8414 759.3715 64.804 755.471 65.9592 754.7221 68.4813 751.4146 69.0204 750.7593 71.273 747.5141 73.3331 746.7028 71.8121 745.7667 68.5776 744.5186 63.6489 745.5795 60.5877 747.4517 59.24 747.5765 58.2196 751.0401 57.719 755.003 54.9273 758.841 52.6555 762.8039 50.8842 764.5825 47.746 761.8678 47.9578 760.5572 49.7675 754.9406 52.1934 753.1308 49.4788 747.3893 50.2296 741.8663 53.9454 743.7073 55.3124 738.7459 55.9092 735.3135 56.121 735.4695 54.5038 732.0059 54.1765 729.26 55.2739 722.5201 54.8696 715.1872 55.5627 708.0104 59.8561 699.523 65.0928 703.0178 65.3816 704.11 66.7678 706.263 67.2684 707.6984 66.1517 710.101 66.3058 713.315 68.7316 713.3774 70.6184 711.6924 72.8325 711.5052 75.4701 710.4755 79.0319 707.1367 82.2279 706.3878 83.7681 703.3923 86.348 700.3655 88.8894 698.9302 90.1986 696.0282 91.527 694.6241 91.5463 693.2511 90.4489 690.2244 92.0854 689.8811 92.8362 689.0386 92.6822 688.1025 93.4523 687.416 94.2032 687.5097 95.7819 686.3551 96.2825 685.9807 96.6868 685.1382 97.3414 683.6716 97.7072 682.6731 98.2848 682.6107 99.2475 682.3299 99.4977 683.266 99.8443 684.5141 100.8262 686.4175 103.4253 686.9792 104.8693 686.9792 107.4299 686.1367 108.6429 684.1397 109.0857 682.3611 109.9906 680.3952 110.1831 680.1456 108.9702 680.5513 107.3144 679.5527 105.0041 681.2065 104.6383 679.7088 102.7515 678.6166 102.3279 678.367 102.7322 677.7117 102.9055 677.6181 102.5012 677.0565 102.2894 676.4636 101.9429 677.0565 100.9417 677.5869 100.6914 677.3997 100.2871 677.9614 99.0934 677.8053 98.7276 676.526 98.4966 675.4651 97.919 672.3447 98.5543 670.7221 99.594 668.3195 100.1908 669.5052 99.1704 669.0371 98.3041 670.7845 96.8023 669.63 95.6472 667.6954 96.4558 665.2303 97.9768 663.8262 99.4015 661.6731 99.517 660.5186 100.5374 661.7043 102.0584 663.5141 102.4242 663.5765 103.4061 665.3551 104.0607 667.8202 102.4627 669.786 103.3291 671.2214 103.4061 671.5646 104.542 668.4443 105.1581 667.4146 106.371 665.2927 107.4877 664.107 109.0279 666.5097 110.2408 667.3834 112.4357 668.7251 114.4572 670.2229 116.1515 670.1917 117.8072 668.7875 118.4233 669.318 119.5785 670.6285 120.2716 670.2853 122.1006 669.7236 123.8526 668.4755 124.0452 666.8841 126.4325 665.1055 129.359 663.0149 131.9773 659.9881 134.0567 656.899 135.9049 654.3715 136.1552 653.0297 137.1371 652.2496 136.4248 651.0015 137.5414 647.9435 138.6388 645.5721 138.9854 644.8232 141.315 643.575 141.4498 643.0134 139.8325 643.5126 138.9854 640.5483 138.273 639.5186 138.6388 636.523 140.5256 634.682 142.6434 634.214 144.1837 635.899 146.494 637.9896 149.4012 639.9866 150.7682 641.3284 152.5394 642.3581 156.6403 642.0461 160.5486 640.2051 161.9926 637.6776 163.4558 635.8366 165.2848 633.1218 167.3449 632.3105 165.9202 632.9346 164.4377 631.2808 163.1863 629.4398 162.8397 628.5349 161.6845 627.4116 159.4127 625.3834 158.3923 623.5111 158.4308 623.8232 156.6788 621.8886 156.6788 621.7013 159.1432 620.5156 162.3584 619.7979 164.3222 619.9539 165.9394 621.3893 165.9972 622.2942 167.9995 622.6686 169.944 623.9168 171.1955 625.2585 171.4843 626.4131 172.6202 626.9123 172.8127 628.2541 174.1797 629.1902 175.6429 629.315 177.1446 629.0654 178.1265 629.2838 178.9159 629.4398 180.2251 630.2199 180.8412 631.0936 182.7857 631.0624 183.5558 629.471 183.7098 627.3804 182.0541 624.7281 180.3021 624.4785 179.1662 623.1991 177.6837 622.8871 175.8547 622.107 174.6417 622.3254 173.0245 621.8574 172.0811 620.9837 171.234 620.6092 170.1366 619.4235 168.9044 618.3938 167.8262 617.9881 169.1354 617.5513 167.9032 617.8009 166.517 618.4874 164.3992 618.2689 162.7435 618.9554 161.0492 618.2065 159.7593 618.3938 157.3141 617.4577 156.1782 616.74 153.5213 616.3343 150.7104 615.3982 148.9006 613.9316 149.998 611.4042 151.5575 610.156 151.3843 608.7519 150.8644 609.5632 148.1113 609.0951 146.032 607.3165 143.4906 607.5973 142.6819 606.318 142.4124 604.7266 140.5834 604.1025 139.4475 603.9777 138.3115 603.5409 137.2526 602.6672 135.9434 600.6077 135.8664 600.8262 136.7713 600.1397 138.0035 599.1412 137.5799 598.8291 137.965 598.2051 137.734 597.3626 137.5414 597.0193 138.3308 595.5215 138.3115 592.8068 138.7736 592.9316 140.4294 591.7459 141.7193 588.5319 143.2403 586.0669 145.8394 584.4131 147.2256 582.1976 148.6888 582.1976 149.7093 581.1055 150.2676 579.0773 151.057 578.0475 151.1725 577.3923 152.8667 577.8291 155.7354 577.9539 157.5644 577.0178 159.7015 577.0178 163.4558 575.8633 163.5713 574.8648 165.2463 575.5201 165.9779 573.523 166.6133 572.7741 168.1343 571.9004 168.7696 569.7786 166.6903 568.7489 163.5713 567.9064 161.3572 567.1263 160.2983 565.9718 158.1805 565.4101 155.3889 565.0357 154.0219 563.0074 150.9607 562.0713 146.6673 561.416 143.8371 561.416 141.1417 560.9792 139.0817 557.7652 140.4101 556.2363 140.1406 553.3343 137.4644 554.3952 136.6558 553.74 135.7702 551.1189 133.9026 549.4963 133.3443 548.841 131.7271 547.1248 130.0521 543.0059 130.4756 539.4487 130.5141 536.3284 130.8222 532.1471 130.1483 529.7132 129.6477 527.2169 129.359 526.2808 126.625 525.1887 126.24 523.5349 126.625 521.2883 127.7225 518.5736 126.9909 516.3581 125.2581 514.1738 124.642 512.7073 122.5434 511.0847 119.5785 509.899 119.9443 508.4948 119.2127 507.6835 120.0791 506.3418 119.9636 506.841 120.9454 506.5914 121.446 507.3403 123.121 508.214 125.0271 509.3061 125.5469 509.6493 126.317 511.1471 127.2604 511.3031 128.1653 511.0847 128.8969 511.3655 129.6477 511.9896 130.2638 512.2704 130.9762 512.6137 131.5345 512.4577 129.9365 513.0505 128.7621 513.6746 128.5311 514.3299 129.2242 514.3923 130.5141 513.893 131.8233 514.3299 132.6705 514.7043 132.5549 514.7979 133.171 516.5453 132.8245 518.3863 132.8822 519.7281 132.94 521.2571 131.4383 522.8796 130.0136 524.2838 128.6659 524.9391 127.8957 525.1887 128.1075 525.0015 129.0124 524.7207 129.3975 525.0015 131.1687 526 132.6897 527.2481 133.4983 528.8707 133.7871 530.1813 134.1722 531.1798 135.4429 531.7727 136.1745 532.5527 136.4633 532.5527 136.9638 531.7415 138.273 531.3982 138.8891 530.4621 139.6015 529.6508 141.1225 528.6523 141.0069 528.1842 141.5268 527.8098 142.6819 528.0906 144.1452 527.8722 144.4147 526.8737 144.4147 525.4695 145.2233 525.2511 146.3207 524.7519 146.7828 523.3789 146.7636 522.5052 147.3219 522.5364 148.2268 521.4443 148.8429 520.2273 148.6503 518.7608 149.382 517.7311 149.4975 516.1397 150.0943 515.6716 151.0762 515.6092 151.8463 513.425 152.7897 509.8678 153.8101 507.9331 155.3696 506.9658 155.4851 506.2481 155.3503 504.9688 156.2937 503.5646 156.698 501.6924 156.8328 501.1308 156.9291 500.6627 157.5452 500.0698 157.6799 499.7266 158.2575 498.6345 158.219 497.9168 158.5078 496.3566 158.4116 495.7949 157.1024 495.8574 155.8894 495.4829 155.2541 495.0461 153.5983 494.422 152.6934 494.8588 152.5779 494.6404 151.5575 494.89 151.134 494.7964 150.1713 494.5156 149.2279 493.8915 148.5733 493.7043 147.6877 492.581 146.8791 491.3952 145.0308 490.7712 143.221 489.2422 141.7001 488.2437 141.3342 486.7459 139.2164 486.4963 137.6762 486.5899 136.3478 485.3105 133.9026 484.2808 133.0555 483.0951 132.5742 482.3462 131.3035 482.471 130.8029 481.847 129.667 481.2229 129.1664 480.3492 127.5107 479.0074 125.7202 477.8841 124.2184 476.7608 124.2184 477.104 123.0055 477.2288 122.2354 477.4785 121.3305 477.416 121.0225 476.792 121.9081 476.3239 123.5831 475.6999 124.7383 475.2006 125.1233 474.4517 124.411 473.4532 123.4098 471.893 120.2331 471.6434 120.4449 472.5795 122.7745 473.9212 125.0078 475.6062 128.4541 476.4175 129.6863 477.1352 130.9184 479.1322 133.3828 478.633 133.7679 478.7266 135.1926 481.3165 137.2141 481.7221 137.6377 482.4398 139.8325 481.9406 140.2176 482.2526 142.5087 483.0951 145.1656 483.9376 145.7047 485.1233 146.5133 486.4339 149.0739 487.0267 151.1147 488.2749 152.1736 491.3016 154.2914 492.5186 155.5621 493.7355 156.8328 494.3908 157.5837 495.4829 158.2575 496.0134 158.9506 495.9198 159.8748 494.6716 160.4139 495.6077 161.0107 496.3254 161.3957 496.7623 162.3199 497.792 163.2633 498.9153 163.2633 500.9747 162.6857 503.4086 162.4354 505.3432 161.7423 506.4354 161.6075 507.2779 161.2032 508.526 161.107 509.2437 161.0685 510.211 160.7412 511.3967 160.5294 512.4577 159.7785 513.2689 159.7785 513.3314 160.3753 513.1129 161.6653 513.1441 162.8205 512.6761 163.6291 512.052 166.0164 510.9911 168.5001 509.6181 171.3302 507.7459 174.584 505.8113 177.0483 503.2214 180.071 501.0059 181.8808 497.6984 184.0949 495.6077 185.7506 493.2051 188.446 492.7058 189.6205 492.2065 190.1596 490.6464 191.0259 490.0847 191.9501 489.2734 192.1041 488.9614 193.6636 488.2437 194.5877 487.7756 196.0509 486.9019 196.7825 485.8722 199.5165 485.997 200.7679 487.4012 201.5573 487.4948 202.1541 486.8707 203.4825 486.9955 204.1757 486.8395 205.2346 487.6196 206.6208 488.5869 208.7963 489.3982 209.2969 489.7415 210.2788 489.6478 212.4736 489.9287 214.4374 490.0223 217.8837 490.3967 218.9811 489.7415 220.5599 488.8678 222.1193 487.4324 223.467 485.4042 224.3142 482.9391 225.3923 480.4116 227.7797 479.5691 228.1647 478.0401 229.7627 477.104 230.2826 476.9168 231.8613 477.9777 233.5363 478.3834 234.807 478.4146 235.5001 478.789 235.3846 478.7266 237.5601 478.3834 238.5805 478.945 238.9464 478.5706 239.8705 477.6657 240.6791 475.8559 241.43 473.2036 242.6237 472.2051 243.4323 472.3923 244.3564 472.9851 244.5297 472.7979 245.7041 Z M 508.37 101.4808 509.0877 103.098 511.1471 103.5601 512.6761 104.6768 515.8276 105.0426 519.3224 104.465 519.5409 103.9644 519.1352 102.4049 519.4473 100.0561 517.7311 99.3052 518.2927 97.8035 516.8262 97.688 517.2942 95.8012 519.3848 96.3595 521.3507 95.6279 519.7281 94.2995 519.104 93.0288 517.3254 93.6064 517.0758 95.2236 516.3893 93.7989 516.2645 93.2598 516.8262 92.3357 516.3893 91.5656 513.7994 90.7954 512.8009 88.8124 511.584 88.2348 511.4903 87.5417 513.6434 87.7342 513.737 86.117 515.6092 85.7512 517.575 86.0977 517.9807 83.9222 517.575 82.5552 515.3284 82.6707 513.4562 82.1316 510.8975 83.0943 508.8692 83.5564 507.8395 84.8655 505.6865 85.2314 503.471 87.5417 505.4993 89.621 505.2808 91.1227 507.7147 93.7411 508.8692 94.8963 509.9926 96.475 511.0223 96.5906 511.6776 97.1874 509.8678 97.3607 509.5245 99.0742 509.1189 99.8635 508.3076 100.3641 508.37 101.4808 Z M 475.2942 165.4389 475.3254 167.1524 475.2942 165.1693 475.2942 165.4389 Z M 452.7652 167.1909 454.4502 168.1728 452.9525 167.3064 452.7652 167.1909 Z M 434.4175 101.6733 433.6062 103.4253 433.9495 104.0992 433.4814 105.2351 431.734 104.388 430.6419 104.1569 427.5527 103.0403 427.8648 101.9043 430.4547 102.1161 432.7325 101.8658 434.4175 101.6733 Z M 712.5349 104.0799 711.6924 105.8512 712.0669 106.9679 710.9123 108.5273 708.0728 109.567 704.1724 109.7018 700.9896 112.2431 699.4918 111.3575 699.3982 109.721 695.5914 110.2023 692.9703 111.2612 690.3492 111.2998 692.627 112.917 691.0981 116.7098 689.6939 117.6532 688.6018 116.7676 689.1634 114.7845 687.7593 114.1299 686.8544 112.6089 688.945 111.9351 690.0996 110.5296 692.3774 109.3937 694 107.8727 698.3685 107.2181 700.74 107.661 703.0802 103.7334 704.5468 104.773 707.792 102.5589 709.0713 101.7118 710.4443 98.9779 710.0698 96.4943 711.0371 95.0888 713.3462 94.6845 714.5632 97.765 714.5007 99.5747 712.4725 101.8081 712.5349 104.0799 Z M 420.4071 95.0696 421.7177 96.6483 421.4056 99.5747 420.4071 99.4207 419.5022 100.1716 418.6597 99.594 418.5973 96.9179 418.0669 95.6279 419.2838 95.7434 420.4071 95.0696 Z"/>
</g>
</svg>
