<svg width="25" height="25" viewBox="0 0 25 25" xmlns="http://www.w3.org/2000/svg"><path d="M12.5 0c2.892 0 5.633.991 7.783 2.74l.097.069c2.901 2.363 4.619 5.888 4.619 9.694 0 6.889-5.609 12.498-12.5 12.498-2.886 0-5.628-.993-7.795-2.746l-.088-.067c-2.899-2.362-4.618-5.888-4.618-9.69 0-3.808 1.725-7.338 4.605-9.674l.063-.052-.008.005.291-.228c2.156-1.642 4.784-2.548 7.549-2.548zm0 19.675c-1.115 0-2.227.171-3.296.504.897 2.197 2.11 3.463 3.296 3.463 1.187 0 2.4-1.266 3.296-3.463-1.068-.333-2.179-.504-3.296-.504zm-4.586 1.006c-.61.275-1.192.603-1.737.979.963.666 2.02 1.175 3.139 1.51-.532-.672-1.005-1.512-1.402-2.489zm9.173 0c-.398.979-.869 1.818-1.401 2.489 1.119-.335 2.175-.844 3.137-1.509-.545-.377-1.127-.704-1.737-.979zm-10.564-7.508h-5.136c.175 2.952 1.51 5.673 3.686 7.618.739-.55 1.542-1.015 2.397-1.391-.519-1.687-.838-3.633-.929-5.707l-.018-.521zm17.098-.006h-5.135c-.051 2.256-.381 4.388-.947 6.227.855.378 1.66.844 2.396 1.391 2.171-1.941 3.507-4.662 3.686-7.618zm-6.488.006h-9.263c.056 2.063.366 4.037.886 5.73 1.219-.382 2.481-.579 3.745-.579 1.264 0 2.526.197 3.746.579.52-1.693.83-3.667.886-5.73zm2.801-8.968c-.738.549-1.541 1.014-2.395 1.391.563 1.828.89 3.959.947 6.227h5.131c-.174-2.95-1.509-5.667-3.682-7.618zm-14.866 0c-2.174 1.948-3.507 4.664-3.681 7.618h5.13c.052-2.259.381-4.391.947-6.227-.854-.376-1.657-.842-2.396-1.391zm11.179 1.888c-1.218.382-2.481.578-3.747.578s-2.528-.196-3.746-.578c-.52 1.692-.83 3.667-.886 5.73h9.263c-.056-2.063-.366-4.037-.886-5.73zm-3.747-4.742c-1.185 0-2.399 1.266-3.296 3.464 1.07.334 2.182.505 3.296.505 1.116 0 2.227-.172 3.296-.505-.896-2.199-2.109-3.464-3.296-3.464zm-3.184.474c-1.12.335-2.176.845-3.138 1.51.545.376 1.127.703 1.737.979.398-.979.87-1.818 1.401-2.49zm6.369 0c.531.672 1.004 1.512 1.402 2.49.61-.275 1.192-.603 1.737-.979-.962-.666-2.019-1.176-3.139-1.511z" fill="#CFDAE2" fill-rule="nonzero"/></svg>
