<?xml version="1.0" encoding="utf-8"?>
<!-- Generator: Adobe Illustrator 23.0.1, SVG Export Plug-In . SVG Version: 6.00 Build 0)  -->
<svg version="1.1" id="Capa_1" xmlns="http://www.w3.org/2000/svg" xmlns:xlink="http://www.w3.org/1999/xlink" x="0px" y="0px"
	 viewBox="0 0 200 200" style="enable-background:new 0 0 200 200;" xml:space="preserve">
<style type="text/css">
	.st0{fill:#FFFFFF;}
</style>
<g>
	<g>
		<path class="st0" d="M146.1,65.3c0-15.7-12-33.1-22.9-33.1s-23.1,17.4-23.1,33.1c0,12.5,6.5,20.1,15.7,22.8l-1.2,71.3
			c0,4.6,3.7,8.3,8.4,8.3c4.7,0,8.6-3.7,8.4-8.3l-1.2-71.3C139.6,85.5,146.1,77.8,146.1,65.3z"/>
		<path class="st0" d="M87.4,36.4C85,36,83,37.7,83,39.9v29.7c0,0.9-0.7,1.6-1.6,1.6h-4c-0.9,0-1.6-0.7-1.6-1.6V39.8
			c-0.2-2.4-2.8-4.4-5.3-2.9c-1.2,0.7-1.8,2-1.8,3.3v29.4c0,0.9-0.7,1.6-1.6,1.6h-4c-0.9,0-1.6-0.7-1.6-1.6V40
			c0-1.8-1.5-3.6-3.3-3.8c-2.1-0.2-3.8,1.5-3.8,3.6v35.8c0,5.8,4.5,10.5,10,11.1l-1.2,72.4c0,4.7,3.7,8.6,8.4,8.6
			c4.7,0,8.6-3.8,8.4-8.6l-1-71.7c6.3-0.6,11-6,11-12.2l0-35.3C90.1,38.3,89,36.7,87.4,36.4z"/>
	</g>
</g>
</svg>
