<?xml version="1.0" encoding="utf-8"?>
<!-- Generator: Adobe Illustrator 23.0.1, SVG Export Plug-In . SVG Version: 6.00 Build 0)  -->
<svg version="1.1" id="Capa_1" xmlns="http://www.w3.org/2000/svg" xmlns:xlink="http://www.w3.org/1999/xlink" x="0px" y="0px"
	 viewBox="0 0 200 200" style="enable-background:new 0 0 200 200;" xml:space="preserve">
<style type="text/css">
	.st0{fill-rule:evenodd;clip-rule:evenodd;fill:#FFFFFF;}
</style>
<g>
	<g>
		<path class="st0" d="M168.9,95.8v52.4c0,2.8-2.3,5-5,5H133c-2.8,0-5-2.3-5-5v-36.5c0-1.9-1.5-3.5-3.4-3.5h-6.5
			c-1.9,0-3.5,1.6-3.5,3.5v36.5c0,2.8-2.3,5-5,5H79c-2.8,0-5-2.3-5-5V95.8h-8.2c-4.7-0.1-6.9-6.1-3.1-9l55.6-43
			c1.8-1.4,4.3-1.5,6.2,0l55.3,42.8c4.1,2.7,2.2,9.2-2.8,9.2L168.9,95.8L168.9,95.8z M44.1,102.4c0-6.6,10-6.6,10,0v8.2h7.3v0.7
			c3.2,1.9,3.2,6.7,0,8.6v7.1c0,9.5-6.6,17.8-15.8,20.2v6.8c0,6.6-10,6.6-10,0v-6.8c-9.2-2.3-15.8-10.6-15.8-20.2V120
			c-3.2-1.9-3.2-6.7,0-8.6v-0.7c2.4,0,4.9,0,7.3,0v-8.2c0-6.6,10-6.6,10,0v8.2l7.1,0L44.1,102.4L44.1,102.4z"/>
	</g>
</g>
</svg>
