<?xml version="1.0" encoding="utf-8"?>
<!-- Generator: Adobe Illustrator 23.0.1, SVG Export Plug-In . SVG Version: 6.00 Build 0)  -->
<svg version="1.1" id="Capa_1" xmlns="http://www.w3.org/2000/svg" xmlns:xlink="http://www.w3.org/1999/xlink" x="0px" y="0px"
	 viewBox="0 0 200 200" style="enable-background:new 0 0 200 200;" xml:space="preserve">
<style type="text/css">
	.st0{fill:#FFFFFF;}
</style>
<g>
	<g>
		<path class="st0" d="M122.1,116.3c0,2.4-1.9,4.3-4.3,4.3h-10.1v10.1c0,2.4-1.9,4.3-4.3,4.3h-5.9c-2.4,0-4.3-1.9-4.3-4.3v-10.1
			H83.2c-2.4,0-4.3-1.9-4.3-4.3v-5.9c0-2.4,1.9-4.3,4.3-4.3h10.1V94.4c0-2.4,1.9-4.3,4.3-4.3h5.9c2.4,0,4.3,1.9,4.3,4.3v11.7h10.1
			c2.4,0,4.3,1.9,4.3,4.3V116.3z"/>
		<path class="st0" d="M159.7,59.7h-120c-3.1,0-5.6,2.5-5.6,5.6v92.8c0,3.1,2.5,5.6,5.6,5.6h120c3.1,0,5.6-2.5,5.6-5.6V65.4
			C165.3,62.3,162.8,59.7,159.7,59.7z M100.3,148.8c-20.1,0-36.4-16.3-36.4-36.4c0-20.1,16.3-36.4,36.4-36.4s36.4,16.3,36.4,36.4
			C136.7,132.5,120.4,148.8,100.3,148.8z"/>
		<path class="st0" d="M100.1,44.9c8.2,0,15.3,4.8,18.6,11.7h13.1c-3.9-13.8-16.6-24-31.7-24c-15.1,0-27.8,10.2-31.7,24h13.1
			C84.9,49.6,92,44.9,100.1,44.9z"/>
	</g>
</g>
</svg>
