<?xml version="1.0" encoding="utf-8"?>
<!-- Generator: Adobe Illustrator 23.0.1, SVG Export Plug-In . SVG Version: 6.00 Build 0)  -->
<svg version="1.1" id="Capa_1" xmlns="http://www.w3.org/2000/svg" xmlns:xlink="http://www.w3.org/1999/xlink" x="0px" y="0px"
	 viewBox="0 0 200 200" style="enable-background:new 0 0 200 200;" xml:space="preserve">
<style type="text/css">
	.st0{fill:#FFFFFF;}
</style>
<g>
	<path class="st0" d="M162.4,138.5h-33.2c-0.4,0.8-0.8,1.7-1.5,2.5c-3,4.2-7.8,6.8-13.1,6.8c-3.2,0-6.3-1.1-8.9-2.8l-19.9-14.2l0,0
		l-7.2-5.3l-0.6-0.4c-0.8-0.6-1.1-1.9-0.6-2.8c0.6-0.8,1.9-1.1,2.8-0.6l9.9,6.6l18.2,12.5c0.8,0.6,1.9,1.1,2.8,1.5
		c1.1,0.4,2.3,0.6,3.6,0.6c3.6,0,7-1.7,9.1-4.9c3.4-5.1,2.1-12.1-3-15.4L71.1,88.6c-1.9-1.3-4-1.9-6.3-1.9H27.3V124h21.7l47.8,33.4
		c1.8,1.2,3.8,1.8,6.1,1.8h58.9c5.5,0,10.5-4.1,10.9-9.6C173.1,143.5,168.4,138.5,162.4,138.5z"/>
	<path class="st0" d="M108,98.1c0,14.5,52.7,14.5,52.7,0c0-12.6-9.1-23.4-21.2-25.7c6.4-2.1,11-8.1,11-15.1
		c0-8.9-7.3-16.2-16.2-16.2c-8.9,0-16.2,7.3-16.2,16.2c0,7.1,4.6,13.1,11,15.1C117,74.6,108,85.2,108,98.1z"/>
</g>
</svg>
