<?xml version="1.0" encoding="utf-8"?>
<!-- Generator: Adobe Illustrator 23.0.1, SVG Export Plug-In . SVG Version: 6.00 Build 0)  -->
<svg version="1.1" id="Capa_1" xmlns="http://www.w3.org/2000/svg" xmlns:xlink="http://www.w3.org/1999/xlink" x="0px" y="0px"
	 viewBox="0 0 200 200" style="enable-background:new 0 0 200 200;" xml:space="preserve">
<style type="text/css">
	.st0{fill:#FFFFFF;}
</style>
<g>
	<g>
		<path class="st0" d="M146.6,113.1c-17.3,0-31.3,14-31.3,31.3s14,31.3,31.3,31.3s31.3-14,31.3-31.3S163.9,113.1,146.6,113.1z
			 M164.8,146.4c-0.5,1.5-2.1,2.5-3.7,2.5h-10.9h-7.4h-9c-1.6,0-3.2-0.9-3.7-2.5c-0.8-2.5,1.1-4.9,3.5-4.9h9.2h7.4h11.1
			C163.8,141.5,165.7,143.9,164.8,146.4z"/>
		<path class="st0" d="M141.6,108.7V74.4l13.7,11.4l4.8-5.7L90.7,22.5L21.4,80.2l4.8,5.7l17.7-14.7V136h33.2V84.4h31.3V136h3.3
			C115,121.8,126.9,110.9,141.6,108.7z"/>
	</g>
</g>
</svg>
