<?xml version="1.0" encoding="utf-8"?>
<!-- Generator: Adobe Illustrator 23.0.1, SVG Export Plug-In . SVG Version: 6.00 Build 0)  -->
<svg version="1.1" id="Capa_1" xmlns="http://www.w3.org/2000/svg" xmlns:xlink="http://www.w3.org/1999/xlink" x="0px" y="0px"
	 viewBox="0 0 200 200" style="enable-background:new 0 0 200 200;" xml:space="preserve">
<style type="text/css">
	.st0{fill:#FFFFFF;}
</style>
<g>
	<g transform="translate(3149.1046,12.572787)">
		<path class="st0" d="M-3008.9,147.9c-6.4-0.9-12.4-3.5-17.6-7.5c-1.9-1.5-5.1-4.8-6.6-6.8c-3.4-4.6-5.7-9.9-6.7-15.7
			c-0.5-3-0.6-8.5-0.1-11.3c1.4-8,4.5-14.3,9.9-19.8c3.1-3.2,6-5.3,10.1-7.3c10-4.9,21.8-4.9,31.8,0c4.1,2,6.9,4.1,10.1,7.3
			c5.4,5.6,8.5,11.9,9.9,19.8c0.5,2.8,0.4,8.3-0.1,11.3c-1.3,7.5-4.6,13.9-9.8,19.3c-5.8,5.9-12.9,9.5-21.1,10.7
			C-3001.4,148.2-3006.6,148.2-3008.9,147.9L-3008.9,147.9z M-2981.9,112v-4.3h-22.2h-22.2v4.3v4.3h22.2h22.2V112z M-3129.1,117.8
			v-10.1h5.9h5.8V87.3V67l-1.3-0.7c-1.3-0.7-6.5-3.4-8.8-4.7l-1.1-0.6l2.9-1.6c1.6-0.9,4-2.1,5.3-2.8c1.3-0.7,3.1-1.7,4.1-2.2
			s2.2-1.2,2.8-1.5c0.5-0.3,1.7-0.9,2.5-1.3c0.8-0.4,2.5-1.3,3.6-1.9c1.1-0.6,3.8-2.1,5.9-3.2s4.2-2.3,4.7-2.5s1.6-0.9,2.5-1.3
			c1.6-0.9,10.6-5.7,12.9-6.9c0.6-0.3,1.6-0.9,2.3-1.3c6.6-3.5,8.5-4.6,10.2-5.5c1.1-0.6,2.5-1.3,3.1-1.6l1.1-0.6l3.5,1.9
			c1.9,1,4.4,2.4,5.6,3c1.1,0.6,2.8,1.5,3.7,2c2.4,1.2,9.7,5.2,13,7c0.5,0.3,2.8,1.5,5,2.7c2.2,1.2,4.1,2.2,4.2,2.3s1.1,0.6,2.2,1.2
			s2.6,1.4,3.2,1.7s2.4,1.3,4,2.1c1.5,0.8,4.1,2.2,5.7,3.1s3.8,2,4.9,2.6c1.1,0.6,2.6,1.4,3.3,1.8c0.7,0.4,2.3,1.2,3.5,1.8l2.1,1.1
			l-1.2,0.6c-0.6,0.3-2.5,1.3-4.2,2.2c-6.2,3.4-9.8,5.3-11.7,6.3c-1.1,0.6-3.4,1.8-5.2,2.8c-1.8,1-3.9,2.1-4.8,2.6
			c-1.7,0.9-3.3,1.7-12.2,6.6c-3.3,1.8-7.3,3.9-8.9,4.8c-1.6,0.8-4.9,2.6-7.4,4c-2.5,1.3-5.1,2.7-5.8,3.1c-0.7,0.3-1.5,0.8-1.8,1
			c-0.3,0.2-0.7,0.4-0.8,0.4c-0.2,0-2.8-1.3-5.8-3c-3-1.6-6.3-3.4-7.2-3.9c-0.9-0.5-3.3-1.7-5.1-2.8c-1.9-1-4.6-2.5-6.1-3.3
			c-1.5-0.8-3.1-1.7-3.7-2c-0.5-0.3-1.7-0.9-2.6-1.4s-3.1-1.7-4.9-2.6s-4-2.1-4.9-2.6s-2.1-1.1-2.8-1.5l-1.4-0.7v28.1V128h-9.9
			h-10.5L-3129.1,117.8z M-3066.7,122.9c-1.1-0.6-2.6-1.4-3.3-1.8c-0.7-0.4-1.4-0.8-1.5-0.9s-1-0.6-2-1.1s-2.3-1.2-2.9-1.6
			c-0.6-0.3-1.3-0.7-1.7-0.9c-0.3-0.1-1.7-0.9-3.1-1.7s-3.2-1.8-4-2.2c-0.8-0.4-1.6-0.8-1.6-0.9c0-0.1-0.5-0.3-1-0.5
			c-0.5-0.2-2.1-1.1-3.5-1.9c-1.4-0.8-3.4-1.9-4.4-2.4c-1-0.5-2.3-1.2-3-1.6c-0.6-0.4-1.7-0.9-2.4-1.3l-1.2-0.6V93.5
			c0-5.6,0-10.2,0.1-10.2c0.1,0,1.4,0.7,2.9,1.6c1.5,0.9,3,1.7,3.2,1.7c0.2,0.1,0.9,0.5,1.7,0.9c0.7,0.4,1.6,0.9,1.9,1
			c0.3,0.1,2.3,1.2,4.3,2.3c2,1.1,4.8,2.7,6.1,3.4s3.1,1.6,3.9,2.1c0.8,0.4,2.8,1.5,4.3,2.4c2.7,1.5,4,2.2,7.4,4l1.6,0.8l0.9-0.5
			c0.5-0.3,1.6-0.9,2.5-1.4s2-1.1,2.5-1.3c1.8-1,7.9-4.3,8.3-4.6c0.2-0.1,1.1-0.6,2.1-1.1c2.8-1.5,4.5-2.4,5.1-2.8
			c0.3-0.2,0.6-0.3,0.6-0.3c0,0-0.4,0.8-0.8,1.8c-2.7,5.8-4.3,13.1-4,19.1l0.1,2l-1.4,0.8c-0.8,0.5-2.3,1.2-3.2,1.7
			c-1,0.5-1.9,1-2,1.1s-0.9,0.5-1.7,1c-2.3,1.2-6.1,3.3-8.1,4.4l-0.8,0.5L-3066.7,122.9L-3066.7,122.9z"/>
	</g>
</g>
</svg>
